<svg xmlns="http://www.w3.org/2000/svg" width="168" height="168" viewBox="0 0 168 168"><defs><style>.a{fill:none;}.b,.c{fill:gray;}.b{fill-rule:evenodd;}</style></defs><g transform="translate(0.5)"><rect class="a" width="168" height="168" transform="translate(-0.5 0)"/><g transform="translate(12 31.2)"><g transform="translate(0 0)"><path class="b" d="M57.529,165.2h1.737a1.99,1.99,0,0,1,1.3,1.62H61v-2.276H55v.613a.481.481,0,0,1,.466.094.51.51,0,0,1,.181.446v5.346a.47.47,0,0,1-.188.446.457.457,0,0,1-.479.031v.349h6.1v-2.345a2.737,2.737,0,0,1-1.609,1.624,2.327,2.327,0,0,1-1.942-.139v-2.659l.858,0a1.689,1.689,0,0,1,.684,1.795h.292v-3.969h-.292a1.691,1.691,0,0,1-.684,1.795l-.858-.007Z" transform="translate(-4.01 -86.805)"/><path class="b" d="M59.766,165.2a1.488,1.488,0,0,1,1-.328v-.327H56.879v.327a1.485,1.485,0,0,1,1,.328v5.976a.449.449,0,0,1-.243.349.473.473,0,0,1-.427,0v.349h6.111v-2.345a2.741,2.741,0,0,1-1.605,1.624,2.334,2.334,0,0,1-1.946-.139Z" transform="translate(0.701 -86.805)"/><path class="b" d="M62.721,168.761a.076.076,0,0,1-.014.077.079.079,0,0,1-.066.035h-1.5a.084.084,0,0,1-.069-.038.081.081,0,0,1-.007-.08l.851-1.805A.088.088,0,0,1,62,166.9a.082.082,0,0,1,.073.056Zm.445-4.22h-.81l-2.838,6.293a.988.988,0,0,0-.618,1.014l2.151.017a.538.538,0,0,0-.479-.648.488.488,0,0,1-.445-.467l.521-1.119,2.383-.007.445,1.23a.6.6,0,0,1-.476.53.4.4,0,0,0-.292.481h3.311a.29.29,0,0,0,0-.3l-.528-.578Z" transform="translate(5.688 -86.805)"/><path class="b" d="M64.888,167.83H63.881v-2.715h1.008a1.435,1.435,0,0,1,0,2.715m7.723.944a.084.084,0,0,1-.01.077.091.091,0,0,1-.07.035h-1.5a.076.076,0,0,1-.069-.038.091.091,0,0,1,0-.08l.851-1.805a.08.08,0,0,1,.076-.049.078.078,0,0,1,.073.056Zm-3.2,2.073,2.839-6.293h.81L75.384,171l.528.578a.29.29,0,0,1,0,.3H72.6a.387.387,0,0,1,.288-.481.611.611,0,0,0,.479-.53l-.445-1.23-2.383.007-.525,1.119a.491.491,0,0,0,.448.467.538.538,0,0,1,.382.216.549.549,0,0,1,.094.432H66.5L64.336,168.9a.25.25,0,0,0-.281-.087.247.247,0,0,0-.174.233V171.1a.619.619,0,0,0,.222.035.56.56,0,0,1,.49.213.571.571,0,0,1,.094.53h-3.5a.425.425,0,0,1,.344-.728.549.549,0,0,0,.393-.112.255.255,0,0,0,.1-.2V165.36a.838.838,0,0,0-.816-.223.483.483,0,0,1-.007-.6h4.694a1.836,1.836,0,0,1,1.89,1.561,2.136,2.136,0,0,1-1.64,2.108l2.651,3.642A.986.986,0,0,1,69.412,170.848Z" transform="translate(11.036 -86.819)"/><path class="b" d="M72.336,159.837a6.145,6.145,0,0,0-5.646-1.756,4.2,4.2,0,0,1,1.4,1.251,3.352,3.352,0,0,1,.618,1.934V173.6a3.36,3.36,0,0,1-.618,1.934,4.192,4.192,0,0,1-1.4,1.248,6.134,6.134,0,0,0,5.646-1.753,3.339,3.339,0,0,0,.935-2.317V162.151a3.322,3.322,0,0,0-.935-2.314" transform="translate(24.976 -103.163)"/><rect class="c" width="4.564" height="18.159" transform="translate(84.554 55.265)"/><path class="b" d="M63.77,158.093H58.791v14.43a2.51,2.51,0,0,0,.886,1.913,8.111,8.111,0,0,0,6.3,1.836,5.142,5.142,0,0,1-1.907-1.972,2.553,2.553,0,0,1-.3-1.2Z" transform="translate(5.432 -102.827)"/><path class="b" d="M61.178,159.837a6.145,6.145,0,0,0-5.646-1.756,4.236,4.236,0,0,1,1.4,1.251,3.327,3.327,0,0,1,.618,1.934V173.6a3.335,3.335,0,0,1-.618,1.934,4.226,4.226,0,0,1-1.4,1.248,6.134,6.134,0,0,0,5.646-1.753,3.324,3.324,0,0,0,.935-2.317V162.151a3.322,3.322,0,0,0-.935-2.314" transform="translate(-2.632 -103.163)"/><path class="b" d="M57.9,161.266a3.371,3.371,0,0,1,.611-1.934,4.259,4.259,0,0,1,1.407-1.251,6.142,6.142,0,0,0-5.646,1.756,3.325,3.325,0,0,0-.938,2.314v10.562a3.327,3.327,0,0,0,.938,2.317,6.132,6.132,0,0,0,5.646,1.753,4.249,4.249,0,0,1-1.407-1.248A3.379,3.379,0,0,1,57.9,173.6Z" transform="translate(-8.068 -103.163)"/><path class="b" d="M45.7,157.737h-5.4v5.311h4.565a.837.837,0,0,0,.83-.836Z" transform="translate(-40.306 -103.711)"/><path class="b" d="M63.838,153.117H58.859v11.649H45.7v-9.242a3.348,3.348,0,0,1,.7-2.052,5.169,5.169,0,0,1,1.442-1.265,8.112,8.112,0,0,0-6.254,1.8c-.031.028-.059.056-.087.084a5.764,5.764,0,0,0-.8,1.136,3.311,3.311,0,0,0-.4,1.582v13.13H63.838Z" transform="translate(-40.306 -117.627)"/><path class="b" d="M82.381,164.067H74.5V157a.834.834,0,0,1,.24-.589.844.844,0,0,1,.591-.244h1.244a.826.826,0,0,1,.83.833v3.83h4.979v-5.914a2.495,2.495,0,0,0-2.488-2.5H71.177a2.495,2.495,0,0,0-2.488,2.5v9.154H55.515V152.418H49.705V178.4a2.5,2.5,0,0,1-.438,1.415,2.964,2.964,0,0,1-1.939,1.241,6.7,6.7,0,0,0,7.64-2.722,3.32,3.32,0,0,0,.545-1.829v-7.262H82.381Z" transform="translate(-22.929 -116.927)"/><path class="b" d="M65.336,145.9a2.481,2.481,0,0,0-.882-1.753,8.088,8.088,0,0,0-6.3-1.84,5.2,5.2,0,0,1,1.9,1.972,2.51,2.51,0,0,1,.3,1.352v48.915h4.979Z" transform="translate(3.866 -142.233)"/><path class="b" d="M68.562,145.616a2.528,2.528,0,0,1,.3-1.338,5.157,5.157,0,0,1,1.9-1.972,8.088,8.088,0,0,0-6.3,1.84,2.5,2.5,0,0,0-.886,1.767v66.6a2.473,2.473,0,0,1-.3,1.2,5.124,5.124,0,0,1-1.9,1.972,8.1,8.1,0,0,0,6.3-1.836,2.5,2.5,0,0,0,.886-1.913Z" transform="translate(11.84 -142.233)"/><path class="b" d="M78.335,154.913a2.495,2.495,0,0,0-2.488-2.5H67.134a2.489,2.489,0,0,0-2.491,2.5v5.914h4.979V157a.832.832,0,0,1,.83-.833H71.7a.82.82,0,0,1,.83.833v7.07H64.643v5.171H78.335Z" transform="translate(19.911 -116.927)"/><path class="b" d="M77.767,156.164v7.9h-2.9v-7.9Zm0,13.075V176.5a3.323,3.323,0,0,0,.549,1.829,6.7,6.7,0,0,0,7.637,2.722,2.949,2.949,0,0,1-1.935-1.241,2.475,2.475,0,0,1-.438-1.415v-9.158h27.534v-5.171h-7.88V157a.82.82,0,0,1,.24-.589.832.832,0,0,1,.591-.244h1.244a.842.842,0,0,1,.587.24.868.868,0,0,1,.243.592v3.83h4.975v-5.914a2.489,2.489,0,0,0-2.488-2.5H99.912a2.495,2.495,0,0,0-2.491,2.5v9.154H83.579V152.418h-11.2a2.489,2.489,0,0,0-2.488,2.5v14.326Z" transform="translate(32.887 -116.927)"/><path class="b" d="M61,164.541H55v.613a.481.481,0,0,1,.466.094.51.51,0,0,1,.181.446v5.346a.47.47,0,0,1-.188.446.457.457,0,0,1-.479.031v.349h6.1v-2.345a2.737,2.737,0,0,1-1.609,1.624,2.327,2.327,0,0,1-1.942-.139v-2.659l.858,0a1.689,1.689,0,0,1,.684,1.795h.292v-3.969h-.292a1.691,1.691,0,0,1-.684,1.795l-.858-.007V165.2h1.737a1.99,1.99,0,0,1,1.3,1.62H61Z" transform="translate(-4.01 -86.805)"/><path class="b" d="M57.876,165.2v5.976a.449.449,0,0,1-.243.349.473.473,0,0,1-.427,0v.349h6.111v-2.345a2.741,2.741,0,0,1-1.605,1.624,2.334,2.334,0,0,1-1.946-.139V165.2a1.488,1.488,0,0,1,1-.328v-.327H56.879v.327a1.485,1.485,0,0,1,1,.328" transform="translate(0.701 -86.805)"/><path class="b" d="M68.492,168.584a1.2,1.2,0,0,1,1.292,1.836,1.219,1.219,0,0,1-1.292.488Zm0-3.115a.635.635,0,0,1,1.084.335,3.066,3.066,0,0,1-.274,1.868.485.485,0,0,1-.372.275.507.507,0,0,1-.438-.153Zm-2.515-.265a.343.343,0,0,1,.267.136.348.348,0,0,1,.066.3V171.1a1.256,1.256,0,0,1-.813.23,2.027,2.027,0,0,0-.115.537H70.34a1.972,1.972,0,0,0,1.636-1.795,1.921,1.921,0,0,0-1.313-2,1.846,1.846,0,0,0,1-2.115,1.79,1.79,0,0,0-1.81-1.411h-4.3a.478.478,0,0,0,.42.662Z" transform="translate(21.74 -86.806)"/></g><g transform="translate(49.658 100.952)"><path class="c" d="M68.549,171.243l-.3-.04-.286.035-.263.1-.225.163-.167.215-.106.253-.035.279.059.354.178.329.243.248.453.363.467.389.3.328.113.217.037.222-.025.192-.077.183-.125.158-.173.123-.206.078-.215.026-.256-.045-.238-.14-.222-.229-.209-.323-.378.227.291.438.316.291.351.162.387.053.251-.023.238-.066.213-.111.193-.158.162-.187.113-.2.071-.22.024-.235-.054-.337-.161-.335-.309-.357-.484-.4-.576-.447-.221-.3-.061-.283.043-.221.129-.184.193-.122.244-.043.2.027.185.081.2.162.233.277.363-.276-.3-.353-.28-.222Z" transform="translate(-24.206 -171.203)"/><path class="c" d="M67.943,171.236H65.389V175.7h2.536v-.438h-2.09V173.51h2.09v-.438h-2.09v-1.4h2.109Z" transform="translate(-27.902 -171.121)"/><path class="c" d="M63.729,171.236h-.072L63.02,175.7h.429l.438-3.22,1.592,3.22H65.6l1.575-3.2.44,3.2h.436l-.639-4.467h-.075L65.539,174.9Z" transform="translate(-33.763 -171.121)"/><path class="c" d="M61.69,171.236h-.446v2.7l.022.575.061.366.082.2.113.182.144.161.174.139.2.113.225.082.5.062.243-.017.222-.05.2-.087.183-.12.291-.3.174-.344.089-.429.025-.54v-2.7H63.75v2.7l-.047.7-.083.219-.116.186-.153.147-.186.112-.208.07-.216.025-.254-.031-.252-.09-.219-.135-.155-.163-.1-.2-.053-.244-.019-.6Z" transform="translate(-38.157 -171.121)"/><path class="c" d="M61.937,171.236H59.7V175.7h.446V173.51h1.786v-.438H60.151v-1.4h1.786Z" transform="translate(-41.967 -171.121)"/><path class="c" d="M58.88,171.236H56.326V175.7h2.536v-.438H56.771V173.51h2.091v-.438H56.771v-1.4H58.88Z" transform="translate(-50.326 -171.121)"/><path class="b" d="M56.659,171.86l.139.157.09.2.031.216-.031.22-.09.2-.142.157-.191.111-.274.063-.393.021-.757-.01v-1.516h.792l.386.021.257.059Zm.66.16-.076-.178-.1-.153-.278-.244-.347-.143-.389-.049-.639-.017H54.6V175.7h.441v-2.08h.32l.7-.014.434-.056.372-.146.278-.244.1-.157.073-.174.063-.408Z" transform="translate(-54.599 -171.122)"/><path class="b" d="M56.326,171.236V175.7h2.536v-.438H56.771V173.51h2.091v-.438H56.771v-1.4H58.88v-.437Z" transform="translate(-50.326 -171.121)"/><path class="b" d="M58.4,171.672h.785l.393.021.261.059.177.1.142.157.09.2.031.216-.031.22-.09.2-.142.164-.191.111-.268.063-.393.021-.764-.007Zm-.445-.436V175.7H58.4V173.63h.254l1.6,2.073h.549l-1.6-2.073.5-.038.379-.108.281-.174.208-.244.125-.3.045-.342-.063-.4-.08-.178-.108-.157-.285-.244-.358-.146-.386-.045-.618-.014Z" transform="translate(-46.285 -171.122)"/><path class="b" d="M59.7,171.236V175.7h.446V173.51h1.786v-.438H60.151v-1.4h1.786v-.437Z" transform="translate(-41.967 -171.121)"/><path class="b" d="M64.193,173.933v-2.7H63.75v2.7l-.047.7-.083.219-.116.186-.153.147-.186.112-.208.07-.216.025-.254-.031-.252-.09-.219-.135-.155-.163-.1-.2-.053-.244-.019-.6v-2.7h-.446v2.7l.022.575.061.366.082.2.113.182.144.161.174.139.2.113.225.082.5.062.243-.017.222-.05.2-.087.183-.12.291-.3.174-.344.089-.429Z" transform="translate(-38.157 -171.121)"/><path class="b" d="M63.657,171.236,63.02,175.7h.429l.438-3.22,1.592,3.22H65.6l1.575-3.2.44,3.2h.436l-.639-4.467h-.075L65.539,174.9l-1.81-3.665Z" transform="translate(-33.763 -171.121)"/><path class="b" d="M65.389,171.236V175.7h2.536v-.438h-2.09V173.51h2.09v-.438h-2.09v-1.4h2.109v-.437Z" transform="translate(-27.902 -171.121)"/><path class="b" d="M67.471,171.506l-.167.215-.106.253-.035.279.059.354.178.329.243.248.453.363.467.389.3.328.113.217.037.222-.025.192-.077.183-.125.158-.173.123-.206.078-.215.026-.256-.045-.238-.14-.222-.229-.209-.323-.378.227.291.438.316.291.351.162.387.053.251-.023.238-.066.213-.111.193-.158.162-.187.113-.2.071-.22.024-.235-.054-.337-.161-.335-.309-.357-.484-.4-.576-.447-.221-.3-.061-.283.043-.221.129-.184.193-.122.244-.043.2.027.185.081.2.162.233.277.363-.276-.3-.353-.28-.222-.286-.119-.3-.04-.286.035-.263.1Z" transform="translate(-24.206 -171.203)"/></g></g></g></svg>