<svg xmlns="http://www.w3.org/2000/svg" width="168" height="168" viewBox="0 0 168 168"><defs><style>.a{fill:none;}.b{fill:gray;}</style></defs><g transform="translate(0.1)"><rect class="a" width="168" height="168" transform="translate(-0.1 0)"/><g transform="translate(28 16)"><path class="b" d="M310.738,167.51l-.223-.622c-2.632,3.13-7.268,5.55-10.968,7.763-.137.9-.571,3.855-.872,5.709,3.165-2.005,6.482-3.748,8.966-6.7a23.186,23.186,0,0,0,2.848-4.633c.172-.351,1.217-2.659.25-1.515" transform="translate(-298.674 -44.203)"/><g transform="translate(2.523 0)"><path class="b" d="M331.894,228.159c-3.877,3.03-7.819,6.164-11.45,9.13-1.756,1.435-5.206,4.31-6.943,5.769a27.126,27.126,0,0,0-4.776,4.621,11.558,11.558,0,0,0-2.085,5.542,32.073,32.073,0,0,0,.121,8.416c.18,1.2-.2-1.686.4-4.449a9.39,9.39,0,0,1,.954-2.4,13.294,13.294,0,0,1,2.551-3.154c1.209-1.152,2.535-2.189,3.814-3.257,3.732-3.118,9.212-7.6,13.018-10.625,3.016-2.4,6.439-5.079,9.513-7.451V138.86l-5.12,4.091Z" transform="translate(-278.643 -127.92)"/><path class="b" d="M318.246,229.222c.137-.415.251-.841.368-1.264a39.762,39.762,0,0,0,4.819-3.552c.023-.02.039-.048.063-.068h0c.149.032.289.112.442.136,4.158.678,7.4-2.073,9.889-5.163a12.248,12.248,0,0,0,3.943-7.575,81.372,81.372,0,0,0,.078-9.11V144.819l.094-.259-.094.076v-.076l-2.316,1.854-4.936,3.792s1.7-.052,2.132,3.273v48.074c0,3.851.106,7.707.035,11.554a13.246,13.246,0,0,1-1.42,5.857,7.942,7.942,0,0,1-3.051.566c-.039,0-.082-.016-.121-.02a15.924,15.924,0,0,0,1.846-3.62c.442-1.308.743-3.209-.422-4.23a5.017,5.017,0,0,0-2.089-.845,12.541,12.541,0,0,0-2.852-.387,9.389,9.389,0,0,0-2.214.147,4.066,4.066,0,0,0-2.269,1.671,21.047,21.047,0,0,0-2.895,4.421,4.339,4.339,0,0,0-.376,2.707,5.908,5.908,0,0,0,2.3,2.99,12.945,12.945,0,0,0,1.572.933,19.867,19.867,0,0,1-2.312,1.1,7.437,7.437,0,0,0-.81-2.105c-1.13-1.9-2.977-3.481-5.273-3.305-2.03.152-3.145,1.973-4.233,3.536-1.044,1.5-2.425,3.257-2.042,5.219.649,3.377,4.784,3.4,7.342,2.619.395-.12.771-.307,1.158-.451a8.269,8.269,0,0,1-.192,4.577,2.461,2.461,0,0,1-.461.777c-.055.068-.11.132-.176.2a15.141,15.141,0,0,1-9.455,4.29l-3.528,6.826a17.292,17.292,0,0,0,11.152-6.387,43.547,43.547,0,0,0,5.531-8.978c.254-.55.454-1.12.653-1.694.02-.052.059-.1.078-.156S318.23,229.27,318.246,229.222Z" transform="translate(-295.018 -110.895)"/><path class="b" d="M326.809,154.181A5.949,5.949,0,0,0,324,155.3a15.969,15.969,0,0,0-2.926,2.36c-.16.163-.07.793-.063.925a19.156,19.156,0,0,0,.262,2.161c.117.714.247,1.427.434,2.129.023.08.293.913.356.849a15.28,15.28,0,0,1,3.943-2.93,4.248,4.248,0,0,1,1.8-.546,2.044,2.044,0,0,1,.872.16,1.62,1.62,0,0,1,.634.538c.458.51.454,1.391.458.538a16.468,16.468,0,0,0-.982-5.932A2.051,2.051,0,0,0,326.809,154.181Z" transform="translate(-236.261 -82.158)"/><path class="b" d="M350.6,194.9h0a3.6,3.6,0,0,1-2.949.75,7.424,7.424,0,0,1-2.077-1.2c-1.866-1.216-4.041-2.823-6.286-2.352-4.7.977-4.776,8.5-4.929,12.662-.012.363,0,.73-.008,1.092q-2.2,1.489-4.4,2.97c-1.881,1.268-4.3,2.364-4.765,4.836a20.719,20.719,0,0,0-.2,4.234,10.072,10.072,0,0,0,.462,3.417,2.87,2.87,0,0,0,.172.3l-.023.02c-1.8,1.431-3.606,2.867-5.394,4.286V136.116l-5.117,4.091v95.929c5.152-4.071,10.773-8.568,16.077-12.774,1.745-1.387,2.762-.718,2.762-.738v-2.269c0-2.041,0-4.39,0-5.335l-.481.383-.023.016a18.23,18.23,0,0,1-3.54,1.97,3.487,3.487,0,0,1-2.93-.395c.254-.179.516-.347.771-.522.908-.61,1.811-1.216,2.722-1.83l3.974-2.683c.082,1.655.184,3.305.419,4.944.18,1.224.246-.056.2-1.435-.035-.869-.082-2.4-.125-3.835l13.214-8.911,4.326-2.914v-6.148Q351.515,194.281,350.6,194.9Zm-15.6,10.522c.039-.383.086-.766.149-1.148a13.067,13.067,0,0,1,.818-2.974,4.53,4.53,0,0,1,4.506-3.038,7.519,7.519,0,0,1,3.27,1.264q-2.37,1.6-4.745,3.2Q336.988,204.075,334.992,205.424Z" transform="translate(-253.424 -136.116)"/><path class="b" d="M309.263,171.929a16.573,16.573,0,0,0-2.018-2.883c-.825-1.041-3.173-3.744-4.064-4.729l-3.861,4.693a74.079,74.079,0,0,1,5.785,7.033,4.363,4.363,0,0,1,.786,2.209,4.867,4.867,0,0,1-.3,1.786c-.078.239-.192.463-.293.694l-.019.052c-.129.183-1.256,1.858-.348,1.116a16.058,16.058,0,0,0,2.652-3.221C308.9,176.8,310.393,174.261,309.263,171.929Z" transform="translate(-299.319 -51.879)"/><path class="b" d="M312.569,152.252v71.115l5.121-4.13V141.671l-7.35,5.645S312.569,147.245,312.569,152.252Z" transform="translate(-267.232 -119.524)"/></g><g transform="translate(40.783 123.323)"><path class="b" d="M309.307,167.449c.825.076.927.151.927,1.049v3.524a12.784,12.784,0,0,1-.113,2.045,1.684,1.684,0,0,1-1.021,1.352l.168.375a3.539,3.539,0,0,0,1.189-.642,3.423,3.423,0,0,0,1.044-2.978V168.5c0-.9.09-.961.853-1.049v-.363h-3.047Z" transform="translate(-309.1 -166.935)"/><path class="b" d="M315.8,172.65c-.677-1.81-1.393-3.752-2.058-5.6l-.446.084-2.175,5.558c-.364.921-.532,1.009-1.189,1.1v.359h2.531v-.359c-.841-.088-1.056-.171-.833-.853.121-.367.274-.781.4-1.164h2.124c.176.514.364,1.017.477,1.372.149.439.113.554-.551.646v.359h2.883v-.359C316.264,173.7,316.17,173.618,315.8,172.65Zm-3.595-1.387c.282-.8.6-1.607.911-2.428l.861,2.428Z" transform="translate(-306.669 -167.048)"/><path class="b" d="M319.717,172.488l-.066-4.043c-.02-.817.082-.905.939-1v-.363h-2.077l-2.194,4.96-2.124-4.96h-2.112v.363c.911.084.994.335.958.861-.254,3.66-.282,4.19-.333,4.561-.082.622-.352.746-.951.8v.359h2.558v-.359c-.759-.076-.986-.2-1-.789,0-.319,0-1.044.156-4.537.767,1.894,1.666,4.214,2.234,5.685h.321c.618-1.507,1.643-3.9,2.437-5.781v4.238c0,1.025-.043,1.1-.86,1.184v.359h3.051v-.359C319.78,173.561,319.737,173.513,319.717,172.488Z" transform="translate(-301.364 -166.935)"/><path class="b" d="M319.976,172.65c-.677-1.81-1.392-3.752-2.057-5.6l-.446.084-2.179,5.558c-.36.921-.528,1.009-1.189,1.1v.359h2.531v-.359c-.837-.088-1.052-.171-.829-.853.121-.367.27-.781.407-1.164h2.12c.18.514.364,1.017.477,1.372.149.439.117.554-.552.646v.359h2.883v-.359C320.438,173.7,320.344,173.618,319.976,172.65Zm-3.595-1.387c.282-.8.6-1.607.911-2.428l.861,2.428Z" transform="translate(-294.527 -167.048)"/><path class="b" d="M320.525,173.182a1.031,1.031,0,0,1-.986.391c-.047,0-.622,0-.642-.012-.583-.012-.626-.239-.626-.845v-4.222c0-.905.109-.969.931-1.044v-.363h-3.11v.363c.806.068.911.143.911,1.044v4.134c0,.9-.086.969-1.017,1.045v.359h5.089c.094-.3.4-1.427.473-1.842l-.376-.112A4.038,4.038,0,0,1,320.525,173.182Z" transform="translate(-289.047 -166.935)"/><path class="b" d="M323.847,172.65c-.673-1.81-1.389-3.752-2.058-5.6l-.446.084-2.179,5.558c-.356.921-.524,1.009-1.185,1.1v.359h2.535v-.359c-.845-.088-1.056-.171-.833-.853.121-.367.27-.781.4-1.164h2.12c.18.514.36,1.017.477,1.372.149.439.118.554-.547.646v.359h2.879v-.359C324.308,173.7,324.214,173.618,323.847,172.65Zm-3.595-1.387c.281-.8.6-1.607.911-2.428l.857,2.428Z" transform="translate(-283.247 -167.048)"/><path class="b" d="M324.4,173.182a1.023,1.023,0,0,1-.982.391c-.047,0-.626,0-.642-.012-.587-.012-.63-.239-.63-.845v-4.222c0-.905.105-.969.931-1.044v-.363H319.97v.363c.806.068.907.143.907,1.044v4.134c0,.9-.082.969-1.017,1.045v.359h5.085c.1-.3.4-1.427.477-1.842l-.376-.112A3.94,3.94,0,0,1,324.4,173.182Z" transform="translate(-277.77 -166.935)"/><path class="b" d="M325.073,167.048a3.535,3.535,0,0,0-3.626,3.652,3.554,3.554,0,1,0,7.1-.108A3.434,3.434,0,0,0,325.073,167.048Zm.106,6.81c-1.439,0-2.277-1.519-2.277-3.389,0-1.93.888-2.974,2-2.974,1.271,0,2.214,1.232,2.214,3.4C327.111,172.881,326.266,173.858,325.179,173.858Z" transform="translate(-273.149 -167.048)"/><path class="b" d="M328.209,167.449c.751.04,1.025.175,1.06.662.023.311.055.7.055,1.523v1.252c0,1.662-.52,2.6-1.85,2.6-1.169,0-1.8-.813-1.8-2.137v-2.787c0-.973.09-1.053.9-1.116v-.363h-3.075v.363c.814.076.907.143.907,1.116v2.715a2.681,2.681,0,0,0,.911,2.376,2.9,2.9,0,0,0,1.823.534,2.639,2.639,0,0,0,1.952-.718,3.551,3.551,0,0,0,.743-2.524v-1.316c0-.829.02-1.22.047-1.515.035-.423.235-.614.9-.67v-.363h-2.57Z" transform="translate(-267.186 -166.935)"/><path class="b" d="M331.635,168.015a4.152,4.152,0,0,0-3.02-.929H325.5v.363c.79.068.907.139.907,1.044v4.134c0,.885-.074.973-.907,1.045v.359h2.734a4.775,4.775,0,0,0,3.012-.877,3.432,3.432,0,0,0,1.314-2.823A3.1,3.1,0,0,0,331.635,168.015Zm-2.942,5.554c-.778,0-1.013-.247-1.013-1.021v-4.29c0-.351.027-.506.121-.594a1.1,1.1,0,0,1,.7-.147,2.459,2.459,0,0,1,1.725.538,3.038,3.038,0,0,1,.919,2.432C331.142,172.452,330.269,173.569,328.693,173.569Z" transform="translate(-261.345 -166.935)"/></g></g></g></svg>