<svg xmlns="http://www.w3.org/2000/svg" width="24" height="24" viewBox="0 0 24 24"><defs><style>.a{fill:none;}.b{fill:#fff;}.c{fill:#ab1f0d;stroke:#fff;}.d{stroke:none;}</style></defs><rect class="a" width="24" height="24"/><g transform="translate(3.6 1.2)"><path class="b" d="M702.392,326.138a2.964,2.964,0,0,0-3.151,2.742v2.057h-3.146a.7.7,0,0,0-.7.613L694,344.576a.678.678,0,0,0,.177.532.7.7,0,0,0,.522.226h15.394a.7.7,0,0,0,.523-.226.677.677,0,0,0,.177-.532l-1.4-13.026a.7.7,0,0,0-.7-.613h-3.149V328.88A2.964,2.964,0,0,0,702.392,326.138Zm-1.749,2.742a1.8,1.8,0,0,1,3.5,0v2.057h-3.5Zm7.412,3.427,1.252,11.655H695.471l1.252-11.655h2.517v1.372a.7.7,0,0,0,1.4,0h0v-1.371h3.5v1.372a.7.7,0,0,0,1.4,0v-1.372Z" transform="translate(-693.992 -326.134)"/></g><g transform="translate(5 5)"><g class="c" transform="translate(3 11)"><circle class="d" cx="4" cy="4" r="4"/><circle class="a" cx="4" cy="4" r="3.5"/></g><g transform="translate(4.778 12.778)"><path class="b" d="M26.222,976.362a.342.342,0,0,0-.342.342v1.538H24.342a.342.342,0,1,0,0,.684H25.88v1.539a.342.342,0,0,0,.684,0v-1.539H28.1a.342.342,0,1,0,0-.684H26.564V976.7A.342.342,0,0,0,26.222,976.362Z" transform="translate(-24 -976.362)"/></g></g></svg>