<svg xmlns="http://www.w3.org/2000/svg" width="14" height="14" viewBox="0 0 14 14"><defs><style>.a{fill:none;}.b{fill:#a3a3a3;}</style></defs><g transform="translate(-922 -168)"><rect class="a" width="14" height="14" transform="translate(922 168)"/><g transform="translate(919 164.998)"><path class="b" d="M15.5,7.9,10.335,3.133a.494.494,0,0,0-.67,0L4.5,7.916A1.533,1.533,0,0,0,4,9.023V14.78a1.482,1.482,0,0,0,.46,1.026,1.437,1.437,0,0,0,1.04.4h3a.5.5,0,0,0,.5-.508V13.155h2v2.539a.5.5,0,0,0,.5.508h3a1.437,1.437,0,0,0,1.04-.4A1.482,1.482,0,0,0,16,14.78V9.048A1.534,1.534,0,0,0,15.5,7.9ZM15,14.78a.457.457,0,0,1-.5.406H12V12.648a.5.5,0,0,0-.5-.508h-3a.5.5,0,0,0-.5.508v2.539H5.5A.457.457,0,0,1,5,14.78V9.023a.475.475,0,0,1,.155-.355L10,4.194l4.83,4.458a.511.511,0,0,1,.17.4Z" transform="translate(0)"/></g></g></svg>