<svg xmlns="http://www.w3.org/2000/svg" width="60" height="19" viewBox="0 0 60 19"><defs><style>.a{fill:#273c5e;}.b{fill:#faa61a;}</style></defs><path class="a" d="M438.367,129.119h-4.86l3.04-18.393h4.86Z" transform="translate(-412.367 -110.393)"/><path class="a" d="M579.759,105.831a12.209,12.209,0,0,0-4.359-.783c-4.8,0-8.18,2.5-8.2,6.085-.04,2.642,2.42,4.109,4.26,4.99,1.88.9,2.52,1.488,2.52,2.29-.019,1.232-1.52,1.8-2.919,1.8a9.851,9.851,0,0,1-4.56-.978l-.64-.294-.68,4.129a15.078,15.078,0,0,0,5.421.979c5.1,0,8.42-2.466,8.459-6.281.019-2.094-1.279-3.7-4.08-5.009-1.7-.842-2.741-1.409-2.741-2.27.02-.783.88-1.585,2.8-1.585a8.413,8.413,0,0,1,3.621.7l.44.2.661-3.972Z" transform="translate(-536.139 -105.048)"/><path class="a" d="M798.042,122.6c.4-1.057,1.94-5.146,1.94-5.146-.02.039.4-1.076.639-1.761l.34,1.585s.92,4.4,1.12,5.322Zm6-11.877h-3.76a2.4,2.4,0,0,0-2.54,1.526l-7.22,16.866h5.1l1.02-2.759h6.24c.14.646.58,2.759.58,2.759h4.5l-3.921-18.392Z" transform="translate(-747.962 -110.393)"/><path class="a" d="M177.836,110.727l-4.76,12.542-.52-2.544a14.163,14.163,0,0,0-6.72-7.709L170.2,129.1h5.14l7.64-18.373Z" transform="translate(-160.756 -110.393)"/><path class="b" d="M89.066,110.727h-7.82l-.08.372c6.1,1.526,10.14,5.205,11.8,9.627l-1.7-8.453a2.007,2.007,0,0,0-2.2-1.546Z" transform="translate(-81.166 -110.393)"/></svg>