<svg xmlns="http://www.w3.org/2000/svg" width="20" height="20" viewBox="0 0 20 20"><defs><style>.a{fill:#ab1f0d;}.b{fill:#fff;}</style></defs><circle class="a" cx="10" cy="10" r="10"/><g transform="translate(4 7)"><path class="b" d="M5.228,52.9H2.576a.082.082,0,0,0-.076.076v.455a.082.082,0,0,0,.076.076H5.228a.082.082,0,0,0,.076-.076v-.455A.082.082,0,0,0,5.228,52.9Z" transform="translate(-2.5 -49.515)"/><path class="b" d="M10.558,43.3H8.676a.082.082,0,0,0-.076.076v.455a.082.082,0,0,0,.076.076h1.882a.082.082,0,0,0,.076-.076v-.455A.073.073,0,0,0,10.558,43.3Z" transform="translate(-7.829 -41.127)"/><path class="b" d="M15.8,33.6H14.676a.082.082,0,0,0-.076.076v.455a.082.082,0,0,0,.076.076H15.8a.082.082,0,0,0,.076-.076v-.455A.082.082,0,0,0,15.8,33.6Z" transform="translate(-13.072 -32.653)"/><path class="b" d="M38.5,29.031l-.556-1.68a.4.4,0,0,0-.366-.265H35.86v-.808A.17.17,0,0,0,35.7,26.1H30.264a.17.17,0,0,0-.164.177v4.6a.167.167,0,0,0,.164.164H31.1a1.086,1.086,0,1,0,2.173,0h2.16a1.086,1.086,0,1,0,2.173,0h.821a.194.194,0,0,0,.189-.189V29.763A2.4,2.4,0,0,0,38.5,29.031Zm-6.316,2.526a.518.518,0,1,1,.518-.518A.512.512,0,0,1,32.184,31.557Zm4.345,0a.518.518,0,0,1,0-1.036.518.518,0,0,1,0,1.036Zm1.187-2.741H36.024a.146.146,0,0,1-.152-.152v-.846a.146.146,0,0,1,.152-.152h1.3a.164.164,0,0,1,.152.1l.316.947A.081.081,0,0,1,37.717,28.816Z" transform="translate(-26.614 -26.1)"/></g></svg>