<svg xmlns="http://www.w3.org/2000/svg" width="32" height="32" viewBox="0 0 32 32"><defs><style>.a{fill:none;}.b{fill:#3b3b3b;}</style></defs><g transform="translate(-7292 -2211)"><rect class="a" width="32" height="32" transform="translate(7292 2211)"/><g transform="translate(7296 2215)"><path class="b" d="M36.208,51.531c.163-.355-.531-1.064-.735-1.3a5.089,5.089,0,0,0-1.716-1.182c-.94-.433-2.451-1.1-3.268-.079-1.1,1.34,1.307,1.418,2.043,1.458a6.871,6.871,0,0,1,1.8.315C34.9,50.9,36.167,51.531,36.208,51.531Z" transform="translate(-26.272 -37.07)"/><path class="b" d="M30.061,58.408a.779.779,0,0,0,.368,1.1c.531.236.98-.118,1.43-.355a7.689,7.689,0,0,1,1.716-.867,12.317,12.317,0,0,1,2.247-.2C34.637,56.6,30.919,56.714,30.061,58.408Z" transform="translate(-26.131 -42.293)"/><path class="b" d="M39.246,40.763c-.449-.788-2.206-3.192-3.35-2.4-1.389.946.572,1.97,1.226,2.443a10.8,10.8,0,0,1,3.187,3.428C40.594,44.309,39.409,41.117,39.246,40.763Z" transform="translate(-29.351 -30.873)"/><path class="b" d="M43.3,29.608a22.422,22.422,0,0,0-4.984-6.344,21.062,21.062,0,0,0-3.8-2.679c-.572-.315-1.879-.985-1.92-.985s-1.348.67-1.92.985a22.6,22.6,0,0,0-3.8,2.679,22.189,22.189,0,0,0-5.025,6.383c-2.329,4.334-1.8,12.963,4.371,13.87a4.981,4.981,0,0,0,3.8-.749,3.325,3.325,0,0,0,1.348-3.31c-.695-2.4-4.371-3.467-5.352-.709a1.479,1.479,0,0,0,.327,1.655c.163.158,1.43.591,1.1.079-.368-.512-.531-.906-.082-1.458a1.512,1.512,0,0,1,2.043-.236,1.836,1.836,0,0,1,.041,2.916,3.205,3.205,0,0,1-3.473.552c-2.778-1.064-3.759-3.783-3.922-6.462a12.139,12.139,0,0,1,2.574-8.156,25.411,25.411,0,0,1,7.231-6.147,2.5,2.5,0,0,1,.735-.355,2.5,2.5,0,0,1,.735.355,17.756,17.756,0,0,1,2.492,1.615,24.181,24.181,0,0,1,4.739,4.531,12.357,12.357,0,0,1,2.574,8.156c-.2,2.679-1.144,5.4-3.922,6.462a3.364,3.364,0,0,1-3.473-.552,1.835,1.835,0,0,1,.041-2.916,1.522,1.522,0,0,1,2.043.236c.449.552.245.946-.082,1.458s.94.079,1.1-.079a1.479,1.479,0,0,0,.327-1.655c-.98-2.758-4.657-1.694-5.352.709a3.4,3.4,0,0,0,1.348,3.31,5.12,5.12,0,0,0,3.8.749C45.1,42.611,45.631,33.982,43.3,29.608Z" transform="translate(-20.579 -19.6)"/><path class="b" d="M57.515,48.934A5.724,5.724,0,0,0,55.8,50.116c-.2.236-.9.985-.735,1.3.041,0,1.307-.63,1.879-.827a6.871,6.871,0,0,1,1.8-.315c.735-.039,3.146-.118,2.043-1.458C60.008,47.831,58.455,48.5,57.515,48.934Z" transform="translate(-40.961 -36.995)"/><path class="b" d="M55.8,58.093a11.84,11.84,0,0,1,2.247.2,9.963,9.963,0,0,1,1.716.867c.449.276.9.591,1.43.355a.788.788,0,0,0,.368-1.1C60.662,56.714,56.944,56.6,55.8,58.093Z" transform="translate(-41.411 -42.293)"/><path class="b" d="M48.063,29.1c-2.084.2-1.144,2.719-1.021,3.586a30.921,30.921,0,0,0,1.021,5.2,41.991,41.991,0,0,0,1.021-5.2C49.206,31.779,50.146,29.336,48.063,29.1Z" transform="translate(-36.043 -25.357)"/><path class="b" d="M56.946,38.359c-1.144-.788-2.9,1.615-3.35,2.4-.2.315-1.348,3.546-1.062,3.467A10.8,10.8,0,0,1,55.721,40.8C56.415,40.369,58.335,39.344,56.946,38.359Z" transform="translate(-39.452 -30.873)"/><ellipse class="b" cx="1.144" cy="1.103" rx="1.144" ry="1.103" transform="translate(10.876 15.209)"/></g></g></svg>