<svg xmlns="http://www.w3.org/2000/svg" width="455" height="459" viewBox="0 0 455 459"><defs><style>.a{fill:#ab1f0d;}.b{fill:#fff;}</style></defs><g transform="translate(-911 -5033)"><rect class="a" width="455" height="459" transform="translate(911 5033)"/><g transform="translate(558 5048)"><path class="b" d="M761.671,196.707v12.57h-1.047a14.914,14.914,0,0,0-1.863-5.765,8.508,8.508,0,0,0-1.629-1.934,11.373,11.373,0,0,0-2.147-1.463,11.545,11.545,0,0,0-2.47-.931,10.061,10.061,0,0,0-2.613-.338,7.674,7.674,0,0,0-2.7.471,7.2,7.2,0,0,0-2.186,1.233,5.991,5.991,0,0,0-1.435,1.789,4.444,4.444,0,0,0-.53,2.079,4.572,4.572,0,0,0,.75,2.623,8.186,8.186,0,0,0,2.043,2.043,22.332,22.332,0,0,0,3.065,1.825c1.177.592,2.444,1.221,3.815,1.9,1.539.773,3,1.523,4.4,2.26a20.881,20.881,0,0,1,3.673,2.417,10.72,10.72,0,0,1,2.536,3.034,8.249,8.249,0,0,1,.944,4.085,8.752,8.752,0,0,1-.906,3.868,10.075,10.075,0,0,1-2.535,3.227,12.448,12.448,0,0,1-3.866,2.188,14.363,14.363,0,0,1-4.928.822c-.673,0-1.254-.012-1.733-.036a12.1,12.1,0,0,1-1.358-.109,12.338,12.338,0,0,1-1.371-.3c-.466-.133-1.021-.314-1.682-.544-.453-.169-.918-.314-1.4-.447s-.918-.242-1.319-.326-.75-.157-1.009-.218c-.3-.048-.465-.085-.543-.085a1.59,1.59,0,0,0-1.125.4,3.123,3.123,0,0,0-.621,1.668h-1.06V222.234h1.06a24.483,24.483,0,0,0,.867,3.433,11.951,11.951,0,0,0,1.151,2.454,8.151,8.151,0,0,0,1.617,1.789,11.6,11.6,0,0,0,2.251,1.438,12.426,12.426,0,0,0,2.69.931,12.7,12.7,0,0,0,2.962.338,10.45,10.45,0,0,0,3.246-.483,7.379,7.379,0,0,0,2.418-1.305,5.266,5.266,0,0,0,1.539-1.9,5.143,5.143,0,0,0,.531-2.26,5.285,5.285,0,0,0-.763-2.937,8.311,8.311,0,0,0-2.082-2.139,22.741,22.741,0,0,0-3.039-1.789c-1.151-.568-2.367-1.221-3.634-1.934-1.461-.81-2.845-1.559-4.19-2.284a21.04,21.04,0,0,1-3.57-2.393,10.587,10.587,0,0,1-2.483-2.949,8.7,8.7,0,0,1-.064-7.651,9.957,9.957,0,0,1,2.38-3.058,11.519,11.519,0,0,1,3.595-2.067,13.087,13.087,0,0,1,4.54-.762,17.615,17.615,0,0,1,6.544,1.414,6.573,6.573,0,0,0,2.264.665,1.8,1.8,0,0,0,1.228-.411,3.283,3.283,0,0,0,.75-1.668Zm-28.776.822v8.509h-.646a10.73,10.73,0,0,0-.763-2.889,4.978,4.978,0,0,0-3.492-2.986,11.322,11.322,0,0,0-2.884-.326h-5.5v27.751c0,2.224.259,3.626.776,4.182a4.423,4.423,0,0,0,3.35,1.124h1.345v.991H708.568v-.991h1.384a4.111,4.111,0,0,0,3.5-1.39c.414-.568.634-1.861.634-3.916V199.837h-4.669a17.763,17.763,0,0,0-3.091.23,5.708,5.708,0,0,0-2.237.906,5.205,5.205,0,0,0-1.487,1.9,11.893,11.893,0,0,0-.854,3.167H700.64v-8.509Zm-57.629,1.97v14.334h8.562a11.691,11.691,0,0,0,3.039-.314,3.871,3.871,0,0,0,1.823-.955,3.5,3.5,0,0,0,.918-1.644,12.59,12.59,0,0,0,.336-2.357h1.074v12.63h-1.074c-.129-.882-.258-1.608-.388-2.164a5.949,5.949,0,0,0-.4-1.221,3.126,3.126,0,0,0-.672-.834,3.524,3.524,0,0,0-1.034-.629,6,6,0,0,0-1.513-.4,15.218,15.218,0,0,0-2.108-.133h-8.562v12a10.721,10.721,0,0,0,.233,2.961,1.948,1.948,0,0,0,.285.459,1.49,1.49,0,0,0,.491.351,2.913,2.913,0,0,0,.867.23,8.2,8.2,0,0,0,1.332.085h6.6c1.138,0,2.082-.024,2.845-.1a11.532,11.532,0,0,0,1.966-.314,5.439,5.439,0,0,0,1.513-.653,11.807,11.807,0,0,0,1.345-1.064,13.873,13.873,0,0,0,1.823-2.055,28.558,28.558,0,0,0,1.823-2.961h1.151l-3.35,9.126h-30.03v-.991h1.384a6.618,6.618,0,0,0,1.151-.109,4.572,4.572,0,0,0,1.138-.351,4.415,4.415,0,0,0,.97-.6,2.065,2.065,0,0,0,.6-.846,11.6,11.6,0,0,0,.336-3.5V203.85c0-2.284-.246-3.711-.737-4.266a4.67,4.67,0,0,0-3.453-1.076h-1.384v-.979h30.03v7.965h-.711a22.224,22.224,0,0,0-.621-2.393,6.536,6.536,0,0,0-.737-1.559,3.3,3.3,0,0,0-.905-.979,5.5,5.5,0,0,0-1.242-.653,13.973,13.973,0,0,0-4.035-.411Zm-39.432,15.688c.375,0,.685,0,.957.012s.479.012.66.012a17.972,17.972,0,0,0,4.9-.6,10.906,10.906,0,0,0,3.544-1.68A7.059,7.059,0,0,0,648,210.4a7.316,7.316,0,0,0,.7-3.179,7.813,7.813,0,0,0-.608-3.094,6.889,6.889,0,0,0-1.707-2.429,7.855,7.855,0,0,0-2.638-1.583,9.92,9.92,0,0,0-3.389-.556,17.514,17.514,0,0,0-1.953.121c-.763.085-1.617.205-2.573.387Zm27.676,18.7h-10.4l-13.2-17.03c-.479.024-.932.036-1.333.049s-.75.012-1.047.012c-.246,0-.517,0-.8-.012s-.582-.024-.892-.049v10.576c0,2.309.258,3.723.8,4.279a4.22,4.22,0,0,0,3.259,1.185h1.526v.991H624.788v-.991h1.462a4.117,4.117,0,0,0,3.53-1.5c.4-.568.595-1.873.595-3.952V203.959c0-2.284-.259-3.711-.8-4.267a4.394,4.394,0,0,0-3.323-1.184h-1.462v-.979h14.187a35.331,35.331,0,0,1,9.131.858,10.094,10.094,0,0,1,4.979,3.106,8.874,8.874,0,0,1,1.526,2.453,7.674,7.674,0,0,1,.556,2.925,8.63,8.63,0,0,1-.582,3.142,7.7,7.7,0,0,1-1.772,2.671,10.978,10.978,0,0,1-3,2.079,17.46,17.46,0,0,1-4.268,1.4l8.044,10.443a19.647,19.647,0,0,0,4.746,4.786,12.821,12.821,0,0,0,5.173,1.5Zm-43.558-37.178.892,12.352h-.892a20.4,20.4,0,0,0-2.147-4.75,13.1,13.1,0,0,0-2.923-3.239,11.051,11.051,0,0,0-3.621-1.861,15.186,15.186,0,0,0-4.306-.58,13.283,13.283,0,0,0-6.906,1.777,12.353,12.353,0,0,0-4.811,5.487,19.729,19.729,0,0,0-1.487,4.617,30.337,30.337,0,0,0-.518,5.8,20.235,20.235,0,0,0,1.694,8.557,12.247,12.247,0,0,0,5.148,5.572,14,14,0,0,0,3.621,1.414,16.937,16.937,0,0,0,4.087.483,16.312,16.312,0,0,0,4.177-.459,10.881,10.881,0,0,0,3.182-1.39,15.054,15.054,0,0,0,2.755-2.345c.905-.955,1.875-2.067,2.949-3.324l.88.532a24.174,24.174,0,0,1-3.143,4.182,16.642,16.642,0,0,1-3.673,2.913,15.531,15.531,0,0,1-4.281,1.7,21.1,21.1,0,0,1-4.992.556q-9.68,0-14.963-6.7a18.353,18.353,0,0,1-3.958-11.748,20.946,20.946,0,0,1,.944-6.285,18.319,18.319,0,0,1,2.922-5.62,18.811,18.811,0,0,1,3.143-3.239,17.991,17.991,0,0,1,3.815-2.417,20.068,20.068,0,0,1,4.32-1.487,21.235,21.235,0,0,1,4.643-.508,19.47,19.47,0,0,1,8.329,1.922,4.409,4.409,0,0,0,1.733.6,1.9,1.9,0,0,0,1.513-.725,4.08,4.08,0,0,0,.879-1.8ZM560.977,199.5v14.334h8.575a11.512,11.512,0,0,0,3.026-.314,3.917,3.917,0,0,0,1.836-.955,3.617,3.617,0,0,0,.919-1.644,13.677,13.677,0,0,0,.349-2.357h1.048v12.63h-1.048c-.142-.882-.272-1.608-.4-2.164a6.654,6.654,0,0,0-.414-1.221,3.072,3.072,0,0,0-.659-.834,3.7,3.7,0,0,0-1.034-.629,5.956,5.956,0,0,0-1.526-.4,14.884,14.884,0,0,0-2.095-.133h-8.575v12a11.3,11.3,0,0,0,.233,2.961,2,2,0,0,0,.3.459,1.258,1.258,0,0,0,.491.351,2.916,2.916,0,0,0,.867.23,8.2,8.2,0,0,0,1.332.085h6.609c1.125,0,2.056-.024,2.819-.1a11.706,11.706,0,0,0,1.979-.314,5.346,5.346,0,0,0,1.5-.653,10.866,10.866,0,0,0,1.371-1.064,13.828,13.828,0,0,0,1.8-2.055,26.463,26.463,0,0,0,1.836-2.961h1.151l-3.363,9.126H549.88v-.991h1.384a6.619,6.619,0,0,0,1.151-.109,4.567,4.567,0,0,0,1.138-.351,4.048,4.048,0,0,0,.957-.6,1.98,1.98,0,0,0,.608-.846,11.06,11.06,0,0,0,.349-3.5V203.85c0-2.284-.245-3.711-.75-4.266a4.691,4.691,0,0,0-3.453-1.076H549.88v-.979H579.9v7.965h-.7a19.279,19.279,0,0,0-.634-2.393,6.572,6.572,0,0,0-.711-1.559,3.711,3.711,0,0,0-.919-.979,5.985,5.985,0,0,0-1.229-.653,14.011,14.011,0,0,0-4.048-.411Zm-18.041-2.792v12.57h-1.06a14.5,14.5,0,0,0-1.862-5.765,8.2,8.2,0,0,0-1.629-1.934,11,11,0,0,0-2.147-1.463,11.43,11.43,0,0,0-2.457-.931,10.126,10.126,0,0,0-2.612-.338,7.644,7.644,0,0,0-2.716.471,7.36,7.36,0,0,0-2.186,1.233,6,6,0,0,0-1.436,1.789,4.591,4.591,0,0,0-.517,2.079,4.665,4.665,0,0,0,.737,2.623,8.252,8.252,0,0,0,2.056,2.043,22.132,22.132,0,0,0,3.052,1.825c1.177.592,2.444,1.221,3.815,1.9,1.539.773,3,1.523,4.4,2.26a20.434,20.434,0,0,1,3.673,2.417,10.941,10.941,0,0,1,2.535,3.034,8.242,8.242,0,0,1,.944,4.085,8.569,8.569,0,0,1-.905,3.868,9.857,9.857,0,0,1-2.522,3.227,12.754,12.754,0,0,1-3.867,2.188,14.385,14.385,0,0,1-4.941.822c-.686,0-1.242-.012-1.72-.036a12.56,12.56,0,0,1-1.384-.109,11.327,11.327,0,0,1-1.345-.3c-.466-.133-1.035-.314-1.695-.544-.44-.169-.918-.314-1.4-.447s-.918-.242-1.306-.326c-.414-.1-.75-.157-1.022-.218s-.465-.085-.53-.085a1.625,1.625,0,0,0-1.138.4,3.135,3.135,0,0,0-.608,1.668h-1.06V222.234h1.06a22.833,22.833,0,0,0,.867,3.433,11.967,11.967,0,0,0,1.125,2.454,8.561,8.561,0,0,0,1.629,1.789,11.6,11.6,0,0,0,2.251,1.438,13.433,13.433,0,0,0,5.652,1.269,10.393,10.393,0,0,0,3.246-.483,7.582,7.582,0,0,0,2.431-1.305,5.367,5.367,0,0,0,1.526-1.9,4.983,4.983,0,0,0,.543-2.26,5.284,5.284,0,0,0-.776-2.937,8.247,8.247,0,0,0-2.069-2.139,23.569,23.569,0,0,0-3.039-1.789c-1.151-.568-2.367-1.221-3.647-1.934-1.449-.81-2.845-1.559-4.2-2.284a20.777,20.777,0,0,1-3.544-2.393,10.364,10.364,0,0,1-2.483-2.949,8.59,8.59,0,0,1-.065-7.651,9.722,9.722,0,0,1,2.367-3.058,11.822,11.822,0,0,1,3.6-2.067,13.084,13.084,0,0,1,4.539-.762,17.562,17.562,0,0,1,6.544,1.414,6.726,6.726,0,0,0,2.264.665,1.8,1.8,0,0,0,1.228-.411,3.183,3.183,0,0,0,.75-1.668ZM488.216,219.72l-6.609-14.685-6.738,14.685Zm.8,1.97H473.963l-2.625,5.741a8.274,8.274,0,0,0-.97,3.179,1.906,1.906,0,0,0,.155.786,1.618,1.618,0,0,0,.646.677,4.55,4.55,0,0,0,1.4.508,16.243,16.243,0,0,0,2.328.314v.991H462.609v-.991a7.073,7.073,0,0,0,3.168-1.052,8.608,8.608,0,0,0,1.539-1.946c.5-.858,1.1-1.958,1.707-3.275l13.657-29.914h1.009l13.541,30.228a24.351,24.351,0,0,0,1.539,3.022,8.048,8.048,0,0,0,1.436,1.777,4.706,4.706,0,0,0,1.629.87,10.653,10.653,0,0,0,2.083.29v.991H488.578v-.991a10.441,10.441,0,0,0,1.914-.242,4.135,4.135,0,0,0,1.216-.483,1.863,1.863,0,0,0,.634-.677,1.937,1.937,0,0,0,.181-.834,4.366,4.366,0,0,0-.272-1.511,20.655,20.655,0,0,0-.879-2.224ZM438.527,199.5v14.334h8.562a11.688,11.688,0,0,0,3.039-.314,3.868,3.868,0,0,0,1.823-.955,3.64,3.64,0,0,0,.932-1.644,12.756,12.756,0,0,0,.323-2.357h1.073v12.63h-1.073a18.866,18.866,0,0,0-.4-2.164,5.37,5.37,0,0,0-.388-1.221,2.888,2.888,0,0,0-.673-.834,3.442,3.442,0,0,0-1.022-.629,5.951,5.951,0,0,0-1.526-.4,15.089,15.089,0,0,0-2.108-.133h-8.562v12a11.539,11.539,0,0,0,.22,2.961,2.569,2.569,0,0,0,.3.459,1.312,1.312,0,0,0,.5.351,2.711,2.711,0,0,0,.867.23,8.1,8.1,0,0,0,1.332.085h6.583c1.151,0,2.082-.024,2.845-.1a11.535,11.535,0,0,0,1.966-.314,5.437,5.437,0,0,0,1.513-.653A10.743,10.743,0,0,0,456,229.776a13.859,13.859,0,0,0,1.823-2.055,28.44,28.44,0,0,0,1.836-2.961H460.8l-3.35,9.126H427.431v-.991H428.8a6.509,6.509,0,0,0,1.151-.109,4.831,4.831,0,0,0,1.151-.351,4.336,4.336,0,0,0,.957-.6,1.848,1.848,0,0,0,.595-.846,11.044,11.044,0,0,0,.349-3.5V203.85c0-2.284-.245-3.711-.75-4.266a4.65,4.65,0,0,0-3.453-1.076h-1.371v-.979h30.018v7.965h-.712c-.207-.979-.427-1.777-.62-2.393a6.565,6.565,0,0,0-.737-1.559,3.3,3.3,0,0,0-.905-.979,5.675,5.675,0,0,0-1.228-.653,14.079,14.079,0,0,0-4.048-.411Zm-18.041-2.792v12.57h-1.06a14.7,14.7,0,0,0-1.863-5.765,7.947,7.947,0,0,0-1.642-1.934,10.916,10.916,0,0,0-2.134-1.463,11.435,11.435,0,0,0-2.457-.931,10.228,10.228,0,0,0-2.625-.338,7.7,7.7,0,0,0-2.716.471,7.129,7.129,0,0,0-2.173,1.233,5.849,5.849,0,0,0-1.449,1.789,4.429,4.429,0,0,0-.517,2.079,4.571,4.571,0,0,0,.75,2.623,7.767,7.767,0,0,0,2.043,2.043,21.376,21.376,0,0,0,3.052,1.825c1.177.592,2.457,1.221,3.828,1.9,1.539.773,3,1.523,4.4,2.26a20.908,20.908,0,0,1,3.673,2.417,11.157,11.157,0,0,1,2.535,3.034,8.381,8.381,0,0,1,.931,4.085,8.731,8.731,0,0,1-.892,3.868,10.083,10.083,0,0,1-2.535,3.227,12.6,12.6,0,0,1-3.867,2.188,14.306,14.306,0,0,1-4.927.822c-.686,0-1.255-.012-1.733-.036a12.088,12.088,0,0,1-1.371-.109,11.547,11.547,0,0,1-1.358-.3c-.479-.133-1.035-.314-1.682-.544-.453-.169-.931-.314-1.4-.447s-.931-.242-1.319-.326-.737-.157-1.022-.218-.453-.085-.518-.085a1.682,1.682,0,0,0-1.151.4,3.369,3.369,0,0,0-.608,1.668h-1.06V222.234h1.06a24.431,24.431,0,0,0,.867,3.433,12.648,12.648,0,0,0,1.138,2.454,8.466,8.466,0,0,0,1.617,1.789,11.682,11.682,0,0,0,2.263,1.438,12.423,12.423,0,0,0,2.69.931,12.7,12.7,0,0,0,2.962.338,10.394,10.394,0,0,0,3.246-.483,7.869,7.869,0,0,0,2.431-1.305,5.366,5.366,0,0,0,1.526-1.9,4.973,4.973,0,0,0,.53-2.26,5.391,5.391,0,0,0-.763-2.937,8.306,8.306,0,0,0-2.082-2.139,23.332,23.332,0,0,0-3.027-1.789c-1.151-.568-2.366-1.221-3.66-1.934-1.436-.81-2.832-1.559-4.19-2.284a20.267,20.267,0,0,1-3.543-2.393,10.363,10.363,0,0,1-2.484-2.949,8.588,8.588,0,0,1-.064-7.651,9.533,9.533,0,0,1,2.366-3.058,11.379,11.379,0,0,1,3.6-2.067,12.957,12.957,0,0,1,4.526-.762,17.625,17.625,0,0,1,6.557,1.414,6.647,6.647,0,0,0,2.263.665,1.787,1.787,0,0,0,1.215-.411,3.174,3.174,0,0,0,.764-1.668Z" transform="translate(-0.271 -0.707)"/></g></g></svg>