<svg xmlns="http://www.w3.org/2000/svg" width="456" height="459" viewBox="0 0 456 459"><defs><style>.a{fill:#ab1f0d;}.b{fill:#fff;}</style></defs><g transform="translate(-455 -4574)"><rect class="a" width="456" height="459" transform="translate(455 4574)"/><g transform="translate(108.721 4581)"><g transform="translate(468.28 103)"><path class="b" d="M358.684,263.034c-14.553,3.139-28.849,9.419-35.611,23.495a109.81,109.81,0,0,0-4.062,10.6c-.617,1.75-1.235,3.474-1.774,5.25-.026.154-.514,1.776-.1.952,6.762-14.076,21.6-20.1,36.073-23.109,6.505-1.364,13.216-2.213,19.9-3.191-1.389,1.107-2.957,1.956-4.319,3.114-12.188,10.114-23.243,22.337-37.385,29.8-7.482,3.937-15.761,6.3-24.246,5.892a36.291,36.291,0,0,0,1.363-6.767l.309-.978c.257-.9-.026-.232-.309.412a22.673,22.673,0,0,0-.051-6.974c-1.183-5.275-4.654-9.984-7.636-14.411-.9-1.338-1.774-2.728-2.7-4.092a17.639,17.639,0,0,0,.72-2.264c.668-3.423-1.209-6.434-3.111-9.084-2.752-3.861-4.937-8-5.014-12.533a25.3,25.3,0,0,1,.874-4.915c.129-.463.566-1.261.129-.849-.617.54-1.337,2.856-1.594,3.474-1.491,3.474-3.06,6.974-4.268,10.551-1.723,5.172-2.726,10.345-1.466,15.723,1.415,6.073,4.757,11.22,8.1,16.366,2.854,4.4,6.017,8.672,8.254,13.433a20.838,20.838,0,0,1,1.9,8.235,27.417,27.417,0,0,1-.205,3.834c-.746,2.136-1.594,4.22-2.237,6.382l-.694,2.342c-.514,1.133-1.054,2.29-1.594,3.423a68.2,68.2,0,0,0-3.085,8.209c4.525-20.664-7.559-40.428-18-57.464-6.351-10.345-12.882-20.715-18.461-31.5.334-1.055.823-2.058,1.054-3.114,2.571-11.117-4.063-20.69-8.382-30.366a49.56,49.56,0,0,1-2.931-32.141c.309-1.158-.72,1.312-.514.8-.72,1.7-1.363,3.423-1.979,5.146-.952,2.548-1.826,5.147-2.674,7.746-.334.978-.745,1.93-1.054,2.934-6.454,21.024-1.44,42.9,7.919,62.25,9.745,20.15,23.861,37.854,33.3,58.159,4.988,10.73,8.948,23.572,5.425,35.358.052-.1-.643,1.776-.1.952a20.739,20.739,0,0,0,1.594-3.937c.874-2.213,1.594-4.5,2.417-6.742,2.88-6.64,5.683-13.3,8.125-20.124l.026-.077c15.658.849,29.465-7.746,41.01-17.474,6.2-5.249,12.085-10.834,18.255-16.084,6.119-5.173,12.444-10.165,18.923-14.874Q389.9,276.7,401.6,269.544c.411-.257,1.054-2.316,1.131-2.47.8-2.033,1.569-4.066,2.289-6.125.745-2.033,1.491-4.092,2.159-6.15a20.724,20.724,0,0,1,.745-2.625C392.623,259.586,374.986,259.508,358.684,263.034Zm-61.348,77.793.051-.129-.154.463Z" transform="translate(-194.922 -190.461)"/><path class="b" d="M307.3,287.96c-11.519-18.812-24.169-37.546-29.311-59.343-2.8-11.734-3.471-24.4.128-36.053-.052.129.643-1.776.1-.952a23.381,23.381,0,0,0-1.594,3.937c-1.517,3.937-3.008,7.9-4.242,11.915-6.479,21.024-1.414,42.924,7.919,62.276,9.745,20.124,23.86,37.854,33.3,58.158,4.191,9.084,7.4,19.635,6.248,29.8-.411.618-.746,1.287-1.208,1.9a45.535,45.535,0,0,1-7.045,7.386,41.243,41.243,0,0,1-19.387,8.827A41.884,41.884,0,0,1,253.02,361.1a42.321,42.321,0,0,1-8.716-18.4,41.322,41.322,0,0,1-.566-11.117c7.611-11.272,22.009-17.294,35.2-13.15a30.189,30.189,0,0,1,17.3,13.742c4.474,8.029,4.757,17.422,2.391,26.146-.334,1.183.746-1.338.514-.8.746-1.673,1.389-3.423,2.006-5.147a113.107,113.107,0,0,0,3.7-10.757c2.314-8.518,2.288-17.576-1.671-25.631a29.957,29.957,0,0,0-16.661-14.514c-15.633-5.636-32.551,2.882-39.519,17.5a153.255,153.255,0,0,0-7.816,21.05,43.375,43.375,0,0,0-1.9,11.89,40.994,40.994,0,0,0,6.737,22.9,42.017,42.017,0,0,0,42.629,18.246,41.577,41.577,0,0,0,23.064-12.944,43.992,43.992,0,0,0,7.045-10.423c.849-1.8,1.311-3.757,2.083-5.61,0,.1-.1.36.077.129a21.447,21.447,0,0,0,1.594-3.937c1.517-3.937,3.034-7.9,4.243-11.915l.051-.386.206-.515c-.026.129.668-1.776.129-.952l-.077.206C330.412,325.583,317.968,305.382,307.3,287.96Z" transform="translate(-237.279 -167.11)"/><path class="b" d="M258.776,216.214a5.485,5.485,0,0,1,.437,4.529c.052-.129-.668,1.776-.1.926a19.839,19.839,0,0,0,1.594-3.911c1.517-3.937,2.957-7.9,4.243-11.915.591-1.93,1.26-4.092.565-6.073-.617-1.8-2.417-2.136-4.036-2.677q-6.827-2.238-13.653-4.529c-.54-.18-6.557,17.293-6.325,17.37,4.113,1.39,8.2,2.727,12.316,4.092C255.305,214.515,257.773,214.9,258.776,216.214Z" transform="translate(-133.196 -138.468)"/><path class="b" d="M258.516,225.24c-.334-.308-1.028-.823-1.774-1.415.257-.206.514-.361.771-.592,2.288-2.007,4.551-4.092,6.762-6.2,1.414-1.338,5.091-3.731,4.422-6.124-.385-1.416-1.9-2.5-2.905-3.449-1.286-1.261-2.571-2.471-3.857-3.705-2.52-2.419-5.04-4.838-7.559-7.283-.437-.437-12.393,11.348-12.342,11.452,2.726,2.651,5.5,5.275,8.253,7.9,1.106,1.107,2.262,2.213,3.394,3.294l-.514.489a8.5,8.5,0,0,0-1,.592c-3.317,2.882-6.608,5.842-9.668,9.007-.977,1-1.8,1.878-.848,3.268a23.072,23.072,0,0,0,3.651,3.423,87.949,87.949,0,0,1,7.816,7.669c4.088,4.683,7.482,10.551,7.4,16.958a21.374,21.374,0,0,1-2.134,8.724,30.825,30.825,0,0,1-2.674,4.529c-.54.8-1.157,1.544-1.774,2.29l-.977,1.107-.129.129c-.695.695-1.466,1.338-2.159,2.007-.18.18-1.775,1.7-1.672,1.8.1.129,2.057-1.647,1.929-1.518,6.222-5.507,13.165-11.117,17.767-18.168,2.905-4.478,4.782-9.779,3.985-15.183-.823-5.456-3.857-10.345-7.482-14.411A89.8,89.8,0,0,0,258.516,225.24Z" transform="translate(-139.723 -42.115)"/></g></g></g></svg>