<svg xmlns="http://www.w3.org/2000/svg" width="20" height="20" viewBox="0 0 20 20"><defs><style>.a{fill:#36de3d;}.b{fill:#fff;}</style></defs><circle class="a" cx="10" cy="10" r="10"/><g transform="translate(4.167 5.833)"><path class="b" d="M20.742,974.333a.875.875,0,0,0-.6.264c-.2.2-1.644,1.68-3.138,3.209-1.233,1.262-2.126,2.174-2.582,2.64L11.4,978.029A.875.875,0,1,0,10.3,979.4l3.644,2.914a.875.875,0,0,0,1.166-.068c.2-.2,1.644-1.68,3.138-3.209s3.035-3.106,3.129-3.2a.874.874,0,0,0-.638-1.5Z" transform="translate(-9.975 -974.332)"/></g></svg>