<svg xmlns="http://www.w3.org/2000/svg" width="500" height="372" viewBox="0 0 500 372"><defs><style>.a{fill:#ebebeb;}.b{fill:#f5f5f5;}.c{fill:#e0e0e0;}.d{fill:#e6e6e6;}.e{fill:#e4897b;}.f,.t,.w{opacity:0.2;}.f,.i,.n,.o,.r,.s,.t{isolation:isolate;}.g,.o{fill:#263238;}.h,.q{fill:#e99a57;}.i,.s{opacity:0.6;}.j,.n,.r,.s,.t,.w{fill:#fff;}.k{fill:#eec1bb;}.l{fill:#d4827d;}.m,.p,.u{fill:none;stroke-linecap:round;stroke-linejoin:round;}.m{stroke:#263238;stroke-width:0.686px;}.n{opacity:0.7;}.p{stroke:#e0e0e0;}.q{fill-rule:evenodd;}.r{opacity:0.4;}.u{stroke:#e99a57;}.v{opacity:0.5;}.x{fill:#ebb376;}</style></defs><g transform="translate(0 -55)"><g transform="translate(0 55)"><rect class="a" width="500" height="0.25" transform="translate(0 326.908)"/><rect class="a" width="33.12" height="0.25" transform="translate(416.78 342.974)"/><rect class="a" width="8.69" height="0.25" transform="translate(322.53 345.69)"/><rect class="a" width="19.19" height="0.25" transform="translate(396.59 333.708)"/><rect class="a" width="43.19" height="0.25" transform="translate(52.46 335.385)"/><rect class="a" width="6.33" height="0.25" transform="translate(104.56 335.385)"/><rect class="a" width="93.68" height="0.25" transform="translate(131.47 339.599)"/><path class="a" d="M237,337.375H43.91a5.706,5.706,0,0,1-5.7-5.7V60.651A5.706,5.706,0,0,1,43.91,55H237a5.706,5.706,0,0,1,5.71,5.7V331.673A5.706,5.706,0,0,1,237,337.375ZM43.91,55.2a5.456,5.456,0,0,0-5.45,5.452V331.673a5.456,5.456,0,0,0,5.45,5.452H237a5.466,5.466,0,0,0,5.46-5.452V60.651A5.466,5.466,0,0,0,237,55.2Z" transform="translate(0 -55)"/><path class="a" d="M453.31,337.375H260.21a5.716,5.716,0,0,1-5.71-5.7V60.651A5.716,5.716,0,0,1,260.21,55h193.1A5.706,5.706,0,0,1,459,60.651V331.673A5.706,5.706,0,0,1,453.31,337.375ZM260.21,55.2a5.466,5.466,0,0,0-5.46,5.452V331.673a5.466,5.466,0,0,0,5.46,5.452h193.1a5.466,5.466,0,0,0,5.46-5.452V60.651a5.466,5.466,0,0,0-5.46-5.452Z" transform="translate(0 -55)"/><rect class="b" width="164.14" height="241.806" transform="translate(252.69 85.851)"/><rect class="a" width="17.41" height="241.806" transform="translate(399.42 85.851)"/><rect class="a" width="136.79" height="24.563" transform="translate(258.73 91.442)"/><rect class="a" width="136.79" height="24.563" transform="translate(258.73 121.387)"/><rect class="a" width="136.79" height="24.563" transform="translate(258.73 151.332)"/><rect class="a" width="136.79" height="24.563" transform="translate(258.73 181.277)"/><rect class="a" width="136.79" height="24.563" transform="translate(258.73 211.232)"/><rect class="a" width="136.79" height="24.563" transform="translate(258.73 241.177)"/><rect class="a" width="136.79" height="24.563" transform="translate(258.73 271.122)"/><rect class="a" width="136.79" height="24.563" transform="translate(258.73 301.067)"/><rect class="c" width="106.83" height="140.808" transform="translate(79.43 49.356)"/><rect class="b" width="136.814" height="102.83" transform="translate(184.26 51.353) rotate(90)"/><path class="d" d="M126.22,130.615l4.91-16.655,10.8,12.112,12.63-7.109-2.06,14.269,17.97,8.347-12.92,6.61,8.93,20.389-19.65-1.847-3.3,17.594-12.4-14.348-13.3,8.128,1.21-16.685-12.48-3.5,14.83-12.921-10.61-17.344Z" transform="translate(0 -55.089)"/><path class="c" d="M102.05,205.164l3.1-10.514,6.81,7.648,7.98-4.493-1.31,9.016,11.35,5.262-8.16,4.174,5.64,12.881-12.41-1.168-2.08,11.1-7.82-9.056-8.41,5.132.77-10.534L89.63,222.4l9.36-8.158L92.29,203.3Z" transform="translate(0 -55.21)"/><path class="c" d="M167.05,203.53l6.39,1.438-4.29,4.343,2.98,4.563-5.42-.429-2.7,6.949-2.8-4.693-7.45,3.854.22-7.419-6.7-.809,5.09-4.993-3.38-4.793,6.31.05,1.01-4.763,5.22,5.242,6.26-4.4Z" transform="translate(0 -55.213)"/><path class="b" d="M123.23,145.7c-.85-3.8.87-6.72,3.75-7.359s5.48,1.218,6.29,4.853c.84,3.8-.67,6.71-3.75,7.389S124,149.338,123.23,145.7Zm2.65-.589c.56,2.546,1.81,3.315,3.13,3s2.25-1.608,1.64-4.353c-.55-2.506-2-3.315-3.17-3s-2.2,1.638-1.6,4.353Zm8.4,16.455-3.44.759,8.76-26.63,3.44-.759Zm7-7.988c-.85-3.8.87-6.71,3.75-7.349s5.48,1.218,6.29,4.853c.84,3.8-.67,6.71-3.75,7.389s-5.45-1.2-6.25-4.843Zm2.64-.579c.57,2.546,1.82,3.3,3.14,3s2.25-1.608,1.64-4.353c-.56-2.516-2-3.315-3.18-3.045s-2.16,1.737-1.52,4.453Z" transform="translate(0 -55.12)"/><path class="b" d="M101.47,210.625c.8-2.406,2.74-3.455,4.56-2.846s2.65,2.516,1.88,4.813-2.62,3.525-4.57,2.866S100.69,212.922,101.47,210.625Zm1.67.559c-.54,1.608-.1,2.456.74,2.736s1.79-.14,2.38-1.877,0-2.506-.76-2.766S103.72,209.477,103.14,211.185Zm-.83,11.982-2.18-.729L114,210.526l2.18.729Zm6.59-2.077c.8-2.406,2.74-3.455,4.56-2.846s2.65,2.516,1.88,4.813-2.63,3.515-4.57,2.866-2.65-2.516-1.87-4.813Zm1.67.559c-.54,1.608-.1,2.456.74,2.736s1.79-.14,2.37-1.877,0-2.506-.75-2.766-1.78.24-2.36,1.927Z" transform="translate(0 -55.229)"/><path class="b" d="M156.23,206.237a1.678,1.678,0,0,1,1.57-1.877c.87,0,1.49.709,1.49,1.807s-.63,1.887-1.56,1.887S156.23,207.336,156.23,206.237Zm.81,0c0,.769.3,1.068.7,1.068s.75-.31.76-1.138-.35-1.078-.72-1.088-.78.339-.78,1.158Zm1.34,5.282h-1l4.27-7.079h1Zm2.54-1.827a1.658,1.658,0,0,1,1.56-1.867,1.588,1.588,0,0,1,1.49,1.807c0,1.148-.63,1.887-1.56,1.877s-1.5-.709-1.49-1.817Zm.8,0c0,.769.3,1.068.7,1.068s.75-.31.76-1.138-.34-1.078-.72-1.088-.74.349-.74,1.168Z" transform="translate(0 -55.225)"/></g><g transform="translate(56.11 404.394)"><ellipse class="b" cx="193.89" cy="11.303" rx="193.89" ry="11.303"/></g><g transform="translate(269.047 143.258)"><path class="e" d="M295.99,402.973l6.3,1.108,2.59-8.587,2.36-7.878-7.27-2.536-2.11,9.476Z" transform="translate(-269.047 -143.755)"/><path class="f" d="M297.82,394.746l7.03.929,2.38-7.968-7.27-2.586Z" transform="translate(-269.047 -143.755)"/><path class="e" d="M338.1,405.882h6.4l1.05-9.016.96-8.218-7.61-1.258-.43,9.785Z" transform="translate(-269.047 -143.758)"/><path class="f" d="M338.47,397.255l7.08-.31.96-8.258-7.61-1.278Z" transform="translate(-269.047 -143.758)"/><path class="g" d="M329.42,418.563a10.736,10.736,0,0,1,3.42-1.857h0s3.72-3.684,5.51-14.778l4.87-1.268a4.153,4.153,0,0,1,4.43,1.727,2.7,2.7,0,0,1,.31.639,29.544,29.544,0,0,1,.52,3.6c.49,3.754.07,12.182.07,12.182h-.88l-.35-7.648c-.13-2.6-2.12.449-2.69,3.245s-1.78,5.771-7.48,5.911C330.5,420.45,327.74,420.19,329.42,418.563Z" transform="translate(-269.047 -143.778)"/><path class="g" d="M286.92,417.813a10.733,10.733,0,0,1,3.42-1.857h0s3.72-3.684,5.51-14.778l4.87-1.268a4.153,4.153,0,0,1,4.43,1.727,2.7,2.7,0,0,1,.31.639,29.535,29.535,0,0,1,.52,3.6c.49,3.754.07,12.182.07,12.182h-.88l-.35-7.649c-.13-2.6-2.12.449-2.69,3.245s-1.78,5.771-7.48,5.911C288,419.7,285.24,419.44,286.92,417.813Z" transform="translate(-269.047 -143.777)"/><path class="h" d="M297.23,389.53l10.37,1.817c10.46-26.031,17.9-47.758,23.16-65.791,2.83-9.725,5.19-18.372,6.89-26.051l-.32,28.357V391.7h10.22c25.62-121.837,7.45-149.6,7.45-149.6L324.37,237a138.094,138.094,0,0,0-2.57,17.194l-1.38,10.145-12,61.777Z" transform="translate(-269.047 -143.532)"/><g class="i" transform="translate(28.183 93.468)"><path class="j" d="M297.23,389.53l10.37,1.817c10.46-26.031,17.9-47.758,23.16-65.791,2.83-9.725,5.19-18.372,6.89-26.051l-.32,28.357V391.7h10.22c25.62-121.837,7.45-149.6,7.45-149.6L324.37,237a138.094,138.094,0,0,0-2.57,17.194l-1.38,10.145-12,61.777Z" transform="translate(-297.23 -237)"/></g><path class="f" d="M330.76,325.61c2.83-9.725,5-18.372,6.73-26.051a239.474,239.474,0,0,0-2-27.179S331,307.427,330.76,325.61Z" transform="translate(-269.047 -143.585)"/><path class="g" d="M354.43,151.116s7.11-6.73,13.24,1.767-2.67,18.562-2.47,25.671,3.39,6.321,3.39,6.321-5,5.582-9.62,0-.51-17.384-1.44-21.737S354.43,151.116,354.43,151.116Z" transform="translate(-269.047 -143.399)"/><path class="k" d="M288.78,219.6l-11.36,4.264s-2.21-.689-3.13-.2-5.37,4.992-5.24,5.821,4.06,3.774,5.28,3.225,4.5-4.992,4.64-5.512l13.74-4.753Z" transform="translate(-269.047 -143.506)"/><path class="g" d="M325.36,188.25c-3.61,1.917-20.08,21.178-21.79,22.356-3,2.087-20.56,10.894-20.56,10.894l2,4.583s12.72-4.643,20.28-7.109c6.4-2.087,21-15.766,21-15.766Z" transform="translate(-269.047 -143.459)"/><path class="f" d="M321.19,208.442c3-2.856,5.14-5.212,5.14-5.212l-.23-3.555L325,196.23A14.165,14.165,0,0,0,321.19,208.442Z" transform="translate(-269.047 -143.471)"/><path class="h" d="M361.1,204.624c-1.2,3.864-2.14,7.2-2.89,10.185a110.529,110.529,0,0,0-3.32,22.965l-31.26-2.7c-1.25-21.967-.69-34.069-.12-40.11.62-6.44,1.62-6.68,1.62-6.68s7-.679,13.06-.629a98.737,98.737,0,0,1,14,1.478,93.611,93.611,0,0,1,13,3.125c-.71,2-1.35,3.994-1.95,5.751C362.45,200.351,361.74,202.568,361.1,204.624Z" transform="translate(-269.047 -143.458)"/><path class="k" d="M338.55,188.983a7.125,7.125,0,0,1,.95-.409c.72-.569,1.6-1.937,1.55-5.262a25.744,25.744,0,0,0-.36-3.9l9.27-1.727s-3.16,6.231-.52,10.864c.91.4,1.54,1,1.35,1.717-.83,3.285-10.66,7.249-10.66,7.249S333,191.978,338.55,188.983Z" transform="translate(-269.047 -143.443)"/><path class="f" d="M340.69,179.367a25.744,25.744,0,0,1,.36,3.9c6.27,0,8.91-5.632,8.91-5.632Z" transform="translate(-269.047 -143.443)"/><path class="g" d="M344.83,148.78S334,147.412,332,156.149a13.439,13.439,0,0,0,4.75,13.6Z" transform="translate(-269.047 -143.399)"/><path class="k" d="M345.82,153.45c-8.06-.439-10.89,3.724-11.94,11.982-1.3,10.324.59,17.813,10.79,16.156C358.52,179.331,359.2,154.179,345.82,153.45Z" transform="translate(-269.047 -143.406)"/><path class="l" d="M339.12,165.29a16.979,16.979,0,0,1-2.53,3.205,2.211,2.211,0,0,0,2.07,1Z" transform="translate(-269.047 -143.424)"/><path class="g" d="M344.09,164.9c-.06.659.26,1.218.7,1.258s.84-.469.89-1.138-.26-1.218-.7-1.258S344.14,164.239,344.09,164.9Z" transform="translate(-269.047 -143.422)"/><path class="g" d="M345.16,163.809l-1.39-.679S344.39,164.4,345.16,163.809Z" transform="translate(-269.047 -143.421)"/><path class="g" d="M335.88,164.118c-.05.659.26,1.218.7,1.258s.84-.479.89-1.138-.26-1.218-.7-1.258S335.93,163.459,335.88,164.118Z" transform="translate(-269.047 -143.421)"/><path class="g" d="M337,163l-1.39-.679S336.18,163.618,337,163Z" transform="translate(-269.047 -143.42)"/><path class="m" d="M344.47,159.34a4.213,4.213,0,0,1,3.43,1.408" transform="translate(-269.047 -143.415)"/><path class="m" d="M338.63,158.68a3.765,3.765,0,0,0-3.25.479" transform="translate(-269.047 -143.414)"/><path class="g" d="M353.88,167.484s-3.4-6.81-2.55-11.892c0,0-15.62-7.389-17.29,8.757,0,0-.78-14.458,13.1-13.979s12.7,20.679,5.22,26.31C352.36,176.64,356,171.748,353.88,167.484Z" transform="translate(-269.047 -143.402)"/><path class="g" d="M343.46,148.158s-4.58-.369-6.45,1.378,9.45,12.851,16.45,14.1c0,0,2.37,7.738.5,11.353,0,0,7.87-2.746,8.25-14.728S350,143.784,343.46,148.158Z" transform="translate(-269.047 -143.396)"/><path class="k" d="M352.47,169.135a3.559,3.559,0,0,1,4-3c2.48.409,3.39,5.592-2.89,6.49C352.67,172.73,352.21,171.841,352.47,169.135Z" transform="translate(-269.047 -143.425)"/><path class="m" d="M336.68,150.15s2.4,9.985,11.78,13.36" transform="translate(-269.047 -143.401)"/><path class="m" d="M344,171.41a6.5,6.5,0,0,1-4.63,1.867" transform="translate(-269.047 -143.433)"/><path class="h" d="M356.36,156.22s5.85,4.054,5.19,8.727a12.672,12.672,0,0,0-7.12-6.89Z" transform="translate(-269.047 -143.411)"/><path class="h" d="M333.94,152.167l6.1-7.668a2.932,2.932,0,0,1,2.52-1.1,62.4,62.4,0,0,1,11,1.707,4.2,4.2,0,0,1,3,3.645l.92,10.085-5.2-1.857Z" transform="translate(-269.047 -143.391)"/><path class="n" d="M333.94,152.167l6.1-7.668a2.932,2.932,0,0,1,2.52-1.1,62.4,62.4,0,0,1,11,1.707,4.2,4.2,0,0,1,3,3.645l.92,10.085-5.2-1.857Z" transform="translate(-269.047 -143.391)"/><path class="h" d="M324.89,153.365s21.65,5.132,32.64,5.482a21.4,21.4,0,0,0-11.08-7.3C341.28,150,331.34,148.662,324.89,153.365Z" transform="translate(-269.047 -143.401)"/><path d="M354.89,237.806l-31.26-2.7v5.342l32,2.826Z" transform="translate(-269.047 -143.529)"/><path class="j" d="M332.35,237.467v2.526a1.928,1.928,0,0,0,1.77,1.927l3.9.349h.17a1.941,1.941,0,0,0,1.31-.509,1.916,1.916,0,0,0,.63-1.428v-2.486a1.928,1.928,0,0,0-1.77-1.927l-3.91-.339a1.922,1.922,0,0,0-1.47.5A2,2,0,0,0,332.35,237.467Zm1,2.486v-.819h0l1.09.08a.661.661,0,1,0,.1-1.318l-1.09-.09h-.15v-.379a.939.939,0,0,1,.93-.939h.09l3.9.329a1,1,0,0,1,.86.939v2.486a.927.927,0,0,1-1.02.939l-3.91-.35a.929.929,0,0,1-.8-.839Z" transform="translate(-269.047 -143.53)"/><path class="k" d="M367.74,228.464l-10.8-6.8s-.82-2.277-1.83-2.746-7.57-1.328-8.21-.669-.58,5.791.66,6.46,7,.6,7.57.379l12.11,9.256Z" transform="translate(-269.047 -143.503)"/><path class="g" d="M365.11,192.24s-7.06,10.235-6,18.971l9.36,15.5-6.29-3.215-2.89,5.452s7.25,11.133,16.47,8.507S365.11,192.24,365.11,192.24Z" transform="translate(-269.047 -143.465)"/><path class="h" d="M362.81,223.269l-3.59,6.65-.8-1.9,2.85-5.4Z" transform="translate(-269.047 -143.51)"/><path class="h" d="M286.25,226.761l-3.24-6.191-1.13,1.318,2.18,4.873Z" transform="translate(-269.047 -143.507)"/><path class="g" d="M348.67,186.55s-3.49,7.349-9,9.665c0,0-.1-7.289,1.06-9.665l-3.21,1.068s-6.35,3-8.24,8.6c0,0,7.55-2.167,7.71-1.767s2.17,8.557,2.17,8.557l6.21-7.638,7.07,6.989s2.71-7.748,1.87-12.861Z" transform="translate(-269.047 -143.456)"/><rect class="o" width="5.52" height="9.006" rx="0.79" transform="translate(58.953 62.784)"/><rect class="n" width="4.48" height="5.282" transform="translate(59.283 64.222)"/><rect class="h" width="0.99" height="2.886" transform="translate(61.123 60.617)"/></g><g transform="translate(52.46 65.374)"><path class="g" d="M330.8,69.22a1177.75,1177.75,0,0,1-184.66,0l-4,50.3a1230.262,1230.262,0,0,0,192.59,0ZM146.2,117.358a1.628,1.628,0,1,1,1.63-1.628,1.629,1.629,0,0,1-1.63,1.628ZM149,74.9a1.628,1.628,0,1,1,1.63-1.628A1.629,1.629,0,0,1,149,74.9Zm178.88,0a1.614,1.614,0,1,1,.03,0Zm2.83,42.456a1.606,1.606,0,1,1,.03,0Z" transform="translate(-52.46 -65.396)"/><line class="p" y1="7.878" x2="110.29" transform="translate(275.45)"/><line class="p" x2="107.43" y2="16.256" transform="translate(278.31 50.334)"/><line class="p" x1="93.74" y2="16.046" transform="translate(0 50.334)"/><line class="p" x1="96.57" y1="7.878"/><g transform="translate(109.27 19.208)"><path class="q" d="M187.157,351.748v2.446h4.157a.909.909,0,0,0,.591-.151.79.79,0,0,0,.151-.541v-1.056a.8.8,0,0,0-.155-.544.9.9,0,0,0-.586-.154Zm-20.469,0v2.431h4.157a.876.876,0,0,0,.585-.157.819.819,0,0,0,.157-.556V352.46a.817.817,0,0,0-.157-.556.877.877,0,0,0-.585-.156Zm136.96.633.009.116c.012.205.013.414.013.62v4.939h-1.135v-7.349h1.072l3.533,4.685,3.3-4.685h1.2v7.349h-1.22v-4.939c0-.159.013-.329.023-.488.007-.115.016-.233.022-.349-.046.092-.094.182-.145.271-.06.1-.122.213-.191.313l-2.816,4.054h-.363l-2.924-3.944a.367.367,0,0,1-.038-.049A3.566,3.566,0,0,1,303.648,352.381Zm-11.377,4.566h5.238v-6.239h1.306v5.581a1.439,1.439,0,0,1-1.756,1.768h-4.346a2.056,2.056,0,0,1-1.389-.378,2.084,2.084,0,0,1-.374-1.39v-5.581h1.32Zm-10.024-5.17V353.7h3.564v1.054h-3.564v2.206h5.891v1.1h-7.211v-7.349h7.155v1.068Zm-6.158.013H271v1.926h4.565a1.437,1.437,0,0,1,1.753,1.759v.814a2.105,2.105,0,0,1-.369,1.394,2.059,2.059,0,0,1-1.384.373h-4.275a1.444,1.444,0,0,1-1.766-1.768v-.238l1.235-.282v1.178h5.353v-2.08h-4.55a2.06,2.06,0,0,1-1.387-.375,2.113,2.113,0,0,1-.366-1.39v-.63a2.111,2.111,0,0,1,.366-1.387,2.054,2.054,0,0,1,1.387-.376h3.9a2.115,2.115,0,0,1,1.384.368,1.772,1.772,0,0,1,.387,1.273v.188l-1.149.323Zm-16.512,5.157h5.24v-6.239h1.306v5.581a1.44,1.44,0,0,1-1.756,1.768h-4.347a2.056,2.056,0,0,1-1.389-.378,2.091,2.091,0,0,1-.374-1.39v-5.581h1.32Zm-13.024-4.566c0,.039.006.078.007.116.013.205.014.414.014.62v4.939h-1.135v-7.349h1.072l3.533,4.685,3.3-4.685h1.2v7.349h-1.22v-4.939c0-.159.013-.329.023-.488.009-.115.016-.233.023-.349-.048.092-.1.182-.145.271-.061.1-.122.213-.192.313l-2.816,4.054h-.364l-2.922-3.944a.571.571,0,0,1-.039-.049A3.553,3.553,0,0,1,246.552,352.381Zm-15.127-.6V353.7h3.564v1.054h-3.564v2.206h5.892v1.1h-7.211v-7.349h7.155v1.068Zm-13.024.6.009.116c.012.205.013.414.013.62v4.939h-1.135v-7.349h1.072l3.533,4.685,3.3-4.685h1.2v7.349h-1.219v-4.939c0-.159.013-.329.023-.488.007-.115.016-.233.022-.349-.046.092-.094.182-.145.271-.059.1-.122.213-.191.313l-2.816,4.054H221.7l-2.924-3.944a.368.368,0,0,1-.038-.049A3.564,3.564,0,0,1,218.4,352.381Zm-11.377,4.566h5.238v-6.239h1.306v5.581a1.439,1.439,0,0,1-1.756,1.768h-4.346a2.062,2.062,0,0,1-1.39-.378,2.09,2.09,0,0,1-.373-1.39v-5.581h1.32Zm-9.047-5.157v2.278h3.281v1.067h-3.281v2.923h-1.319v-7.349h7.069v1.081Zm-7.127,3.443,3.346,2.825h-1.97l-2.982-2.825h-2.087v2.825h-1.319v-7.349h5.955a1.828,1.828,0,0,1,1.219.346,1.479,1.479,0,0,1,.377,1.11v1.619a1.46,1.46,0,0,1-.377,1.1,1.82,1.82,0,0,1-1.219.346Zm-13.716-3.455V353.7H180.7v1.054h-3.564v2.206h5.893v1.1h-7.211v-7.349h7.155v1.068Zm-10.446,3.455v2.825h-1.32v-7.349h5.956a1.828,1.828,0,0,1,1.219.346,1.479,1.479,0,0,1,.377,1.11v1.619a1.465,1.465,0,0,1-.377,1.1,1.82,1.82,0,0,1-1.219.346Z" transform="translate(-165.367 -334.674)"/><path class="h" d="M182.515,347.741a1.684,1.684,0,0,1-1.69,1.673h-.495v1.565h.495a3.26,3.26,0,0,0,3.272-3.239v-5.569h-1.582Zm47.133-5.569h-5.295v3.622H205.3v-3.622h-1.583v3.622H193.637v-3.622h-5.295a2.595,2.595,0,1,0,0,5.189h3.712v3.619h1.583v-3.619h36.011a2.595,2.595,0,1,0,0-5.189Zm-37.594,3.622h-3.712a1.028,1.028,0,1,1,0-2.057h3.712Zm37.594,0h-3.712v-2.057h3.712a1.028,1.028,0,1,1,0,2.057Zm12.418-3.622h-5.293v8.808h1.583v-3.619h3.71a2.595,2.595,0,1,0,0-5.189Zm0,3.622h-3.71v-2.057h3.71a1.028,1.028,0,1,1,0,2.057Zm64.671,2.871a.783.783,0,1,0,.791.784A.789.789,0,0,0,306.737,348.665Zm-43.91,0a.783.783,0,1,0,.791.784A.789.789,0,0,0,262.827,348.665Zm2.277,0a.783.783,0,1,0,.791.784A.789.789,0,0,0,265.1,348.665Zm-66.783,0a.783.783,0,1,0,.792.784A.789.789,0,0,0,198.321,348.665Zm2.278,0a.783.783,0,1,0,.791.784A.789.789,0,0,0,200.6,348.665Zm90.158-7.735a.783.783,0,1,0-.791-.783A.789.789,0,0,0,290.757,340.93Zm-107.451-1.567a.783.783,0,1,0,.791.784A.789.789,0,0,0,183.306,339.363Zm103.825,4.069a2.051,2.051,0,0,0,2.06,2.041h4.272v.322H269.2v-3.623h-1.583v3.623H254.7v-3.623h-5.2a2.672,2.672,0,0,0-2.708,2.419,2.609,2.609,0,0,0,2.616,2.772h3.71v3.619h1.58v-3.619h40.35v-5.97h-5.853A2.051,2.051,0,0,0,287.131,343.432Zm-34.016,2.363H249.4a1.028,1.028,0,1,1,0-2.057h3.71Zm40.348-2.839v.952h-4.269a.476.476,0,1,1,0-.952Zm-119.377,5.71a.783.783,0,1,0,.791.784A.788.788,0,0,0,174.086,348.665Zm2.277,0a.783.783,0,1,0,.792.784A.789.789,0,0,0,176.363,348.665Zm1.082-2.872h-4.366a2.554,2.554,0,0,0,.216-1.027,2.61,2.61,0,0,0-2.621-2.6H165.38v8.809h1.582v-3.619h12.065v-5.187h-1.582Zm-10.484-2.055h3.713a1.028,1.028,0,1,1,.009,2.055h-3.722Zm143.068-1.565v3.621h-10.64v-3.621h-1.6v5.569a1.684,1.684,0,0,1-1.69,1.673H295.6v1.565h.495a3.26,3.26,0,0,0,3.273-3.239v-.382h12.241v-5.187Z" transform="translate(-165.361 -339.363)"/></g></g><g transform="translate(97.68 199.143)"><path class="g" d="M299.22,252.367v14.658H270.51V252.367a2.108,2.108,0,0,1,2.11-2.107h24.49A2.118,2.118,0,0,1,299.22,252.367Z" transform="translate(-97.68 -199.437)"/><path class="r" d="M299.22,252.367v14.658H270.51V252.367a2.108,2.108,0,0,1,2.11-2.107h24.49A2.118,2.118,0,0,1,299.22,252.367Z" transform="translate(-97.68 -199.437)"/><path class="r" d="M292.22,252.367v14.658H270.51V252.367a2.108,2.108,0,0,1,2.11-2.107h17.49a2.118,2.118,0,0,1,2.11,2.107Z" transform="translate(-97.68 -199.437)"/><rect class="g" width="2.62" height="13.47" transform="translate(105.23 8.457)"/><path class="s" d="M205.53,221.307h-2.62V212.83l2.62,1Z" transform="translate(-97.68 -199.38)"/><rect class="g" width="45.28" height="11.433" transform="translate(128.76 11.433) rotate(180)"/><rect class="s" width="45.28" height="11.433" transform="translate(128.76 11.433) rotate(180)"/><path class="g" d="M239.75,251.521l-8.97-32.441H179.06v48.427h82.41v-9.346Z" transform="translate(-97.68 -199.39)"/><path class="r" d="M239.75,251.521l-8.97-32.441H179.06v48.427h82.41v-9.346Z" transform="translate(-97.68 -199.39)"/><path class="t" d="M239.75,251.521H196.18l-8.97-32.441h43.57Z" transform="translate(-97.68 -199.39)"/><path class="h" d="M234.36,246.9H199.01L192.6,223.72h35.35Z" transform="translate(-97.68 -199.397)"/><path class="r" d="M196.18,251.521l26.52,6.64v10.354H179.06V219.08h8.15Z" transform="translate(-97.68 -199.39)"/><rect class="t" width="38.77" height="9.346" transform="translate(125.02 58.772)"/><rect class="h" width="40.28" height="9.456" transform="translate(127.94 10.444) rotate(180)"/><rect class="f" width="2.9" height="11.433" transform="translate(106.38 11.433) rotate(180)"/><rect class="g" width="295.26" height="151.562" transform="translate(6.64 69.126)"/><rect class="r" width="242.11" height="151.562" transform="translate(6.64 69.126)"/><rect class="r" width="295.26" height="151.562" transform="translate(6.64 69.126)"/><path class="h" d="M401.62,270.992H100.26a2.578,2.578,0,0,1-2.58-2.566h0a2.578,2.578,0,0,1,2.58-2.576H401.62a2.578,2.578,0,0,1,2.58,2.576h0a2.578,2.578,0,0,1-2.58,2.566Z" transform="translate(-97.68 -199.46)"/></g><g transform="translate(60.357 142.314)"><path class="h" d="M76.2,194.33c-1.6,9.476,13.43,15.8,24.71,18.163s-14.27-16.785-14.27-16.785Z" transform="translate(-60.357 -142.524)"/><path class="f" d="M76.2,194.33c-1.6,9.476,13.43,15.8,24.71,18.163s-14.27-16.785-14.27-16.785Z" transform="translate(-60.357 -142.524)"/><path class="h" d="M173.12,193.279a.82.82,0,0,0-.58-.34l-4.62-.509a.81.81,0,0,0-.89.649l-.94,4.713a.848.848,0,0,0,.14.639l5.24,7.159a.811.811,0,0,0,1.09.21l5.7-3.595a.808.808,0,0,0,.24-1.148Zm-4.63.929a.549.549,0,1,1,.26-.337A.551.551,0,0,1,168.49,194.207Z" transform="translate(-60.357 -142.521)"/><path class="s" d="M173.12,193.279a.82.82,0,0,0-.58-.34l-4.62-.509a.81.81,0,0,0-.89.649l-.94,4.713a.848.848,0,0,0,.14.639l5.24,7.159a.811.811,0,0,0,1.09.21l5.7-3.595a.808.808,0,0,0,.24-1.148Zm-4.63.929a.549.549,0,1,1,.26-.337A.551.551,0,0,1,168.49,194.207Z" transform="translate(-60.357 -142.521)"/><path class="g" d="M169.26,200.184a1.307,1.307,0,0,1,.32-1.9,1.251,1.251,0,0,1,1.74.629,1.3,1.3,0,0,1-.31,1.917,1.251,1.251,0,0,1-1.75-.649Zm.55-.32c.31.529.64.609.92.459s.38-.519.05-1.088-.67-.6-.92-.459S169.48,199.306,169.81,199.865Zm3.05,3.075-.72.409.06-6.55.71-.419Zm1-2.267a1.317,1.317,0,0,1,.31-1.907,1.251,1.251,0,0,1,1.75.639,1.287,1.287,0,0,1-.31,1.907,1.251,1.251,0,0,1-1.75-.639Zm.55-.32c.3.529.64.609.91.449s.39-.519.06-1.088-.67-.6-.93-.449S174.08,199.795,174.41,200.354Z" transform="translate(-60.357 -142.527)"/><path class="u" d="M168.23,193.664s-3.1-5.931-8.55-2.706" transform="translate(-60.357 -142.517)"/><path class="g" d="M113.37,194.316l29.94-9.256,22.27,4.623v20.03L124.16,219.4l-12.48-3.754Z" transform="translate(-60.357 -142.51)"/><path class="v" d="M165.58,209.742l-21.51-5.2-32.39,11.133,12.48,3.754Z" transform="translate(-60.357 -142.539)"/><path class="w" d="M143.31,185.06l.76,19.451,21.51,5.2v-20.03Z" transform="translate(-60.357 -142.51)"/><path class="x" d="M149.87,204.536a25.25,25.25,0,0,0,2.07-1.867c.85-.9,10.05-.809,10.46.18s-1.33,5.5-2.86,5.991-8-.22-9.09-.869S149.87,204.536,149.87,204.536Z" transform="translate(-60.357 -142.535)"/><path class="x" d="M149.87,204.54l-6.56,5.272,2.37,2.7,6.26-5.791Z" transform="translate(-60.357 -142.539)"/><path class="x" d="M106.47,400.745l5.34.09c5.42-25.452,9.26-56.914,11.65-80.7.37-3.724.71-7.249,1-10.534.14-1.568.28-3.065.4-4.513.64-7.139,1.08-12.8,1.35-16.305.19-2.556.28-3.994.28-3.994H107.21l.18,4.9.61,16.275.06,1.857.41,10.694.67,18.213C102.51,362.323,106.47,400.745,106.47,400.745Z" transform="translate(-60.357 -142.66)"/><path class="x" d="M63.19,399.388l5.26,1c10.52-26.261,20.4-59.91,26.82-83.365,1-3.645,1.91-7.049,2.73-10.135a1.83,1.83,0,0,1,.12-.459c1.62-6.131,2.87-10.983,3.65-14.109.59-2.426.92-3.754.92-3.754l-19-3.285-1.08,7.988L81,304.97l-.31,2.307-1.07,7.988L76.73,336.7C65.85,360.886,63.19,399.388,63.19,399.388Z" transform="translate(-60.357 -142.66)"/><path class="f" d="M81,304.981l17,1.9a1.828,1.828,0,0,1,.12-.459c1.62-6.131,2.87-10.983,3.65-14.109l-19.17.949Z" transform="translate(-60.357 -142.671)"/><path class="f" d="M107.39,289.739l.61,16.236.06,1.857,16.42,1.817c.14-1.568.28-3.065.4-4.513.64-7.139,1.08-12.8,1.35-16.305Z" transform="translate(-60.357 -142.666)"/><path class="g" d="M122.23,418.613a10.354,10.354,0,0,0-3.34-1.817h0s-3.63-3.6-5.38-14.438l-4.76-1.238a4,4,0,0,0-4.33,1.687,2.364,2.364,0,0,0-.3.619,26.255,26.255,0,0,0-.51,3.525c-.48,3.664-.07,11.9-.07,11.9h.86l.34-7.469c.13-2.536,2.07.439,2.63,3.165s1.74,5.641,7.31,5.771C121.18,420.451,123.87,420.2,122.23,418.613Z" transform="translate(-60.357 -142.834)"/><path class="g" d="M104.25,402.889c-.31-2.546-.41-6.989-.41-6.989l10.57,1.168s-1.27,4.993-.22,8.777C108.87,404.5,104.25,402.889,104.25,402.889Z" transform="translate(-60.357 -142.827)"/><path class="g" d="M79.21,418.613a10.354,10.354,0,0,0-3.34-1.817h0s-3.63-3.6-5.38-14.438l-4.76-1.238a4.063,4.063,0,0,0-4.33,1.688,2.366,2.366,0,0,0-.3.619,26.255,26.255,0,0,0-.51,3.525c-.48,3.665-.07,11.9-.07,11.9h.86l.35-7.469c.12-2.536,2.07.439,2.62,3.165s1.74,5.641,7.31,5.771C78.16,420.451,80.86,420.2,79.21,418.613Z" transform="translate(-60.357 -142.834)"/><path class="g" d="M61.24,402.889c-.32-2.546-.41-6.989-.41-6.989l10.57,1.168s-1.28,4.993-.23,8.777C65.85,404.5,61.24,402.889,61.24,402.889Z" transform="translate(-60.357 -142.827)"/><path class="x" d="M92.43,175.959a2.07,2.07,0,0,0,.25.19,11.837,11.837,0,0,0,4.09,2c4.32,1,7.27.4,9.19-1.548h0c2.7-2.926,3.37-8.118,3-14.368a23.094,23.094,0,0,0-1.37-7.309v-.11a1.577,1.577,0,0,0-.1-.26,8.557,8.557,0,0,0-6.29-5.212,17.552,17.552,0,0,0-3.7-.419C85.27,148.75,83.07,168.97,92.43,175.959Z" transform="translate(-60.357 -142.456)"/><path class="f" d="M92.68,176.139A11.358,11.358,0,0,0,96.77,178c4.32,1,7.27.27,9.19-1.717a12.187,12.187,0,0,1-7.75-.629C96.47,174.811,94.52,175.22,92.68,176.139Z" transform="translate(-60.357 -142.495)"/><path class="x" d="M91.44,187.148c-.75,3.475,3.75,4.883,3.75,4.883,7.37-3.135,8.74-7.049,8.74-7.049-6.15-3.205-4.37-12.252-4.37-12.252l-1.25.609-8.77,1.717s2.43,4.663,2.75,5.731h0C94,186.379,91.44,187.148,91.44,187.148Z" transform="translate(-60.357 -142.491)"/><path class="g" d="M107.6,154.786s.67,8.557-7.44,12.232c0,0-3.49,8.877-8.62,8.986-7,.17-13.16-9.765-10.74-19.89C84,143,103.86,141.946,107.6,154.786Z" transform="translate(-60.357 -142.451)"/><path class="x" d="M104.27,164.585c0-1.338-1.08-3.575-3.16-3.275s-3.34,5.612,1.94,6.79C103.81,168.269,104.27,167.371,104.27,164.585Z" transform="translate(-60.357 -142.474)"/><path class="g" d="M92.68,145.7s8.17-2.067,12.69,1.218c5.28,3.834,7.28,7.8,1,13.979,0,0-13.72-4.443-18.28-3.5a49.179,49.179,0,0,0-7.82,2.267C79.34,150.582,88.12,143.852,92.68,145.7Z" transform="translate(-60.357 -142.45)"/><path class="g" d="M103.93,146.085c-.51-1.208-1.56-3.864-4.64-2.4S93.92,142,92,142.5s-4,2.736-5.31,2.556a4.628,4.628,0,0,0-5.38,4.473c-.23,4.274-4,4.423-4.35,6.93s1.32,3.555,0,5.921-3.29,2.336-1.71,5.711,3.43,4.254,1.45,7.039-.53,5.422,2.37,6.61c0,0,3.83-3.824,5.67-2.237s5.84,3.664,7.6,1.238,4.87-1.508,5.56-.19,4-1.048,6.08-1.048,3.18,2.346,3.18,2.346,2.82-.769,2-5.1-2.79-16.475-1.45-19.89S103.93,146.085,103.93,146.085Z" transform="translate(-60.357 -142.446)"/><path class="g" d="M115.9,186.328s-9.75-3.275-24.46.719-13.21,9.106-13.21,9.106,11.1,19.87,12.57,42.386l31.55-3.065S125.84,199.838,115.9,186.328Z" transform="translate(-60.357 -142.51)"/><path class="h" d="M123.58,237.591h0l-.64-6.211-33.4,3.355.69,4.863h0c-12.58,22.237-9.53,47.608-9.53,47.608l-1.53,12.471s3.16,2,24.32,3.335c18.62,1.208,23.35-.719,23.35-.719C133.43,263.691,127.78,245.319,123.58,237.591Z" transform="translate(-60.357 -142.579)"/><path class="r" d="M123.58,237.591h0l-.64-6.211-33.4,3.355.69,4.863h0c-12.58,22.237-9.53,47.608-9.53,47.608l-1.53,12.471s3.16,2,24.32,3.335c18.62,1.208,23.35-.719,23.35-.719C133.43,263.691,127.78,245.319,123.58,237.591Z" transform="translate(-60.357 -142.579)"/><path class="g" d="M109.13,238.021l15.03-1.188-.2-4.553-15.17,1.588Z" transform="translate(-60.357 -142.581)"/><path class="g" d="M94.08,239.212l13.96-1.108-.33-4.114-13.94,1.458Z" transform="translate(-60.357 -142.583)"/><path class="g" d="M92.69,235.56l-3.55.369.46,3.635,3.39-.27Z" transform="translate(-60.357 -142.586)"/><path class="h" d="M121.07,214.859a66.226,66.226,0,0,1-1.12,9.486s-22.1,6.38-37.83,3.335c0,0-3.2-25.212-5.92-33.37,0,0,5.63-6.261,10.44-6.7v-4.333s11.59-3.824,17.88-.879l-.59,2.6,14.46.06a124.188,124.188,0,0,1,2.48,17.074,100.755,100.755,0,0,1,.2,12.731Z" transform="translate(-60.357 -142.504)"/><path class="f" d="M121.07,214.889c-4.47-2.177-4.26-14.119-4.26-14.119l4.06,1.388a100.757,100.757,0,0,1,.2,12.731Z" transform="translate(-60.357 -142.533)"/><path class="h" d="M118.39,185.06c6.26,4.513,12.3,23.245,15.5,26.61s13-5.352,13-5.352l2.89,3.674s-12.42,14.977-19.4,10.394c-5.1-3.385-13.56-19.64-13.56-19.64Z" transform="translate(-60.357 -142.51)"/><path class="f" d="M86.64,187.615a58.742,58.742,0,0,1,14.27-2.316S89.48,182.733,86.64,187.615Z" transform="translate(-60.357 -142.509)"/></g></g></svg>