<svg xmlns="http://www.w3.org/2000/svg" width="24" height="24" viewBox="0 0 24 24"><defs><style>.a{fill:none;}.b{fill:#3b3b3b;}</style></defs><g transform="translate(-2667 133)"><rect class="a" width="24" height="24" transform="translate(2667 -133)"/><g transform="translate(2020.105 -457.142)"><path class="b" d="M658.979,326.142a5.27,5.27,0,1,1-5.3,5.3A5.269,5.269,0,0,1,658.979,326.142Zm0,1.456a3.828,3.828,0,0,0-3.785,3.844,3.779,3.779,0,0,0,3.774,3.784h.011a3.83,3.83,0,0,0,3.848-3.784A3.879,3.879,0,0,0,658.979,327.6Z"/><path class="b" d="M658.981,337.148a9.158,9.158,0,0,1,9.09,8.211.731.731,0,0,1-1.457.115,7.675,7.675,0,0,0-15.266,0,.731.731,0,0,1-1.453-.115A9.156,9.156,0,0,1,658.981,337.148Z"/></g></g></svg>