<svg xmlns="http://www.w3.org/2000/svg" width="290.602" height="60" viewBox="0 0 290.602 60"><defs><style>.a,.b{fill:#e99a57;}.a{fill-rule:evenodd;}</style></defs><g transform="translate(239 -297)"><g transform="translate(-239 297)"><path class="a" d="M247.767,318.443a24.5,24.5,0,1,0-24.5,24.514,24.506,24.506,0,0,0,24.5-24.514m.967,0a25.463,25.463,0,1,1-25.463-25.481A25.474,25.474,0,0,1,248.734,318.443Z" transform="translate(-193.255 -288.422)"/><path class="a" d="M224.413,296.5l-4.058-.2,3.478,5.051Zm-15.72,17.223-1.338.895.432,1.831-1.017.512.88,1.1Zm-1.842-1.149-.439,1.038.691.6,1.454-.971Zm2.377-6.249-1.614.861-.464,2.114.927-1.217Zm.277-3.3-.412.2-.511,1.354Zm2.209-1.543-1.415,1.141-2.252,3.789,1.71-.913Zm.767-.482-2.007,4.118,4.264-2.266Zm1.058-1.7-1.741.976.528.091Zm-1.7,1.468-.649-.111-1.408,1.7.2-.1Zm12.989-3.7-.572,4.77,3.643,1.123Zm5.82,7.52-2.357-1.005-1.92-.593,4.8,2.528.127.155Zm.789-1.763-.368,1.536,1.434,2.4Zm-1.309-2.552.693,3.071.344-1.442Zm-.559-.306-.909,3.254,1.816.776Zm-18.14,5.183-1.324.7-1.636,2.5-1.424,1.869,1.557-.907,1-2.093Zm7.812-2.83-3.993.8-1.186.631,3.793-.048Zm-7.821,19.5-.178.1.134.111Zm.536-.793.047.339-.228,1.076.791,1.686.421-.591Zm5.63-3.568,1.728,2.788,1.932-.8Zm4.015-3.948-2.374,1.261,2.357,1.141Zm-4.27-1.619-1.877,1.32,2.826,1.141Zm6.1.414-1.353.932-.021,2.965,2.162,2.452Zm-.319-.359-3.305-1.263-1.74.81,3.738,1.353Zm-1.535,4.494-2.819-1.366-1.474,1.677,4.274,2.321Zm-.265,3.491-2.135.886-2.993-2.284,2.382,8.414.839-3Zm2.816-.291-1.346.04,1.034.5Zm1.6-.275-.724.164.34.367Zm-1.233,3.156-3.655,1.391,2.481.824,1.213-.99Zm2.129,5.632.35-.612-1,.359-2.677.208,1.941.99Zm-.482-8.546-.64.885-.614.091.071,1.5,1.309,1.458-.09,1.418-.016,2.368,1.075-.384Zm-12.317,10.513-1.378-.791-.829,4.325Zm.9-2.826-2.411-2.561-.391-.831.57,4.908,1.518.869Zm11.578,5.546-1.178.086,1.794,1.567Zm-1.1-.939-.267.561.9-.065Zm-4.177,2.033-2.094.593.838,1.638Zm-5.871.264-.644.031-.061,1.149Zm1.889-.091-1.154.055,1.286-.011Zm-5.806-14.723-2.825-.461,2.455,2.652.629-.349Zm4.341,15.426.152,2.161,3.24-.437Zm2.863-.193-2.155.018,2.926,1.486Zm-2.957-16.681-2.863-3.993-.924,5.207,1.565,3.807Zm6.89,10.236-3.9-.109-1.7-1.365-1.239.552,3.28,1.753,5.4.112Zm9.942-16.613-.28-.391-.407-.023.779.818Zm-1.876,2.222-.054.559.417,2.972-.051.163.209-.156.822-1.957Zm1.385-3.8-1.178.13.5.525.75.044Zm1.139-.994-.678.805.108,1.053.154.216.471-.58Zm-6.287-1.913-3.633-.876-4.184,1.731,1.108,2.3,3.869,1.477.915,7.385,1.259-.286-.213-1.069-.865-4.328,1.437-2.581,3.306-1.008Zm-9.676,4.457-2.125-1.282-2.1,3.088,3.015,4.206.815-.774-1.966-3.578Zm-9.049.573-.93-.937-.055.93,1.4.546Zm-1.088,2.525-.422-.367.216,1.594-.016.62.59-.3Zm11.568-6.489-3.155,1.794,2.176,1.312,2.021-.939ZM220.753,305l-2.664-.77-.792,1.787,1.246,1.439Zm3.357-2.66-.565,1.3,4.176,2.263.967-1.147Zm-4.893-5.75-3.69,1.6-2.761,2.43,2.35,1.928Zm11.7,9.374-2.466.376,2.51,1.571,1.092,1.435.824-.978Zm-1.795-.985-.752.892,1.9-.289Zm-6.874-.961-2.8.108,1.714.5Zm-4.5,3.977-2.668-.207-.023,1.74Zm-5.654,6.219-1.939,2.369-1.88,1.842,2.985.488Zm-.644-4.087-2.616-.391-1.626.947.983.988Zm.556,3.44-2.617-.129.7,2.479Zm-2.919.566-.89,3.7,1.513-1.482Zm2.957-3.759-3.257,1.543,3.441,1.1Zm3.668,8.244-2.162,4.885,4.587,3.68Zm-.566,8.969-.644,2.157,3.536-.613Zm-1.2,3.25-2.277,3.644,2.37-.651Zm7.817,5.809-1.969.265-3.024.408,1.806.455Zm2.7-3.667-3.24.131.4.224,4.89,1.435Zm.216-1.066-2.34.675,2.055-.082Zm-7.774-.89-2.491-.665.1,3.088Zm.659.295-.208,2.229,2.466-.726Zm6.245.35-5.546-.457,2.156,1.434Zm1.62-1.163-.058.923.579.454Zm1.1-1.7-.983.671.77,2.038Zm-1.526.812-4.793-.1,4.692,1.69Zm-5.275-5.037-.848,3.026,3.084.088Zm7.864-8.957-2.045-1.581.69,3.446,2.614.281Zm-.973-4.241-.967,1.738,2.729-.587Zm3.476,1.055-.744.316.623.919Zm.363-1.822.155,1.444-.063.635,1.357,1,.63-.9Zm-13.482-4.24-1.434.973,2.438.189Zm-5.2-.892-1.458,1.656,3.791.129Zm2.822,2.616-1.728,1.656,1.707-.047Zm8.645-4.085-1.575.871,1.455.852,3.63.876.57-.389Zm7.39,4.255-2.848-1.782-.6.411,3.048,2.795,1.37-.153Zm-10.746-11.806-4.19,6.084,4.25-.854,3.589.069Zm9.754,15.647-1.738-.459,1.112.726Zm-.6,1.031-.794,1.839,1.55-.725Zm2.7,1.017-.939-.693.974,1.149Zm-1.585,3.667-.666.4-2.336,4.866.441,2.949Zm-5.732,2.837-.343.05-.482.956-1.929,1.432,2.818-1.073Zm1.364,3.054-.794-.883.028.925.721.678ZM225.7,325.2l-2.153.045-.775,2.433,2.914-.227Zm-8.116-21.014-3.547.044-1.853.964,2.667,2.043,1.973-1.337Zm6.046-1.945-3.567-.068-1.511,1.509,4.524-.172Zm-9.362,5.509-4.317-.146-.814,1.7,3.035.454Zm6.961-2.568-1.812,2.014,3.076-1.273Zm8.709,5.072-2.536.773,2.694.713Zm.017,4.452-1.843.859,1.269,2.161.92-.549Zm-1.37-1.73-2.848.61,1.939,1.5Zm.348,5.28-2.6-.281.195.986.492,3.285Zm-4.169,5.923-.707.58,1.294-.03Zm-4.708-.486,3.156-2.342.377-.747-1.683-.805Zm3.014,1.47L220,324.137l2.353,3.278Zm1.523-5.367-.226.39.518-.077Zm-10.245-9.605-1.839.05.168,2.406Zm-5.567,2.225.407.537,1.5.072Zm4.52,11.5-.475.666,2.229,2.367,1.3-.581Zm3.755,7.623-2.173,2.2,1.977-.1Zm3.849,1.94-.563-.319-2.473.729.724.244Zm-5.78,1.706-.644,1.075.758.515Zm11.411.088-4.9-1.438-1.431,2.538,3.764-.508Zm-12.509-.947-2.435.668,1.087,1.126,1.254-.023Zm5.248-21.883-1.424-.515.831,2.155Zm1.976.716-1.509-.547-.595,1.665Zm-5.766.587,1.466,2.666,1.344-1.53Zm6.566,3.178-.016,2.308,2-.059Zm-5.193.276-.732.695,2.2,1.68Zm1.879,12.291-3.469.6,2.131.569,5.947.489Zm10.574-30.381-4.054-2.245,3.047,5.848Z" transform="translate(-189.703 -287.013)"/><path class="a" d="M206.24,298.4l.016-.011c.014-.011.031-.023.047-.037a1.124,1.124,0,0,0,.42-.626.65.65,0,0,0-.153-.547.653.653,0,0,0-.977-.084,2.109,2.109,0,0,0-.24.251Zm-4.843,5.43c.047-.044.091-.089.135-.135a1.7,1.7,0,0,0,.115-.135.569.569,0,0,0,.1-.458.718.718,0,0,0-.3-.446.943.943,0,0,0-.38-.167.592.592,0,0,0-.36.037.736.736,0,0,0-.288.24,1.364,1.364,0,0,0-.133.246ZM215.4,346.432l-.02-.008-.052-.02a1.117,1.117,0,0,0-.752-.048.651.651,0,0,0-.4.409.653.653,0,0,0,.423.886,1.975,1.975,0,0,0,.336.079Zm7.143,1.456c-.061-.017-.122-.033-.184-.047a1.736,1.736,0,0,0-.176-.028.559.559,0,0,0-.44.152.71.71,0,0,0-.228.487.952.952,0,0,0,.051.413.58.58,0,0,0,.217.289.7.7,0,0,0,.353.125,1.336,1.336,0,0,0,.281-.011ZM239.1,293.416l-.651,1.228-.2-.109.021-.057a1.512,1.512,0,0,0,.112-.559.827.827,0,0,0-.143-.429.926.926,0,0,0-.335-.311.575.575,0,0,0-.434-.06.443.443,0,0,0-.3.22.4.4,0,0,0-.034.274,3.183,3.183,0,0,0,.437.815,5.373,5.373,0,0,1,.423.7,1.088,1.088,0,0,1,.1.468.969.969,0,0,1-.113.443,1,1,0,0,1-.655.511,1.226,1.226,0,0,1-.916-.128,1.812,1.812,0,0,1-.258-.166,2.5,2.5,0,0,1-.265-.254,1.576,1.576,0,0,0-.233-.216.074.074,0,0,0-.057-.01.342.342,0,0,0-.1.1l-.036.048-.2-.106.645-1.219.2.106-.018.057a1.738,1.738,0,0,0-.1.575.829.829,0,0,0,.155.417,1.033,1.033,0,0,0,.383.338.686.686,0,0,0,.5.085.48.48,0,0,0,.322-.243.5.5,0,0,0,.054-.24.743.743,0,0,0-.075-.3,4.991,4.991,0,0,0-.339-.558,5.222,5.222,0,0,1-.4-.684,1.17,1.17,0,0,1-.111-.47.92.92,0,0,1,.109-.444.963.963,0,0,1,.623-.487,1.141,1.141,0,0,1,.855.114,1.6,1.6,0,0,1,.5.43.73.73,0,0,0,.133.139.089.089,0,0,0,.068.011.365.365,0,0,0,.106-.092l.037-.043Zm-4.443-1.648.081-.226,1.329.471-.079.226-.194-.068a.294.294,0,0,0-.3.048.956.956,0,0,0-.156.311l-.491,1.381a2.661,2.661,0,0,1-.394.781,1.14,1.14,0,0,1-.609.368,1.588,1.588,0,0,1-.921-.087,1.718,1.718,0,0,1-.809-.518,1.182,1.182,0,0,1-.238-.707,3.174,3.174,0,0,1,.221-.891l.472-1.333a.771.771,0,0,0,.06-.393.329.329,0,0,0-.2-.156l-.193-.069.079-.224,1.6.568-.079.226-.2-.07a.3.3,0,0,0-.284.017.874.874,0,0,0-.17.321l-.526,1.486a3.168,3.168,0,0,0-.123.458,1,1,0,0,0-.011.416.709.709,0,0,0,.176.3.922.922,0,0,0,.379.23,1.209,1.209,0,0,0,.614.064.768.768,0,0,0,.453-.223,2.381,2.381,0,0,0,.356-.712l.489-1.38a.9.9,0,0,0,.072-.375.329.329,0,0,0-.21-.173Zm-7.3-.914-.3,2.074a.9.9,0,0,0,0,.373.347.347,0,0,0,.25.125l.2.028-.034.237-1.4-.2.034-.236.2.027a.312.312,0,0,0,.284-.068.945.945,0,0,0,.1-.341l.335-2.339a.806.806,0,0,0,0-.319.237.237,0,0,0-.094-.114.75.75,0,0,0-.284-.087l-.069-.01.034-.236,1.14.163.858,2.883,1.621-2.526,1.131.16-.034.237-.194-.028a.322.322,0,0,0-.288.068.96.96,0,0,0-.1.341l-.335,2.34a.855.855,0,0,0,0,.375.347.347,0,0,0,.248.125l.2.028-.034.236-1.674-.238.035-.238.2.03a.313.313,0,0,0,.285-.07.916.916,0,0,0,.1-.339l.3-2.074-1.658,2.583-.176-.026Zm-5.207-.62.078,1.287.725-.044a.654.654,0,0,0,.362-.1.557.557,0,0,0,.106-.387v-.068l.235-.014.084,1.4-.23.014-.011-.06a1.42,1.42,0,0,0-.087-.314.272.272,0,0,0-.132-.108.77.77,0,0,0-.306-.028l-.726.044.068,1.121a1.33,1.33,0,0,0,.031.264.094.094,0,0,0,.048.045.508.508,0,0,0,.167.011l.61-.036a1.684,1.684,0,0,0,.421-.067.581.581,0,0,0,.227-.163,2.006,2.006,0,0,0,.3-.5l.017-.04.25-.013-.3,1.064-2.9.175-.013-.238.2-.011a.425.425,0,0,0,.209-.07.142.142,0,0,0,.075-.091,1.331,1.331,0,0,0,.007-.328l-.14-2.348a.984.984,0,0,0-.074-.373.378.378,0,0,0-.274-.067l-.2.011-.014-.238,2.921-.175.1.932-.235.016-.014-.057a1.314,1.314,0,0,0-.136-.365.363.363,0,0,0-.176-.126,1.255,1.255,0,0,0-.35-.014Zm-5.67,1.621.44,2.049a.916.916,0,0,0,.13.351.354.354,0,0,0,.277.031l.194-.043.05.234-1.379.3-.051-.233.2-.043a.316.316,0,0,0,.244-.163.958.958,0,0,0-.028-.352l-.5-2.311a.886.886,0,0,0-.111-.3.239.239,0,0,0-.128-.074.748.748,0,0,0-.3.017l-.068.014-.05-.233,1.126-.241,1.8,2.407.647-2.932,1.116-.238.051.234-.193.04a.319.319,0,0,0-.245.163.934.934,0,0,0,.027.353l.5,2.311c.017.074.069.3.135.35a.347.347,0,0,0,.277.03l.192-.038.05.231-1.651.355-.05-.234.2-.041a.313.313,0,0,0,.243-.163.955.955,0,0,0-.028-.352l-.438-2.048-.662,3-.174.037Zm-3.177.424-.094-.22,1.294-.562.1.22-.189.081a.293.293,0,0,0-.187.243.953.953,0,0,0,.1.334l.586,1.345a2.646,2.646,0,0,1,.243.84,1.149,1.149,0,0,1-.193.683,1.6,1.6,0,0,1-.732.565,1.727,1.727,0,0,1-.946.175,1.178,1.178,0,0,1-.655-.355,3.165,3.165,0,0,1-.447-.8l-.563-1.3c-.037-.088-.13-.284-.223-.328a.322.322,0,0,0-.255.023l-.189.084-.1-.219,1.559-.678.1.217-.19.084a.3.3,0,0,0-.2.206.871.871,0,0,0,.092.352l.628,1.445a3.286,3.286,0,0,0,.224.419.966.966,0,0,0,.275.311.7.7,0,0,0,.335.1.941.941,0,0,0,.434-.091,1.23,1.23,0,0,0,.494-.373.769.769,0,0,0,.177-.471,2.381,2.381,0,0,0-.226-.764l-.584-1.344c-.03-.07-.129-.288-.2-.322a.33.33,0,0,0-.271.016Zm-4.484,2.441.674,1.086.5-.308a.437.437,0,0,0,.2-.219.664.664,0,0,0-.087-.365l-.026-.057.194-.122.723,1.162-.2.126-.038-.058a.683.683,0,0,0-.186-.211.272.272,0,0,0-.162-.04.553.553,0,0,0-.227.091l-.5.309.565.91a1.308,1.308,0,0,0,.2.27.16.16,0,0,0,.108.024.428.428,0,0,0,.207-.064l.169-.105.126.2-1.434.893-.125-.2.167-.1a.33.33,0,0,0,.174-.23.943.943,0,0,0-.152-.339l-1.235-1.987a1.226,1.226,0,0,0-.2-.27.176.176,0,0,0-.111-.027.415.415,0,0,0-.207.067l-.169.1-.125-.2,2.394-1.489.533.772-.187.116-.04-.037a1.048,1.048,0,0,0-.311-.217.457.457,0,0,0-.247-.024,1.18,1.18,0,0,0-.357.163Zm-2.172,3.741c-.045.041-.089.081-.136.121l-.057.045-.009.006.631.749c.048.055.209.241.288.251a.316.316,0,0,0,.251-.091l.16-.135.155.182-1.291,1.09-.156-.182.157-.133a.3.3,0,0,0,.13-.265,1.014,1.014,0,0,0-.194-.3l-1.508-1.79c-.047-.057-.207-.241-.287-.251a.331.331,0,0,0-.255.092l-.157.133-.153-.183,1.06-.893a3.2,3.2,0,0,1,.722-.5,1.032,1.032,0,0,1,.593-.067.88.88,0,0,1,.535.312.92.92,0,0,1,.223.629,1.24,1.24,0,0,1-.243.656l1.138.285a1.9,1.9,0,0,0,.617.078,1.036,1.036,0,0,0,.433-.183l.052-.034.149.176-.821.693Zm-4.179,1.676.962.857.482-.544a.659.659,0,0,0,.187-.324.564.564,0,0,0-.2-.351l-.048-.047.156-.178,1.047.931-.152.173-.051-.034a1.445,1.445,0,0,0-.284-.162.275.275,0,0,0-.169.017.792.792,0,0,0-.237.2l-.484.544.84.747a1.445,1.445,0,0,0,.206.163.112.112,0,0,0,.068,0,.456.456,0,0,0,.128-.112l.407-.457a1.654,1.654,0,0,0,.253-.342.622.622,0,0,0,.044-.278,1.973,1.973,0,0,0-.143-.562l-.016-.041.167-.186.542.964-1.933,2.174-.177-.16.132-.146a.454.454,0,0,0,.1-.2.151.151,0,0,0-.014-.121,1.254,1.254,0,0,0-.224-.236l-1.757-1.564c-.051-.045-.243-.211-.313-.211a.364.364,0,0,0-.241.145l-.133.149-.177-.159,1.945-2.186.729.589-.156.177-.05-.03a1.33,1.33,0,0,0-.353-.163.381.381,0,0,0-.214.034,1.251,1.251,0,0,0-.26.238ZM201.638,304l.783.575c.058.043.26.184.338.176a.32.32,0,0,0,.224-.149l.122-.169.194.141-1,1.364-.193-.139.122-.169a.3.3,0,0,0,.064-.285,1.034,1.034,0,0,0-.26-.243l-1.889-1.382c-.058-.043-.258-.185-.333-.179a.334.334,0,0,0-.228.153l-.123.166-.191-.142.824-1.126a2.442,2.442,0,0,1,.55-.576,1.12,1.12,0,0,1,.586-.193.938.938,0,0,1,.613.19,1.024,1.024,0,0,1,.437.708,1.244,1.244,0,0,1-.277.88,2.987,2.987,0,0,1-.365.4Zm-.315,2.438a.362.362,0,0,1,.226-.169.356.356,0,0,1,.274.041.364.364,0,0,1-.1.667.367.367,0,0,1-.445-.264A.36.36,0,0,1,201.323,306.438Zm-4.054,3.67,1.936.8a.906.906,0,0,0,.365.089.351.351,0,0,0,.182-.212l.077-.183.22.091-.536,1.3-.221-.088.077-.186a.317.317,0,0,0,0-.292.926.926,0,0,0-.306-.177l-2.186-.9a.806.806,0,0,0-.309-.077.244.244,0,0,0-.132.062.738.738,0,0,0-.153.254l-.026.064-.221-.088.438-1.067,3-.126-2.05-2.191.433-1.056.221.089-.074.182a.323.323,0,0,0,0,.3.955.955,0,0,0,.306.177l2.184.9a.86.86,0,0,0,.365.088.358.358,0,0,0,.182-.211l.075-.182.221.091-.643,1.563-.221-.089.077-.184a.312.312,0,0,0,0-.294.949.949,0,0,0-.306-.176l-1.936-.8,2.1,2.241-.068.165ZM195.7,312.93l-.235-.045.27-1.385.235.044-.04.2a.3.3,0,0,0,.094.294.98.98,0,0,0,.328.108l1.44.281a2.7,2.7,0,0,1,.83.274,1.143,1.143,0,0,1,.452.548,1.6,1.6,0,0,1,.051.924,1.729,1.729,0,0,1-.392.877,1.179,1.179,0,0,1-.664.339,3.175,3.175,0,0,1-.915-.085l-1.386-.271a.755.755,0,0,0-.4,0,.321.321,0,0,0-.125.224l-.04.2-.234-.045.325-1.671.234.045-.04.2a.3.3,0,0,0,.06.28.857.857,0,0,0,.342.121l1.545.3a3.539,3.539,0,0,0,.472.054,1.009,1.009,0,0,0,.411-.051.711.711,0,0,0,.274-.219.936.936,0,0,0,.173-.409,1.238,1.238,0,0,0-.028-.619.757.757,0,0,0-.288-.413,2.342,2.342,0,0,0-.756-.247l-1.437-.281a.886.886,0,0,0-.38-.016.332.332,0,0,0-.142.233Zm-.647,5.19,1.284.119.065-.724a.675.675,0,0,0-.041-.372.567.567,0,0,0-.367-.166l-.065-.009.02-.234,1.4.128-.02.23-.062,0a1.36,1.36,0,0,0-.323.038.256.256,0,0,0-.125.114.777.777,0,0,0-.075.3l-.067.725,1.118.1a1.391,1.391,0,0,0,.265.01.1.1,0,0,0,.052-.041.456.456,0,0,0,.037-.165l.057-.609a1.658,1.658,0,0,0,0-.427.589.589,0,0,0-.129-.248,1.949,1.949,0,0,0-.45-.369l-.035-.023.023-.25,1.009.454-.267,2.9-.238-.021.018-.2a.443.443,0,0,0-.035-.217.146.146,0,0,0-.079-.089,1.357,1.357,0,0,0-.323-.057l-2.34-.216a.993.993,0,0,0-.379.017.366.366,0,0,0-.108.26l-.017.2-.238-.021.268-2.914.936.041-.02.234-.058.006a1.323,1.323,0,0,0-.38.079.363.363,0,0,0-.152.155,1.22,1.22,0,0,0-.067.345Zm-.45,2.438,1.387-.084.014.23-.06.011a1.5,1.5,0,0,0-.536.2.827.827,0,0,0-.292.346.9.9,0,0,0-.089.447.579.579,0,0,0,.173.4.457.457,0,0,0,.343.139.392.392,0,0,0,.251-.114,3.176,3.176,0,0,0,.47-.8,5.07,5.07,0,0,1,.38-.728,1.091,1.091,0,0,1,.348-.326.993.993,0,0,1,.438-.133,1,1,0,0,1,.777.3,1.225,1.225,0,0,1,.369.847,2.046,2.046,0,0,1-.007.309,2.6,2.6,0,0,1-.081.358,1.718,1.718,0,0,0-.062.312.079.079,0,0,0,.021.053.361.361,0,0,0,.133.033l.06.006.013.229-1.376.081-.014-.227.058-.014a1.7,1.7,0,0,0,.546-.21.84.84,0,0,0,.274-.349,1.054,1.054,0,0,0,.091-.5.7.7,0,0,0-.186-.468.481.481,0,0,0-.374-.149.509.509,0,0,0-.234.078.762.762,0,0,0-.218.223,4.959,4.959,0,0,0-.3.579,5.151,5.151,0,0,1-.379.7,1.181,1.181,0,0,1-.342.339.918.918,0,0,1-.438.135.955.955,0,0,1-.738-.277,1.142,1.142,0,0,1-.347-.791,1.578,1.578,0,0,1,.108-.647.712.712,0,0,0,.048-.187.091.091,0,0,0-.024-.062.315.315,0,0,0-.135-.044l-.055-.009Zm.821,4.682-.234.05-.3-1.381.234-.05.044.2a.3.3,0,0,0,.2.233.98.98,0,0,0,.345-.03l1.433-.308a2.7,2.7,0,0,1,.872-.072,1.133,1.133,0,0,1,.631.325,1.6,1.6,0,0,1,.41.83,1.737,1.737,0,0,1-.017.959,1.175,1.175,0,0,1-.477.575,3.2,3.2,0,0,1-.875.278l-1.382.3a.777.777,0,0,0-.366.155.321.321,0,0,0-.026.255l.043.2-.234.048-.356-1.662.233-.051.044.2a.3.3,0,0,0,.163.233.875.875,0,0,0,.363-.023l1.539-.331a3.361,3.361,0,0,0,.455-.135.971.971,0,0,0,.359-.209.705.705,0,0,0,.167-.308.96.96,0,0,0,0-.444,1.225,1.225,0,0,0-.268-.558.761.761,0,0,0-.427-.268,2.367,2.367,0,0,0-.792.071l-1.431.308a.893.893,0,0,0-.356.133.327.327,0,0,0-.038.27Zm2.8,6.647,1.959-.739c.068-.026.291-.115.328-.183a.342.342,0,0,0-.01-.277l-.071-.187.223-.085.5,1.321-.224.084-.071-.187a.306.306,0,0,0-.2-.214.892.892,0,0,0-.343.079l-2.21.833a.858.858,0,0,0-.279.156.227.227,0,0,0-.054.136.743.743,0,0,0,.061.291l.026.065-.224.084-.406-1.077,2.109-2.142-2.994-.2-.4-1.067.223-.087.07.186a.312.312,0,0,0,.2.217.935.935,0,0,0,.345-.078l2.209-.836c.069-.026.291-.113.326-.183a.349.349,0,0,0-.01-.28l-.071-.184.224-.082.6,1.58-.224.085-.071-.187a.312.312,0,0,0-.2-.216.952.952,0,0,0-.345.079l-1.959.739,3.061.209.064.166ZM200.4,336.8l1.06-.732-.411-.6c-.055-.079-.17-.236-.271-.26a.57.57,0,0,0-.389.111l-.055.034-.135-.193,1.153-.8.129.189-.045.041a1.462,1.462,0,0,0-.223.237.268.268,0,0,0-.023.169.773.773,0,0,0,.135.277l.413.6.923-.637a1.342,1.342,0,0,0,.209-.163.093.093,0,0,0,.014-.065.5.5,0,0,0-.077-.15l-.349-.5a1.573,1.573,0,0,0-.272-.325.574.574,0,0,0-.26-.111,1.989,1.989,0,0,0-.58.007l-.043.006-.14-.207,1.064-.3,1.653,2.393-.2.136-.113-.165a.421.421,0,0,0-.165-.142.154.154,0,0,0-.119-.017,1.316,1.316,0,0,0-.284.163l-1.935,1.337c-.057.04-.264.186-.281.257a.368.368,0,0,0,.085.268l.112.162-.2.138-1.662-2.408.746-.571.133.194-.041.041a1.362,1.362,0,0,0-.241.307.358.358,0,0,0-.017.214,1.215,1.215,0,0,0,.17.308Zm4.245,4.051,1.535-1.426c.054-.05.227-.214.235-.292a.355.355,0,0,0-.116-.254l-.135-.145.174-.163.96,1.036-.176.162-.135-.148a.312.312,0,0,0-.265-.123.934.934,0,0,0-.288.2l-1.731,1.608a.81.81,0,0,0-.2.25.234.234,0,0,0,0,.146.732.732,0,0,0,.166.244l.048.051-.173.165-.786-.845,1.145-2.782-2.848.944-.776-.837.175-.163.133.145a.322.322,0,0,0,.268.128.931.931,0,0,0,.287-.2l1.732-1.608c.054-.05.224-.214.231-.294a.343.343,0,0,0-.115-.253l-.133-.145.176-.163,1.149,1.239-.174.163-.136-.148a.315.315,0,0,0-.265-.125.953.953,0,0,0-.288.2l-1.533,1.425,2.912-.965.121.131Zm1.933,2.538-.142.193-1.14-.835.143-.19.165.119a.3.3,0,0,0,.3.04c.069-.024.2-.193.238-.251l.865-1.185a2.746,2.746,0,0,1,.6-.634,1.139,1.139,0,0,1,.688-.176,1.6,1.6,0,0,1,.858.345,1.734,1.734,0,0,1,.627.73,1.186,1.186,0,0,1,.026.745,3.167,3.167,0,0,1-.468.791l-.834,1.141a.759.759,0,0,0-.17.359.317.317,0,0,0,.15.209l.165.121-.139.194-1.373-1,.14-.192.169.122a.3.3,0,0,0,.277.065c.081-.028.2-.192.254-.258l.931-1.273a3.347,3.347,0,0,0,.25-.4.985.985,0,0,0,.128-.395.692.692,0,0,0-.079-.341.927.927,0,0,0-.3-.331,1.223,1.223,0,0,0-.57-.237.758.758,0,0,0-.5.085,2.362,2.362,0,0,0-.545.58l-.864,1.181c-.045.063-.183.257-.176.338a.337.337,0,0,0,.152.227Zm4.352,2.655.6-1.13-.516-.274a.428.428,0,0,0-.289-.062c-.1.028-.214.173-.271.257l-.035.051-.2-.106.64-1.211.21.112-.031.062a.718.718,0,0,0-.089.265.277.277,0,0,0,.048.16.544.544,0,0,0,.194.149l.515.275.5-.947a1.363,1.363,0,0,0,.131-.312.164.164,0,0,0-.034-.105.419.419,0,0,0-.159-.148l-.176-.094.111-.21,1.494.791-.112.211-.174-.092a.328.328,0,0,0-.287-.037c-.071.033-.182.236-.217.3l-1.1,2.069a1.3,1.3,0,0,0-.132.308.174.174,0,0,0,.034.108.412.412,0,0,0,.16.148l.176.094-.112.211-2.492-1.323.4-.849.194.1-.011.053a1.065,1.065,0,0,0-.033.378.476.476,0,0,0,.1.227,1.187,1.187,0,0,0,.322.226Zm4.322.009c.058.018.115.035.172.057l.072.027.006,0,.328-.922a.92.92,0,0,0,.072-.376.319.319,0,0,0-.2-.17l-.2-.071.081-.224,1.593.565-.081.226-.194-.07a.3.3,0,0,0-.294.021,1.033,1.033,0,0,0-.157.316l-.783,2.207a.885.885,0,0,0-.072.373.336.336,0,0,0,.21.175l.193.07-.079.224-1.306-.466a3.206,3.206,0,0,1-.792-.372,1.042,1.042,0,0,1-.356-.48.881.881,0,0,1,0-.617.915.915,0,0,1,.431-.512,1.235,1.235,0,0,1,.688-.121l-.329-1.126a1.942,1.942,0,0,0-.243-.573,1.074,1.074,0,0,0-.377-.282l-.057-.027.078-.217,1.011.359Zm3.57,2.782.245-1.266-.712-.139a.672.672,0,0,0-.374,0,.574.574,0,0,0-.2.349l-.016.064-.23-.043.267-1.377.226.044,0,.061a1.472,1.472,0,0,0,.006.326.263.263,0,0,0,.1.136.769.769,0,0,0,.289.1l.712.139.216-1.1a1.306,1.306,0,0,0,.035-.263.091.091,0,0,0-.035-.057.465.465,0,0,0-.159-.053l-.6-.118a1.71,1.71,0,0,0-.424-.041.586.586,0,0,0-.261.1,1.973,1.973,0,0,0-.41.41l-.027.034-.245-.05.553-.957,2.853.555-.044.234-.2-.038a.456.456,0,0,0-.218.013.161.161,0,0,0-.1.072,1.349,1.349,0,0,0-.089.316l-.448,2.309a.979.979,0,0,0-.023.378.37.37,0,0,0,.248.133l.194.038-.045.234-2.871-.561.136-.928.23.045V348a1.31,1.31,0,0,0,.041.387.36.36,0,0,0,.138.166,1.21,1.21,0,0,0,.338.1Zm3.748-1.241.089-.968a.879.879,0,0,0-.023-.38.326.326,0,0,0-.244-.116l-.207-.019.021-.238,1.684.156-.023.237-.206-.018a.3.3,0,0,0-.279.092,1.05,1.05,0,0,0-.074.348l-.216,2.331a.947.947,0,0,0,.02.38.34.34,0,0,0,.247.118l.206.017-.02.24-1.392-.129a2.469,2.469,0,0,1-.776-.176,1.13,1.13,0,0,1-.467-.4.932.932,0,0,1-.152-.623,1.026,1.026,0,0,1,.383-.739,1.238,1.238,0,0,1,.9-.216,2.37,2.37,0,0,1,.286.047C222.413,347.546,222.494,347.567,222.575,347.591Zm29.8-33.015,0,.02c0,.018,0,.038.009.058a1.107,1.107,0,0,0,.319.683.654.654,0,0,0,.549.149.685.685,0,0,0,.465-.267.678.678,0,0,0,.106-.529,2.006,2.006,0,0,0-.091-.333Zm-2.321-7.014c.017.061.035.122.058.183a1.179,1.179,0,0,0,.067.165.563.563,0,0,0,.36.3.714.714,0,0,0,.533-.062.936.936,0,0,0,.325-.26.6.6,0,0,0,.133-.336.731.731,0,0,0-.079-.366,1.31,1.31,0,0,0-.156-.233Zm-21.923,39.23-.939,2.851-1.135.126-.027-.238.2-.023a.317.317,0,0,0,.261-.138.922.922,0,0,0,.009-.353l-.261-2.348a.844.844,0,0,0-.1-.363.345.345,0,0,0-.271-.058l-.2.021-.024-.238,1.679-.186.024.237-.2.023a.317.317,0,0,0-.258.139.923.923,0,0,0-.009.353l.23,2.081.962-2.915.176-.02,1.58,2.636-.23-2.084a.906.906,0,0,0-.1-.362.35.35,0,0,0-.272-.058l-.2.021-.026-.237,1.4-.156.026.238-.2.023a.314.314,0,0,0-.258.138.944.944,0,0,0-.007.352l.26,2.35a.833.833,0,0,0,.081.309.238.238,0,0,0,.118.085.72.72,0,0,0,.3.011l.07-.007.027.237-1.145.126Zm4.918,1.514.074.226-1.345.433-.072-.228.2-.061a.3.3,0,0,0,.21-.223.96.96,0,0,0-.064-.342l-.45-1.4a2.667,2.667,0,0,1-.159-.861,1.131,1.131,0,0,1,.261-.66,1.592,1.592,0,0,1,.784-.491,1.721,1.721,0,0,1,.956-.079,1.18,1.18,0,0,1,.618.417,3.216,3.216,0,0,1,.365.843l.434,1.346a.756.756,0,0,0,.189.349.319.319,0,0,0,.255,0l.2-.064.072.229-1.618.521-.072-.229.2-.062a.3.3,0,0,0,.214-.187.871.871,0,0,0-.058-.358l-.482-1.5a3.287,3.287,0,0,0-.182-.439.969.969,0,0,0-.243-.336.69.69,0,0,0-.322-.135.939.939,0,0,0-.443.047,1.227,1.227,0,0,0-.526.322.762.762,0,0,0-.224.453,2.35,2.35,0,0,0,.149.781l.448,1.4c.023.071.1.3.17.341a.323.323,0,0,0,.271.011Zm4.968-2.083-.572-1.157-.65.322c-.087.043-.257.135-.3.23a.556.556,0,0,0,.051.4l.026.061-.21.107-.62-1.258.206-.1.034.051a1.429,1.429,0,0,0,.2.255.266.266,0,0,0,.163.048.781.781,0,0,0,.294-.094l.651-.321-.5-1.008a1.443,1.443,0,0,0-.132-.23.088.088,0,0,0-.062-.024.5.5,0,0,0-.159.054l-.549.271a1.69,1.69,0,0,0-.362.224.589.589,0,0,0-.146.24,2.016,2.016,0,0,0-.078.575v.043l-.224.112-.14-1.1,2.606-1.287.106.213-.179.088a.432.432,0,0,0-.165.143.149.149,0,0,0-.034.116,1.3,1.3,0,0,0,.121.3l1.041,2.109c.03.062.145.287.213.314a.359.359,0,0,0,.277-.044l.177-.088.108.213-2.623,1.3-.455-.82.211-.1.036.047a1.288,1.288,0,0,0,.265.282.361.361,0,0,0,.211.048,1.212,1.212,0,0,0,.33-.124Zm2.348-.785-.79-1.141.189-.133.041.045a1.534,1.534,0,0,0,.445.359.833.833,0,0,0,.447.07.923.923,0,0,0,.428-.153.585.585,0,0,0,.254-.359.447.447,0,0,0-.058-.365.391.391,0,0,0-.228-.156,3.1,3.1,0,0,0-.923.011,4.954,4.954,0,0,1-.818.05,1.107,1.107,0,0,1-.46-.126.985.985,0,0,1-.342-.307,1,1,0,0,1-.15-.819,1.225,1.225,0,0,1,.533-.754,1.794,1.794,0,0,1,.267-.152,2.487,2.487,0,0,1,.35-.119,1.576,1.576,0,0,0,.3-.109.071.071,0,0,0,.033-.044.336.336,0,0,0-.041-.131l-.027-.054.187-.129.786,1.134-.189.129-.041-.041a1.714,1.714,0,0,0-.462-.358.83.83,0,0,0-.44-.055,1.06,1.06,0,0,0-.478.183.7.7,0,0,0-.3.4.483.483,0,0,0,.067.4.517.517,0,0,0,.187.158.751.751,0,0,0,.3.072,4.77,4.77,0,0,0,.65-.043,5.086,5.086,0,0,1,.79-.037,1.181,1.181,0,0,1,.467.118.9.9,0,0,1,.343.3.966.966,0,0,1,.146.776,1.143,1.143,0,0,1-.5.707,1.593,1.593,0,0,1-.61.243.688.688,0,0,0-.186.055.093.093,0,0,0-.041.053.331.331,0,0,0,.033.138l.023.053Zm3.467-2.958.155.182-1.079.911-.153-.183.157-.134a.3.3,0,0,0,.109-.285.953.953,0,0,0-.187-.291l-.946-1.121a2.765,2.765,0,0,1-.474-.735,1.145,1.145,0,0,1-.01-.71,1.594,1.594,0,0,1,.54-.752,1.706,1.706,0,0,1,.855-.437,1.178,1.178,0,0,1,.729.15,3.2,3.2,0,0,1,.658.642l.911,1.08c.062.074.207.236.308.251a.332.332,0,0,0,.238-.1l.157-.132.153.183-1.3,1.1-.152-.186.157-.132a.3.3,0,0,0,.131-.253.868.868,0,0,0-.191-.311l-1.016-1.2a3.4,3.4,0,0,0-.333-.338.99.99,0,0,0-.353-.219.714.714,0,0,0-.35,0,.952.952,0,0,0-.39.21,1.224,1.224,0,0,0-.365.5.752.752,0,0,0-.035.5,2.352,2.352,0,0,0,.434.666l.943,1.12c.048.058.207.24.286.251a.325.325,0,0,0,.255-.094Zm4.46-5.835-1.63-1.316c-.058-.047-.245-.193-.322-.19a.348.348,0,0,0-.235.151l-.125.153-.184-.149.885-1.1.186.15-.126.155a.315.315,0,0,0-.085.28c.021.074.184.209.243.255l1.838,1.486a.819.819,0,0,0,.275.162.235.235,0,0,0,.145-.023.733.733,0,0,0,.218-.2l.044-.055.186.152-.723.9-2.914-.735,1.34,2.685-.718.89-.186-.15.123-.153a.324.324,0,0,0,.089-.281.959.959,0,0,0-.244-.258l-1.838-1.485c-.058-.047-.244-.192-.325-.187a.339.339,0,0,0-.233.15l-.125.153-.184-.15,1.06-1.316.186.15-.125.155a.309.309,0,0,0-.087.281c.021.074.186.209.244.255l1.628,1.316-1.37-2.745.111-.14Zm3.189-4.313-1.166-.548-.309.659a.687.687,0,0,0-.088.363.574.574,0,0,0,.291.281l.06.031-.1.213-1.267-.595.1-.209.058.017a1.482,1.482,0,0,0,.316.075.27.27,0,0,0,.157-.065.772.772,0,0,0,.172-.257l.309-.657-1.017-.477a1.438,1.438,0,0,0-.245-.1.114.114,0,0,0-.064.02.513.513,0,0,0-.091.143l-.26.555a1.67,1.67,0,0,0-.145.4.6.6,0,0,0,.035.278,2.024,2.024,0,0,0,.3.5l.026.034-.105.227-.794-.771,1.235-2.636.214.1-.084.179a.439.439,0,0,0-.04.214.15.15,0,0,0,.044.112,1.354,1.354,0,0,0,.285.165l2.129,1a1.016,1.016,0,0,0,.362.115.374.374,0,0,0,.189-.209l.085-.18.216.1-1.243,2.648-.867-.358.1-.214.057.014a1.225,1.225,0,0,0,.384.055.368.368,0,0,0,.194-.094,1.2,1.2,0,0,0,.18-.3Zm-.739-4.763,2.255,1.98-.328,1.094-.228-.067.055-.189a.322.322,0,0,0-.024-.3.96.96,0,0,0-.322-.145l-2.262-.68a.861.861,0,0,0-.372-.051.351.351,0,0,0-.16.227l-.057.189-.228-.07.487-1.618.228.068-.058.192a.314.314,0,0,0,.027.292.938.938,0,0,0,.322.145l2,.6-2.305-2.025.052-.169,3.041-.424-2.006-.6a.883.883,0,0,0-.37-.054.347.347,0,0,0-.16.228l-.058.189-.228-.067.407-1.354.227.069-.057.192a.318.318,0,0,0,.027.292.955.955,0,0,0,.321.145l2.262.68a.83.83,0,0,0,.316.045.226.226,0,0,0,.125-.074.78.78,0,0,0,.128-.268l.02-.068.228.068-.332,1.1Zm3.394-3.917.238.023-.131,1.405-.238-.021.02-.206a.3.3,0,0,0-.121-.281.984.984,0,0,0-.34-.075l-1.46-.135a2.666,2.666,0,0,1-.854-.19,1.136,1.136,0,0,1-.5-.5,1.6,1.6,0,0,1-.145-.914,1.734,1.734,0,0,1,.3-.913,1.175,1.175,0,0,1,.627-.4,3.151,3.151,0,0,1,.918-.006l1.407.131a.748.748,0,0,0,.4-.04.321.321,0,0,0,.1-.234l.02-.2.237.021-.156,1.693-.237-.021.018-.207a.3.3,0,0,0-.087-.271.891.891,0,0,0-.352-.087l-1.569-.145a3.538,3.538,0,0,0-.475-.006.992.992,0,0,0-.4.092.714.714,0,0,0-.251.244.933.933,0,0,0-.129.424,1.219,1.219,0,0,0,.089.612.766.766,0,0,0,.328.383,2.377,2.377,0,0,0,.777.17l1.457.133A.883.883,0,0,0,254,324.1a.324.324,0,0,0,.115-.246Zm.122-4.956-1.278.011.006.586a.432.432,0,0,0,.081.285.685.685,0,0,0,.357.115l.062.007v.23l-1.366.014,0-.24h.069a.7.7,0,0,0,.277-.05.273.273,0,0,0,.119-.118.561.561,0,0,0,.038-.241l-.006-.585-1.07.01a1.2,1.2,0,0,0-.335.033.166.166,0,0,0-.078.081.431.431,0,0,0-.054.209l0,.2h-.238l-.017-1.69h.238l0,.2a.336.336,0,0,0,.1.27,1,1,0,0,0,.369.047l2.34-.023a1.246,1.246,0,0,0,.335-.033.179.179,0,0,0,.079-.079.424.424,0,0,0,.051-.211v-.2l.238,0,.025,2.823-.936.052,0-.219.052-.016a1.078,1.078,0,0,0,.346-.15.465.465,0,0,0,.15-.2,1.2,1.2,0,0,0,.045-.39Zm-2.146-3.807c-.011-.06-.023-.119-.033-.18l-.011-.074v-.009l-.966.159c-.072.011-.312.054-.362.118a.315.315,0,0,0-.053.261l.034.209-.235.037-.271-1.669.237-.035.031.2a.3.3,0,0,0,.162.247,1.025,1.025,0,0,0,.353-.014l2.309-.375a.912.912,0,0,0,.362-.116.333.333,0,0,0,.053-.268l-.034-.2.235-.038.223,1.37a3.224,3.224,0,0,1,.054.873,1.041,1.041,0,0,1-.248.544.873.873,0,0,1-.542.3.922.922,0,0,1-.654-.132,1.233,1.233,0,0,1-.437-.546l-.828.832a1.888,1.888,0,0,0-.384.49,1.04,1.04,0,0,0-.067.466l0,.063-.228.037-.173-1.06Zm.654-4.46-1.227.395.223.691a.681.681,0,0,0,.184.326.562.562,0,0,0,.4.007l.064-.017.072.223-1.332.43-.072-.217.055-.027a1.423,1.423,0,0,0,.282-.163.261.261,0,0,0,.071-.155.738.738,0,0,0-.048-.3l-.223-.694-1.068.345a1.3,1.3,0,0,0-.248.1.09.09,0,0,0-.033.055.524.524,0,0,0,.031.167l.187.582a1.623,1.623,0,0,0,.167.392.574.574,0,0,0,.216.179,2.009,2.009,0,0,0,.559.163l.041.006.078.24-1.106-.023-.891-2.769.227-.074.061.19a.453.453,0,0,0,.116.184.161.161,0,0,0,.111.05,1.309,1.309,0,0,0,.318-.074l2.238-.721c.065-.021.306-.1.342-.163a.371.371,0,0,0,0-.281l-.061-.189.227-.074.9,2.785-.879.331-.071-.224.051-.028a1.241,1.241,0,0,0,.318-.221.356.356,0,0,0,.078-.2,1.217,1.217,0,0,0-.072-.345Zm-2.977-2.735-.87.431c-.065.031-.285.143-.313.219a.327.327,0,0,0,.028.267l.092.187-.213.106-.749-1.516.214-.108.091.187a.3.3,0,0,0,.226.189,1.007,1.007,0,0,0,.333-.118l2.1-1.038c.065-.031.285-.145.313-.216a.33.33,0,0,0-.03-.273l-.092-.183.214-.108.618,1.252a2.467,2.467,0,0,1,.257.755,1.125,1.125,0,0,1-.1.609.939.939,0,0,1-.451.456,1.017,1.017,0,0,1-.83.06,1.226,1.226,0,0,1-.654-.65,2.764,2.764,0,0,1-.111-.27C249.832,307.855,249.808,307.775,249.786,307.694Zm-1.909-1.432a.363.363,0,0,1-.142.5.352.352,0,0,1-.278.033.366.366,0,1,1,.2-.7A.358.358,0,0,1,247.876,306.262Zm-1.14-5.342-1.662,1.272c-.058.044-.245.192-.261.268a.35.35,0,0,0,.089.264l.121.158-.189.146-.857-1.123.19-.143.121.158a.315.315,0,0,0,.253.149.919.919,0,0,0,.3-.176l1.877-1.435a.814.814,0,0,0,.223-.228.235.235,0,0,0,.013-.146.75.75,0,0,0-.142-.26l-.043-.055.189-.146.7.917-1.4,2.658,2.925-.668.694.908-.19.145-.119-.156a.321.321,0,0,0-.254-.152.912.912,0,0,0-.306.176l-1.877,1.435c-.061.045-.244.192-.26.271a.35.35,0,0,0,.091.263l.119.158-.19.145-1.026-1.343.189-.145.122.158a.313.313,0,0,0,.251.149.908.908,0,0,0,.306-.175l1.664-1.272-2.992.681-.109-.141Zm-1.644-2.748.159-.177,1.055.94-.159.176-.155-.135a.3.3,0,0,0-.3-.07.989.989,0,0,0-.26.228l-.975,1.1a2.677,2.677,0,0,1-.66.573,1.142,1.142,0,0,1-.7.112,1.588,1.588,0,0,1-.82-.427,1.72,1.72,0,0,1-.556-.785,1.182,1.182,0,0,1,.047-.744,3.217,3.217,0,0,1,.54-.744l.939-1.056c.062-.071.2-.238.2-.341a.322.322,0,0,0-.129-.223l-.155-.135.159-.179,1.27,1.13-.156.179-.157-.138a.3.3,0,0,0-.268-.092.9.9,0,0,0-.279.233l-1.047,1.178a3.242,3.242,0,0,0-.286.379.983.983,0,0,0-.166.38.692.692,0,0,0,.047.346.968.968,0,0,0,.265.356,1.224,1.224,0,0,0,.546.291.763.763,0,0,0,.5-.035,2.407,2.407,0,0,0,.6-.528l.972-1.093c.05-.057.207-.24.207-.319a.325.325,0,0,0-.129-.24Zm-4.284-3.24-.711,1.076.606.4a.658.658,0,0,0,.348.139.56.56,0,0,0,.319-.246l.04-.054.2.129-.77,1.17-.193-.126.027-.055a1.434,1.434,0,0,0,.118-.3.268.268,0,0,0-.04-.165.79.79,0,0,0-.23-.209l-.606-.4-.618.938a1.463,1.463,0,0,0-.133.23.1.1,0,0,0,.011.065.456.456,0,0,0,.128.111l.511.336a1.6,1.6,0,0,0,.376.2.588.588,0,0,0,.281.006,1.961,1.961,0,0,0,.535-.223l.038-.021.209.139-.877.674-2.426-1.6.13-.2.167.109a.43.43,0,0,0,.207.071.155.155,0,0,0,.116-.028,1.33,1.33,0,0,0,.2-.258l1.3-1.963a.963.963,0,0,0,.165-.342.364.364,0,0,0-.177-.217l-.166-.109.131-.2,2.441,1.612-.479.809-.2-.132.023-.054a1.317,1.317,0,0,0,.109-.372.365.365,0,0,0-.065-.206,1.157,1.157,0,0,0-.272-.223Zm-15.981,51.707a.359.359,0,0,1-.367-.36.349.349,0,0,1,.105-.26.354.354,0,0,1,.255-.109.366.366,0,0,1,.369.362.359.359,0,0,1-.362.368Z" transform="translate(-194.607 -289.77)"/></g><g transform="translate(-160.928 309.715)"><path class="a" d="M197.028,352.219v3.554h6.04a1.322,1.322,0,0,0,.858-.219,1.148,1.148,0,0,0,.219-.787v-1.534a1.155,1.155,0,0,0-.226-.791,1.3,1.3,0,0,0-.852-.223Zm-29.742,0v3.533h6.04a1.273,1.273,0,0,0,.85-.228,1.19,1.19,0,0,0,.228-.808v-1.463a1.187,1.187,0,0,0-.228-.808,1.274,1.274,0,0,0-.85-.227Zm199.005.92.013.169c.017.3.019.6.019.9v7.176h-1.649V350.708h1.558l5.134,6.807,4.792-6.807H377.9v10.678h-1.773V354.21c0-.232.019-.478.034-.71.01-.167.023-.338.032-.507-.068.133-.137.265-.211.394-.086.152-.177.309-.278.455l-4.092,5.891h-.527L366.833,354a.524.524,0,0,1-.055-.071A5.174,5.174,0,0,1,366.291,353.139Zm-16.531,6.634h7.611v-9.065h1.9v8.109a2.091,2.091,0,0,1-2.551,2.569H350.4a2.988,2.988,0,0,1-2.018-.549,3.027,3.027,0,0,1-.544-2.02v-8.109h1.919Zm-14.564-7.512v2.8h5.178v1.532h-5.178v3.205h8.56v1.592H333.276V350.708h10.4v1.553Zm-8.948.019H318.86v2.8h6.633a2.088,2.088,0,0,1,2.547,2.556v1.183a3.059,3.059,0,0,1-.536,2.026,2.992,2.992,0,0,1-2.011.543h-6.211a2.1,2.1,0,0,1-2.566-2.569v-.346l1.794-.409v1.711h7.778v-3.022h-6.612a2.993,2.993,0,0,1-2.016-.545,3.07,3.07,0,0,1-.531-2.02v-.916a3.067,3.067,0,0,1,.531-2.016,2.984,2.984,0,0,1,2.016-.547h5.667a3.073,3.073,0,0,1,2.011.534,2.575,2.575,0,0,1,.563,1.849v.273l-1.67.47Zm-23.993,7.494h7.613v-9.065h1.9v8.109a2.092,2.092,0,0,1-2.551,2.569H302.9a2.988,2.988,0,0,1-2.018-.549,3.039,3.039,0,0,1-.544-2.02v-8.109h1.919Zm-18.924-6.634c0,.056.008.113.011.169.019.3.021.6.021.9v7.176h-1.649V350.708h1.558l5.134,6.807,4.79-6.807h1.739v10.678h-1.773V354.21c0-.232.019-.478.034-.71.013-.167.023-.338.034-.507-.07.133-.139.265-.211.394-.089.152-.177.309-.278.455l-4.092,5.891h-.529L283.872,354a.813.813,0,0,1-.057-.071A5.165,5.165,0,0,1,283.33,353.139Zm-21.979-.878v2.8h5.178v1.532h-5.178v3.205h8.562v1.592H259.434V350.708h10.4v1.553Zm-18.924.878.013.169c.017.3.019.6.019.9v7.176h-1.649V350.708h1.558l5.134,6.807,4.792-6.807h1.737v10.678H252.26V354.21c0-.232.019-.478.034-.71.01-.167.023-.338.032-.507-.067.133-.137.265-.211.394-.086.152-.177.309-.278.455l-4.092,5.891h-.527L242.968,354a.53.53,0,0,1-.055-.071A5.174,5.174,0,0,1,242.426,353.139Zm-16.531,6.634h7.611v-9.065h1.9v8.109a2.09,2.09,0,0,1-2.551,2.569h-6.314a3,3,0,0,1-2.02-.549,3.038,3.038,0,0,1-.542-2.02v-8.109h1.919Zm-13.145-7.494v3.31h4.767v1.551H212.75v4.247h-1.916V350.708H221.1v1.571Zm-10.356,5,4.862,4.1h-2.863l-4.333-4.1h-3.032v4.1h-1.916V350.708h8.653a2.656,2.656,0,0,1,1.771.5,2.148,2.148,0,0,1,.548,1.613v2.352a2.122,2.122,0,0,1-.548,1.6,2.645,2.645,0,0,1-1.771.5Zm-19.93-5.021v2.8h5.178v1.532h-5.178v3.205h8.562v1.592H180.547V350.708h10.4v1.553Zm-15.178,5.021v4.1h-1.919V350.708h8.655a2.656,2.656,0,0,1,1.771.5,2.149,2.149,0,0,1,.548,1.613v2.352a2.13,2.13,0,0,1-.548,1.6,2.645,2.645,0,0,1-1.771.5Z" transform="translate(-165.367 -327.41)"/><path class="b" d="M190.277,351.537a2.448,2.448,0,0,1-2.456,2.431H187.1v2.275h.719a4.737,4.737,0,0,0,4.754-4.706v-8.092h-2.3Zm68.485-8.092h-7.693v5.263H223.378v-5.263h-2.3v5.263h-14.64v-5.263h-7.693a3.77,3.77,0,1,0,0,7.539h5.393v5.259h2.3v-5.259h52.325a3.77,3.77,0,1,0,0-7.539Zm-54.625,5.263h-5.393a1.494,1.494,0,1,1,0-2.988h5.393Zm54.625,0h-5.393v-2.988h5.393a1.494,1.494,0,1,1,0,2.988Zm18.043-5.263h-7.691v12.8h2.3v-5.259h5.391a3.77,3.77,0,1,0,0-7.539Zm0,5.263h-5.391v-2.988h5.391a1.494,1.494,0,1,1,0,2.988Zm93.968,4.171a1.138,1.138,0,1,0,1.149,1.139A1.147,1.147,0,0,0,370.773,352.879Zm-63.8,0a1.138,1.138,0,1,0,1.149,1.139A1.147,1.147,0,0,0,306.971,352.879Zm3.308,0a1.138,1.138,0,1,0,1.149,1.139A1.146,1.146,0,0,0,310.279,352.879Zm-97.036,0a1.138,1.138,0,1,0,1.151,1.139A1.146,1.146,0,0,0,213.243,352.879Zm3.31,0a1.138,1.138,0,1,0,1.149,1.139A1.147,1.147,0,0,0,216.553,352.879Zm131-11.239a1.138,1.138,0,1,0-1.149-1.137A1.146,1.146,0,0,0,347.554,341.64Zm-156.128-2.277a1.138,1.138,0,1,0,1.149,1.139A1.146,1.146,0,0,0,191.426,339.363Zm150.859,5.912a2.98,2.98,0,0,0,2.994,2.965h6.207v.467H316.237v-5.265h-2.3v5.265H295.156v-5.265H287.6a3.883,3.883,0,0,0-3.934,3.514,3.79,3.79,0,0,0,3.8,4.027h5.391v5.259h2.3v-5.259h58.628v-8.675h-8.505A2.98,2.98,0,0,0,342.286,345.275Zm-49.426,3.433h-5.391a1.494,1.494,0,1,1,0-2.988h5.391Zm58.626-4.126v1.384h-6.2a.692.692,0,1,1,0-1.384Zm-173.456,8.3a1.138,1.138,0,1,0,1.149,1.139A1.145,1.145,0,0,0,178.03,352.879Zm3.308,0a1.138,1.138,0,1,0,1.151,1.139A1.146,1.146,0,0,0,181.338,352.879Zm1.573-4.173h-6.344a3.711,3.711,0,0,0,.314-1.492,3.793,3.793,0,0,0-3.808-3.771H165.38v12.8h2.3v-5.259h5.4l.03,0h12.106v-7.537h-2.3Zm-15.233-2.986h5.4a1.493,1.493,0,1,1,.013,2.986h-.9v0h-4.505Zm207.879-2.275v5.261H360.1v-5.261h-2.328v8.092a2.446,2.446,0,0,1-2.456,2.431h-.719v2.275h.719a4.737,4.737,0,0,0,4.756-4.706v-.555h17.786v-7.537Z" transform="translate(-165.352 -339.363)"/></g></g></svg>