<svg xmlns="http://www.w3.org/2000/svg" width="200" height="41.294" viewBox="0 0 200 41.294"><defs><style>.a,.b{fill:#e99a57;}.a{fill-rule:evenodd;}</style></defs><g transform="translate(239 -297)"><g transform="translate(-239 297)"><path class="a" d="M232.191,310.5a16.86,16.86,0,1,0-16.859,16.871A16.866,16.866,0,0,0,232.191,310.5m.665,0a17.525,17.525,0,1,1-17.525-17.537A17.532,17.532,0,0,1,232.856,310.5Z" transform="translate(-194.674 -289.837)"/><path class="a" d="M218.8,296.434l-2.793-.136,2.393,3.476Zm-10.819,11.853-.921.616.3,1.26-.7.352.606.754Zm-1.268-.79-.3.714.476.413,1-.668Zm1.636-4.3-1.111.592-.319,1.455.638-.837Zm.191-2.27-.284.137-.351.932Zm1.52-1.062-.974.786-1.55,2.608,1.177-.628Zm.528-.332-1.381,2.834,2.935-1.559Zm.728-1.168-1.2.671.363.062Zm-1.171,1.01-.446-.076-.969,1.172.141-.068Zm8.939-2.547-.393,3.283,2.507.773ZM223.091,302l-1.622-.692-1.321-.408,3.3,1.74.087.106Zm.543-1.213-.254,1.057.987,1.65Zm-.9-1.757.477,2.114.237-.993Zm-.385-.211-.626,2.24,1.25.534Zm-12.485,3.567-.911.484-1.126,1.722-.98,1.286,1.072-.625.688-1.44Zm5.376-1.948-2.748.551-.816.434,2.611-.033Zm-5.383,13.423-.122.068.092.076Zm.369-.546.032.233-.157.741.544,1.16.29-.407Zm3.874-2.455,1.189,1.919,1.329-.552Zm2.763-2.717-1.634.868,1.622.786Zm-2.939-1.114-1.292.909,1.945.786Zm4.2.285-.931.641L217.18,310l1.488,1.687Zm-.219-.247-2.275-.869-1.2.557,2.573.931Zm-1.056,3.093-1.94-.94-1.014,1.154,2.942,1.6Zm-.182,2.4-1.469.61-2.06-1.572,1.64,5.791.578-2.066Zm1.938-.2-.926.027.712.343Zm1.1-.189-.5.113.234.253Zm-.849,2.172-2.516.957,1.707.567.835-.681Zm1.465,3.876.241-.422-.689.247-1.842.143,1.336.681Zm-.332-5.882-.44.609-.423.062.049,1.031.9,1-.062.976-.011,1.63.74-.265Zm-8.477,7.235-.949-.545L210,322.01Zm.623-1.945-1.659-1.762-.269-.572.393,3.378,1.044.6Zm7.968,3.817-.811.059,1.234,1.078Zm-.76-.646-.184.386.62-.045Zm-2.875,1.4-1.441.408.577,1.127Zm-4.041.182-.443.021-.042.79Zm1.3-.062-.794.038.885-.008Zm-4-10.133-1.944-.317,1.69,1.825.433-.24Zm2.988,10.617.1,1.487,2.23-.3Zm1.971-.133-1.483.013,2.014,1.023Zm-2.035-11.48-1.971-2.748-.636,3.583,1.077,2.62Zm4.742,7.045-2.681-.075-1.171-.94-.853.38,2.257,1.206,3.718.077Zm6.842-11.433-.193-.269-.28-.016.536.563Zm-1.291,1.529-.037.384.287,2.046-.035.112.144-.107.566-1.347Zm.953-2.613-.811.09.344.361.516.03Zm.784-.684-.467.554.074.725.106.148.324-.4Zm-4.327-1.316-2.5-.6-2.88,1.191.763,1.585,2.663,1.017.629,5.082.866-.2-.147-.736-.6-2.978.989-1.776,2.275-.694Zm-6.659,3.067-1.462-.882-1.446,2.126,2.075,2.894.561-.533-1.353-2.462Zm-6.228.394-.64-.645-.038.64.96.376Zm-.749,1.738-.291-.253.149,1.1-.011.426.406-.2Zm7.961-4.466-2.171,1.234,1.5.9,1.391-.646Zm1.595-2.169-1.833-.53-.545,1.23.857.991Zm2.31-1.831-.389.892,2.874,1.558.666-.79Zm-3.367-3.957-2.539,1.1-1.9,1.673L212.4,300.6Zm8.051,6.452-1.7.259,1.728,1.081.752.988.567-.673Zm-1.235-.678-.518.614,1.3-.2Zm-4.731-.662-1.93.074,1.18.342Zm-3.1,2.737-1.836-.142-.016,1.2Zm-3.891,4.28-1.334,1.631-1.294,1.268,2.055.336Zm-.443-2.812-1.8-.269-1.119.652.676.68Zm.383,2.367-1.8-.089.479,1.706Zm-2.009.389-.613,2.547,1.042-1.02Zm2.035-2.587-2.242,1.062,2.368.758Zm2.525,5.674-1.488,3.362,3.157,2.532Zm-.39,6.172-.443,1.484,2.434-.422Zm-.824,2.237-1.567,2.508,1.631-.448Zm5.38,4-1.355.182-2.081.281,1.243.313Zm1.855-2.524-2.23.09.273.154,3.365.988Zm.149-.734-1.61.465,1.414-.057Zm-5.351-.613-1.714-.458.067,2.125Zm.453.2-.143,1.534,1.7-.5Zm4.3.241-3.817-.314,1.484.987Zm1.115-.8-.04.635.4.312Zm.76-1.171-.676.462.53,1.4Zm-1.05.559-3.3-.069,3.229,1.163Zm-3.631-3.466-.583,2.083,2.122.06Zm5.412-6.165-1.408-1.088.475,2.371,1.8.193Zm-.67-2.919-.666,1.2,1.878-.4Zm2.392.726-.512.218.429.632Zm.25-1.254.107.993-.043.437.934.689.434-.62Zm-9.279-2.918-.987.669,1.678.13Zm-3.58-.614-1,1.14,2.609.089Zm1.942,1.8-1.189,1.14,1.175-.032Zm5.95-2.812-1.084.6,1,.586,2.5.6.393-.267Zm5.086,2.929-1.96-1.227-.415.283,2.1,1.923.943-.105Zm-7.4-8.125L212.8,300.6l2.925-.587,2.47.048Zm6.713,10.769-1.2-.316.765.5Zm-.415.709-.546,1.266,1.067-.5Zm1.855.7-.646-.477.671.79Zm-1.09,2.524-.458.274-1.607,3.349.3,2.03Zm-3.945,1.953-.236.034-.332.658-1.327.986,1.939-.739Zm.939,2.1-.546-.608.02.636.5.466Zm-.054,1.022-1.482.031-.533,1.675,2.006-.156ZM214.1,301.724l-2.441.03-1.276.664,1.835,1.406,1.358-.92Zm4.161-1.339-2.455-.047-1.04,1.038,3.114-.118Zm-6.443,3.791-2.971-.1-.56,1.168,2.089.312Zm4.791-1.767-1.247,1.386,2.117-.876ZM222.6,305.9l-1.745.532,1.854.491Zm.012,3.064-1.269.591.873,1.487.633-.378Zm-.943-1.191-1.96.42,1.334,1.032Zm.24,3.634-1.79-.193.134.678.339,2.261Zm-2.869,4.076-.487.4.891-.021Zm-3.24-.335,2.172-1.612.259-.514-1.158-.554Zm2.074,1.012-2.113-.7,1.619,2.256Zm1.048-3.694-.156.268.356-.053Zm-7.051-6.611-1.266.034.116,1.656Zm-3.831,1.531.28.37,1.03.05Zm3.111,7.916-.327.459,1.534,1.629.9-.4Zm2.584,5.246-1.5,1.516L213.6,322Zm2.649,1.335-.388-.22-1.7.5.5.168Zm-3.978,1.174-.443.74.522.354Zm7.854.06-3.373-.99-.985,1.747,2.59-.349Zm-8.609-.652-1.676.46.748.775.863-.016Zm3.612-15.061-.98-.354.572,1.483Zm1.36.493-1.039-.377-.409,1.146Zm-3.968.4,1.009,1.835.925-1.053Zm4.519,2.187-.011,1.589,1.376-.041Zm-3.574.19-.5.478,1.516,1.156Zm1.293,8.459-2.388.414,1.466.391,4.093.337Zm7.277-20.909-2.79-1.545,2.1,4.025Z" transform="translate(-194.913 -289.908)"/><path class="a" d="M202.613,295.706l.011-.008c.01-.008.021-.016.032-.025a.774.774,0,0,0,.289-.431.447.447,0,0,0-.105-.376.45.45,0,0,0-.673-.058,1.45,1.45,0,0,0-.165.173Zm-3.333,3.737c.032-.03.063-.062.093-.093a1.176,1.176,0,0,0,.079-.093.391.391,0,0,0,.066-.315.494.494,0,0,0-.207-.307.649.649,0,0,0-.262-.115.407.407,0,0,0-.248.025.506.506,0,0,0-.2.165.938.938,0,0,0-.092.169Zm9.639,29.323-.014-.006-.036-.014a.769.769,0,0,0-.517-.033.448.448,0,0,0-.272.281.449.449,0,0,0,.291.609,1.356,1.356,0,0,0,.231.055Zm4.916,1c-.042-.012-.084-.022-.127-.032a1.192,1.192,0,0,0-.121-.02.385.385,0,0,0-.3.1.489.489,0,0,0-.157.335.655.655,0,0,0,.035.284.4.4,0,0,0,.149.2.483.483,0,0,0,.243.086.919.919,0,0,0,.193-.008Zm11.391-37.489-.448.845-.139-.075.015-.039a1.041,1.041,0,0,0,.077-.385.569.569,0,0,0-.1-.295.637.637,0,0,0-.23-.214.4.4,0,0,0-.3-.041.305.305,0,0,0-.205.151.274.274,0,0,0-.023.189,2.191,2.191,0,0,0,.3.561,3.7,3.7,0,0,1,.291.484.749.749,0,0,1,.066.322.667.667,0,0,1-.078.3.69.69,0,0,1-.451.352.843.843,0,0,1-.631-.088,1.247,1.247,0,0,1-.178-.114,1.721,1.721,0,0,1-.183-.175,1.084,1.084,0,0,0-.16-.148.051.051,0,0,0-.039-.007.235.235,0,0,0-.065.066l-.024.033-.14-.073.444-.839.139.073-.013.039a1.2,1.2,0,0,0-.072.4.57.57,0,0,0,.106.287.711.711,0,0,0,.264.232.472.472,0,0,0,.342.059.33.33,0,0,0,.222-.167.344.344,0,0,0,.037-.165.512.512,0,0,0-.052-.208,3.436,3.436,0,0,0-.233-.384,3.594,3.594,0,0,1-.272-.471.805.805,0,0,1-.076-.323.633.633,0,0,1,.075-.306.663.663,0,0,1,.429-.335.785.785,0,0,1,.589.078,1.1,1.1,0,0,1,.342.3.5.5,0,0,0,.092.1.061.061,0,0,0,.047.008.251.251,0,0,0,.073-.063l.025-.029Zm-3.058-1.134.056-.155.915.324-.055.155-.134-.047a.2.2,0,0,0-.208.033.658.658,0,0,0-.107.214l-.338.95a1.832,1.832,0,0,1-.271.537.785.785,0,0,1-.419.253,1.093,1.093,0,0,1-.634-.06,1.182,1.182,0,0,1-.556-.357.814.814,0,0,1-.164-.487,2.184,2.184,0,0,1,.152-.613l.325-.917a.53.53,0,0,0,.041-.271.226.226,0,0,0-.14-.107l-.133-.048.055-.154,1.1.391-.055.155-.136-.048a.206.206,0,0,0-.2.012.6.6,0,0,0-.117.221l-.362,1.023a2.18,2.18,0,0,0-.085.316.69.69,0,0,0-.008.286.488.488,0,0,0,.121.208.634.634,0,0,0,.261.158.832.832,0,0,0,.423.044.528.528,0,0,0,.311-.153,1.639,1.639,0,0,0,.245-.49l.337-.95a.616.616,0,0,0,.05-.258.226.226,0,0,0-.144-.119Zm-5.026-.629-.2,1.427a.616.616,0,0,0,0,.257.239.239,0,0,0,.172.086l.136.02-.023.163-.962-.138.023-.162.136.019a.215.215,0,0,0,.2-.047.65.65,0,0,0,.066-.234l.23-1.61a.555.555,0,0,0,0-.22.163.163,0,0,0-.064-.078.516.516,0,0,0-.2-.06l-.048-.007.023-.162.785.112.591,1.984,1.116-1.739.778.11-.023.163-.134-.02a.222.222,0,0,0-.2.047.661.661,0,0,0-.065.234l-.23,1.611a.589.589,0,0,0,0,.258.239.239,0,0,0,.171.086l.135.02-.023.162-1.152-.164.024-.164.136.021a.215.215,0,0,0,.2-.048.63.63,0,0,0,.065-.233l.2-1.427-1.141,1.778-.121-.018Zm-3.584-.427.054.886.5-.03a.45.45,0,0,0,.249-.067.383.383,0,0,0,.073-.267v-.047l.162-.01.058.963-.158.01-.008-.041a.978.978,0,0,0-.06-.216.187.187,0,0,0-.091-.074.53.53,0,0,0-.211-.02l-.5.03.047.772a.916.916,0,0,0,.021.182.065.065,0,0,0,.033.031.35.35,0,0,0,.115.008l.42-.024a1.159,1.159,0,0,0,.29-.046.4.4,0,0,0,.156-.112,1.38,1.38,0,0,0,.2-.345l.012-.027.172-.009-.2.733-2,.12-.009-.164.136-.008a.292.292,0,0,0,.144-.048.1.1,0,0,0,.052-.063.916.916,0,0,0,0-.226l-.1-1.616a.677.677,0,0,0-.051-.257.261.261,0,0,0-.188-.046l-.136.008-.01-.164,2.01-.12.069.642-.162.011-.01-.039a.9.9,0,0,0-.094-.251.25.25,0,0,0-.121-.087.862.862,0,0,0-.241-.01Zm-3.9,1.116.3,1.41a.63.63,0,0,0,.09.241.244.244,0,0,0,.19.021l.134-.029.034.161-.949.2-.035-.16.135-.029a.217.217,0,0,0,.168-.112.659.659,0,0,0-.02-.242l-.341-1.59a.61.61,0,0,0-.076-.206.164.164,0,0,0-.088-.051.515.515,0,0,0-.2.012l-.047.01-.034-.16.775-.166,1.24,1.657.445-2.018.768-.164.035.161-.133.027a.22.22,0,0,0-.169.112.642.642,0,0,0,.019.243l.341,1.59c.012.051.048.209.093.241a.239.239,0,0,0,.19.021l.132-.026.034.159-1.136.244-.034-.161.135-.028a.216.216,0,0,0,.167-.112.657.657,0,0,0-.02-.242l-.3-1.41-.456,2.063-.12.025Zm-2.187.292-.064-.151.89-.387.065.151-.13.056a.2.2,0,0,0-.129.167.656.656,0,0,0,.065.23l.4.926a1.821,1.821,0,0,1,.167.578.791.791,0,0,1-.133.47,1.1,1.1,0,0,1-.5.389,1.189,1.189,0,0,1-.651.12A.81.81,0,0,1,207,293.8a2.179,2.179,0,0,1-.308-.552l-.388-.893c-.025-.061-.09-.2-.153-.226a.222.222,0,0,0-.176.016l-.13.058-.065-.15,1.073-.467.065.149-.131.058a.2.2,0,0,0-.135.142.6.6,0,0,0,.063.242l.432.994a2.263,2.263,0,0,0,.154.288.665.665,0,0,0,.189.214.48.48,0,0,0,.23.071.647.647,0,0,0,.3-.062.846.846,0,0,0,.34-.257.529.529,0,0,0,.122-.324,1.639,1.639,0,0,0-.155-.526l-.4-.925c-.021-.048-.089-.2-.14-.222a.227.227,0,0,0-.186.011Zm-3.086,1.68.464.747.342-.212a.3.3,0,0,0,.139-.15.457.457,0,0,0-.06-.251l-.018-.039.134-.084.5.8-.139.087-.026-.04a.47.47,0,0,0-.128-.146.188.188,0,0,0-.111-.027.381.381,0,0,0-.156.063l-.342.213.389.626a.9.9,0,0,0,.141.186.11.11,0,0,0,.074.017.3.3,0,0,0,.143-.044l.116-.072.087.14-.987.614-.086-.14.115-.072a.227.227,0,0,0,.12-.158.649.649,0,0,0-.1-.233l-.85-1.368a.844.844,0,0,0-.139-.186.121.121,0,0,0-.076-.019.286.286,0,0,0-.143.046l-.116.071-.086-.14,1.648-1.025.367.531-.129.08-.027-.025a.721.721,0,0,0-.214-.149.314.314,0,0,0-.17-.017.812.812,0,0,0-.246.112Zm-1.495,2.575c-.031.028-.061.056-.094.083l-.039.031-.006,0,.434.516c.033.038.143.166.2.173a.217.217,0,0,0,.173-.062l.11-.093.106.125-.888.75-.107-.125.108-.092a.207.207,0,0,0,.09-.183.7.7,0,0,0-.134-.2l-1.038-1.232c-.032-.039-.143-.166-.2-.173a.228.228,0,0,0-.176.063l-.108.092-.105-.126.729-.614a2.2,2.2,0,0,1,.5-.341.71.71,0,0,1,.408-.046.606.606,0,0,1,.368.215.633.633,0,0,1,.153.433.853.853,0,0,1-.167.451l.783.2a1.307,1.307,0,0,0,.425.054.713.713,0,0,0,.3-.126l.036-.023.1.121-.565.477Zm-2.876,1.154.662.59.332-.374a.454.454,0,0,0,.129-.223.388.388,0,0,0-.136-.241l-.033-.032.107-.122.72.641-.1.119-.035-.023a1,1,0,0,0-.2-.111.189.189,0,0,0-.116.012.545.545,0,0,0-.163.136l-.333.374.578.514a1,1,0,0,0,.142.112.077.077,0,0,0,.047,0,.314.314,0,0,0,.088-.077l.28-.315a1.138,1.138,0,0,0,.174-.235.428.428,0,0,0,.03-.191,1.358,1.358,0,0,0-.1-.387l-.011-.028.115-.128.373.663-1.331,1.5-.122-.11.091-.1a.312.312,0,0,0,.069-.135.1.1,0,0,0-.01-.083.862.862,0,0,0-.154-.162l-1.21-1.076c-.035-.031-.167-.146-.216-.146a.25.25,0,0,0-.166.1l-.092.1-.122-.109,1.338-1.5.5.405-.107.122-.034-.021a.915.915,0,0,0-.243-.112.262.262,0,0,0-.147.023.86.86,0,0,0-.179.164Zm-.568,2.658.539.4c.04.029.179.127.232.121a.22.22,0,0,0,.154-.1l.084-.116.134.1-.686.939-.133-.1.084-.116a.207.207,0,0,0,.044-.2.712.712,0,0,0-.179-.167l-1.3-.951c-.04-.029-.178-.127-.229-.123a.23.23,0,0,0-.157.105l-.085.114-.132-.1.567-.775a1.681,1.681,0,0,1,.379-.4.771.771,0,0,1,.4-.133.645.645,0,0,1,.422.131.705.705,0,0,1,.3.487.856.856,0,0,1-.19.606,2.055,2.055,0,0,1-.251.274Zm-.217,1.678a.249.249,0,0,1,.155-.116.245.245,0,0,1,.188.028.25.25,0,0,1-.065.459.253.253,0,0,1-.307-.182A.248.248,0,0,1,199.229,301.242Zm-2.79,2.526,1.333.549a.624.624,0,0,0,.251.062.241.241,0,0,0,.125-.146l.053-.126.151.063-.369.9-.152-.061.053-.128a.218.218,0,0,0,0-.2.638.638,0,0,0-.211-.122l-1.5-.618a.555.555,0,0,0-.213-.053.168.168,0,0,0-.091.043.508.508,0,0,0-.105.175l-.018.044-.152-.061.3-.735,2.066-.087-1.411-1.508.3-.727.152.062-.051.125a.222.222,0,0,0,0,.2.658.658,0,0,0,.211.122l1.5.617a.592.592,0,0,0,.251.061.246.246,0,0,0,.125-.146l.052-.125.152.062-.442,1.075-.152-.062.053-.127a.215.215,0,0,0,0-.2.653.653,0,0,0-.211-.121l-1.333-.548,1.443,1.542-.047.113Zm-1.078,1.942-.162-.031.185-.953.162.03-.027.139a.206.206,0,0,0,.064.2.674.674,0,0,0,.226.074l.991.193a1.86,1.86,0,0,1,.571.189.787.787,0,0,1,.311.377,1.1,1.1,0,0,1,.035.636,1.19,1.19,0,0,1-.269.6.812.812,0,0,1-.457.233,2.185,2.185,0,0,1-.63-.059l-.954-.187a.52.52,0,0,0-.273,0,.221.221,0,0,0-.086.154l-.027.139-.161-.031.224-1.15.161.031-.027.141a.208.208,0,0,0,.041.192.589.589,0,0,0,.235.083l1.063.208a2.432,2.432,0,0,0,.325.037.7.7,0,0,0,.283-.035.489.489,0,0,0,.188-.15.644.644,0,0,0,.119-.281.852.852,0,0,0-.02-.426.521.521,0,0,0-.2-.284,1.612,1.612,0,0,0-.52-.17l-.989-.193a.609.609,0,0,0-.262-.011.229.229,0,0,0-.1.16Zm-.445,3.572.883.082.045-.5a.464.464,0,0,0-.028-.256.39.39,0,0,0-.253-.114l-.045-.006.014-.161.961.088-.014.158-.043,0a.935.935,0,0,0-.223.026.176.176,0,0,0-.086.078.535.535,0,0,0-.052.205l-.046.5.769.07a.958.958,0,0,0,.183.007.065.065,0,0,0,.036-.028.314.314,0,0,0,.025-.113l.039-.419a1.142,1.142,0,0,0,0-.294.405.405,0,0,0-.089-.171,1.341,1.341,0,0,0-.309-.254l-.024-.016.016-.172.694.313-.184,1.994-.164-.015.013-.136a.3.3,0,0,0-.024-.15.1.1,0,0,0-.055-.061.934.934,0,0,0-.223-.039l-1.611-.148a.683.683,0,0,0-.261.012.252.252,0,0,0-.074.179l-.012.136-.164-.015.185-2.005.644.028-.014.161-.04,0a.911.911,0,0,0-.262.055.25.25,0,0,0-.1.106.84.84,0,0,0-.046.237Zm-.309,1.678.955-.058.01.158-.041.008a1.031,1.031,0,0,0-.369.135.569.569,0,0,0-.2.238.621.621,0,0,0-.061.308.4.4,0,0,0,.119.276.314.314,0,0,0,.236.1.27.27,0,0,0,.173-.078,2.186,2.186,0,0,0,.323-.548,3.489,3.489,0,0,1,.262-.5.751.751,0,0,1,.239-.225.69.69,0,0,1,.837.111.843.843,0,0,1,.254.583,1.407,1.407,0,0,1,0,.213,1.788,1.788,0,0,1-.056.246,1.183,1.183,0,0,0-.043.215.054.054,0,0,0,.015.036.248.248,0,0,0,.092.022l.041,0,.009.157-.947.056-.01-.156.04-.01a1.174,1.174,0,0,0,.376-.145.578.578,0,0,0,.188-.24.725.725,0,0,0,.062-.346.48.48,0,0,0-.128-.322.331.331,0,0,0-.258-.1.351.351,0,0,0-.161.054.524.524,0,0,0-.15.153,3.412,3.412,0,0,0-.206.4,3.546,3.546,0,0,1-.261.479.813.813,0,0,1-.235.233.632.632,0,0,1-.3.093.657.657,0,0,1-.508-.19.786.786,0,0,1-.239-.544,1.086,1.086,0,0,1,.074-.445.49.49,0,0,0,.033-.129.062.062,0,0,0-.017-.043.217.217,0,0,0-.093-.03l-.038-.006Zm.565,3.222-.161.034-.2-.95.161-.034.03.139a.2.2,0,0,0,.138.16.675.675,0,0,0,.237-.021l.986-.212a1.859,1.859,0,0,1,.6-.05.779.779,0,0,1,.434.224,1.1,1.1,0,0,1,.282.571,1.2,1.2,0,0,1-.012.66.809.809,0,0,1-.328.4,2.2,2.2,0,0,1-.6.191l-.951.2a.535.535,0,0,0-.252.106.221.221,0,0,0-.018.176l.029.139-.161.033-.245-1.144.16-.035.03.141a.205.205,0,0,0,.112.16.6.6,0,0,0,.25-.016l1.059-.228a2.313,2.313,0,0,0,.313-.093.668.668,0,0,0,.247-.144.485.485,0,0,0,.115-.212.661.661,0,0,0,0-.306.843.843,0,0,0-.185-.384.524.524,0,0,0-.294-.185,1.629,1.629,0,0,0-.545.049l-.985.212a.614.614,0,0,0-.245.092.225.225,0,0,0-.026.186Zm1.927,4.574,1.348-.509c.047-.018.2-.079.226-.126a.236.236,0,0,0-.007-.19l-.049-.129.153-.059.344.909-.154.058-.049-.129a.211.211,0,0,0-.136-.147.614.614,0,0,0-.236.055l-1.521.573a.591.591,0,0,0-.192.107.156.156,0,0,0-.037.094.512.512,0,0,0,.042.2l.018.045-.154.058-.279-.741,1.452-1.474-2.061-.141-.276-.735.153-.06.048.128a.215.215,0,0,0,.137.149.644.644,0,0,0,.237-.054l1.52-.575c.048-.018.2-.078.225-.126a.24.24,0,0,0-.007-.192l-.049-.127.154-.057.411,1.087-.154.059-.049-.129a.215.215,0,0,0-.135-.148.656.656,0,0,0-.237.055l-1.348.509,2.107.144.044.114Zm1.5,3.379.729-.5-.283-.411c-.038-.055-.117-.162-.186-.179a.392.392,0,0,0-.267.076l-.038.023-.093-.133.794-.549.089.13-.031.028a1.006,1.006,0,0,0-.153.163.184.184,0,0,0-.016.116.532.532,0,0,0,.093.191l.284.411.636-.439a.925.925,0,0,0,.144-.112.064.064,0,0,0,.01-.045.346.346,0,0,0-.053-.1l-.24-.347a1.083,1.083,0,0,0-.187-.224.4.4,0,0,0-.179-.076,1.37,1.37,0,0,0-.4,0l-.029,0-.1-.143.732-.205,1.137,1.647-.135.094-.078-.113a.29.29,0,0,0-.113-.1.106.106,0,0,0-.082-.012.906.906,0,0,0-.2.112l-1.332.92c-.039.027-.182.128-.193.177a.254.254,0,0,0,.059.185l.077.111-.135.095-1.144-1.658.513-.393.092.134-.028.028a.938.938,0,0,0-.166.211.247.247,0,0,0-.012.148.836.836,0,0,0,.117.212Zm2.922,2.788,1.056-.982c.037-.034.156-.147.162-.2a.244.244,0,0,0-.08-.175l-.093-.1.12-.112.661.713-.121.111-.093-.1a.215.215,0,0,0-.183-.085.643.643,0,0,0-.2.14l-1.191,1.107a.558.558,0,0,0-.138.172.161.161,0,0,0,0,.1.5.5,0,0,0,.114.168l.033.035-.119.113-.541-.581.788-1.915-1.96.65-.534-.576.12-.112.092.1a.222.222,0,0,0,.184.088.641.641,0,0,0,.2-.141l1.192-1.107c.037-.034.154-.148.159-.2a.236.236,0,0,0-.079-.174l-.092-.1.121-.112.791.853-.12.112-.094-.1a.217.217,0,0,0-.183-.086.656.656,0,0,0-.2.141l-1.055.981,2-.664.083.09Zm1.331,1.747-.1.133-.785-.574.1-.131.113.082a.2.2,0,0,0,.21.027c.048-.017.135-.133.164-.173l.6-.816a1.89,1.89,0,0,1,.414-.437.784.784,0,0,1,.473-.121,1.1,1.1,0,0,1,.591.237,1.193,1.193,0,0,1,.432.5.816.816,0,0,1,.018.513,2.179,2.179,0,0,1-.322.544l-.574.785a.522.522,0,0,0-.117.247.218.218,0,0,0,.1.144l.113.083-.1.134-.945-.692.1-.132.116.084a.206.206,0,0,0,.19.045c.056-.02.141-.132.175-.178l.64-.876a2.3,2.3,0,0,0,.172-.277.678.678,0,0,0,.088-.271.477.477,0,0,0-.055-.234.638.638,0,0,0-.205-.228.842.842,0,0,0-.392-.163.522.522,0,0,0-.343.059,1.626,1.626,0,0,0-.375.4l-.595.813c-.031.043-.126.177-.121.233a.232.232,0,0,0,.1.156Zm3,1.828.412-.777-.355-.189a.3.3,0,0,0-.2-.043c-.071.02-.147.119-.186.177l-.024.035-.141-.073.44-.833.144.077-.021.043a.494.494,0,0,0-.061.183.191.191,0,0,0,.033.11.375.375,0,0,0,.134.1l.354.189.346-.652a.938.938,0,0,0,.09-.215.113.113,0,0,0-.023-.072.288.288,0,0,0-.109-.1l-.121-.064.076-.145,1.028.544-.077.146-.12-.063a.226.226,0,0,0-.2-.025c-.049.022-.125.162-.149.208l-.754,1.424a.9.9,0,0,0-.091.212.12.12,0,0,0,.023.074.283.283,0,0,0,.11.1l.121.064-.077.146-1.715-.91.274-.584.134.07-.008.036a.733.733,0,0,0-.022.26.328.328,0,0,0,.071.156.817.817,0,0,0,.222.155Zm2.975.006c.04.013.079.024.118.039l.05.019,0,0,.226-.635a.633.633,0,0,0,.05-.259.22.22,0,0,0-.141-.117l-.138-.049.056-.154,1.1.389-.056.155-.134-.048a.207.207,0,0,0-.2.015.711.711,0,0,0-.108.218L209.1,329.6a.609.609,0,0,0-.05.257.231.231,0,0,0,.144.12l.133.048-.055.154-.9-.32a2.206,2.206,0,0,1-.545-.256.717.717,0,0,1-.245-.33.607.607,0,0,1,0-.425.63.63,0,0,1,.3-.353.85.85,0,0,1,.473-.083l-.226-.775a1.336,1.336,0,0,0-.167-.395.739.739,0,0,0-.26-.194l-.039-.019.054-.149.7.247Zm2.457,1.915.169-.871-.49-.1a.463.463,0,0,0-.258,0,.4.4,0,0,0-.139.24l-.011.044-.158-.029.184-.947.155.03,0,.042a1.013,1.013,0,0,0,0,.225.181.181,0,0,0,.07.094.529.529,0,0,0,.2.071l.49.1.148-.759a.9.9,0,0,0,.024-.181.062.062,0,0,0-.024-.039.32.32,0,0,0-.109-.036l-.414-.081a1.177,1.177,0,0,0-.292-.028.4.4,0,0,0-.18.07,1.357,1.357,0,0,0-.282.282l-.019.023-.169-.034.381-.658,1.963.382-.03.161-.135-.026a.314.314,0,0,0-.15.009.111.111,0,0,0-.066.05.929.929,0,0,0-.061.218l-.308,1.589a.674.674,0,0,0-.016.26.254.254,0,0,0,.171.092l.134.026-.031.161-1.976-.386.094-.639.158.031v.039a.9.9,0,0,0,.028.267.248.248,0,0,0,.095.114.832.832,0,0,0,.232.07Zm2.579-.854.061-.666a.6.6,0,0,0-.016-.262.225.225,0,0,0-.168-.08l-.143-.013.015-.164,1.159.107-.016.163-.142-.013a.209.209,0,0,0-.192.063.723.723,0,0,0-.051.239l-.148,1.6a.651.651,0,0,0,.014.262.234.234,0,0,0,.17.081l.142.012-.014.165-.958-.089a1.7,1.7,0,0,1-.534-.121.778.778,0,0,1-.321-.278.641.641,0,0,1-.1-.429.706.706,0,0,1,.264-.509.852.852,0,0,1,.617-.149,1.627,1.627,0,0,1,.2.032C213.744,329.533,213.8,329.547,213.855,329.564Zm20.508-22.721,0,.014c0,.013,0,.026.006.04a.762.762,0,0,0,.22.47.45.45,0,0,0,.378.1.472.472,0,0,0,.32-.184.466.466,0,0,0,.073-.364,1.38,1.38,0,0,0-.062-.23Zm-1.6-4.827c.012.042.024.084.04.126a.814.814,0,0,0,.046.113.387.387,0,0,0,.248.2.491.491,0,0,0,.367-.043.644.644,0,0,0,.224-.179.413.413,0,0,0,.092-.232.5.5,0,0,0-.055-.252.9.9,0,0,0-.107-.16Zm-15.088,27-.646,1.962-.781.087-.019-.164.135-.016a.218.218,0,0,0,.18-.095.635.635,0,0,0,.006-.243l-.18-1.616a.58.58,0,0,0-.067-.25.237.237,0,0,0-.186-.04l-.136.015-.017-.164,1.156-.128.017.163-.136.016a.218.218,0,0,0-.178.1.635.635,0,0,0-.006.243l.158,1.432.662-2.006.121-.014,1.088,1.814-.158-1.434a.624.624,0,0,0-.065-.249.241.241,0,0,0-.187-.04l-.137.015-.018-.163.965-.107.018.164-.137.016a.216.216,0,0,0-.178.095.65.65,0,0,0,0,.242l.179,1.618a.573.573,0,0,0,.056.213.163.163,0,0,0,.081.059.5.5,0,0,0,.2.008l.048,0,.019.163-.788.087Zm3.385,1.042.051.155-.925.3-.05-.157.136-.042a.2.2,0,0,0,.144-.153.661.661,0,0,0-.044-.235l-.309-.96a1.835,1.835,0,0,1-.109-.593.778.778,0,0,1,.18-.454,1.1,1.1,0,0,1,.54-.338,1.184,1.184,0,0,1,.658-.055.812.812,0,0,1,.426.287,2.213,2.213,0,0,1,.251.58l.3.926a.52.52,0,0,0,.13.24.22.22,0,0,0,.176,0l.136-.044.05.157-1.114.359-.05-.157.137-.043a.2.2,0,0,0,.147-.129.6.6,0,0,0-.04-.246l-.332-1.032a2.264,2.264,0,0,0-.125-.3.667.667,0,0,0-.167-.231.475.475,0,0,0-.222-.093.646.646,0,0,0-.3.032.844.844,0,0,0-.362.222.525.525,0,0,0-.154.312,1.618,1.618,0,0,0,.1.537l.309.96c.016.049.069.207.117.234a.222.222,0,0,0,.186.008Zm3.419-1.434-.393-.8-.447.222c-.06.029-.177.093-.2.158a.383.383,0,0,0,.035.275l.018.042-.144.073-.427-.866.142-.071.023.035a.983.983,0,0,0,.139.176.183.183,0,0,0,.112.033.537.537,0,0,0,.2-.064l.448-.221-.342-.694a.992.992,0,0,0-.091-.158.06.06,0,0,0-.043-.017.347.347,0,0,0-.109.037l-.378.187a1.163,1.163,0,0,0-.249.154.406.406,0,0,0-.1.165,1.388,1.388,0,0,0-.054.4v.029l-.154.077-.1-.756,1.793-.886.073.147-.123.061a.3.3,0,0,0-.113.1.1.1,0,0,0-.023.08.892.892,0,0,0,.083.209l.717,1.452c.02.043.1.2.146.216a.247.247,0,0,0,.19-.03l.122-.061.074.147-1.805.893-.313-.565.145-.072.024.032a.887.887,0,0,0,.183.194.248.248,0,0,0,.145.033.833.833,0,0,0,.227-.085Zm1.616-.54-.544-.785.13-.092.028.031a1.056,1.056,0,0,0,.307.247.573.573,0,0,0,.308.048.635.635,0,0,0,.295-.105.4.4,0,0,0,.175-.247.308.308,0,0,0-.04-.251.27.27,0,0,0-.157-.107,2.131,2.131,0,0,0-.636.008,3.409,3.409,0,0,1-.563.034.762.762,0,0,1-.316-.087.678.678,0,0,1-.235-.211.691.691,0,0,1-.1-.564.843.843,0,0,1,.367-.519,1.234,1.234,0,0,1,.184-.1,1.712,1.712,0,0,1,.241-.082,1.082,1.082,0,0,0,.206-.075.049.049,0,0,0,.022-.03.231.231,0,0,0-.028-.09l-.019-.037.129-.089.541.78-.13.089-.028-.028a1.18,1.18,0,0,0-.318-.246.572.572,0,0,0-.3-.038.73.73,0,0,0-.329.126.48.48,0,0,0-.209.277.333.333,0,0,0,.046.275.356.356,0,0,0,.129.108.517.517,0,0,0,.21.05,3.28,3.28,0,0,0,.447-.029,3.5,3.5,0,0,1,.544-.025.813.813,0,0,1,.321.081.623.623,0,0,1,.236.208.664.664,0,0,1,.1.534.787.787,0,0,1-.341.486,1.1,1.1,0,0,1-.42.167.473.473,0,0,0-.128.038.064.064,0,0,0-.028.036.228.228,0,0,0,.022.095l.016.036Zm2.386-2.036.106.125-.743.627-.105-.126.108-.092a.2.2,0,0,0,.075-.2.656.656,0,0,0-.129-.2l-.651-.772a1.9,1.9,0,0,1-.326-.506.788.788,0,0,1-.007-.488,1.1,1.1,0,0,1,.372-.518,1.174,1.174,0,0,1,.589-.3.811.811,0,0,1,.5.1,2.2,2.2,0,0,1,.453.442l.627.743c.043.051.143.162.212.173a.229.229,0,0,0,.164-.066l.108-.091.105.126-.9.755-.1-.128.108-.091a.2.2,0,0,0,.09-.174.6.6,0,0,0-.132-.214l-.7-.829a2.339,2.339,0,0,0-.229-.232.681.681,0,0,0-.243-.15.491.491,0,0,0-.241,0,.655.655,0,0,0-.268.145.842.842,0,0,0-.251.344.517.517,0,0,0-.024.347,1.619,1.619,0,0,0,.3.458l.649.771c.033.04.143.165.2.173a.224.224,0,0,0,.176-.064Zm3.069-4.016-1.122-.906c-.04-.032-.169-.133-.222-.131a.24.24,0,0,0-.162.1l-.086.105-.127-.1.609-.756.128.1-.087.106a.217.217,0,0,0-.059.192c.015.051.127.144.167.176l1.265,1.023a.563.563,0,0,0,.189.111.161.161,0,0,0,.1-.016.5.5,0,0,0,.15-.138l.03-.038.128.1-.5.616-2.005-.506.923,1.848-.494.612-.128-.1.085-.105a.223.223,0,0,0,.061-.193.66.66,0,0,0-.168-.178l-1.265-1.022c-.04-.032-.168-.132-.224-.129a.233.233,0,0,0-.16.1l-.086.105-.127-.1.729-.906.128.1-.086.107a.213.213,0,0,0-.06.193c.015.051.128.144.168.176l1.121.905-.943-1.889.076-.1Zm2.195-2.968-.8-.377-.213.453a.473.473,0,0,0-.061.25.4.4,0,0,0,.2.193l.041.021-.07.146-.872-.409.067-.144.04.012a1.022,1.022,0,0,0,.218.052.186.186,0,0,0,.108-.045.532.532,0,0,0,.118-.177l.213-.452-.7-.328a.989.989,0,0,0-.169-.068.078.078,0,0,0-.044.014.353.353,0,0,0-.062.1l-.179.382a1.149,1.149,0,0,0-.1.276.412.412,0,0,0,.024.191,1.393,1.393,0,0,0,.205.344l.018.023-.072.156-.547-.53.85-1.814.147.071-.058.123a.3.3,0,0,0-.027.148.1.1,0,0,0,.03.077.932.932,0,0,0,.2.113l1.465.687a.7.7,0,0,0,.249.079.257.257,0,0,0,.13-.144l.059-.124.148.07-.855,1.823-.6-.246.068-.147.039.01a.842.842,0,0,0,.265.038.253.253,0,0,0,.134-.064.828.828,0,0,0,.124-.208Zm-.509-3.278,1.552,1.363-.226.753-.157-.046.038-.13a.222.222,0,0,0-.017-.2.661.661,0,0,0-.222-.1l-1.557-.468a.593.593,0,0,0-.256-.035.241.241,0,0,0-.11.156l-.039.13-.157-.048.335-1.114.157.047-.04.132a.216.216,0,0,0,.019.2.645.645,0,0,0,.222.1l1.378.414-1.586-1.394.036-.116,2.093-.292-1.38-.415a.607.607,0,0,0-.255-.037.239.239,0,0,0-.11.157l-.04.13-.157-.046.28-.932.156.048-.039.132a.219.219,0,0,0,.019.2.656.656,0,0,0,.221.1l1.557.468a.571.571,0,0,0,.218.031.156.156,0,0,0,.086-.051.537.537,0,0,0,.088-.185l.014-.047.157.047-.228.76Zm2.336-2.7.164.016-.09.967-.164-.015.014-.142a.206.206,0,0,0-.083-.193.677.677,0,0,0-.234-.052l-1-.093a1.835,1.835,0,0,1-.588-.131.782.782,0,0,1-.347-.344,1.1,1.1,0,0,1-.1-.629,1.194,1.194,0,0,1,.208-.628.809.809,0,0,1,.431-.278,2.169,2.169,0,0,1,.632,0l.968.09a.515.515,0,0,0,.272-.027.221.221,0,0,0,.069-.161l.014-.141.163.015-.107,1.165-.163-.015.013-.143a.2.2,0,0,0-.06-.187.614.614,0,0,0-.242-.06l-1.08-.1a2.432,2.432,0,0,0-.327,0,.682.682,0,0,0-.278.064.492.492,0,0,0-.173.168.642.642,0,0,0-.089.292.839.839,0,0,0,.061.421.527.527,0,0,0,.225.264,1.637,1.637,0,0,0,.535.117l1,.092a.608.608,0,0,0,.263-.016.223.223,0,0,0,.079-.169Zm.084-3.411-.88.008,0,.4a.3.3,0,0,0,.056.2.471.471,0,0,0,.246.079l.043,0v.158l-.94.01,0-.165h.048a.482.482,0,0,0,.19-.034.188.188,0,0,0,.082-.081.386.386,0,0,0,.026-.166l0-.4-.736.007a.825.825,0,0,0-.23.022.114.114,0,0,0-.054.056.3.3,0,0,0-.037.144l0,.139h-.164l-.012-1.163h.164l0,.136a.231.231,0,0,0,.071.186.688.688,0,0,0,.254.032l1.611-.016a.858.858,0,0,0,.23-.022.123.123,0,0,0,.055-.055.292.292,0,0,0,.035-.146v-.137l.164,0,.018,1.943-.644.036,0-.15.036-.011a.742.742,0,0,0,.238-.1.32.32,0,0,0,.1-.138.827.827,0,0,0,.031-.269Zm-1.477-2.62c-.008-.041-.016-.082-.022-.124l-.008-.051v-.006l-.665.109c-.05.008-.215.037-.249.081a.217.217,0,0,0-.036.18l.023.144-.162.025-.186-1.149.163-.024.021.139a.206.206,0,0,0,.111.17.7.7,0,0,0,.243-.01l1.589-.258a.628.628,0,0,0,.249-.08.229.229,0,0,0,.036-.185l-.023-.14.162-.026.153.943a2.219,2.219,0,0,1,.037.6.717.717,0,0,1-.171.374.6.6,0,0,1-.373.206.635.635,0,0,1-.45-.091.849.849,0,0,1-.3-.376l-.57.572a1.3,1.3,0,0,0-.265.337.716.716,0,0,0-.046.32l0,.043-.157.025-.119-.73Zm.45-3.069-.844.272.153.476a.469.469,0,0,0,.127.225.387.387,0,0,0,.277,0l.044-.012.05.153-.917.3-.05-.149.038-.019a.978.978,0,0,0,.194-.112.18.18,0,0,0,.049-.107.508.508,0,0,0-.033-.208l-.153-.478-.735.237a.9.9,0,0,0-.171.067.062.062,0,0,0-.022.038.36.36,0,0,0,.021.115l.129.4a1.117,1.117,0,0,0,.115.27.4.4,0,0,0,.148.123,1.383,1.383,0,0,0,.385.112l.028,0,.054.165-.761-.016-.613-1.906.156-.051.042.131a.312.312,0,0,0,.08.127.111.111,0,0,0,.076.034.9.9,0,0,0,.219-.051l1.541-.5c.045-.015.211-.07.235-.112a.255.255,0,0,0,0-.193l-.042-.13.156-.051.617,1.916-.605.228-.049-.154.035-.02a.854.854,0,0,0,.219-.152.245.245,0,0,0,.054-.139.838.838,0,0,0-.05-.237Zm-2.049-1.882-.6.3c-.045.021-.2.1-.216.15a.225.225,0,0,0,.02.184l.063.129-.146.073-.515-1.043.147-.074.062.129a.206.206,0,0,0,.155.13.693.693,0,0,0,.229-.081l1.444-.714c.045-.022.2-.1.216-.148a.227.227,0,0,0-.02-.188l-.063-.126.147-.074.426.862a1.7,1.7,0,0,1,.177.52.774.774,0,0,1-.068.419.646.646,0,0,1-.31.314.7.7,0,0,1-.571.041.844.844,0,0,1-.45-.447,1.907,1.907,0,0,1-.076-.186C232.614,302.216,232.6,302.162,232.582,302.106Zm-1.314-.986a.25.25,0,0,1-.1.342.242.242,0,0,1-.191.022.252.252,0,1,1,.14-.483A.246.246,0,0,1,231.268,301.12Zm-.785-3.677-1.144.875c-.04.03-.169.132-.18.185a.241.241,0,0,0,.061.182l.083.108-.13.1-.59-.773.131-.1.083.108a.217.217,0,0,0,.174.1.632.632,0,0,0,.21-.121l1.292-.988a.56.56,0,0,0,.153-.157.162.162,0,0,0,.009-.1.515.515,0,0,0-.1-.179l-.029-.038.13-.1.481.631-.965,1.83,2.013-.46.477.625-.131.1-.082-.107a.221.221,0,0,0-.175-.1.627.627,0,0,0-.211.121l-1.292.988c-.042.031-.168.132-.179.187a.241.241,0,0,0,.062.181l.082.108-.131.1-.706-.924.13-.1.084.108a.215.215,0,0,0,.173.1.624.624,0,0,0,.211-.12l1.145-.875-2.059.469-.075-.1Zm-1.131-1.891.109-.122.726.647-.109.121-.106-.093a.2.2,0,0,0-.206-.048.681.681,0,0,0-.179.157l-.671.754a1.842,1.842,0,0,1-.454.395.786.786,0,0,1-.483.077,1.093,1.093,0,0,1-.564-.294,1.184,1.184,0,0,1-.383-.54.813.813,0,0,1,.032-.512,2.214,2.214,0,0,1,.372-.512l.646-.727c.043-.049.141-.164.141-.234a.222.222,0,0,0-.089-.153l-.106-.093.109-.123.874.778-.107.123-.108-.095a.206.206,0,0,0-.185-.063.617.617,0,0,0-.192.16l-.72.811a2.234,2.234,0,0,0-.2.261.677.677,0,0,0-.114.262.476.476,0,0,0,.032.238.666.666,0,0,0,.183.245.843.843,0,0,0,.376.2.525.525,0,0,0,.346-.024,1.656,1.656,0,0,0,.412-.363l.669-.752c.034-.039.143-.165.143-.22a.224.224,0,0,0-.089-.165Zm-2.948-2.23-.489.74.417.275a.453.453,0,0,0,.239.1.386.386,0,0,0,.22-.169l.027-.037.135.089-.53.8-.133-.087.019-.038a.986.986,0,0,0,.081-.208.185.185,0,0,0-.027-.113.544.544,0,0,0-.158-.144l-.417-.275-.426.646a1.008,1.008,0,0,0-.092.158.067.067,0,0,0,.008.045.314.314,0,0,0,.088.076l.351.232a1.1,1.1,0,0,0,.259.138.405.405,0,0,0,.193,0,1.349,1.349,0,0,0,.368-.153l.026-.015.144.1-.6.464-1.669-1.1.09-.137.115.075a.3.3,0,0,0,.143.049.107.107,0,0,0,.08-.02.917.917,0,0,0,.139-.178l.891-1.351a.663.663,0,0,0,.113-.235.25.25,0,0,0-.122-.149l-.114-.075.09-.138,1.68,1.11-.33.557-.135-.091.016-.037a.907.907,0,0,0,.075-.256.252.252,0,0,0-.045-.142.8.8,0,0,0-.187-.153Zm-11,35.586a.247.247,0,0,1-.253-.248.24.24,0,0,1,.072-.179.244.244,0,0,1,.176-.075.252.252,0,0,1,.254.249.247.247,0,0,1-.249.253Z" transform="translate(-194.607 -289.77)"/></g><g transform="translate(-185.269 305.627)"><path class="a" d="M187.157,351.748v2.446h4.157a.909.909,0,0,0,.591-.151.79.79,0,0,0,.151-.541v-1.056a.8.8,0,0,0-.155-.544.9.9,0,0,0-.586-.154Zm-20.469,0v2.431h4.157a.876.876,0,0,0,.585-.157.819.819,0,0,0,.157-.556V352.46a.817.817,0,0,0-.157-.556.877.877,0,0,0-.585-.156Zm136.96.633.009.116c.012.205.013.414.013.62v4.939h-1.135v-7.349h1.072l3.533,4.685,3.3-4.685h1.2v7.349h-1.22v-4.939c0-.159.013-.329.023-.488.007-.115.016-.233.022-.349-.046.092-.094.182-.145.271-.059.1-.122.213-.191.313l-2.816,4.054h-.363l-2.924-3.944a.363.363,0,0,1-.038-.049A3.562,3.562,0,0,1,303.648,352.381Zm-11.377,4.566h5.238v-6.239h1.306v5.581a1.439,1.439,0,0,1-1.756,1.768h-4.346a2.056,2.056,0,0,1-1.389-.378,2.084,2.084,0,0,1-.374-1.39v-5.581h1.32Zm-10.024-5.17V353.7h3.564v1.054h-3.564v2.206h5.891v1.1h-7.211v-7.349h7.155v1.069Zm-6.158.013H271v1.926h4.565a1.437,1.437,0,0,1,1.753,1.759v.814a2.105,2.105,0,0,1-.369,1.395,2.059,2.059,0,0,1-1.384.373h-4.275a1.444,1.444,0,0,1-1.766-1.768v-.238l1.235-.282v1.178h5.353v-2.08h-4.55a2.06,2.06,0,0,1-1.387-.375,2.113,2.113,0,0,1-.366-1.39v-.63a2.111,2.111,0,0,1,.366-1.387,2.053,2.053,0,0,1,1.387-.376h3.9a2.115,2.115,0,0,1,1.384.368,1.772,1.772,0,0,1,.387,1.273v.188l-1.149.323Zm-16.512,5.157h5.24v-6.239h1.306v5.581a1.44,1.44,0,0,1-1.756,1.768h-4.347a2.056,2.056,0,0,1-1.389-.378,2.092,2.092,0,0,1-.374-1.39v-5.581h1.32Zm-13.024-4.566c0,.039.006.078.007.116.013.205.014.414.014.62v4.939h-1.135v-7.349h1.072l3.533,4.685,3.3-4.685h1.2v7.349h-1.22v-4.939c0-.159.013-.329.023-.488.009-.115.016-.233.023-.349-.048.092-.1.182-.145.271-.061.1-.122.213-.192.313l-2.816,4.054h-.364l-2.922-3.944a.567.567,0,0,1-.039-.049A3.553,3.553,0,0,1,246.552,352.381Zm-15.127-.6V353.7h3.564v1.054h-3.564v2.206h5.892v1.1h-7.211v-7.349h7.155v1.069Zm-13.024.6.009.116c.012.205.013.414.013.62v4.939h-1.135v-7.349h1.072l3.533,4.685,3.3-4.685h1.2v7.349h-1.219v-4.939c0-.159.013-.329.023-.488.007-.115.016-.233.022-.349-.046.092-.094.182-.145.271-.059.1-.122.213-.191.313l-2.816,4.054H221.7l-2.924-3.944a.366.366,0,0,1-.038-.049A3.561,3.561,0,0,1,218.4,352.381Zm-11.377,4.566h5.238v-6.239h1.306v5.581a1.439,1.439,0,0,1-1.756,1.768h-4.346a2.062,2.062,0,0,1-1.39-.378,2.09,2.09,0,0,1-.373-1.39v-5.581h1.32Zm-9.047-5.157v2.278h3.281v1.067h-3.281v2.923h-1.319v-7.349h7.069v1.081Zm-7.127,3.442,3.346,2.825h-1.97l-2.982-2.825h-2.087v2.825h-1.319v-7.349h5.955a1.828,1.828,0,0,1,1.219.346,1.479,1.479,0,0,1,.377,1.11v1.619a1.46,1.46,0,0,1-.377,1.1,1.82,1.82,0,0,1-1.219.346Zm-13.716-3.455V353.7H180.7v1.054h-3.564v2.206h5.893v1.1h-7.211v-7.349h7.155v1.069Zm-10.446,3.455v2.825h-1.32v-7.349h5.956a1.828,1.828,0,0,1,1.219.346,1.479,1.479,0,0,1,.377,1.11v1.619a1.466,1.466,0,0,1-.377,1.1,1.82,1.82,0,0,1-1.219.346Z" transform="translate(-165.367 -334.674)"/><path class="b" d="M182.515,347.741a1.684,1.684,0,0,1-1.69,1.673h-.495v1.565h.495a3.26,3.26,0,0,0,3.272-3.239v-5.569h-1.582Zm47.133-5.569h-5.295v3.622H205.3v-3.622h-1.583v3.622H193.637v-3.622h-5.295a2.595,2.595,0,1,0,0,5.189h3.712v3.619h1.583v-3.619h36.011a2.595,2.595,0,1,0,0-5.189Zm-37.594,3.622h-3.712a1.028,1.028,0,1,1,0-2.057h3.712Zm37.594,0h-3.712v-2.057h3.712a1.028,1.028,0,1,1,0,2.057Zm12.418-3.622h-5.293v8.808h1.583v-3.619h3.71a2.595,2.595,0,1,0,0-5.189Zm0,3.622h-3.71v-2.057h3.71a1.028,1.028,0,1,1,0,2.057Zm64.671,2.871a.783.783,0,1,0,.791.784A.789.789,0,0,0,306.737,348.665Zm-43.91,0a.783.783,0,1,0,.791.784A.789.789,0,0,0,262.827,348.665Zm2.277,0a.783.783,0,1,0,.791.784A.789.789,0,0,0,265.1,348.665Zm-66.783,0a.783.783,0,1,0,.792.784A.789.789,0,0,0,198.321,348.665Zm2.278,0a.783.783,0,1,0,.791.784A.789.789,0,0,0,200.6,348.665Zm90.158-7.735a.783.783,0,1,0-.791-.783A.789.789,0,0,0,290.757,340.93Zm-107.451-1.567a.783.783,0,1,0,.791.784A.789.789,0,0,0,183.306,339.363Zm103.825,4.069a2.051,2.051,0,0,0,2.06,2.041h4.272v.322H269.2v-3.623h-1.583v3.623H254.7v-3.623h-5.2a2.672,2.672,0,0,0-2.708,2.419,2.609,2.609,0,0,0,2.616,2.772h3.71v3.619h1.58v-3.619h40.35v-5.97h-5.853A2.051,2.051,0,0,0,287.131,343.432Zm-34.016,2.362H249.4a1.028,1.028,0,1,1,0-2.057h3.71Zm40.348-2.839v.952h-4.269a.476.476,0,1,1,0-.952Zm-119.377,5.71a.783.783,0,1,0,.791.784A.788.788,0,0,0,174.086,348.665Zm2.277,0a.783.783,0,1,0,.792.784A.789.789,0,0,0,176.363,348.665Zm1.082-2.872h-4.366a2.554,2.554,0,0,0,.216-1.027,2.61,2.61,0,0,0-2.621-2.6H165.38v8.809h1.582v-3.619h12.065v-5.187h-1.582Zm-10.484-2.055h3.713a1.028,1.028,0,1,1,.009,2.055h-3.722Zm143.068-1.565v3.621h-10.64v-3.621h-1.6v5.569a1.684,1.684,0,0,1-1.69,1.673H295.6v1.565h.495a3.26,3.26,0,0,0,3.273-3.239v-.382h12.241v-5.187Z" transform="translate(-165.361 -339.363)"/></g></g></svg>