<svg xmlns="http://www.w3.org/2000/svg" width="619" height="479" viewBox="0 0 619 479"><defs><style>.a{opacity:0.2;}.b{fill:#d1d5d6;fill-rule:evenodd;}</style></defs><g class="a"><path class="b" d="M752.184,925.62a.546.546,0,0,1,.124.583,32.847,32.847,0,0,1-2.324,4.6q-4.867,8.076-9.593,16.22a156.714,156.714,0,0,0-33.448,42.652,90.636,90.636,0,0,1-11.633,16.893,29.5,29.5,0,0,1-18.751,9.8,43.838,43.838,0,0,0,25.412,17.147,33.177,33.177,0,0,0-.784,6.473,138.438,138.438,0,0,1-1.433,17.05,25.235,25.235,0,0,1,10.317-3.151,180.637,180.637,0,0,1,24.862-.375c3.861.191,7.732.328,11.6.382a95.6,95.6,0,0,1,12.671,1,44.931,44.931,0,0,0,5.8.479c7.206.124,14.448,0,21.678-.365,5.555-.281,11.127-.308,16.679-.074a75.727,75.727,0,0,0,48-11.348,342.56,342.56,0,0,0,34.72-25.354,42.264,42.264,0,0,0,29.132-17.154,93.939,93.939,0,0,0,8.8-15.1c-.291-.482-.572-.954-.837-1.47-.465,1-.961,1.976-1.47,2.93.465-1.1.891-2.217,1.269-3.348a17.4,17.4,0,0,1-1.406-4.959,63.12,63.12,0,0,1-17,28.294,9.793,9.793,0,0,1,1.306-6.084,41.75,41.75,0,0,0,3.891-8.77,24.156,24.156,0,0,1,2.384-5.291A12.921,12.921,0,0,0,914,981.391a3.566,3.566,0,0,1,.67-1.825,46.753,46.753,0,0,0,3.348-5.592,60.3,60.3,0,0,1,5.729-9.232c-.02.854-.064,1.691-.12,2.528a14.922,14.922,0,0,1,2.4-3.268,14.452,14.452,0,0,1,1.028-6.79,87.036,87.036,0,0,0,3.349-9.436,16.444,16.444,0,0,1-.08,9.312q-.678,2.266-1.162,4.554a15.291,15.291,0,0,1,2.615-1.206,97.93,97.93,0,0,0,.911-21.346q-.728-5.8-1.041-11.626a47.1,47.1,0,0,1-5.729,25.224q-.086-6.088,0-12.192a18.713,18.713,0,0,0-.771-5.559,7.009,7.009,0,0,1,.416-5.113,10.247,10.247,0,0,0,.67-7.176,3.257,3.257,0,0,1,.525-2.843,12.244,12.244,0,0,0,2.22-8.857,10.389,10.389,0,0,1,2.873-8.672,5.708,5.708,0,0,1,.382,3.161,64.321,64.321,0,0,0-.827,15.085c.375,2.31.663,4.611.884,6.921a171.52,171.52,0,0,1,4.708-39.605,56.987,56.987,0,0,1,18.45-30.025,264.469,264.469,0,0,0,22.679-19.17l17.861-18.751-1.4-.794-14.864,15.892L947,861.2A100.838,100.838,0,0,1,889,868.351l-36.5-6.285-25.415-1.754-12.781,1.2-20.459,4.963a53.389,53.389,0,0,0-30.5,26.074c-1.329,1.748-2.7,3.459-4.082,5.173A33.943,33.943,0,0,0,752.184,925.62Zm3.087-11.569h.01a49.521,49.521,0,0,1,7.986-5.22,15.708,15.708,0,0,1-3.429,6.2c-1.865,1.393-3.76,2.766-5.693,4.1A41.11,41.11,0,0,1,755.271,914.051Zm11.776-3.787c2.424-2.531,4.915-4.972,7.507-7.316a37.215,37.215,0,0,1,14.094-7.731,21.667,21.667,0,0,0,5.642-2.679l2.387.687a17.715,17.715,0,0,1-10.4,5.776,15.318,15.318,0,0,0-7.862,3.78c-1.179,1.085-2.408,2.11-3.683,3.114q-6.309,4.978-12.336,10.333a39.827,39.827,0,0,1,4.688-5.953Zm18.239-20.191a51.486,51.486,0,0,1,5.783,1.5,30.066,30.066,0,0,1-6.292,2.662,35.066,35.066,0,0,0-6.891,2.923,23.416,23.416,0,0,1,3.77-3.348v.007A14.416,14.416,0,0,0,785.287,890.073Zm119.365,53.89a239.4,239.4,0,0,1-.167,30.377,18.764,18.764,0,0,1-1.205,5.528,106.839,106.839,0,0,0-3.406,10.35c-.047-2.555-1.028-3.9-.094-6.67a11.346,11.346,0,0,0-1.641-10.41,17.976,17.976,0,0,1-3.388-13.029c.261-2.009.486-4.062.65-6.1a31.748,31.748,0,0,1,2.575-10.079q2.451-5.485,4.651-11.083a17.6,17.6,0,0,0,1.708-9.53,31.823,31.823,0,0,1-.248-7.959h0c1.962-1.6,3.837-3.415,5.733-5.1a15.089,15.089,0,0,1-1.537,4.118,8.183,8.183,0,0,0-1.045,4.246,20.517,20.517,0,0,1-2.086,9.566,10.055,10.055,0,0,0-1,4.179A90.034,90.034,0,0,0,904.652,943.962Zm2.508-13.615a37.918,37.918,0,0,0,2.1-9.413,20.058,20.058,0,0,1,2.6-8.11,12.142,12.142,0,0,0,1.607-5.813l2.866-2.468a43.634,43.634,0,0,0,.837,6.653,6.759,6.759,0,0,1-.8,4.761,45.654,45.654,0,0,0-3.2,6.6c-2.2,5.572-4.339,11.137-6.5,16.716A15.531,15.531,0,0,1,907.16,930.348Zm-13.022-11.994c-1.145.586-2.317,1.142-3.469,1.684l-.027.027-.01-.01.037-.017,4.46-4.748a11.049,11.049,0,0,0,2.535-4.226,8.021,8.021,0,0,1,1.44-2.679,45.567,45.567,0,0,1,5.421-5.625,36.521,36.521,0,0,0,4.353-4.427,10.688,10.688,0,0,1,4.253-3.013,21.251,21.251,0,0,0,6.74-4.142,103.807,103.807,0,0,1,8.733-7.1q2.9-2.109,5.646-4.4A148.255,148.255,0,0,1,894.138,918.353ZM761.827,1024.3a21.087,21.087,0,0,1,8.174-5.357l.017.01a70.144,70.144,0,0,1,10.889-3.014,22.07,22.07,0,0,1-4.6,3.432,17.844,17.844,0,0,0-6.9,6.992,20.291,20.291,0,0,0-6.315,6.1,21.577,21.577,0,0,1-9.215,7.792c-5.357,2.391-10.692,4.708-16.089,6.965a34.3,34.3,0,0,0,8.807-6.667C751.7,1035.16,756.741,1029.719,761.827,1024.3Zm-12,8.19a21.26,21.26,0,0,1,10.574-10.715v0c-.763.81-1.55,1.587-2.374,2.32A90.64,90.64,0,0,0,749.823,1032.488ZM798.9,893.856h.034l-.01.007c1.366.382,2.739.733,4.072,1.182a1.618,1.618,0,0,1-1.035.425,7.422,7.422,0,0,0-4.052,1.517,20.467,20.467,0,0,1-4.018,2.388,32.44,32.44,0,0,0-6.151,3.6q-3.526,2.617-7.032,5.3a29.5,29.5,0,0,1-11.465,5.311q4.621-4.053,9.071-8.234a15.636,15.636,0,0,1,6.128-3.492,38.524,38.524,0,0,0,14.482-8ZM872.35,930a4.829,4.829,0,0,0-2.605,3.067,14.819,14.819,0,0,1-5.642,7.5,4.135,4.135,0,0,0-1.648,4.018,2.837,2.837,0,0,1-.911,2.575,13.166,13.166,0,0,0-4.353,7.889,44.2,44.2,0,0,1-1.855,7.447c-1.353,3.958-2.792,7.9-4.279,11.8a18.431,18.431,0,0,0-1.423-4.755q3.169-7.5,6.944-14.733a94.988,94.988,0,0,0,4.243-9.289,75.965,75.965,0,0,1,4.052-8.6,18.259,18.259,0,0,1,3.962-5.023l.006.014a10.279,10.279,0,0,0,1.778-2.106l2.736-.472A4.42,4.42,0,0,1,872.35,930Zm1.014,1.775.021.017a10.067,10.067,0,0,0,2.913-3.054q4.47-.924,8.833-2.13a48.073,48.073,0,0,0-4.25,5.746c-4.688,7.524-10.715,14.258-15.925,21.467a25.764,25.764,0,0,0-3.094,5.662,33.458,33.458,0,0,1-2.679,5.357,22.147,22.147,0,0,0-2.227,4.9,29.555,29.555,0,0,1-7.266,12.138,21.61,21.61,0,0,1,2.009-3.556,13.985,13.985,0,0,0,2.3-5.4,29.916,29.916,0,0,1,2.528-7.551,45.817,45.817,0,0,0,3.034-7.992A37.742,37.742,0,0,1,862.1,950.7a59.991,59.991,0,0,0,2.531-5.84,12.806,12.806,0,0,1,3.181-4.728,9.928,9.928,0,0,0,2.776-4.487A6.961,6.961,0,0,1,873.364,931.774Zm-13.645,10.8a29.138,29.138,0,0,1-2.679,5.411,55.422,55.422,0,0,0-5.274,10.732,36.044,36.044,0,0,1-3.911,7.685,18.986,18.986,0,0,0-2.9-3.231,36.28,36.28,0,0,1,2.471-12.892,35.267,35.267,0,0,1,6.965-9.041l.007,0q3.711-3.481,7.366-7.032a22.362,22.362,0,0,0,2.987-3.59l2.083-.268A35.235,35.235,0,0,0,859.719,942.576ZM845.441,970.06a14.675,14.675,0,0,1-2.009-4.517h.013a5.8,5.8,0,0,1,3.539,4.145,38.1,38.1,0,0,1,.844,8.036,12.18,12.18,0,0,1-3.9,7.527q1.06-4.51,2.417-8.971A7.293,7.293,0,0,0,845.441,970.06Zm-25.689,35.885a22.865,22.865,0,0,1-.9-7.39,48.043,48.043,0,0,0-.412-8.659,12.753,12.753,0,0,1,.458-5.525,16.557,16.557,0,0,0,.285-8.706,9.679,9.679,0,0,1,1.939-6.7,67.846,67.846,0,0,1,5.458-7.866,8.313,8.313,0,0,0,1.795-4.43,44.922,44.922,0,0,1,1.091-6.422v.006c2.5,2.381,4.624,5.425,2.943,8.877-1,2.046-1.969,4.1-2.937,6.161a18.869,18.869,0,0,1-2.779,4.323,8.63,8.63,0,0,0-2.039,5.174,15.8,15.8,0,0,1-1.828,6.623,24.28,24.28,0,0,0-2.876,12.932A41.413,41.413,0,0,1,819.752,1005.945Zm-2.786-1.52a42.612,42.612,0,0,1-2.234-9.084q-.884-7.3-1.982-14.542,1.6-7.4,3.308-14.77c.6-2.568,1.31-5.133,2.147-7.651a10.456,10.456,0,0,0-.362-7.417,5.847,5.847,0,0,1,.224-5.086,5.63,5.63,0,0,0,.274-4.721,4.243,4.243,0,0,1,.8-4.461,4.632,4.632,0,0,0,1.235-3.013,4.058,4.058,0,0,1,2.525-3.6l.01-.007a60.554,60.554,0,0,0,.405,7.012,12.92,12.92,0,0,0,1.922,5.357,11.285,11.285,0,0,1,1.674,7.6,29.365,29.365,0,0,1-4.909,13.585,33.534,33.534,0,0,0-4.309,7.343,12.751,12.751,0,0,0-.556,8.522,6.053,6.053,0,0,1-.372,4.31,6.784,6.784,0,0,0-.616,2.679A119.347,119.347,0,0,0,816.966,1004.425Zm-4.4-37.462a5.493,5.493,0,0,1-.981,4.754,86.79,86.79,0,0,1,5.552-45.478v0a6.921,6.921,0,0,1,6.5-1.878,2.154,2.154,0,0,1-1.145,1.949,6.8,6.8,0,0,0-2.846,3.014,61.963,61.963,0,0,0-2.993,7.487,19.3,19.3,0,0,0-.817,8.11,6.341,6.341,0,0,1-.432,3.094,8.423,8.423,0,0,0-.425,4.865c.753,3.576,1.323,7.213-1.447,10.19A4.05,4.05,0,0,0,812.563,966.963Zm-5.153-1.018q.165,1.844.419,3.683a62.879,62.879,0,0,0-17.077,18.9,6.738,6.738,0,0,1-3.519,2.813,64.643,64.643,0,0,1-8.257,2.27q4.731-6.7,10.082-12.9a76.185,76.185,0,0,1,8-8.036l0,.027A45.5,45.5,0,0,1,807.41,965.945Zm47.216-63.557c2.036.05,4.045.05,6.054.05-1.2.616-2.4,1.235-3.576,1.905A164.262,164.262,0,0,0,839.3,914.526a27.289,27.289,0,0,1-13.749,4.983h0c2.424-1.708,4.788-3.492,7.085-5.331a7.848,7.848,0,0,1,3.907-1.641,5.326,5.326,0,0,0,2.622-1.1,13.223,13.223,0,0,1,4.815-2.394A20.584,20.584,0,0,0,854.626,902.388Zm-.616-4.246v-.013l.067.007c.69-.06,1.37-.141,2.039-.258a49.766,49.766,0,0,1,11.177-.569,25.982,25.982,0,0,0,2.977,0,34.941,34.941,0,0,1-13.009,1.041c-1.055-.121-2.113-.177-3.185-.214ZM838.028,942a5.634,5.634,0,0,1-1.092,4.544c-1.795,2.344-1.119,4.239-1.37,6.861a5.016,5.016,0,0,1-.593-4.386,5.2,5.2,0,0,0-1.132-4.514,2.443,2.443,0,0,1-.087-3.094,5.75,5.75,0,0,0,1.165-3.258c.054-1.738,1.765-1.936,1.446-3.928a3.56,3.56,0,0,1,1.674-2.859,1.8,1.8,0,0,0-3.382.891c.164,1.758-2.511,3.1-1.825,5.709a1.061,1.061,0,0,1-.432,1.138,2.893,2.893,0,0,0-.984,3.529c.5,1.159-.881,1.969.231,3.716a5.707,5.707,0,0,1,1.021,3.684,6.321,6.321,0,0,1-3.234-8.334l.016-.037a5.847,5.847,0,0,0-.77-5.331,1.73,1.73,0,0,1-.02-2.009c1.062-1.5,2.12-3.014,3.218-4.487l.007-.006c.468-.646.961-1.3,1.47-1.949a76.061,76.061,0,0,0,10.494,2.414,2.914,2.914,0,0,1-.945,1.674,7.026,7.026,0,0,0-2.374,4.648,3.593,3.593,0,0,1-1.4,2.538A2.919,2.919,0,0,0,838.028,942Zm-6.915-14.844a38.146,38.146,0,0,1-4.232,5.964,2.91,2.91,0,0,0-.549,3.074,7.248,7.248,0,0,1,.458,3.4c-.214-.315-.623-.8-.549-1.185a9.283,9.283,0,0,0-.753-4.035,23.679,23.679,0,0,1-.161-9.409c1.889.81,3.828,1.527,5.786,2.2ZM818.4,919.92a14.934,14.934,0,0,1,6.282-8.77l.013.014a69.311,69.311,0,0,0,9.64-7.641c1.6-.221,3.171-.475,4.745-.77a18.924,18.924,0,0,0-4.855,4.832,19.357,19.357,0,0,1-6.449,7.032Q823.064,917.223,818.4,919.92Zm31.452-17a27.459,27.459,0,0,1-14.087,6.519,9.954,9.954,0,0,1,4.186-4.336v-.013l5.552-3.074c1.674.087,3.315.177,4.976.234A4.711,4.711,0,0,1,849.851,902.924Zm-4.574-4.246a41.828,41.828,0,0,1-12.282.138q-9.121-1.246-18.162-2.853h0a54.283,54.283,0,0,1,22.8-2.3,25.021,25.021,0,0,0,12.724,4.484A44.488,44.488,0,0,0,845.277,898.678Zm-25.016,2.327c1.132.261,2.25.536,3.375.824a6.9,6.9,0,0,1-2.14,1.477c-4.728,2.113-9.483,4.149-14.281,6.071a17.786,17.786,0,0,1,4.8-4.115h0A80.3,80.3,0,0,1,820.261,901.005Zm-4.249-.817a35.234,35.234,0,0,0-10.076,6.2,9.806,9.806,0,0,1-2.95,1.949,57.475,57.475,0,0,0-5.709,2.773,102.448,102.448,0,0,1-12.644,6h0q3.631-2.245,7.115-4.708a22.523,22.523,0,0,0,3.924-3.519,16.385,16.385,0,0,1,5.338-3.981q5.535-2.571,11-5.291C813.35,899.769,814.689,899.947,816.012,900.188Zm-10.946,15q9.89-4.48,20.057-8.338c-1.3,1.145-2.6,2.344-3.871,3.526a21.175,21.175,0,0,0-7.205,3.938,20.6,20.6,0,0,1-7.451,3.954,117.2,117.2,0,0,0-14.971,5.515h0A54.988,54.988,0,0,1,805.066,915.186Zm-13.109,11.371a134.94,134.94,0,0,0,23.583-9.751c-.576.774-1.105,1.554-1.614,2.344-1,1.544-.629,2.5-.472,4.088a83.716,83.716,0,0,0-18.638,8.743q-4.123,2.612-8.1,5.448a13.954,13.954,0,0,0-4.376,5.08,9.067,9.067,0,0,1-2.344,2.9,14.135,14.135,0,0,0-4.6,6.911,25.711,25.711,0,0,1-4.018,8.083,38.591,38.591,0,0,0,1.148-11.438,8.645,8.645,0,0,1,1.674-5.558q2.2-3.029,4.688-5.88l0-.01q2.351-2.7,4.641-5.434A17.581,17.581,0,0,1,791.957,926.557Zm-5.327,29.9a21.713,21.713,0,0,1,14.713-6.593,13.4,13.4,0,0,0,6.784-2.7c-.191,1.078-.338,2.156-.492,3.241a20.05,20.05,0,0,1-11.8,5.749,14.281,14.281,0,0,0-5.646,1.962l-9.607,5.913c1.905-2.592,3.918-5.13,6.044-7.574Zm22.016-11.719A120.6,120.6,0,0,1,795.64,948.8a23.477,23.477,0,0,0-10.819,6.114,57.194,57.194,0,0,0-9.791,13.113,30.029,30.029,0,0,1,9.1-22.358l-.013.017a5.581,5.581,0,0,1,2.471-1.3A43.832,43.832,0,0,0,795.965,941a19.829,19.829,0,0,1,8.3-2.073,4.894,4.894,0,0,0,3.134-1.276,2.578,2.578,0,0,1,3.064-.335C809.831,939.763,809.158,942.241,808.645,944.739Zm1.319,36.267a24.766,24.766,0,0,1-8.036,6.057q-5.133,2.4-10.139,5.023a34.956,34.956,0,0,1,6.928-10.471l.027-.02a125.725,125.725,0,0,1,9.547-8.961C808.763,975.448,809.442,978.193,809.965,981.006Zm-6.58-44.437a28.9,28.9,0,0,0-7.815,1.614,84.885,84.885,0,0,0-9.168,3.888,23.4,23.4,0,0,1,10.381-8.555h0a72.282,72.282,0,0,0,8.257-4.139,54.064,54.064,0,0,1,8.415-4,10.242,10.242,0,0,1-.372,2.06l-1.165,4.329A14.757,14.757,0,0,1,803.385,936.569Zm-18.741-9.65a9.483,9.483,0,0,1-.74.629,37.511,37.511,0,0,0-9.51,10.715,102.817,102.817,0,0,1-6.4,9.6,106.786,106.786,0,0,0-8.036,12.44,36.973,36.973,0,0,1-7.337,9.312,163.191,163.191,0,0,1,7.548-15.363,84.481,84.481,0,0,1,24.477-27.333c.05-.044.107-.084.154-.131l.01.007C784.751,926.835,784.7,926.879,784.644,926.919Zm-13.457,37.523.02.023-.02.04a7.066,7.066,0,0,1,0,1.276,12.011,12.011,0,0,0,1.085,6.392,44.219,44.219,0,0,0-8.277,14.666,23.843,23.843,0,0,1-3.121,6.248,85.385,85.385,0,0,1-7.3,9.084,56.416,56.416,0,0,1,7.032-17.017,105.3,105.3,0,0,0,7.149-13.658c1.038-2.368,2.183-4.708,3.432-6.992A.382.382,0,0,1,771.186,964.441Zm-4.062,20.265a13.785,13.785,0,0,1,3.647-6.128,29.542,29.542,0,0,0,3.529-4.169,34.034,34.034,0,0,1,8.8-8.565l-.017.01q3.737-2.511,7.641-4.775a21.947,21.947,0,0,1,6.637-2.5,25.013,25.013,0,0,0,9.868-4.323,65.292,65.292,0,0,0-.1,8.254,161.258,161.258,0,0,1-15.768,5.357,31.473,31.473,0,0,0-14.69,9.064,57.113,57.113,0,0,1-5.217,5.09,15.85,15.85,0,0,0-4.085,5.441,34.529,34.529,0,0,1-5.692,8.743A38.052,38.052,0,0,0,767.125,984.706Zm23.566,10.534h-.006a63.962,63.962,0,0,0,19.7-11.562c.375,2.344.65,4.688.844,7.032q-4.641,2.682-9.376,5.126a8.7,8.7,0,0,0-3.861,3.924,19.123,19.123,0,0,1-9.041,7.835,77.153,77.153,0,0,1-16.012,5.655,56.9,56.9,0,0,0,10.423-11.954A16.136,16.136,0,0,1,790.691,995.24Zm4.078,11.967a14.308,14.308,0,0,0,5.23-4.838,22.855,22.855,0,0,1,11.559-9.195,33.1,33.1,0,0,0,.824,4.242,78.664,78.664,0,0,1-5.97,6.483,22.606,22.606,0,0,1-9.091,5.357A71.373,71.373,0,0,1,784.443,1012h0A86.194,86.194,0,0,0,794.769,1007.208Zm22.579,7.527a19.541,19.541,0,0,0,.385-6.717,11.967,11.967,0,0,1,1.075,4.259,38.008,38.008,0,0,1-1.259,9.553A13.785,13.785,0,0,1,817.348,1014.735Zm4.976-7.383a68.2,68.2,0,0,0,.164-12.208,21.784,21.784,0,0,1,2.146-11.67,24.905,24.905,0,0,0,2.719-9.041,6.089,6.089,0,0,1,1.534-3.522,23.083,23.083,0,0,0,5.937-12.409v-.01a11.621,11.621,0,0,0,.616,3.348,13.925,13.925,0,0,1,.582,2.5q.442,3.244,1.155,6.425a7.163,7.163,0,0,1-.743,5.167,10.185,10.185,0,0,0-1.3,5.023,4.4,4.4,0,0,1-1.407,3.2,16.885,16.885,0,0,0-3.743,5,9.487,9.487,0,0,1-2.876,3.445,6.3,6.3,0,0,0-2.491,4.253c-.6,4.825-1.7,9.62-2.424,14.465A27.6,27.6,0,0,1,822.324,1007.352Zm2.609.519c.579-2.491,1.135-4.976,1.627-7.467a13.3,13.3,0,0,0,.238-3.472c-.084-1.3,2.006-.9,1.925-2.913a.4.4,0,0,1,.275-.412,6.036,6.036,0,0,0,3.683-3.871,3.959,3.959,0,0,1,1.38-1.989,7.72,7.72,0,0,0,2.518-3.322,53.918,53.918,0,0,0,2.977-11.777l.007,0a15.071,15.071,0,0,1,1.8,11.482c-.824,3.713-1.785,7.387-2.923,11.05a27.465,27.465,0,0,1-5.107,8.22,124.619,124.619,0,0,1-9.178,11.368A29.526,29.526,0,0,1,824.932,1007.871Zm14.676-39.682a4.907,4.907,0,0,1-.877-2.9,18.156,18.156,0,0,0-1.356-7.259,3.187,3.187,0,0,1,0-2.407,12.029,12.029,0,0,0,.78-5.612,3.7,3.7,0,0,1,.746-2.595,6.332,6.332,0,0,0,1.266-4.353,3.412,3.412,0,0,1,.73-2.424,25.584,25.584,0,0,0,4.842-10.085l-.027-.017c1.9.241,3.794.405,5.693.509a60.879,60.879,0,0,0-6.7,17.214q-1.633,7.223-2.786,14.539a1.925,1.925,0,0,0-.606,1.38,11.617,11.617,0,0,0,1.674,5.97,5.575,5.575,0,0,1,.7,3.884C842.327,972.1,840.968,970.144,839.609,968.188Zm22-37.328a44.781,44.781,0,0,1-7.273,7.233,60.991,60.991,0,0,0-5.609,4.989,68.337,68.337,0,0,1,3.888-8.036,25.416,25.416,0,0,0,1.754-3.9h0C856.786,931.158,859.19,931.067,861.6,930.86Zm-12.728-3.03a27.146,27.146,0,0,1-4.159-.934,50.964,50.964,0,0,0-7.162-1.587,52.286,52.286,0,0,1,14.676-.951,16.956,16.956,0,0,1,3.871.767,11.005,11.005,0,0,0,5.307.315,5.505,5.505,0,0,1,5.059,1.648A87.345,87.345,0,0,1,848.877,927.83Zm-20.971-4.594a44.663,44.663,0,0,1,15.088-3.616,13.116,13.116,0,0,1-3.238,1.2C835.825,921.692,831.864,922.5,827.906,923.235Zm12.336-6.121-.007-.01q7.016-4.6,14.164-9a53.257,53.257,0,0,1,9.948-4.788c7.9-2.812,15.815-5.545,23.969-7.628.884-.214,1.774-.469,2.645-.757a8.718,8.718,0,0,0-1.845,1.594,14.637,14.637,0,0,1-4.186,3.318,34.362,34.362,0,0,0-6.044,4.018,9,9,0,0,1-3.472,1.735,14.1,14.1,0,0,0-6.56,3.61,4.584,4.584,0,0,1-2.773,1.279,13.456,13.456,0,0,0-6.161,2.207,5.032,5.032,0,0,1-2.957.874,17.685,17.685,0,0,0-6.007.944A63.044,63.044,0,0,1,840.241,917.114ZM873.02,909.8a71.851,71.851,0,0,0,8.823-4.949,55.017,55.017,0,0,0,8.006-6.087,9.726,9.726,0,0,1,4.283-2.277,33.859,33.859,0,0,1,5.933-.891c2.809-.164,5.609-.412,8.408-.727-4.132,3.971-8.13,8.073-12.333,11.971a12.342,12.342,0,0,1-3.064,2.073c-5.719,2.7-10.889,5.692-17.462,5.937a110.219,110.219,0,0,1-12.53-.248h0Q867.992,912.092,873.02,909.8Zm22.464-16.213c-.335.007-.67.037-1,.077h0a46.139,46.139,0,0,0,8.987-4.932,2.644,2.644,0,0,1,.914-.1A13.1,13.1,0,0,1,895.484,893.588Zm-20.345-3.754h-.03l0-.01.027.01a22.172,22.172,0,0,1,7.407.131,18.271,18.271,0,0,0,9.419-.67,22.5,22.5,0,0,1,6.252-1.185C890.974,890.672,882.629,892.708,875.139,889.835Zm.533,3.744A45.758,45.758,0,0,1,863.9,895.1a64.984,64.984,0,0,0-10.692.824,19.843,19.843,0,0,1-10.876-2.957h.01a92.912,92.912,0,0,1,12.647-1.483q7.162-.316,14.315-.506A8.6,8.6,0,0,1,875.671,893.578Zm-35.825-2.508a44.014,44.014,0,0,0-14.619.5q-7.589,1.547-15.282,2.538c-2.629-.881-5.227-1.785-7.839-2.719h0q7.188-.944,14.315-2.173a17.7,17.7,0,0,1,6.245-1.306,48.33,48.33,0,0,1,20.214,3.2A14.369,14.369,0,0,1,839.846,891.07Zm-33.223,5.482a11.953,11.953,0,0,1-3.415,2.243c-4.276,1.818-8.331,3.871-12.684,5.545v-.017a37.248,37.248,0,0,1,9.61-6.027c1.982-.837,3.553-.358,5.07-2.367Zm-16.672,10.481a73.672,73.672,0,0,1,10.8-4.688,22.151,22.151,0,0,0,8-4.741l1.112.669a24.536,24.536,0,0,1-3.975,2.106,51.591,51.591,0,0,0-14.167,8.843,34.774,34.774,0,0,1-7.323,4.916,40.821,40.821,0,0,0-9.506,6.58,37.694,37.694,0,0,1-13.558,8.029l-.007.007h-.01l.017-.007c2.528-2.548,5-5.14,7.44-7.788a35.172,35.172,0,0,1,7.7-6.275Q783.118,910.716,789.951,907.032ZM770.945,926.34h0a92.5,92.5,0,0,0,9.536-5.244,19.532,19.532,0,0,1,4.892-2.193c2.849-.847,5.649-1.8,8.435-2.856-1.989,1.313-4,2.555-6.064,3.747-8.88,5.093-17.78,10.059-26.563,15.289A23.271,23.271,0,0,1,770.945,926.34ZM765.6,939.094a18.391,18.391,0,0,1-4.145,7.089,58.067,58.067,0,0,0-6.51,8.448,13.167,13.167,0,0,1-4.688,4.447q-4.907,2.823-9.8,5.692c1.473-2.243,3.044-4.406,4.718-6.513a.662.662,0,0,0,.469-.221l.007.01A95.94,95.94,0,0,1,757.374,946.2Q761.523,942.671,765.6,939.094Zm-17.027,23.643a40.682,40.682,0,0,1-4.661,6.027q-6.489,6.931-13.561,13.33a27.351,27.351,0,0,1,10.029-13.956v0Q744.329,965.242,748.574,962.737Zm1.741,2.659h0a7.341,7.341,0,0,1-2.679,6.161,64.924,64.924,0,0,0-11.294,12.212,44.679,44.679,0,0,1-10.25,10.333,42.963,42.963,0,0,0-6.724,6.081,33.094,33.094,0,0,1-15.785,9.811A255.365,255.365,0,0,0,750.315,965.4Zm1.236,10.082a27.055,27.055,0,0,1,5.394-7.316,46.7,46.7,0,0,0,9.436-12.891c1.186-2.344,2.461-4.651,3.871-6.9h0a11.976,11.976,0,0,1-.188,4.273,66.891,66.891,0,0,0-1.4,8.291,13.264,13.264,0,0,1-3.854,8.013,138.772,138.772,0,0,0-19.133,22.4A74.3,74.3,0,0,1,751.551,975.478ZM749.5,989.21q4.41-5.1,8.94-10.106a40.842,40.842,0,0,1,5.692-5.22h0a41.226,41.226,0,0,1-5.267,9.955,34.26,34.26,0,0,0-5.428,11.555,29.408,29.408,0,0,1-7.986,13.772A23.688,23.688,0,0,1,749.5,989.21Zm4.229,17.3a30.984,30.984,0,0,0,10.38-10.233,74.539,74.539,0,0,1,16.407-19.706h-.006a42.216,42.216,0,0,1,17.167-8.351,90.568,90.568,0,0,1-7.993,8.659,96.776,96.776,0,0,0-10.608,11.877,64.763,64.763,0,0,1-5.133,5.99q-3.737,3.878-7.2,7.973a20.958,20.958,0,0,1-6.027,4.819,181.517,181.517,0,0,0-15.855,9.5A21.159,21.159,0,0,1,753.728,1006.508Zm16.069-2.428a11.5,11.5,0,0,0,2.3-2.876,10.4,10.4,0,0,1,3.64-3.754v-.017a18.022,18.022,0,0,1,10.34-2.6,73.04,73.04,0,0,0-11.315,13.059,19.423,19.423,0,0,1-14.084,8.3A40.511,40.511,0,0,1,769.8,1004.08Zm9.091,20.841.006-.087a9.609,9.609,0,0,0,2.994-1.785,9.755,9.755,0,0,1,7.2-2.484,30.358,30.358,0,0,0,8.482-.687,27.949,27.949,0,0,1,8.508-.589,57.428,57.428,0,0,1-16.873,9.821,89.214,89.214,0,0,1-24.648,5.5A35.449,35.449,0,0,1,778.888,1024.921Zm21.567-7.959a9.07,9.07,0,0,0-3.814.67,7.479,7.479,0,0,1-3.1.593,24.587,24.587,0,0,0-12.255,2.518c-1.962,1.041-3.978,2.009-5.99,2.906a16.456,16.456,0,0,1,4.919-4.313l.007.01q3.5-1.974,6.8-4.3a8.725,8.725,0,0,1,4.5-1.594,27.992,27.992,0,0,0,21.815-12.788A44.42,44.42,0,0,1,815,1012.23,18.878,18.878,0,0,1,800.455,1016.962Zm21.8,6a8.359,8.359,0,0,1,1.9-4.226q2.371-2.813,4.631-5.756c2.27-2.91,4.684-5.736,7.212-8.448l0,.01a20.487,20.487,0,0,1-2.183,10.24q-2.225,3.792-4.139,7.758a113.844,113.844,0,0,1-5.743,10.327,19.9,19.9,0,0,0-2.408,5.5,4.987,4.987,0,0,1-1.694,2.612c-2.006,1.654-4.088,3.248-6.232,4.755A61.827,61.827,0,0,0,822.25,1022.959Zm9.336-.111c.814-1.577,1.694-3.094,2.615-4.591a26.716,26.716,0,0,0,4-13.394,24.038,24.038,0,0,1,6.278-14.7h0a36.175,36.175,0,0,1,7.226-6.195,25.243,25.243,0,0,1-1.262,5.8,10.953,10.953,0,0,0-.362,5.736,11.325,11.325,0,0,1-4.262,11.267,18.8,18.8,0,0,0-3.479,3.533c-1.928,2.649-3.827,5.291-5.676,7.99a134.513,134.513,0,0,0-9.895,16.829,12.552,12.552,0,0,0-1.617,1.058C827.139,1031.675,829.289,1027.2,831.586,1022.848Zm4.018,1.416q2.139-2.963,4.018-6.091a21.264,21.264,0,0,1,5.411-6.7,16.452,16.452,0,0,0,7.427-16.742,9.067,9.067,0,0,1,.335-4.5,32.02,32.02,0,0,0,1.594-8.2,6.758,6.758,0,0,1,1.135-3.392c.757-1.205,1.58-2.387,2.438-3.533a25.017,25.017,0,0,0,3.519-6.737,29.916,29.916,0,0,1,3.754-7.41l0-.03a11.357,11.357,0,0,1,9-4.8,27.443,27.443,0,0,1-3.63,4.2,16.588,16.588,0,0,0-4.447,7.179c-.415,1.761-.9,3.526-1.483,5.234a.6.6,0,0,0-.556.365c-.372.9-.777,1.791-1.209,2.679a32.525,32.525,0,0,0-2.963,9.818c-.465,3.479-.911,6.952-1.3,10.437a35.074,35.074,0,0,1-1.825,7.912,13.5,13.5,0,0,1-4.631,6.285,59.294,59.294,0,0,0-11,10.216c-1.627,2.079-3.224,4.2-4.765,6.362a22.926,22.926,0,0,1-4.993,5.023A36.663,36.663,0,0,1,835.6,1024.265Zm30.558-50.344a22.637,22.637,0,0,1,1.339-2.652,52.446,52.446,0,0,0,2.843-5.692,9.788,9.788,0,0,1,2.441-3.426,22.441,22.441,0,0,0,3.9-4.748,11.936,11.936,0,0,1,4.962-4.905,19.646,19.646,0,0,0,5.187-3.191c0,3.445.164,6.9.5,10.313-2.739,3.184-5.435,6.389-8.12,9.607a21.074,21.074,0,0,1-5.411,4.658,14.593,14.593,0,0,0-4.574,4.3,48.644,48.644,0,0,0-5.294,10.109l-2.344,6.278c.248-1.5.529-2.98.864-4.453.824-3.781,1.6-7.578,2.287-11.385a23.232,23.232,0,0,1,.831-4.2,1.161,1.161,0,0,0,.609-.613Zm-24.969,50.267a41.177,41.177,0,0,1,4.474-5.3l4.986-4.945a21.423,21.423,0,0,1,3.9-3.014,10.5,10.5,0,0,0,2.679-2.257q-.286,2.436-.439,4.879a8.718,8.718,0,0,1-2.3,5.317c-2.5,2.716-5.224,5.337-7.862,7.946a20.75,20.75,0,0,0-5.786,2.3c-2.11,1.236-4.273,2.418-6.463,3.529A86.474,86.474,0,0,0,841.192,1024.188Zm14.67-3.137a10.432,10.432,0,0,0,3.6-7.266,59.365,59.365,0,0,1,.927-7.534,16.241,16.241,0,0,1,1.339-4.179q1.592-3.31,2.977-6.7c1.45-3.593,2.98-7.129,4.571-10.648a28.157,28.157,0,0,1,3.854-6.208h0a16.177,16.177,0,0,1,4.484-3.727,14.541,14.541,0,0,0,4.9-4.48,55.938,55.938,0,0,1,5.833-7.109c.275,2.046.536,4.088.76,6.134A41.855,41.855,0,0,0,874.3,990.867a68.861,68.861,0,0,1-8.92,17.971q-3.255,4.817-6.436,9.711a24.194,24.194,0,0,1-7.189,7.115A25.646,25.646,0,0,1,855.862,1021.05Zm27.343-42.02a14.592,14.592,0,0,1,6.272-5.98c.157,2.022.295,4.041.378,6.071q-4.113,4.294-8.3,8.542a80.339,80.339,0,0,0-5.957,6.717A104.524,104.524,0,0,1,883.205,979.031Zm4.41-35.062q-4.9,3.827-10.083,7.246a32.255,32.255,0,0,1-5.4,2.866,33.123,33.123,0,0,0-6.526,3.529,28.441,28.441,0,0,1,4.644-6.362v.007a34.806,34.806,0,0,0,5.324-7.122,60.75,60.75,0,0,1,5.086-7.554q4.455-5.605,8.81-11.261l.432-.137A162.505,162.505,0,0,0,887.615,943.969ZM881.8,923.5a87.939,87.939,0,0,1-12.125,3.091,9.716,9.716,0,0,0-8.569-3.459,6.852,6.852,0,0,1-4.222-.576,13.792,13.792,0,0,0-7.443-1.313l-6.938.72q4.148-2.21,8.455-4.179a12.183,12.183,0,0,1,7.567-.871,59.127,59.127,0,0,0,15.59,1.051,38.043,38.043,0,0,0,14.793-4.048c1.657-.844,3.315-1.634,5-2.374A52.616,52.616,0,0,1,881.8,923.5Zm40.932-38.728q-5.073,3.114-10.32,5.947a19.417,19.417,0,0,1-9.51,2.314h0a77.771,77.771,0,0,1,22.491-14.191c2.458-.981,4.885-2.039,7.253-3.2A35.16,35.16,0,0,1,922.73,884.769ZM894.587,882.8h.014c2.394-.362,4.795-.747,7.182-1.145a57.5,57.5,0,0,1,11.221-.79A28.337,28.337,0,0,1,894.587,882.8Zm1.935,2.9a42.891,42.891,0,0,1-14.12,1.859q-5.746-.191-11.465.144-6.972.417-13.95.67a98.747,98.747,0,0,1-24.524-2.575v0a64.394,64.394,0,0,1,17.6-1.949,153.044,153.044,0,0,0,17.566-.526,46.509,46.509,0,0,0,4.812-.633,6,6,0,0,1,4.735-.2,17.84,17.84,0,0,0,5.579,1.112A59.128,59.128,0,0,1,896.522,885.7Zm-11.92-4.775a7.621,7.621,0,0,1-3.288-.562,19.02,19.02,0,0,0-7.517-1.4,40.6,40.6,0,0,1-13.169-2.009,75.257,75.257,0,0,0-17.717-3.543l-.027.01,0-.013.03,0a55.612,55.612,0,0,1,15.255-3.723,25.355,25.355,0,0,1,9.577.9,235.915,235.915,0,0,1,25.689,8.331A26.648,26.648,0,0,1,884.6,880.924Zm-43.392-9.767a14.416,14.416,0,0,1-6.868,1.862c-10.548.164-21.1,1.078-31.623,1.755l-.014-.007q8.569-3.014,17.412-5.358a81.786,81.786,0,0,1,31.425-2.039A31.841,31.841,0,0,0,841.209,871.157Zm-5.843,6.181a22.2,22.2,0,0,1,8.036-.961,63.76,63.76,0,0,1,18.494,4.4,255.161,255.161,0,0,0-42.6,5.053q-11.17,2.23-22.475,3.566a68.343,68.343,0,0,0-7.169-2.478l0-.01c5.692-1.125,11.385-2.3,17.03-3.506a75.982,75.982,0,0,0,13.444-4.212,11.445,11.445,0,0,1,5.548-.844A24.314,24.314,0,0,0,835.366,877.338ZM761.9,921.23h0a82.078,82.078,0,0,1,8.652-4.859q-2.572,2.471-4.959,5.14A56.6,56.6,0,0,1,751.417,932.8,29.425,29.425,0,0,1,761.9,921.23Zm-10.414,15.862v-.007c2.618-1.269,5.183-2.642,7.661-4.152-1.085,1.51-2.243,2.967-3.445,4.407a9.67,9.67,0,0,1-3.442,2.545,27.308,27.308,0,0,0-6.67,4.239A11,11,0,0,1,751.487,937.091Zm-6.971,12.326h0a34.636,34.636,0,0,1,14.4-8.633,69.143,69.143,0,0,1-10.38,10.236l-14.944,11.94A80.632,80.632,0,0,1,744.516,949.417Zm-9,15.1V964.5c3.134-2.856,6.442-5.582,9.851-8.16l-.418.646a.564.564,0,0,0-.445.218,17.086,17.086,0,0,1-2.8,2.679,31.11,31.11,0,0,0-10.066,12.778,96.515,96.515,0,0,1-9.5,17.388c-2.347,1.781-4.614,3.63-6.814,5.578l.067-.275a.617.617,0,0,0,.549-.335,169.935,169.935,0,0,1,9.764-18.631A52.488,52.488,0,0,1,735.519,964.522Zm-11.217,6.1,3.138-3.713-.422,1a51.429,51.429,0,0,1-7.4,12.681q-8.458,10.658-17.412,20.955A248.344,248.344,0,0,1,724.3,970.619Zm-18.437,31.05q5.058-5.937,10.076-11.9a18.875,18.875,0,0,1-.9,4.259.563.563,0,0,0-.589.335,18.533,18.533,0,0,1-3.372,5.07,49.11,49.11,0,0,1-12.249,9.607A83.963,83.963,0,0,0,705.865,1001.669Zm1.7,9.567a24.947,24.947,0,0,0,11.646-7.849,30.983,30.983,0,0,1,6.995-6.225,39.78,39.78,0,0,0,12.115-12.406,29.069,29.069,0,0,1,7.155-7.922h0a5.248,5.248,0,0,1-1.427,5.207,58.26,58.26,0,0,0-5.357,5.92,46.571,46.571,0,0,1-6.908,7.089q-4.53,3.767-8.947,7.658a38.323,38.323,0,0,1-7.618,5.22,83.179,83.179,0,0,0-12.3,7.832,11.908,11.908,0,0,1-10.35,2.009A82.357,82.357,0,0,1,707.566,1011.236Zm15.637-1.4v0c3.349-1.393,6.664-2.806,9.992-4.259a7.816,7.816,0,0,1-1.922,7,21.1,21.1,0,0,0-3.734,1.339c-4.018,1.882-8.15,3.61-12.336,5.19A22.567,22.567,0,0,1,723.2,1009.836Zm-11.361,9.238a4.043,4.043,0,0,1-2.649,2.705,27.276,27.276,0,0,1-8.85,1.339,13.181,13.181,0,0,1-6.854-2.029v0a10.847,10.847,0,0,0,9.306-1.567q3-2.18,5.92-4.443a43.333,43.333,0,0,1,8.482-5.173,1,1,0,0,1-.288.964A17.7,17.7,0,0,0,711.842,1019.075Zm21.48-15.738a68.415,68.415,0,0,1-11.288,4.6,154.711,154.711,0,0,1,13.186-11.894,16.43,16.43,0,0,0,2.307-2.3A8.239,8.239,0,0,1,733.322,1003.337Zm-40.329,20.71a13.528,13.528,0,0,1-12.553-5.906,1.547,1.547,0,0,1,1.634.067v-.014a41.493,41.493,0,0,0,6.148,3.014,38.155,38.155,0,0,1,5.709,2.793A7.3,7.3,0,0,0,692.993,1024.047Zm2.445,3.161h.01a31.516,31.516,0,0,0,17.412-4.062A64.7,64.7,0,0,1,729,1016.614a3.817,3.817,0,0,1-2.833,3.807,61.142,61.142,0,0,0-12.583,5.093A20.209,20.209,0,0,1,695.438,1027.208Zm25.187.643a25.714,25.714,0,0,1-10.511,1.748q4.691-2.119,9.242-4.591a14.712,14.712,0,0,1,6.4-1.785A9.661,9.661,0,0,1,720.625,1027.851Zm2.944,1.567a5.225,5.225,0,0,1-4.845,4.042,35.92,35.92,0,0,1-9.275-.613Q716.53,1031.174,723.568,1029.418Zm-20.111,18.647a74.856,74.856,0,0,1,1.654-12.795l2.84.8c-.409,1.095-.743,2.186-1.078,3.285A51.671,51.671,0,0,1,703.457,1048.065Zm4.48-2.665a14.805,14.805,0,0,1,3.7-7.822,1.552,1.552,0,0,1,2.726.509h0A50.559,50.559,0,0,1,707.937,1045.4Zm9.282-7.286a13.469,13.469,0,0,1-4.474,5.421Zm9.744-6.931A311.474,311.474,0,0,0,740.652,996h0a100.354,100.354,0,0,1,.536,16.957,38.2,38.2,0,0,1-11.294,19.665c-5.645,5.3-8.736,12.138-16.283,15.554A71.786,71.786,0,0,0,726.963,1031.183Zm-9.982,18.376a15.215,15.215,0,0,1-1.547.241,37.044,37.044,0,0,0,12.825-11.994,7.7,7.7,0,0,1,2.471-2.545,18.7,18.7,0,0,0,6.362-6.774h0A23.264,23.264,0,0,1,727,1043.582Q722.026,1046.656,716.982,1049.559Zm23.034-21.283a7.423,7.423,0,0,1,2.166-4.172c2.009-1.976,1.892-4.132,4.688-5.532h0a161.675,161.675,0,0,0,14.9-8.418q-2.014,3.189-4.148,6.318a161.457,161.457,0,0,1-16.886,20.723,40.7,40.7,0,0,1-13.186,9.2A26.385,26.385,0,0,0,740.016,1028.276Zm3.938,8.93a8.018,8.018,0,0,1,2.029-1.544l.01-.013v.007l-.01.006a22.092,22.092,0,0,1-12.356,10.25A56.065,56.065,0,0,0,743.953,1037.206Zm-.894,13.913a129.612,129.612,0,0,0,18.5-8.207,10.971,10.971,0,0,1,6.633-1.139c.717,0,.827-1.065.221-1.125a14.761,14.761,0,0,0-9.275,1c-2.883,1.339-5.736,2.679-8.592,4.108A65.507,65.507,0,0,1,734.6,1051.2l-.05.02-.013-.007.064-.013a127.147,127.147,0,0,1,12.674-4.952,42.432,42.432,0,0,0,10.668-5.314,15.83,15.83,0,0,1,8.652-2.776,21.081,21.081,0,0,0,6.731-1.249,35.409,35.409,0,0,1,7.266-1.745,24.061,24.061,0,0,0,7.226-2.166c4.253-2.046,8.495-3.961,12.68-6.165a20.877,20.877,0,0,0,6.4-5.146,25.717,25.717,0,0,1,8.037-6.4,46.953,46.953,0,0,1-.72,5.756,72.753,72.753,0,0,1-7.394,5.291,17.858,17.858,0,0,1-5.783,2.29,22.124,22.124,0,0,0-12.145,4.943q6.027-1.075,11.964-2.542a40.8,40.8,0,0,0,12.724-5.782,51.567,51.567,0,0,0-.335,5.518,68.091,68.091,0,0,0-13.685,6.847c-8.729,5.693-21.457,5.1-30.6.67a24.993,24.993,0,0,0,13.518,5.692,4.39,4.39,0,0,0,.562,3.248q-6.68.914-13.323,2.1A117.709,117.709,0,0,1,743.06,1051.119Zm35.6,2.1c-4.2.077-8.425.084-12.63,0a28.723,28.723,0,0,1-4.012-.362l-.057.013v-.017l.057,0a63.059,63.059,0,0,1,12.9-1.879,29.617,29.617,0,0,0,7.875-1.406,2.3,2.3,0,0,1,2.079.335,22.5,22.5,0,0,0,3.851,2.307A62.647,62.647,0,0,1,778.663,1053.222Zm29.872-7.6a41.052,41.052,0,0,1-15.3,4.989l-.017-.013a8.661,8.661,0,0,1-4.845-2.244c-1.339-1.249-2.662-2.471-4.018-3.683a25.543,25.543,0,0,0,11.589-2.414c2.542-1.178,5.046-2.458,7.5-3.807a57.361,57.361,0,0,1,9.285-4.068,20.307,20.307,0,0,1-2.826,9.9A3.669,3.669,0,0,1,808.535,1045.618Zm2.545,4.544,0,.014a20.771,20.771,0,0,0,11.385-7.122,27.032,27.032,0,0,1,15.135-8.274,52.62,52.62,0,0,0-8.254,6.362,48.206,48.206,0,0,1-18.751,9.885Zm.737,3.188a14.077,14.077,0,0,1,8.853-1.473C817.733,1052.458,814.78,1052.937,811.816,1053.349Zm53.384-21.524a71.414,71.414,0,0,1-25.629,15.068c-3.864,1.3-7.8,2.434-11.76,3.4a43.916,43.916,0,0,0-6.409-.636v-.006a129.285,129.285,0,0,0,13.635-9.711,43.973,43.973,0,0,1,17.529-9.312,30.292,30.292,0,0,0,17.459-11.2,78.668,78.668,0,0,1,6.935-9.627,34.064,34.064,0,0,1-1.825,4.48q-2.376,4.827-4.447,9.757A22.465,22.465,0,0,1,865.2,1031.825Zm16.561-14.921a33.634,33.634,0,0,1-9.62,10.112q3.32-8.96,7.367-17.666a34.325,34.325,0,0,1,10.223-14.164h.01A42.934,42.934,0,0,1,881.762,1016.9Zm8.21-27.012a27.569,27.569,0,0,0-9.088,10.347,29.26,29.26,0,0,1-4.212,6.225,61.647,61.647,0,0,0-5.023,6.506,69.3,69.3,0,0,1-6.155,7.919,22.282,22.282,0,0,1-12.111,6.908,72.538,72.538,0,0,0,16.461-20.673,29.6,29.6,0,0,1,3.841-5.324,41.861,41.861,0,0,0,4.805-6.526A25.523,25.523,0,0,1,884.953,988h-.007a41.581,41.581,0,0,0,5.043-4.668Q890.034,986.618,889.973,989.893Zm5.515-69.373a36.114,36.114,0,0,0,6.416-3.546c-.077,2.585-.034,5.167.1,7.738a14.821,14.821,0,0,1-1.617,7.631,77.184,77.184,0,0,0-8.391,27.032c-.5-1.192-.954-2.388-1.366-3.613A97.2,97.2,0,0,1,895.487,920.52Zm-2.16,57.255a41.826,41.826,0,0,0-1-8.776h.01a21.583,21.583,0,0,0,2.367,3.486,10.754,10.754,0,0,1,2.843,7.822,43.943,43.943,0,0,0,.08,9.838,5.834,5.834,0,0,1-1,3.981,15.727,15.727,0,0,0-2.344,5.4,30.708,30.708,0,0,1-3.425,8.645A186.3,186.3,0,0,0,893.328,977.775Zm4.926,34.4a35.034,35.034,0,0,1-7.1,2.739h0a94.162,94.162,0,0,1,9.861-8.8A9.848,9.848,0,0,1,898.253,1012.177Zm16.166-51.7a18.86,18.86,0,0,0-1.128,9.228,11.476,11.476,0,0,0-2.093,8.706,49.8,49.8,0,0,1-2.87,9.041c-1.53,3.6-2.96,7.253-4.276,10.943a10.207,10.207,0,0,1-2.294,3.643q-2.682,2.737-5.629,5.244a26.491,26.491,0,0,0,2.344-4.527c1.266-3.151,2.377-6.362,3.372-9.586a77.738,77.738,0,0,1,3.054-8.435,40.327,40.327,0,0,0,2.143-6.553c.579-2.434,1.279-4.848,2.1-7.223a48.783,48.783,0,0,0,2.38-10.876,21.978,21.978,0,0,1,2.22-7.7,19.127,19.127,0,0,0,1.808-5.625,23.329,23.329,0,0,1,2.213-6.821l.013,0a43.82,43.82,0,0,1-2.284,13.394A20.636,20.636,0,0,0,914.419,960.477Zm9.255-.994a7.6,7.6,0,0,0-.877,1.262q-3.37,5.922-6.932,11.72a100.12,100.12,0,0,0,3.951-31.713,10.336,10.336,0,0,1,.556-4.5,82.889,82.889,0,0,0,2.421-8.026l0-.017v.007l0,.01a53.418,53.418,0,0,0-.225,15.634A73.778,73.778,0,0,1,923.675,959.482Zm-.7-43.3c-.817,3.087-1.577,6.188-2.277,9.282a50.476,50.476,0,0,1-4.353,11.954,59.311,59.311,0,0,0-5.16,14.013l-3.747,16.116a25.5,25.5,0,0,1,1.212-6.108,10.7,10.7,0,0,0-.151-7.072,14.787,14.787,0,0,1-.917-6.2,52.481,52.481,0,0,1,3.636-12.774,97.572,97.572,0,0,0,3.985-11.023,28.573,28.573,0,0,1,3.5-7.567,8.652,8.652,0,0,0,1.279-6.285,81.9,81.9,0,0,1-1.112-8.368l-.01.01.01-.013v0a32.5,32.5,0,0,0,2.705-3.241l1.53-1.714a51.213,51.213,0,0,1,1.065,12.356A45.5,45.5,0,0,1,922.971,916.18Zm3.921-1.607a53.713,53.713,0,0,0-3.014,8.455,51.357,51.357,0,0,1,3.278-10.779h.017A7,7,0,0,1,926.893,914.573Zm-.231-9.034a19.745,19.745,0,0,1-.83-4.688,31.713,31.713,0,0,0-.86-5.742v0l3.727-4.159a27.037,27.037,0,0,1,2.448-4.018,22.059,22.059,0,0,1-1.37,8.324A86.88,86.88,0,0,0,926.661,905.539Zm8.164-16.166a23.584,23.584,0,0,1-4.487,11.987q.99-3.9,2.327-7.7a15.862,15.862,0,0,0,.425-9.1l-.01.01.01-.013v0c.331-.355.663-.686.995-1.018a26.5,26.5,0,0,0,3.573-4.353,1.558,1.558,0,0,1,.472-.475A20.578,20.578,0,0,0,934.825,889.373Zm5.551-22.083a37.22,37.22,0,0,1-24.752,11.05,12.927,12.927,0,0,1-2.16,0v0a32.275,32.275,0,0,1,11.485-5.585A98.726,98.726,0,0,0,940.377,867.29Zm-44.1,4.26q13.571-.307,27.152-.974a38.2,38.2,0,0,1-10.869,1.611c-5.324,0-10.668-.04-15.986-.151a.335.335,0,0,1-.3-.485Zm-12.744.586.044.017c2.441.114,4.869.144,7.306.06a4.434,4.434,0,0,1,3.459,1.477,10.694,10.694,0,0,0,4.4.589,139.713,139.713,0,0,1,17.281-.288,5.557,5.557,0,0,0-.79.747,5.178,5.178,0,0,1-2.84,1.654,56.758,56.758,0,0,1-11.673,1.276,21.1,21.1,0,0,1-9.71-2.344,54.912,54.912,0,0,0-7.437-3.171.379.379,0,0,1-.06,0Zm-109.193,9.141.03-.01a75.05,75.05,0,0,1,33.159-16.344,118.461,118.461,0,0,1,31.72-2.009,198.53,198.53,0,0,1,32.021,4.9,40.807,40.807,0,0,1-9.5-1.051,133.642,133.642,0,0,0-35.986-.459,87.844,87.844,0,0,0-22.1,5.749,98.62,98.62,0,0,1-10.169,3.533c-6.389,1.845-12.788,3.74-19.15,5.682l-.04.034Zm-1.008,3.452h0q7.745-2.863,15.7-5.12a99.709,99.709,0,0,1,15.051-2.243q7.966-.578,15.845-1.748a35.8,35.8,0,0,1,8.314-.248,62.4,62.4,0,0,0-16.247,3.734,63.009,63.009,0,0,1-13.471,3.442,66.258,66.258,0,0,0-13.775,3.492,27.238,27.238,0,0,0-12.928,1.993A8.823,8.823,0,0,1,773.329,884.728Zm8.529,4.829v0a20.538,20.538,0,0,1-10.829,4.018,17.167,17.167,0,0,0-6.523,1.976A21.866,21.866,0,0,1,781.858,889.557ZM764.539,898.9l.017.01a20.315,20.315,0,0,1,10.786-3.821,24.965,24.965,0,0,1-2.284,2.438q-3.737,3.486-7.367,7.065a32.837,32.837,0,0,0-9.71,5.692A30.161,30.161,0,0,1,764.539,898.9Z" transform="translate(-405.521 -578.032)"/><path class="b" d="M803.828,963.185A194.768,194.768,0,0,1,782.6,933.28q-5.378-9.3-11.221-18.256-13.341-20.4-24.624-42.1a33.046,33.046,0,0,0,25.708,5.783,112.16,112.16,0,0,0,15.174-4.055,63.671,63.671,0,0,1,32.945-2.344,233.473,233.473,0,0,1,45.478,13.615,66.505,66.505,0,0,1,16.4,9.737,217.391,217.391,0,0,0,32.6,21.765,57.077,57.077,0,0,1,7.344,4.8,110.692,110.692,0,0,1,64.136,15.992,139.423,139.423,0,0,0,47.4,18.048,218.451,218.451,0,0,1,82.507,10.277q30.594,9.975,60.856,20.928a242.818,242.818,0,0,1,37.769,17.513,28.147,28.147,0,0,1,20.178,4.574,75.351,75.351,0,0,0,20.895,9.895,569.738,569.738,0,0,0,103.559,20.426,187.1,187.1,0,0,1-33.735-13.156,92.557,92.557,0,0,0-21.809-7.808,92.971,92.971,0,0,1-33.44-14.784,144.317,144.317,0,0,1-26.495-5.381,16.534,16.534,0,0,1-5.928-3.231,6.236,6.236,0,0,0-3.963-1.47,32.823,32.823,0,0,1-12.72-2.635q-17.8-7.6-35.483-15.45a90.928,90.928,0,0,1,9.9-6.972,11.5,11.5,0,0,0,3.856-1.8c3.07-2.16,12.73-5.24,17.484-7.7a88.888,88.888,0,0,1,37.749-2.829A107,107,0,0,0,1226.551,930l-.1.03a57.389,57.389,0,0,1-26.167-46.048,22.227,22.227,0,0,1,11.331-20.536,70.133,70.133,0,0,1,9.9-4.473,57.764,57.764,0,0,0,25.38-19.274,57.575,57.575,0,0,0,11.964,37.924,29.707,29.707,0,0,1,4.687,29.935,105.485,105.485,0,0,0-5.845,20.221,39.526,39.526,0,0,0,6.23,29.52,273.788,273.788,0,0,1,77.483,30.28q12.392,7.177,24.339,15.122v5.244a52.422,52.422,0,0,0-36.286-7.7q-10.976,1.7-21.993,3.178a67.967,67.967,0,0,0,22.6,14.033,76.6,76.6,0,0,1,16.3,8.472,98.43,98.43,0,0,0,19.385,10.149v10.5q-25.708-5.294-51.734-8.444a267.193,267.193,0,0,1-68.361-17.643,520.167,520.167,0,0,0-54.975-18.778,152.151,152.151,0,0,0-44.139-5.635,225.259,225.259,0,0,0-58.677,9,93.844,93.844,0,0,0-13.011,4.879,35.325,35.325,0,0,1-39.071-6.362,231.23,231.23,0,0,1-22.073-23.657,137.458,137.458,0,0,1,72.887,3.415q15.465,5.048,31.171,9.128a117.845,117.845,0,0,0,52.8-1.517,224.054,224.054,0,0,0-127.27-25.518q-22.414,7.91-44.588,16.474a178.892,178.892,0,0,0-28.989,14.362,84.394,84.394,0,0,1-22.91,9.784,146.036,146.036,0,0,1-49.388,4.212q-12.151-1.055-24.249-2.729a21.24,21.24,0,0,0-7.388-1.607,40.86,40.86,0,0,1-28.617-13.25,59.373,59.373,0,0,0-9.925-8.549A121.176,121.176,0,0,1,803.828,963.185Zm492.069,48.626a10.433,10.433,0,0,0-12.184-3.683C1287.759,1009.414,1291.833,1010.636,1295.9,1011.811Zm-40.453-13.8a64.489,64.489,0,0,0,32.728,1.962c2.755-.619,5.53-1.208,8.318-1.738a43.579,43.579,0,0,0-18.745-2.585q-11.167.914-22.3,2.344Zm33.853,4.356a6.138,6.138,0,0,0,5.824-.445A23.59,23.59,0,0,1,1289.3,1002.365Zm-22.933-10.1a82.377,82.377,0,0,1,23.723-.73,7.21,7.21,0,0,0,3.23-.362q-9.219-1.9-18.411-3.837a54.8,54.8,0,0,0-30.8,2.431h0A39.37,39.37,0,0,0,1266.362,992.263Zm27.817-11.72.02.014A14.921,14.921,0,0,0,1305.815,982a4.986,4.986,0,0,0-1.339-.452A46.651,46.651,0,0,0,1294.179,980.543Zm1.928-2.873a28.955,28.955,0,0,0-17.222-3.493q-8.676.965-17.38,1.3a82.932,82.932,0,0,0-11.753,1.262h0q10.122.432,20.222,1.427a177.516,177.516,0,0,0,21.8.81A8.575,8.575,0,0,0,1296.107,977.671Zm1.844,8.656c-5.456-.412-10.932-.576-16.4-.529h-.006a63.646,63.646,0,0,0,26.27,3.131,1.648,1.648,0,0,0,.281-.057,1.74,1.74,0,0,0,1.195-2.146C1305.51,986.745,1301.725,986.628,1297.952,986.326Zm-67,.82a239.359,239.359,0,0,0,25.35-3.988,91.2,91.2,0,0,1,14.15-1.59,1.743,1.743,0,0,0,.92-.335,62.15,62.15,0,0,0-8.429-.218,39.112,39.112,0,0,1-10.879-1.058,6.9,6.9,0,0,0-5.486.981v.01a12.225,12.225,0,0,1-3.411,1.581,70.544,70.544,0,0,1-23.3,2.461A21.019,21.019,0,0,0,1230.953,987.146Zm-6.5-4.216q5.3-.5,10.591-1.068a23.368,23.368,0,0,0,9.155-2.93,9.146,9.146,0,0,1,2.869-1.058,2.149,2.149,0,0,0,.693-1.269v-.01l-1.038.208a278.954,278.954,0,0,1-28.493,4.688A10.221,10.221,0,0,0,1224.456,982.931Zm-8.767-3.258A188.732,188.732,0,0,1,1241.625,975q7.4-.773,14.728-2.183c-.773-.02-1.543-.067-2.323-.137a171.683,171.683,0,0,0-33.311.378h0a65.556,65.556,0,0,0-17.5,4.44A15.728,15.728,0,0,0,1215.689,979.673Zm37.739-46.45,0-.013-.013-.014a8.917,8.917,0,0,1-.793-6.821,15.587,15.587,0,0,0,.2-7.621,16.823,16.823,0,0,0-2.477,6.084,8.335,8.335,0,0,0,3.066,8.358Zm-45.86-52.132a71.391,71.391,0,0,0,1.968,12.945,9.89,9.89,0,0,0,1.189,2.806h.017q-.276-4.771-.1-9.543c.2-5.113.415-10.243.669-15.363A11.313,11.313,0,0,0,1207.568,881.091ZM1205,890.531a41.846,41.846,0,0,0,17.222,31.11,74.918,74.918,0,0,1,8.01,6.573l20,18.751q-3.254-4.264-6.792-8.24v0a89.606,89.606,0,0,0-14.775-13.276,47.847,47.847,0,0,1-11.529-11.743A108.943,108.943,0,0,1,1205,890.531Zm36.792,14.321a13.688,13.688,0,0,1-4.73,1.313c-4.4.419-5.4,6.064-4.251,9.711a15.738,15.738,0,0,0,2.594,4.982v-.01q2.756-4.49,5.426-9a25.34,25.34,0,0,1,5.674-6.613,6.019,6.019,0,0,0,2.146-3.824Q1245.26,903.169,1241.8,904.852Zm5.021-6.559a20.9,20.9,0,0,0-10.481,3.583,4.1,4.1,0,0,0-1.372,1.537A15.866,15.866,0,0,0,1246.817,898.292Zm-1.349,22.876a18.442,18.442,0,0,0,1.51-10.229,25.439,25.439,0,0,0-7.492,10.832,4.85,4.85,0,0,0,.281,3.459,16.257,16.257,0,0,0,7.16,7.5,18.017,18.017,0,0,0-1.52-3.938A8.029,8.029,0,0,1,1245.468,921.169Zm-20.185-10.27a32.361,32.361,0,0,1-9.526-8.679,12.246,12.246,0,0,0,9.433,12.145h0A5.414,5.414,0,0,0,1225.283,910.9Zm-1.242,6.289a18.826,18.826,0,0,0,4.5,4.544,2.24,2.24,0,0,0-.214-1.728A5.535,5.535,0,0,0,1224.041,917.188Zm-8.71-46.547a31.472,31.472,0,0,0-1.764,8.726l-.017.033.01.03.007-.064c.686-1.175,1.349-2.4,1.968-3.65,1.613-3.275,3.3-6.54,5.021-9.764A7.2,7.2,0,0,0,1215.331,870.641Zm6.37,22.059a8.271,8.271,0,0,0,.88-4.487l-1.379-15.5a12.841,12.841,0,0,0-5.021,8.9,42.453,42.453,0,0,1-1.178,6.165,11.528,11.528,0,0,0,1.59,9.426q2.651,3.848,5.617,7.454a2.731,2.731,0,0,0,2.266,1l-.006-.01A10.381,10.381,0,0,1,1221.7,892.7Zm3.053,8.5a3.109,3.109,0,0,0,3.659,1.407,107.021,107.021,0,0,1-2.189-12.928A9.515,9.515,0,0,0,1224.754,901.2Zm4.757-8.763q1.627,4.018,2.939,8.163a2.472,2.472,0,0,0,2.661-2.14h0a11.567,11.567,0,0,0-.89-6.443,143.132,143.132,0,0,1-6.487-17.351A31.449,31.449,0,0,0,1229.511,892.439Zm2.353-29.051a36.014,36.014,0,0,0-1.55,8.857,11.134,11.134,0,0,0,1.222,5.655c.964,1.852,1.948,3.656,2.973,5.461v-.013q-.141-3.476-.194-6.938a16.177,16.177,0,0,0-1.038-5.645,8.23,8.23,0,0,1-.114-5.465,23.692,23.692,0,0,1,5.473-9.041A10.932,10.932,0,0,0,1231.864,863.388Zm6.394-.6c-1.63,1.52-3.418,4.862-2.119,7.1a10.206,10.206,0,0,1,1.242,6.7,23.163,23.163,0,0,0,.582,9.784q1,3.586,2.256,7.109a1.878,1.878,0,0,0,2.343,1.209l.01-.007a19.119,19.119,0,0,0-1.617-13.283A34.38,34.38,0,0,1,1238.257,862.792Zm8.061,7.38c-.171-4.226-.536-8.452-1.1-12.644a21.679,21.679,0,0,0-3.421,17.667,33.086,33.086,0,0,0,3.6,7.845c.12-2.733.4-5.455.736-8.16A28.033,28.033,0,0,0,1246.318,870.172Zm1.768,24.306a12.053,12.053,0,0,0-2.457-6.335,34.507,34.507,0,0,0,.79,6.335.847.847,0,0,0,1.674,0Zm5.835-12.215q-1.672-5.8-3.682-11.465a20.324,20.324,0,0,1-1.356,7.219,10.55,10.55,0,0,0-.67,4.762c.258,2.558.566,5.1.981,7.621a2.736,2.736,0,0,0,2.6,2.324v0h.007l-.007,0A11.575,11.575,0,0,0,1253.92,882.263Zm2.792-.981c.013,2.679.067,5.357.144,8.036a34.656,34.656,0,0,0,2.089-3.529A18.089,18.089,0,0,0,1256.712,881.282Zm.522,26.664a16.382,16.382,0,0,0,3.314-12.389,49.911,49.911,0,0,1-7.287,7.7,8.349,8.349,0,0,0-2.788,4.8,62.98,62.98,0,0,0-.549,8.247.673.673,0,0,0,.03.231.737.737,0,0,0,.917.5l0-.01A97.32,97.32,0,0,1,1257.234,907.946Zm10.672,53.592q-14.642-1.131-29.337-1.564h0a65.732,65.732,0,0,0-42.225,13.806,90.19,90.19,0,0,0,25.253-7.32,59.8,59.8,0,0,1,36.761-4.387q12.789,2.532,25.729,3.844A45.25,45.25,0,0,0,1267.906,961.538Zm65.994,26.61a33.309,33.309,0,0,0-4.442-3.322,116.75,116.75,0,0,0-25.862-12.165,80.253,80.253,0,0,0-17.145-3.616,203.224,203.224,0,0,1-22.672-3.513,73.419,73.419,0,0,0-43.744,4.115q20.27-1.145,40.6-.917,7.913.1,15.82-.241a44.362,44.362,0,0,1,25.34,6.731A111.194,111.194,0,0,0,1333.9,988.148Zm-17.219,5.525q5.051-.412,10.069-.379a21.254,21.254,0,0,0-13.149-1.989c-6.484,1.095-12.921,2.29-19.355,3.593h.007Q1305.475,994.577,1316.681,993.673Zm6.41,25.086a21.242,21.242,0,0,1-7.314-3.349q-8.014-5.69-16.268-11.073c-3.525.335-7.08.529-10.618.6v0a189.068,189.068,0,0,0,28.3,15.3q15.46,6.7,31.232,12.59A54.455,54.455,0,0,0,1323.091,1018.759Zm-12.061,16.022a89.479,89.479,0,0,0-23.505-4.329A114.171,114.171,0,0,0,1311.03,1034.781Zm-67.983-17.321a34,34,0,0,0-19.151-9.168A37.35,37.35,0,0,0,1243.048,1017.46Zm-189.013-8.763a55.975,55.975,0,0,0,34.777-7.012l.04-.007,0-.013-.037.02q-16.349,2.833-32.885,4.165a15.284,15.284,0,0,1-8.546-1.832,104.685,104.685,0,0,0-14.33-6.533A33.579,33.579,0,0,0,1054.035,1008.7Zm-11.25-10.424c2.34,1.49,4.72,2.866,7.153,4.206a14.9,14.9,0,0,0,13.457.358,22.968,22.968,0,0,1,8.536-2.183,21.556,21.556,0,0,0-6.882-.61A73.871,73.871,0,0,1,1042.784,998.274Zm7.143-2.063c-3.287-1-6.591-2.009-9.885-2.977A9.709,9.709,0,0,0,1049.928,996.211Zm-9.627-5.545a158.181,158.181,0,0,1,19.509,3.673l.03.02.017-.01-.047-.01a7.964,7.964,0,0,0-1.978-1.366q-7.557-3.571-15.291-6.7a59.95,59.95,0,0,0-19.08-4.316A27.579,27.579,0,0,0,1040.3,990.666Zm38.79-5.468h0a63.084,63.084,0,0,0-16.011-4.048,212.148,212.148,0,0,0-26.167-1.339,31.053,31.053,0,0,0,12.3,4.042,118.143,118.143,0,0,0,15.428.629,99.724,99.724,0,0,1,14.451.717Zm4.9,3.2a246.383,246.383,0,0,0-30.442-1.065,47.161,47.161,0,0,0,13.266,4.966,22.363,22.363,0,0,0,10.806-.438,40.4,40.4,0,0,1,13.554-1.577A22.955,22.955,0,0,0,1083.991,988.4Zm23.646,7.189h-.033a85.864,85.864,0,0,0-12-1.929,43.489,43.489,0,0,0-19.663,2.819q10.705.176,21.36-.556c3.434-.271,6.862-.369,10.3-.335l.033.007Zm85.674,3.995a59.217,59.217,0,0,0-21.022-5.86A29.812,29.812,0,0,0,1193.312,999.579Zm-104.6-35.443a45.5,45.5,0,0,0,12.436,0,72.412,72.412,0,0,0-33.9-2.344Q1077.994,962.666,1088.708,964.136ZM797.495,921.842a34.048,34.048,0,0,1,13.159,5.291,149.014,149.014,0,0,0,63.738,22.137h.01q-6.412-5.189-12.72-10.538-7.522-.522-15.043-.626A35.573,35.573,0,0,1,831.15,934.3a167.757,167.757,0,0,1-24.279-15.048,15.983,15.983,0,0,0-13.845-2.635,11.083,11.083,0,0,1-8.091-.884,15.8,15.8,0,0,0-5.121-1.654A40.708,40.708,0,0,0,797.495,921.842Zm129.649,68.5a13.786,13.786,0,0,0,6.882,1.4c4.265-.221,8.526-.4,12.777-.509a35.472,35.472,0,0,0,9.413-1.55q5.438-1.647,10.7-3.831l-.017,0a69.975,69.975,0,0,1-23.456-3.291,33.522,33.522,0,0,0-12.181-1.55,6.68,6.68,0,0,1-3.348-.67,36.283,36.283,0,0,0-13.882-3.609q-18.659-1-37.317-1.751a113.216,113.216,0,0,0,15.552,4.9q12.974,3.034,25.775,6.884A59.68,59.68,0,0,1,927.144,990.338Zm-7.575,2.984a33.223,33.223,0,0,1-15.187-3.178,23.522,23.522,0,0,0-9.156-2.243,332.4,332.4,0,0,0-41.407.72,134.537,134.537,0,0,0,15.063,5.217,51.276,51.276,0,0,1,7.2,2.629A57.745,57.745,0,0,0,899,1001.652a152.958,152.958,0,0,0,25.139-1.674,100.638,100.638,0,0,0,17.49-4.249,19.265,19.265,0,0,0,3.669-1.721l.054-.007.023-.033-.077.04a38.765,38.765,0,0,1-14.17.131A57.582,57.582,0,0,0,919.569,993.321Zm-47.718-81.264a164.2,164.2,0,0,0,16.928,12.965,66.537,66.537,0,0,0,11.636-.107l.01.01.034-.01h-.043a89.4,89.4,0,0,1-12.041-10.035,45.309,45.309,0,0,0-10.377-7.7q-5.222-2.812-10.21-6.128a52.045,52.045,0,0,0-24.436-8.639A151.191,151.191,0,0,1,871.851,912.058Zm-29.491-16.6a41.149,41.149,0,0,0-19.961-5.692q-19.819-.422-39.64-1a67.74,67.74,0,0,0,21.922,6.061l10.611,1.065a132.421,132.421,0,0,1,45.793,13.37,20.009,20.009,0,0,0,5.255,1.8Q854.712,902.69,842.36,895.459Zm40.681,31.04q-9.119-6.56-18.632-12.463a111.5,111.5,0,0,0-53.6-16.169c.516.432,1.021.911,1.51,1.4a50.114,50.114,0,0,1,33.14,10.544c4.077,3.164,8.1,6.442,12.014,9.841a30.122,30.122,0,0,0,25.571,6.847Zm-40.758-4.855c-5.045-3.258-10.143-6.483-15.378-9.406a96.022,96.022,0,0,0-14.568-6.583,32.829,32.829,0,0,0,12.874,7.906,40.361,40.361,0,0,1,15.207,9.091,13.018,13.018,0,0,0,6.765,3.426h0C845.537,924.621,843.9,923.134,842.283,921.644Zm14.782,2.87h0a50.334,50.334,0,0,1-6.049-5.656A46.88,46.88,0,0,0,817.124,903.2l21.119,11.823Q847.452,920.2,857.065,924.514Zm-6.581,33.314a237.007,237.007,0,0,0,47.021,7.25l.024.013v-.01l-.024,0c-1.523-.623-3-1.333-4.462-2.089a105.4,105.4,0,0,1-16.232-2.454,71.84,71.84,0,0,0-12.178-1.758,22.941,22.941,0,0,1-4.519-.747,84.817,84.817,0,0,1-21.223-9.125,69.371,69.371,0,0,0-10.474-5.183,144.541,144.541,0,0,0-21.809-6.653A129.651,129.651,0,0,0,850.484,957.827ZM798.616,936.21a126.245,126.245,0,0,0,13.2,13.093,26.815,26.815,0,0,0,17.423,6.479h0a16.088,16.088,0,0,0-5.467-3.707,64.982,64.982,0,0,1-16.4-9.66A86.917,86.917,0,0,0,798.616,936.21Zm160.6,28.71a29.91,29.91,0,0,0-12.088-7.32,89.418,89.418,0,0,0-41.337-2.106q4.78.527,9.557,1.165a68.732,68.732,0,0,1,25.31,9.5,72.491,72.491,0,0,0,18.558-1.243Zm3.8-1.58c.951.466,1.895.968,2.805,1.5a150.035,150.035,0,0,0,17.574-1.6,23.142,23.142,0,0,0-6.2-3.472,57.621,57.621,0,0,0-23.7-3.526A32.453,32.453,0,0,0,963.021,963.339ZM936.563,966.6a55.717,55.717,0,0,0-27.871-7.323,46.564,46.564,0,0,1-25.916-7.755,30.492,30.492,0,0,0,14.6,8.927,94.14,94.14,0,0,1,14.089,4.976,17.622,17.622,0,0,0,10.27,1.262,25.6,25.6,0,0,1,10.18.227,7.994,7.994,0,0,0,4.643-.315Zm-88.406-15.574a31.05,31.05,0,0,0,18.411,5.123,25.749,25.749,0,0,1,7.98,1.072,27.98,27.98,0,0,0,11.07.934l-6.062-4.748a54.772,54.772,0,0,0-12.181-1.209,27.388,27.388,0,0,1-9.825-1.708c-7.153-2.635-14.364-5-21.614-7.293Q842.133,946.952,848.158,951.024ZM888,951.5a18.654,18.654,0,0,0,12.834,2.217,90.125,90.125,0,0,1,11.947-1.453q14.451-.778,28.908-.365a51.535,51.535,0,0,1,9.681,1.222,19.4,19.4,0,0,0,6.31.335,34.712,34.712,0,0,1,17.915,2.792q4.71,2.084,9.46,4.068a30.284,30.284,0,0,0,18.769,1.256l.04.007v-.013l-.04.006a35.823,35.823,0,0,1-18.317-6.436A34.84,34.84,0,0,0,969.9,949q-10.58-1.411-21.209-1.909a91.7,91.7,0,0,1-18.234-2.789,50.945,50.945,0,0,0-20.925-.455,73.473,73.473,0,0,1-39.446-4.959A127.023,127.023,0,0,0,888,951.5ZM994.7,965.77a285.694,285.694,0,0,1-37.117,2.917q-20.18.271-40.326,1.594a166.623,166.623,0,0,1-49.478-4.179,88.707,88.707,0,0,0,20.674,3.717,103.575,103.575,0,0,1,18.679,2.823q12.553,3.094,25.23,5.646a129.3,129.3,0,0,0,35.031,2.177,21.3,21.3,0,0,0,7.856-2.143q14.843-7.3,30.207-13.37A76.539,76.539,0,0,0,994.7,965.77ZM885.75,972.437c1.255,0,2.49.027,3.746.07h.013a10.685,10.685,0,0,0-3.682-.887,129.937,129.937,0,0,1-17.862-2.421c-2.4-.489-4.823-1-7.23-1.557a48.582,48.582,0,0,1-13.3-5.174,39.454,39.454,0,0,0-16.854-3.995,34.885,34.885,0,0,1-22.324-9.312q-7.321-6.771-14.036-14.231a99.184,99.184,0,0,0,27.419,29.781,16.541,16.541,0,0,0,5.855,2.628q9.45,2.15,18.886,4.487a53.627,53.627,0,0,0,16.543,1.44C870.515,972.752,878.137,972.47,885.75,972.437Zm-74.3-37.449.007,0h.01l-.017,0q-5.689-4.415-11.421-8.766a20.769,20.769,0,0,0-11.659-4.249A44.96,44.96,0,0,0,811.45,934.988Zm-33.779-25.582a20.289,20.289,0,0,0,12.56,4.48h8.131a16.361,16.361,0,0,1,8.057,2.086l0-.007a11.292,11.292,0,0,0-5.125-4.1,61.49,61.49,0,0,0-14.946-3.841,20.447,20.447,0,0,1-10.712-4.688,52.762,52.762,0,0,0-11.887-7.6A98.7,98.7,0,0,0,777.671,909.406ZM753.62,882.668a26.984,26.984,0,0,0,12.1,10.5,22.375,22.375,0,0,1,6.785,4.8,31.275,31.275,0,0,0,19.184,8.816,34.989,34.989,0,0,1,21.32,10.588,17.252,17.252,0,0,0,5.55,4.162q4.489,2.07,8.78,4.5a69.287,69.287,0,0,0,26.95,8.582,1.3,1.3,0,0,0-.492-1.708q-5.463-2.984-11.073-5.642a54.68,54.68,0,0,0-16.667-9.647,40.212,40.212,0,0,1-13.245-8.227A63.967,63.967,0,0,0,785.993,895.1,147.727,147.727,0,0,1,753.62,882.668Zm56.531-7.983c-4.673.452-9.326.945-13.985,1.433a41.6,41.6,0,0,0,10.983-.241,7.386,7.386,0,0,0,3.012-1.192ZM885.3,903.05a18.3,18.3,0,0,0-5.031-3.908q-12.031-6.238-24.035-12.583A112.15,112.15,0,0,0,829,876.424a21.967,21.967,0,0,0-10.377.117,84.531,84.531,0,0,1-17.2,2.531,72.857,72.857,0,0,0-20.781,3.971q11.624,1.125,23.3,1.45a264.952,264.952,0,0,1,30.8,2.642,114.2,114.2,0,0,1,30.271,8.783A131.911,131.911,0,0,0,885.3,903.05l.01.01h.024Zm28.53,19.977h-.007q-10.614-7.5-21.628-14.278a30.8,30.8,0,0,0-14.889-4.564,35.174,35.174,0,0,0,5.854,3.014,17.559,17.559,0,0,1,7.977,6.416,18.5,18.5,0,0,0,4.589,4.671,100.95,100.95,0,0,0,9.316,5.779,45.024,45.024,0,0,0,8.78-1.038l.007.007Zm11.013,3.992q-20.6,1.23-40.993,4.353a101.07,101.07,0,0,0,19.064-.824q9.194-1.266,18.371-2.4a10.172,10.172,0,0,0,3.558-1.118Zm3.14,3.04q-9.882,1.261-19.733,2.752a152.952,152.952,0,0,1-38.1.961,71.112,71.112,0,0,0,28.788,5.776,56.98,56.98,0,0,0,13.617-1.775,68.838,68.838,0,0,1,32.567-.365,259.477,259.477,0,0,0,30.157,5.126h.007a231.045,231.045,0,0,0-26.91-12.969A98.379,98.379,0,0,0,927.988,930.059Zm68.14,16.451h0a27.719,27.719,0,0,0-5.232-2.97q-9.284-4.079-18.377-8.639A50.187,50.187,0,0,0,956,929.878a114.543,114.543,0,0,1,20.349,10.089,43.609,43.609,0,0,0,19.776,6.543Zm25.976,13.23a56.032,56.032,0,0,0-18.411-8.632,25.281,25.281,0,0,0-8.837-.707,29.3,29.3,0,0,1-14.789-2.441,39.044,39.044,0,0,0-9.373-2.84q-13.266-2.23-26.445-5.023a62.1,62.1,0,0,0-26.662.188,36.474,36.474,0,0,1,13.865,2.16,40.531,40.531,0,0,0,18.823,2.13,56.949,56.949,0,0,1,35.064,7.032,68.668,68.668,0,0,0,22.465,7.966,46.962,46.962,0,0,0,14.3.191Zm-9.249,13.87q14.059-5.566,28.015-11.361a214.774,214.774,0,0,0-38.365,14.69A81.216,81.216,0,0,0,1012.855,973.609Zm8.693-8.348h0c-3.033.238-6.045.63-9.035,1.145a30.852,30.852,0,0,0-6.923,2.066q-16.369,6.977-32.892,13.551a66.447,66.447,0,0,0,20.362-4.624Q1007.422,971.633,1021.548,965.261Zm-156.73,38.169a190.081,190.081,0,0,0,42.894,4.159,127.9,127.9,0,0,0,42.161-7.909A371.815,371.815,0,0,0,988.924,982.7h0c-13.353,4.9-26.927,9-40.474,13.317q-11.473,3.646-23.134,6.58a31.326,31.326,0,0,1-10.2.837,59.115,59.115,0,0,0-12.359.311,35.03,35.03,0,0,1-15.894-1.581c-5.44-1.852-10.922-3.566-16.449-5.1q-17.7-4.942-35.416-9.828A60.24,60.24,0,0,0,864.818,1003.43Zm-27.807-18.754a17.441,17.441,0,0,0,11.046,1.627,48.331,48.331,0,0,1,11.16-.737,128.576,128.576,0,0,0,21.116-.727,51.867,51.867,0,0,1,16.633.733q9.7,2.029,19.318,4.49a5.041,5.041,0,0,0,2.792-.077,1.13,1.13,0,0,0-.83-.988l-.007,0q-10.454-2.733-20.908-5.525-10.2-2.712-20.553-4.688a112.027,112.027,0,0,0-20.908-1.969,203.771,203.771,0,0,1-33.561-2.772A58.479,58.479,0,0,0,837.011,984.676Zm.773-11.261h-.01a57.563,57.563,0,0,1-35.818-23.289,268.113,268.113,0,0,0-16.49-21.38,86.817,86.817,0,0,0,25.256,36.093A36.44,36.44,0,0,0,837.784,973.415Z" transform="translate(-746.751 -839.698)"/></g></svg>