<svg xmlns="http://www.w3.org/2000/svg" width="168" height="168" viewBox="0 0 168 168"><defs><style>.a{fill:none;}.b,.c{fill:gray;}.b{fill-rule:evenodd;}</style></defs><g transform="translate(-0.301)"><rect class="a" width="168" height="168" transform="translate(0.301 0)"/><g transform="translate(26.4 14.4)"><g transform="translate(17.58)"><path class="b" d="M225.914,197.547a47.377,47.377,0,0,0,2.72,5.675,6.5,6.5,0,0,1-.147,6.612,6.39,6.39,0,0,0,4.2-1.942,14.307,14.307,0,0,1,4.158-3,7.349,7.349,0,0,0,3.89-4.554,14.322,14.322,0,0,0-1.487-6.917,3.234,3.234,0,0,1-.163-2.5,3.292,3.292,0,0,1,1.684-1.882,9.35,9.35,0,0,0,5.271-7.312q.267-2.168.552-4.332,1.952-14.779,3.186-29.64a21.988,21.988,0,0,1,2.232-7.96,8.562,8.562,0,0,0-7.284,7.429q-1.407,18.86-3.716,37.634a3.251,3.251,0,0,1-.639,1.566,21.363,21.363,0,0,1-7.87,6.39,19.005,19.005,0,0,0,4.756-10.06q2.248-15.462,3.477-31.044a18.2,18.2,0,0,1,2.448-7.786,9.7,9.7,0,0,0-6.845,8.449q-1.3,15.473-3.386,30.86A25.2,25.2,0,0,1,225.914,197.547Zm7-3.44a36.658,36.658,0,0,1,2.815,6.672,2.706,2.706,0,0,1-.84,2.871,21.36,21.36,0,0,0-3.462-7.888A2.455,2.455,0,0,1,232.91,194.107Z" transform="translate(-179.025 -123.367)"/><path class="b" d="M248.21,161.149a6.961,6.961,0,0,0-6.58,1.389.814.814,0,0,0,.575,1.43q1.379-.073,2.758-.023a.156.156,0,0,1,.159.135.165.165,0,0,1-.117.181,115.08,115.08,0,0,1-14.878,3.462,16.522,16.522,0,0,0-4.522,1.43,69.084,69.084,0,0,0,21.117-3.726,6,6,0,0,0,2.27-1.678,1.633,1.633,0,0,0-.783-2.6Z" transform="translate(-179.883 -65.191)"/><path class="b" d="M283.882,156.987q-9.739,4.561-19.8,8.381a16.451,16.451,0,0,1-17.844-4.128,5.35,5.35,0,0,0-2.354,6.609,4.652,4.652,0,0,1-.435,4.215c.083.06.174.105.257.166a11.132,11.132,0,0,0,1.192.7,4.471,4.471,0,0,1,1.68-2.777.815.815,0,0,1,.711-.139,29.886,29.886,0,0,0,25.022-4.524,24.331,24.331,0,0,1,8.23-3.786,5.367,5.367,0,0,1,6.678,5.126,37.71,37.71,0,0,0-19.922,4.569,27.811,27.811,0,0,1-19.32,2.759,11.428,11.428,0,0,1-3.08-1.227l-.023.056a11.29,11.29,0,0,1-1.169-.76c-.045-.034-.1-.053-.148-.087a12.729,12.729,0,0,0-12.638-1.471A29.72,29.72,0,0,0,213.522,192a29.6,29.6,0,0,1,11.8-14.06,14.835,14.835,0,0,1,13.474-1.133,29.768,29.768,0,0,0,20.724.711,74.51,74.51,0,0,0,7.522-2.954,33.45,33.45,0,0,1,18.84-2.649,19.306,19.306,0,0,0,5.819-7.143,5.874,5.874,0,0,0-7.817-7.786Z" transform="translate(-213.522 -77.402)"/><path class="b" d="M237.917,161.152a2.923,2.923,0,0,0-.6-3.978,5.27,5.27,0,0,1-2.005-3.571,33.076,33.076,0,0,1-3.625,2.348,2.151,2.151,0,0,0-1.086,1.682,2.127,2.127,0,0,0,.787,1.833,4.975,4.975,0,0,1,1.661,5.254A16.063,16.063,0,0,0,237.917,161.152Z" transform="translate(-166.002 -85.207)"/><path class="b" d="M224.873,156.306a30.213,30.213,0,0,1-1.676,15.287,4.436,4.436,0,0,0,2.369-2.081,23.212,23.212,0,0,0,1.638-17.071.83.83,0,0,0-.624-.572.819.819,0,0,0-.8.282,15.68,15.68,0,0,0-2.842,5.152,2.514,2.514,0,0,0,.59.26A2.543,2.543,0,0,1,224.873,156.306Z" transform="translate(-187.304 -90.045)"/><path class="b" d="M224.71,203.136a16.613,16.613,0,0,0,6.656-9.13,49.953,49.953,0,0,0,1.517-7.173q3.088-17.46,5.131-35.071a19.057,19.057,0,0,1,3.7-9.258,19.6,19.6,0,0,0-7.095,4.795,3.259,3.259,0,0,0-.878,1.957A447.853,447.853,0,0,1,227.7,193.78a17.45,17.45,0,0,1-4.385,8.678C223.772,202.707,224.238,202.932,224.71,203.136Z" transform="translate(-186.252 -115.878)"/><path class="b" d="M253.382,140.747a.89.89,0,0,0-.806-.331,62.058,62.058,0,0,1-9.2.3.9.9,0,0,1-.745-.444.892.892,0,0,1-.026-.866,12.283,12.283,0,0,1,2.285-3.135,3.513,3.513,0,0,0-1.218-.847,17.009,17.009,0,0,0-4.786,7.809,1.249,1.249,0,0,0,.957,1.573.533.533,0,0,1,.435.482.538.538,0,0,1-.344.553,24.208,24.208,0,0,0-9.777,7.075,5.282,5.282,0,0,0,.462.881,52.8,52.8,0,0,1,20.841-9.837,1.8,1.8,0,0,0,.863-.463,4.939,4.939,0,0,0,1.215-1.9A.911.911,0,0,0,253.382,140.747Z" transform="translate(-167.213 -135.429)"/><path class="b" d="M240.119,144.336q-2.14,17.2-3.519,34.476-.414,5.177-1.124,10.327a6.068,6.068,0,0,1-4.749,5.107,8.318,8.318,0,0,0,6.043-1.46,9.008,9.008,0,0,0,3.735-6.33q.846-7.3,1.665-14.613,1.567-13.853,3.1-27.714a7.976,7.976,0,0,1,3.617-5.634,27.669,27.669,0,0,0-7.36,3.549A3.24,3.24,0,0,0,240.119,144.336Z" transform="translate(-165.624 -126.956)"/></g><path class="c" d="M315.931,181.61c-.473,0-.957,0-1.445.007s-.961.011-1.423.034H311.75c-.409.007-.776.015-1.078.026s-.568.015-.761.023a3.085,3.085,0,0,0-.329.023l-.1-.312c.136-.173.337-.436.609-.783s.564-.749.916-1.2.711-.96,1.116-1.49c.39-.542.791-1.091,1.2-1.637s.783-1.1,1.173-1.637.719-1.035,1.037-1.494l.261-.388c.129-.2.3-.448.5-.741s.416-.613.662-.967.484-.73.749-1.11c.25-.376.5-.753.761-1.122s.484-.734.7-1.054.394-.606.568-.854.288-.425.363-.553c-.371-.008-.715-.015-1.029-.015s-.617-.007-.916-.007h-1.8c-.787,0-1.445.007-1.987.03a8.618,8.618,0,0,0-1.37.135,2.564,2.564,0,0,0-.889.339,1.7,1.7,0,0,0-.552.621,3.581,3.581,0,0,0-.356,1c-.095.4-.189.888-.3,1.46l-.984-.087c.015-.207.038-.455.049-.734s.061-.719.1-1.321.068-1.031.079-1.28.03-.455.045-.628.011-.275.019-.32c.027-.226.079-.369.182-.433a.691.691,0,0,1,.356-.083c.193,0,.851.026,1.96.083q1.663.045,4.828.041c.912,0,1.763-.008,2.55-.011l2.058-.041,1.408-.045c.359-.015.568-.019.632-.026l.106.309c-.17.207-.386.493-.647.854s-.568.775-.908,1.253-.7.99-1.1,1.543-.783,1.133-1.192,1.72-.825,1.189-1.245,1.8-.825,1.185-1.215,1.754-.783,1.152-1.173,1.716-.764,1.106-1.131,1.633-.723,1.024-1.048,1.5-.624.9-.882,1.28c.681.015,1.336.023,1.979.023H317.6c.734,0,1.37-.008,1.9-.03a8.384,8.384,0,0,0,1.389-.143,3.339,3.339,0,0,0,1-.354,2.9,2.9,0,0,0,.753-.64,5.738,5.738,0,0,0,.636-1.031c.2-.414.42-.911.658-1.5l.942.207c-.17.753-.31,1.4-.443,1.919s-.242.975-.348,1.336a4.959,4.959,0,0,1-.318.847,1.625,1.625,0,0,1-.325.478.931.931,0,0,1-.4.207,3.133,3.133,0,0,1-.534.041q-.34,0-.874-.023c-.359-.019-.806-.034-1.324-.056s-1.154-.041-1.873-.056-1.551-.026-2.5-.026m-25.473-6.7c.814-.034,1.627-.056,2.452-.068s1.65-.023,2.509-.038l-.59-1.648c-.246-.741-.507-1.479-.764-2.228s-.5-1.49-.764-2.258h-.08c-.333.771-.67,1.551-1,2.314s-.681,1.539-1.029,2.318Zm7.2-2.1q.505,1.44.889,2.54c.253.73.481,1.362.685,1.9s.367,1,.507,1.366.28.674.393.911a4.76,4.76,0,0,0,.284.583.966.966,0,0,0,.431.354,2.776,2.776,0,0,0,.806.207c.344.045.825.087,1.434.128l-.428.941c-.083-.008-.235-.015-.454-.038s-.5-.026-.817-.034-.67-.03-1.056-.038-.795-.019-1.207-.019c-.454,0-.889.007-1.324.019s-.836.03-1.192.049-.651.045-.882.064-.371.03-.416.038a1.087,1.087,0,0,1,.038-.278.63.63,0,0,1,.235-.35,2.314,2.314,0,0,1,.628-.339,5.392,5.392,0,0,1,1.2-.23q-.278-.869-.662-2.032c-.269-.775-.571-1.652-.935-2.616-1.15,0-2.2,0-3.152,0s-1.843.03-2.687.06c-.254.561-.454,1.031-.624,1.423s-.307.719-.412.982-.193.489-.265.659a3.744,3.744,0,0,0-.163.448c-.079.215-.136.376-.167.482a.89.89,0,0,0-.049.271.268.268,0,0,0,.091.214.788.788,0,0,0,.322.135,4.773,4.773,0,0,0,.651.1c.272.026.639.056,1.071.083l-.42.941c-.045-.008-.185-.023-.4-.038l-.764-.041c-.3-.015-.6-.023-.927-.038-.31,0-.605-.011-.863-.011-.288,0-.594.007-.927.019s-.643.023-.935.038-.534.023-.742.034-.329.03-.363.038a1.3,1.3,0,0,1,.042-.279.709.709,0,0,1,.265-.354,2.294,2.294,0,0,1,.681-.346,5.447,5.447,0,0,1,1.3-.218q.29-.542.689-1.344c.272-.534.556-1.125.863-1.776s.624-1.355.961-2.092.677-1.494,1.029-2.262q.624-1.406,1.086-2.454c.306-.7.575-1.3.795-1.821s.416-.956.571-1.336.284-.7.394-.99.216-.546.3-.794.178-.493.265-.745c.113-.008.242-.019.378-.03s.288-.03.435-.049.3-.045.454-.064.291-.045.435-.072c.11.418.235.866.371,1.328s.3,1.009.5,1.63.443,1.344.726,2.175S297.254,171.659,297.663,172.8Zm-24.481-7.711h1.18c.45,0,.886,0,1.313-.026s.817-.026,1.154-.049.6-.034.817-.049c.2-.023.318-.03.333-.03a1.425,1.425,0,0,1-.042.3.687.687,0,0,1-.28.365,2.36,2.36,0,0,1-.757.335,7.449,7.449,0,0,1-1.48.226c-.019.256-.023.5-.023.734v.76c0,.621.015,1.43.038,2.427s.057,2.138.091,3.425c.03,1.1.049,2.006.076,2.725s.045,1.317.064,1.776.045.835.068,1.1.042.5.06.685a2.366,2.366,0,0,0,.079.467.488.488,0,0,0,.3.279,3.177,3.177,0,0,0,.76.173c.337.041.817.083,1.438.128l-.416.9c-.076-.008-.235-.015-.477-.038s-.53-.026-.859-.034-.692-.03-1.086-.038-.772-.019-1.15-.019c-.454,0-.889.007-1.3.019s-.772.038-1.082.049-.583.038-.779.06-.333.041-.367.041a1.155,1.155,0,0,1,.034-.263.613.613,0,0,1,.238-.342,1.916,1.916,0,0,1,.605-.331,4.675,4.675,0,0,1,1.177-.214c.011-.215.019-.437.019-.647v-.817c0-.67-.015-1.445-.026-2.341s-.045-1.885-.083-2.981c-.034-1.024-.061-1.949-.091-2.759s-.064-1.509-.079-2.07l-.076-.023q-1.561,2.839-3.16,5.969t-3.311,6.65c-.129.011-.261.026-.394.049s-.261.049-.39.079q-1.294-3.427-2.8-6.575t-3.122-6.108l-.068.023c-.053.647-.11,1.328-.17,2.055s-.113,1.445-.163,2.16-.106,1.438-.159,2.13-.083,1.328-.117,1.9-.064,1.088-.091,1.52-.026.76-.026.967a1.378,1.378,0,0,0,.057.455.5.5,0,0,0,.306.278,3.114,3.114,0,0,0,.753.166c.329.041.783.083,1.374.128l-.416.9c-.068-.008-.2-.015-.4-.038s-.435-.026-.711-.034-.6-.03-.946-.038-.7-.019-1.075-.019c-.443,0-.848.007-1.222.019s-.7.038-.972.049-.5.038-.666.06-.276.041-.31.041a1.2,1.2,0,0,1,.045-.271.783.783,0,0,1,.31-.358,2.641,2.641,0,0,1,.768-.346,6.962,6.962,0,0,1,1.445-.222c.072-.459.144-1.031.223-1.72s.159-1.43.231-2.239.148-1.652.219-2.533.136-1.735.2-2.574.114-1.622.167-2.367.087-1.381.113-1.927a5.529,5.529,0,0,0-.564-.628,2.172,2.172,0,0,0-.617-.384,3.131,3.131,0,0,0-.821-.218c-.322-.053-.715-.094-1.2-.128l.359-.9c.083.015.272.026.556.041s.617.03,1,.038.8.019,1.218.034.821.011,1.188.011c.254,0,.515,0,.787-.011s.465-.015.613-.026q1.686,2.834,3.2,5.863c1.014,2.028,1.979,4.091,2.895,6.21h.087q1.175-2.337,2.773-5.336T273.182,165.092Zm-33.759,8.061v4.4c0,.553,0,1,.011,1.351s.015.587.026.723a1.207,1.207,0,0,0,.125.478.582.582,0,0,0,.344.256,2.087,2.087,0,0,0,.647.113c.28.023.636.03,1.075.03.636,0,1.2-.015,1.657-.053a6.77,6.77,0,0,0,1.237-.177,3.032,3.032,0,0,0,.916-.384,2.99,2.99,0,0,0,.692-.659,5.531,5.531,0,0,0,.6-1c.186-.391.386-.862.609-1.4l.942.2c-.174.757-.314,1.389-.443,1.916s-.242.96-.344,1.313a5.477,5.477,0,0,1-.307.832,1.326,1.326,0,0,1-.322.459.692.692,0,0,1-.386.188,2.486,2.486,0,0,1-.507.041c-.151,0-.39,0-.711-.011s-.7-.023-1.12-.034-.893-.03-1.4-.045-1.014-.019-1.529-.034-1.029-.03-1.54-.038-.969-.011-1.408-.011c-1.234,0-2.172.026-2.8.083-.643.056-1.041.087-1.18.087a1.386,1.386,0,0,1,.042-.271.668.668,0,0,1,.242-.358,2.2,2.2,0,0,1,.674-.346,5.692,5.692,0,0,1,1.309-.222c.03-.29.053-.662.064-1.1s.034-.922.042-1.426.023-1.024.023-1.551v-4.332c0-.79-.008-1.464-.008-2.025s0-1.02-.015-1.378-.011-.651-.019-.888-.015-.425-.023-.576-.011-.282-.023-.418a2.045,2.045,0,0,0-.068-.455.424.424,0,0,0-.265-.263,2.757,2.757,0,0,0-.689-.15c-.314-.034-.749-.079-1.321-.128l.348-.922a4.032,4.032,0,0,0,.458.041c.242.015.53.03.859.045s.7.019,1.071.026c.39.008.753.011,1.1.011.549,0,1.056,0,1.514-.026s.859-.026,1.2-.049.6-.034.787-.049.291-.03.31-.03a1.2,1.2,0,0,1-.042.3.677.677,0,0,1-.261.365,2.274,2.274,0,0,1-.711.335,6.233,6.233,0,0,1-1.351.226c-.026.4-.049.805-.072,1.231s-.027.9-.034,1.445-.008,1.167-.015,1.863S239.423,172.212,239.423,173.153Zm-24.178,1.754q1.22-.051,2.456-.068c.81-.008,1.65-.023,2.509-.038l-.59-1.648c-.246-.741-.507-1.479-.764-2.228s-.507-1.49-.764-2.258h-.08c-.333.771-.67,1.551-1,2.314s-.681,1.539-1.029,2.318Zm7.208-2.1c.337.96.628,1.806.889,2.54s.481,1.362.681,1.9.367,1,.511,1.366.28.674.393.911a4.275,4.275,0,0,0,.284.583.956.956,0,0,0,.428.354,2.8,2.8,0,0,0,.81.207c.344.045.825.087,1.43.128l-.424.941c-.083-.008-.235-.015-.454-.038s-.5-.026-.817-.034-.67-.03-1.056-.038-.795-.019-1.207-.019c-.454,0-.889.007-1.324.019s-.836.03-1.192.049-.655.045-.882.064-.371.03-.416.038a1.085,1.085,0,0,1,.038-.278.63.63,0,0,1,.235-.35,2.256,2.256,0,0,1,.628-.339,5.394,5.394,0,0,1,1.2-.23c-.189-.58-.409-1.257-.666-2.032s-.571-1.652-.927-2.616c-1.154,0-2.2,0-3.156,0s-1.843.03-2.687.06c-.254.561-.454,1.031-.624,1.423s-.307.719-.412.982-.2.489-.265.659a3.835,3.835,0,0,0-.167.448c-.076.215-.136.376-.166.482a.99.99,0,0,0-.045.271.268.268,0,0,0,.091.214.764.764,0,0,0,.322.135,4.77,4.77,0,0,0,.651.1c.272.026.636.056,1.071.083l-.42.941c-.049-.008-.185-.023-.409-.038l-.761-.041c-.3-.015-.605-.023-.927-.038s-.605-.011-.863-.011c-.288,0-.6.007-.931.019s-.643.023-.931.038-.534.023-.742.034-.329.03-.363.038a1.1,1.1,0,0,1,.042-.279.71.71,0,0,1,.265-.354,2.245,2.245,0,0,1,.681-.346,5.413,5.413,0,0,1,1.3-.218c.193-.361.42-.809.689-1.344s.556-1.125.867-1.776.617-1.355.953-2.092.681-1.494,1.033-2.262c.412-.937.779-1.754,1.082-2.454s.575-1.3.8-1.821.413-.956.571-1.336.284-.7.393-.99.216-.546.3-.794.178-.493.265-.745c.114-.008.242-.019.378-.03s.287-.03.435-.049.3-.045.454-.064.291-.045.431-.072c.11.418.238.866.375,1.328s.3,1.009.5,1.63.447,1.344.73,2.175S222.044,171.659,222.452,172.8Z" transform="translate(-208.876 -54.509)"/><path class="c" d="M267.1,174.4l.636-.056a1.392,1.392,0,0,0,.212.632,1.152,1.152,0,0,0,.515.4,2.009,2.009,0,0,0,.787.151,1.912,1.912,0,0,0,.681-.113.978.978,0,0,0,.443-.316.754.754,0,0,0,.144-.437.648.648,0,0,0-.14-.418,1.028,1.028,0,0,0-.458-.3,9.288,9.288,0,0,0-.916-.248,4.87,4.87,0,0,1-.988-.316,1.386,1.386,0,0,1-.545-.474,1.2,1.2,0,0,1-.178-.636,1.317,1.317,0,0,1,.219-.723,1.388,1.388,0,0,1,.643-.508,2.423,2.423,0,0,1,.938-.173,2.621,2.621,0,0,1,1.006.181,1.436,1.436,0,0,1,.666.538,1.57,1.57,0,0,1,.253.8l-.655.049a1.015,1.015,0,0,0-.352-.726,1.379,1.379,0,0,0-.893-.245,1.44,1.44,0,0,0-.9.222.678.678,0,0,0-.28.538.585.585,0,0,0,.2.452,2.69,2.69,0,0,0,1.022.365,7.043,7.043,0,0,1,1.135.324,1.557,1.557,0,0,1,.658.519,1.229,1.229,0,0,1,.212.719,1.366,1.366,0,0,1-.235.768,1.534,1.534,0,0,1-.67.557,2.372,2.372,0,0,1-.988.2,2.967,2.967,0,0,1-1.158-.2,1.647,1.647,0,0,1-.738-.606,1.707,1.707,0,0,1-.28-.918m-6.516,1.637v-5.088h3.693v.595h-3.019v1.566h2.826v.595h-2.826v1.739h3.14v.595Zm-7.972,0v-5.088h1.014l1.211,3.6c.11.335.193.587.246.753.057-.184.151-.455.273-.817l1.233-3.538h.9v5.088h-.651v-4.256l-1.495,4.256h-.609l-1.476-4.339v4.339Zm-3.78-5.088h.677v2.939a3.537,3.537,0,0,1-.174,1.219,1.527,1.527,0,0,1-.628.734,2.246,2.246,0,0,1-1.2.282,2.486,2.486,0,0,1-1.173-.245,1.435,1.435,0,0,1-.655-.715,3.429,3.429,0,0,1-.193-1.276v-2.939h.681v2.935a2.837,2.837,0,0,0,.121.978.935.935,0,0,0,.424.485,1.484,1.484,0,0,0,.738.169,1.416,1.416,0,0,0,1.059-.335,1.942,1.942,0,0,0,.318-1.3Zm-9.671,5.088v-5.088h3.451v.595h-2.773v1.588h2.4v.595h-2.4v2.311Zm-6.493-2.841h1.453a2.189,2.189,0,0,0,.727-.1.767.767,0,0,0,.393-.3.824.824,0,0,0,.136-.455.752.752,0,0,0-.265-.595,1.2,1.2,0,0,0-.825-.233h-1.619Zm-.681,2.841v-5.088h2.27a3.069,3.069,0,0,1,1.041.135,1.14,1.14,0,0,1,.568.486,1.444,1.444,0,0,1,.212.764,1.269,1.269,0,0,1-.356.915,1.763,1.763,0,0,1-1.082.47,1.841,1.841,0,0,1,.4.256,3.438,3.438,0,0,1,.56.677l.889,1.385h-.848l-.677-1.058c-.2-.309-.363-.542-.488-.7a1.5,1.5,0,0,0-.344-.339,1.048,1.048,0,0,0-.307-.135,1.833,1.833,0,0,0-.378-.026h-.783v2.262Zm-6.754,0v-5.088h3.7v.595h-3.016v1.566h2.823v.595h-2.823v1.739h3.137v.595Zm-5.96-2.672h1.32a1.4,1.4,0,0,0,.935-.245.866.866,0,0,0,.272-.685.929.929,0,0,0-.159-.546.777.777,0,0,0-.431-.3,2.841,2.841,0,0,0-.628-.045h-1.309Zm-.681,2.672v-5.088h1.934a5.074,5.074,0,0,1,.779.045,1.616,1.616,0,0,1,.632.241,1.2,1.2,0,0,1,.409.489,1.516,1.516,0,0,1,.159.692,1.557,1.557,0,0,1-.416,1.1,2.007,2.007,0,0,1-1.506.452h-1.309v2.074Z" transform="translate(-181.82 -37.509)"/></g></g></svg>