<svg xmlns="http://www.w3.org/2000/svg" width="168" height="168" viewBox="0 0 168 168"><defs><style>.a{fill:none;}.b{fill:gray;}</style></defs><g transform="translate(0.301)"><rect class="a" width="168" height="168" transform="translate(-0.301 0)"/><g transform="translate(20 16)"><g transform="translate(0 0)"><path class="b" d="M143.675,220.453q4.953,4.213,9.9,8.426,2.5,2.126,4.995,4.253c.011.011.072-.042.1-.053s.023.011.061-.011.061-.057.092-.076l.118-.1a7.649,7.649,0,0,0,.866-.849c.972-1.016,2.242-2.46,2.947-3.343.1-.114.206-.216.3-.337,1.5-1.941,3.062-3.844,4.491-5.841.53-.743,1.376-1.759.934-2.725a3.951,3.951,0,0,0-1.117-1.129q-.766-.665-1.533-1.323-4.438-3.821-8.884-7.626c-2.837-2.486-1.312-4.935-1.312-4.935l-2.063,2.039-4.976,4.943c4.026,3.491,8.094,6.944,12.136,10.42a26.021,26.021,0,0,1,2.8,2.437c.7.807.145,1.812-.267,2.384-.137.193-.286.379-.427.569q-4.81-4.1-9.631-8.195-2.482-2.109-4.96-4.219c-1.079-.921-2.673-1.8-2.745-3.358-.046-.985,0-1.982,0-2.968V134.6l-4.7,4.666v73.314c0,1.387-.015,2.771,0,4.154C140.811,218.494,142.451,219.411,143.675,220.453Z" transform="translate(-47.494 -134.604)"/><path class="b" d="M151.377,158.862c-.248-.155-2.269,2.24-2.478,2.475-.168.186-2.3,2.657-2.215,2.71l7.542,4.708c.248.155,2.269-2.24,2.478-2.475.171-.19,2.3-2.657,2.215-2.71Z" transform="translate(-30.921 -66.933)"/><path class="b" d="M139.546,165.992c-.172.186-2.3,2.657-2.215,2.706l7.542,4.711c.252.155,2.272-2.244,2.478-2.475.175-.19,2.3-2.661,2.219-2.71q-3.769-2.354-7.542-4.708C141.78,163.362,139.759,165.757,139.546,165.992Z" transform="translate(-57.229 -53.944)"/><path class="b" d="M139.858,156.582c.1-.106.824-.948,1.422-1.668q3.317,2.075,6.638,4.143c.248.155,2.269-2.24,2.475-2.475.175-.19,2.3-2.657,2.223-2.71l-7.549-4.708c-.248-.155-2.265,2.24-2.478,2.475-.1.106-.824.948-1.418,1.668q-3.317-2.075-6.634-4.143c-.252-.155-2.272,2.24-2.482,2.475-.172.186-2.3,2.657-2.215,2.706q3.769,2.359,7.542,4.711C137.627,159.213,139.648,156.817,139.858,156.582Z" transform="translate(-78.305 -93.995)"/><path class="b" d="M175.507,214.751l.061-.064c2.154,2.111,4.3,4.226,6.478,6.311l.076-.053c.015,0,.011.008.042,0a5.256,5.256,0,0,0,1.159-1.126l.038-.042a40.448,40.448,0,0,0,3.26-3.665c2.005-2.38,3.916-4.965,4.7-7.967a39.958,39.958,0,0,0,.82-8.688c.145-4.45.019-8.919.015-13.369q-.023-17.262.012-34.523.011-6.5.011-13.009l-4.7,4.67h0l-2.417,2.407a1.911,1.911,0,0,1,2.413,2.009q-.006,11.855-.015,23.713c-.011,9.976-.027,19.964.019,29.944a88.077,88.077,0,0,1-.393,8.972,15.461,15.461,0,0,1-1.026,4.677c-.019.046-.053.087-.072.136q-2.745-2.644-5.456-5.318c2.238-2.574,6.756-7.043,4.377-10.776a11.443,11.443,0,0,0-1.758-1.933q-1.315-1.285-2.638-2.558-2.425-2.32-4.884-4.6h0l0,0c-.069-.042-.515.406-.694.588-.114.114-.233.235-.37.371q-3.7,3.65-7.4,7.308c-.385.383-4.156,4.279-3.916,4.51,3.992,3.825,7.934,7.706,11.88,11.576q-1.39,1.325-2.78,2.642c-2.452-2.411-4.949-4.787-7.339-7.27a32.433,32.433,0,0,1-3.546-3.968,4.677,4.677,0,0,1-.412-4.844c.164-.345-.355.186-.332.171-.515.466-1,.985-1.464,1.493-.614.66-1.216,1.327-1.8,2.013a6.727,6.727,0,0,0-1,1.258,5.662,5.662,0,0,0-.587,2.3H124.409a4.652,4.652,0,0,1-.381-4.795c.16-.345-.355.19-.339.171-.511.47-.991.989-1.46,1.5-.61.66-1.216,1.327-1.8,2.009a6.877,6.877,0,0,0-1,1.262,4.759,4.759,0,0,0,.011,4.613c.069.117.175.216.252.334l-.072.095h.141a24.132,24.132,0,0,0,2.909,3.366c.942.974,1.922,1.91,2.909,2.843,1.723,1.9-1.975,2.767-1.975,2.767h43.923a.547.547,0,0,0,.252-.155,1.057,1.057,0,0,0,.3-.224Q171.793,218.287,175.507,214.751Zm5.178-7.1a7.18,7.18,0,0,1-.648,1.622c-3.912-3.836-7.816-7.676-11.766-11.47q1.355-1.342,2.719-2.684c2.879,2.672,5.856,5.322,8.544,8.187A4.511,4.511,0,0,1,180.684,207.655Zm-16.151,12.088-2.738-2.729H133.182c-1.3-1.277-2.638-2.521-3.958-3.787H158.6a.355.355,0,0,0,.114-.057c.461.474.923.94,1.365,1.4.8.834,1.643,1.63,2.463,2.445h-.011l2.711,2.695Z" transform="translate(-109.238 -123.587)"/><path class="b" d="M139.052,224.319c-.1.14-.206.277-.313.413l-.011.015c-.038.042-.08.091-.137.159a5.917,5.917,0,0,0-1,1.262c-.118.311.286-.129.336-.171a42.407,42.407,0,0,0,3.26-3.506,24.65,24.65,0,0,0,4.068-5.909,16.835,16.835,0,0,0,1.3-4.962,78.164,78.164,0,0,0,.5-9.772q-.029-7.05-.023-14.1-.011-19.291.015-38.575.011-6.311.015-12.614l-4.7,4.666q0,14.817-.019,29.63c-.008,11.311-.023,22.618.011,33.924.008,2.968,0,5.921-.206,8.885a31.65,31.65,0,0,1-.7,5.553,14.018,14.018,0,0,1-1.163,3.074,17.334,17.334,0,0,1-.9,1.539Q139.224,224.074,139.052,224.319Z" transform="translate(-56.548 -129.149)"/><path class="b" d="M127.911,169.713q-2.431-2.689-4.857-5.386a9.334,9.334,0,0,1-1.483-1.884,4.949,4.949,0,0,1-.5-3.01,4.528,4.528,0,0,1,.473-1.456c.027-.045.03-.068.053-.11.221-.262.473-.5.686-.762.072-.087.675-.773.6-.842s-.82.716-.782.675c-.271.273-.534.557-.8.834-.149.14-.32.318-.519.531a38.228,38.228,0,0,0-3.237,3.7,5.127,5.127,0,0,0,.519,7.175q3.083,3.428,6.169,6.849l1.209,1.338c.092.106.2.2.286.318l.034.038a1.3,1.3,0,0,1,.191.349q-1.321,1.262-2.642,2.521a45.09,45.09,0,0,0-3.256,3.506,5.424,5.424,0,0,0-1,1.262c-.13.318.3-.14.332-.174l4.1-3.908c.732-.7,1.46-1.4,2.192-2.1.137-.129.271-.258.408-.387.949-.913,1.842-1.888,2.715-2.877a9.675,9.675,0,0,0,1.788-2.252c.316-.792-.236-1.243-.709-1.766C129.226,171.176,128.566,170.444,127.911,169.713Z" transform="translate(-116.32 -74.175)"/><path class="b" d="M181.342,171.966a63.219,63.219,0,0,1-5.212-4.465c-3.656-3.2-7.214-6.482-10.729-9.832l-4.96,4.935c3.668,3.5,7.389,6.933,11.209,10.272.881.773,1.754,1.618,2.657,2.426l-.808.057-2.844-2.5h-27.7a11.322,11.322,0,0,1-2.482-.121,4.787,4.787,0,0,1-3.7-4.859,4.488,4.488,0,0,1,.21-1.205,4.989,4.989,0,0,1,.187-.466c.027-.064.316-.542.3-.542.111-.133.324-.406.08-.284a6.128,6.128,0,0,0-1.159,1.122,33.714,33.714,0,0,0-3.161,3.59c-1.624,2.255-1.552,5.363.862,7.077a5.627,5.627,0,0,0,3.439.879h41.086c.019,0,.053-.03.076-.042a5.4,5.4,0,0,0,4.392-1.107,26.415,26.415,0,0,0,2.974-3.108c.461-.523.93-1.046,1.346-1.6.034-.049.416-.58.137-.353A5.149,5.149,0,0,1,181.342,171.966Z" transform="translate(-71.874 -70.243)"/></g><g transform="translate(2.486 121.479)"><path class="b" d="M125.116,177.9h-8.144v-.174a9.27,9.27,0,0,0,2.2-.14.454.454,0,0,0,.24-.2,1.654,1.654,0,0,0,.072-.637V167.8a1.635,1.635,0,0,0-.072-.625c-.019-.049-.1-.095-.225-.14a7.862,7.862,0,0,0-2.219-.19v-.159h7.149a4.342,4.342,0,0,1,3.008,1.008,2.247,2.247,0,0,1,.888,1.649,2.072,2.072,0,0,1-.538,1.565,4.9,4.9,0,0,1-2.7,1,5.3,5.3,0,0,1,3.065,1.2,2.586,2.586,0,0,1,.8,1.963,2.487,2.487,0,0,1-.911,1.823,3.666,3.666,0,0,1-2.623.993m-3.477-6.046h1.62a3.043,3.043,0,0,0,1.876-.474,2.209,2.209,0,0,0,.732-1.873,2.913,2.913,0,0,0-.587-2.066,2.781,2.781,0,0,0-2.009-.591h-.831a2.067,2.067,0,0,0-.538.049.3.3,0,0,0-.217.227,3.262,3.262,0,0,0-.046.682Zm2.07.155h-2.07v4.742a2.065,2.065,0,0,0,.061.66.434.434,0,0,0,.263.22,1.7,1.7,0,0,0,.526.095c.217.011.724.015,1.514.015a2.267,2.267,0,0,0,1.864-.747,2.91,2.91,0,0,0,.56-1.9,3.4,3.4,0,0,0-.652-2.233A2.516,2.516,0,0,0,123.709,172.008Z" transform="translate(-116.972 -166.55)"/><path class="b" d="M127.288,174.09h-3.367l-.538,1.539a2.952,2.952,0,0,0-.21,1,.975.975,0,0,0,.492.921,2.765,2.765,0,0,0,1.38.281V178h-4.438v-.174a2.187,2.187,0,0,0,1.868-.906,9.819,9.819,0,0,0,.942-2.089l2.955-8.18h.351l3.775,10.2a1.561,1.561,0,0,0,.526.845,5.289,5.289,0,0,0,1.571.129V178h-6.451v-.174a11.089,11.089,0,0,0,1.8-.095c.324-.064.488-.2.488-.39l-.038-.178Zm-.088-.19-1.594-4.427-1.6,4.427Z" transform="translate(-106.745 -166.653)"/><path class="b" d="M132.276,177.9h-8.148v-.174a9.292,9.292,0,0,0,2.2-.14.463.463,0,0,0,.244-.2,1.738,1.738,0,0,0,.072-.637V167.8a1.719,1.719,0,0,0-.072-.625.409.409,0,0,0-.229-.14,7.844,7.844,0,0,0-2.219-.19v-.159h7.149a4.319,4.319,0,0,1,3,1.008,2.259,2.259,0,0,1,.9,1.649,2.088,2.088,0,0,1-.541,1.565,4.9,4.9,0,0,1-2.7,1,5.285,5.285,0,0,1,3.065,1.2,2.6,2.6,0,0,1,.8,1.963,2.5,2.5,0,0,1-.911,1.823,3.657,3.657,0,0,1-2.619.993m-3.477-6.046h1.617a3.056,3.056,0,0,0,1.88-.474,2.22,2.22,0,0,0,.732-1.873,2.893,2.893,0,0,0-.595-2.066,2.748,2.748,0,0,0-2-.591H129.6a2.087,2.087,0,0,0-.538.049.312.312,0,0,0-.221.227,3.788,3.788,0,0,0-.038.682Zm2.067.155H128.8v4.742a2.237,2.237,0,0,0,.057.66.446.446,0,0,0,.263.22,1.74,1.74,0,0,0,.526.095c.217.011.724.015,1.517.015a2.259,2.259,0,0,0,1.861-.747,2.91,2.91,0,0,0,.561-1.9,3.422,3.422,0,0,0-.648-2.233A2.519,2.519,0,0,0,130.865,172.008Z" transform="translate(-96.844 -166.55)"/><path class="b" d="M135.946,174.09h-3.37l-.538,1.539a2.952,2.952,0,0,0-.21,1,.979.979,0,0,0,.488.921,2.775,2.775,0,0,0,1.38.281V178h-4.438v-.174a2.194,2.194,0,0,0,1.872-.906,9.625,9.625,0,0,0,.942-2.089l2.951-8.18h.355l3.775,10.2a1.563,1.563,0,0,0,.522.845,5.326,5.326,0,0,0,1.571.129V178H134.8v-.174a10.977,10.977,0,0,0,1.8-.095c.328-.064.492-.2.492-.39l-.034-.178Zm-.091-.19-1.6-4.427-1.6,4.427Z" transform="translate(-82.415 -166.653)"/><path class="b" d="M139.642,177.69a4.043,4.043,0,0,0,3.226-1.281,5.782,5.782,0,0,0,1.113-3.881h.229V177.9h-11.43v-.174c.511,0,.949-.015,1.308-.049a3.245,3.245,0,0,0,.743-.133.45.45,0,0,0,.263-.193,1.692,1.692,0,0,0,.065-.6v-8.926a1.659,1.659,0,0,0-.072-.629.424.424,0,0,0-.236-.136,4.814,4.814,0,0,0-.789-.144,11.079,11.079,0,0,0-1.281-.064v-.159h7.183v.159c-.652,0-1.163.015-1.529.049a3.071,3.071,0,0,0-.778.14.563.563,0,0,0-.263.155,1.523,1.523,0,0,0-.084.629v8.908a1.852,1.852,0,0,0,.065.644.425.425,0,0,0,.21.14,8.245,8.245,0,0,0,2.059.174" transform="translate(-72.511 -166.55)"/><path class="b" d="M142.088,178.089l-.526.068a5,5,0,0,1-3.55-1.459,6.1,6.1,0,0,1,0-8.513,4.979,4.979,0,0,1,7.1-.091,5.714,5.714,0,0,1-1.308,9.34c.118.394.24.8.377,1.213a3.734,3.734,0,0,0,.339.834,1.523,1.523,0,0,0,1.171.781,1.046,1.046,0,0,0,.873-.588,2.99,2.99,0,0,0,.366-1.588,5.2,5.2,0,0,0-.053-.743H147a3.53,3.53,0,0,1,.05.4c.011.152.019.288.019.417a3.457,3.457,0,0,1-.629,2.13,2.045,2.045,0,0,1-1.731.841,3.243,3.243,0,0,1-.926-.155,2.259,2.259,0,0,1-1.243-1.016,3.583,3.583,0,0,1-.45-1.869m1.43-1.179a4.513,4.513,0,0,0,.763-1.751,13.111,13.111,0,0,0,.236-2.744,9.268,9.268,0,0,0-.743-4.169,2.389,2.389,0,0,0-2.231-1.437,2.341,2.341,0,0,0-2.246,1.406,9.992,9.992,0,0,0-.69,4.215,10.711,10.711,0,0,0,.461,3.43,3.219,3.219,0,0,0,1.445,1.884,1.146,1.146,0,0,1-.336-.443,1.409,1.409,0,0,1-.1-.512,1.569,1.569,0,0,1,.271-.876,1.111,1.111,0,0,1,.5-.481c.153-.045.286-.083.4-.11a1.645,1.645,0,0,1,.37-.046,1.516,1.516,0,0,1,.888.281,2.727,2.727,0,0,1,.595.591,1.419,1.419,0,0,1,.21.33C143.38,176.614,143.449,176.762,143.518,176.91Zm-1.449,1.023.122-.694a2.834,2.834,0,0,0,.072-.368c.008-.114.015-.235.015-.364a.972.972,0,0,0-.255-.728,1.071,1.071,0,0,0-.759-.243.885.885,0,0,0-.732.383,1.373,1.373,0,0,0-.3.868,1.178,1.178,0,0,0,.229.7,1.356,1.356,0,0,0,.683.478,2.877,2.877,0,0,0,.366.034,1.677,1.677,0,0,0,.362-.034A1.013,1.013,0,0,1,142.069,177.933Z" transform="translate(-62.661 -166.653)"/><path class="b" d="M146.272,174.09h-3.367l-.538,1.539a3.047,3.047,0,0,0-.21,1,.975.975,0,0,0,.492.921,2.765,2.765,0,0,0,1.38.281V178h-4.438v-.174a2.187,2.187,0,0,0,1.868-.906,9.621,9.621,0,0,0,.942-2.089l2.955-8.18h.351l3.775,10.2a1.586,1.586,0,0,0,.522.845,5.322,5.322,0,0,0,1.575.129V178h-6.447v-.174a11.063,11.063,0,0,0,1.8-.095c.324-.064.488-.2.488-.39l-.034-.178Zm-.084-.19-1.6-4.427-1.6,4.427Z" transform="translate(-53.348 -166.653)"/><path class="b" d="M149.206,167.646c.679-.591,1.056-.921,1.14-.993v3.79l-.141-.053a4.523,4.523,0,0,0-1.273-2.551,3.231,3.231,0,0,0-2.341-1.031,2.9,2.9,0,0,0-1.575.421,1.62,1.62,0,0,0-.824,1.471,1.766,1.766,0,0,0,.888,1.527,7.463,7.463,0,0,0,2.41.883,9.594,9.594,0,0,1,2.806.993,2.989,2.989,0,0,1,1.083,2.6,3.28,3.28,0,0,1-1.121,2.657,3.43,3.43,0,0,1-2.288.8,4.879,4.879,0,0,1-1.845-.33,3.377,3.377,0,0,1-1.407-1.1c-.7.913-1.068,1.391-1.1,1.425v-4.795l.141-.019a12.152,12.152,0,0,0,.747,2.4,4.8,4.8,0,0,0,.824,1.266,3.5,3.5,0,0,0,2.692.993,2.366,2.366,0,0,0,1.506-.538,1.917,1.917,0,0,0,.785-1.562,2.032,2.032,0,0,0-1.064-1.8,10.488,10.488,0,0,0-2.555-.948,8.14,8.14,0,0,1-2.535-1.012,2.672,2.672,0,0,1-1.045-2.282,3.039,3.039,0,0,1,.953-2.27,3.134,3.134,0,0,1,2.269-.932,4.412,4.412,0,0,1,1.838.33,10.434,10.434,0,0,1,1.033.663" transform="translate(-43.444 -166.653)"/><path class="b" d="M157.637,175.4v.572a3.526,3.526,0,0,1-.2,1.425,1.234,1.234,0,0,1-1.243.66,1.56,1.56,0,0,1-1.6-.9,8.127,8.127,0,0,1-.313-2.782v-.364c0-.114,0-.239.015-.364a1.467,1.467,0,0,0-.435-1.243,2.1,2.1,0,0,0-1.254-.322h-2.051v4.674a1.917,1.917,0,0,0,.065.66.426.426,0,0,0,.259.22,3.071,3.071,0,0,0,.82.095c.412.011.85.015,1.3.015v.159H145.89v-.174a9.27,9.27,0,0,0,2.2-.14.44.44,0,0,0,.24-.2,1.654,1.654,0,0,0,.072-.637v-8.96a1.49,1.49,0,0,0-.072-.61c-.019-.049-.1-.095-.221-.14a7.877,7.877,0,0,0-2.223-.19v-.159h7.149a4.336,4.336,0,0,1,3.008,1.008,2.254,2.254,0,0,1,.888,1.653,2.144,2.144,0,0,1-.7,1.656,4.681,4.681,0,0,1-2.673.989,3.038,3.038,0,0,1,2.463,2.066,8.174,8.174,0,0,1,.3,2.57,2.226,2.226,0,0,0,.088.728c.061.152.2.224.427.224.248,0,.419-.193.511-.58a7.042,7.042,0,0,0,.145-1.607Zm-7.08-3.51h1.62a3.078,3.078,0,0,0,1.876-.47,2.237,2.237,0,0,0,.732-1.9,2.88,2.88,0,0,0-.6-2.07,2.74,2.74,0,0,0-1.994-.6h-.835a2.119,2.119,0,0,0-.541.049.287.287,0,0,0-.214.22,3.083,3.083,0,0,0-.046.671Z" transform="translate(-35.633 -166.55)"/></g></g></g></svg>