<svg xmlns="http://www.w3.org/2000/svg" width="375" height="36.273" viewBox="0 0 375 36.273"><defs><style>.a{fill:#fff;}</style></defs><path class="a" d="M620.755,603.358h18.629v4.562H625.346v8.264h14.038v4.566H625.346v11.426h14.038v4.562H620.755Zm-26.728,1.128v5.154a23.149,23.149,0,0,0-9.995-2.627,13.908,13.908,0,0,0-9.864,3.745,12.578,12.578,0,0,0,.1,18.5,14.725,14.725,0,0,0,10.269,3.724,19.6,19.6,0,0,0,9.495-2.795v5.206a20.79,20.79,0,0,1-9.891,2.419,18.708,18.708,0,0,1-13.347-5.244,16.786,16.786,0,0,1-5.543-12.653,16.576,16.576,0,0,1,5.443-12.449,18.4,18.4,0,0,1,13.134-5.18A26.474,26.474,0,0,1,594.027,604.486Zm-85.1-2.467,24.841,25.344V603.358h4.587v34.934L513.52,613.03v23.707h-4.591Zm-45.414,1.339h18.633v4.562H468.106v8.264h14.042v4.566H468.106v11.426h14.042v4.562H463.515Zm-42.979,4.026V619.03q10.154.214,10.151-5.849A5.108,5.108,0,0,0,429.5,609.7a6.016,6.016,0,0,0-3.156-1.832A26.389,26.389,0,0,0,420.536,607.384Zm-4.586-4.026h7.278a13.888,13.888,0,0,1,8.847,2.687,8.361,8.361,0,0,1,3.422,6.869,8.816,8.816,0,0,1-2.2,5.909,12.281,12.281,0,0,1-6.86,3.616l9.7,14.3h-5.265L421.563,623h-1.026v13.737H415.95Zm-33.206,16.718a12.27,12.27,0,0,0-4.008-9.292,13.862,13.862,0,0,0-9.873-3.771,13.2,13.2,0,0,0-9.53,3.845,12.361,12.361,0,0,0-3.969,9.218,12.1,12.1,0,0,0,4.078,9.236,14.148,14.148,0,0,0,9.982,3.776,12.965,12.965,0,0,0,9.377-3.853A12.365,12.365,0,0,0,382.744,620.076Zm-32.184-.259a16.383,16.383,0,0,1,5.478-12.376,18.6,18.6,0,0,1,13.19-5.154,18.109,18.109,0,0,1,12.947,5.2,16.5,16.5,0,0,1,5.43,12.333,17.139,17.139,0,0,1-5.365,12.769,19.073,19.073,0,0,1-26.272-.034A17.1,17.1,0,0,1,350.56,619.817Zm-39.792-16.458h4.591v28.818h10.9v4.562H310.767Zm-46.383,0h18.629v4.562H268.975v8.264h14.038v4.566H268.975v15.988h-4.591Z" transform="translate(-264.384 -602.019)"/></svg>