<svg xmlns="http://www.w3.org/2000/svg" xmlns:xlink="http://www.w3.org/1999/xlink" width="580" height="580" viewBox="0 0 580 580"><defs><style>.a{fill:#3b3b3b;opacity:0.2;}.b{clip-path:url(#a);}.c{opacity:0.5;}.d,.e{fill:#fff;stroke:#fff;}.e{stroke-miterlimit:2.613;stroke-width:0.567px;}</style><clipPath id="a"><rect class="a" width="580" height="580" transform="translate(0 2931)"/></clipPath></defs><g transform="translate(0 -2931)"><rect class="a" width="580" height="580" transform="translate(0 2931)"/><g class="b"><g class="c" transform="translate(-494.643 2410.265)"><path class="d" d="M648.1,724.27l-86.033-.567a78.516,78.516,0,0,1,32.309,26.472c8.3,11.533,12.409,23.682,12.409,36.35q0,29.57-21.957,65.519-53.5-63.215-103.95-96.812-50.378-33.61-91.659-33.657c-23.824,0-43.631,7.7-59.23,23.068q-23.4,23.115-23.446,58.332,0,53.641,41.692,88.254,41.729,34.6,106.313,34.627,71.687,0,121.534-51.784Q625.784,822.24,648.1,724.27Zm97.615-19.641L732.167,749.7h-6.925c.639-1.984,1.016-3.451,1.276-4.49a40.613,40.613,0,0,0,2.056-11.251c0-4.229-1.8-6.853-5.46-8.012-3.593-1.088-12.338-1.678-26.141-1.678H668l-2.648,8.084q-15.99,51.195-35.453,85.4a276.655,276.655,0,0,1-48.807,62.421,222.212,222.212,0,0,1-67.976,45.475q-37.971,16.411-75.421,16.378-42.367,0-76.225-18.034a116.242,116.242,0,0,1-47.224-45.1q-16.947-29.211-16.97-64.879,0-47.225,29.946-75.612,29.887-28.433,79.581-28.385,55.7,0,118.91,51.336,21.1,17.019,58.4,55.237l5.768,5.839a66.729,66.729,0,0,0,9.194-33.658q0-27.476-23.825-45.475-23.824-18.117-62.7-20.185a73.124,73.124,0,0,0,7.4-17.916l133.4-.568c.969-3.286,1.748-5.72,2.268-7.327q8.26-28.61,13.543-41.1A97.938,97.938,0,0,1,682.7,633.131q15.424-19.96,42.332-37.841,27.476-18.222,46.657-18.246a79,79,0,0,1,9.62.756q-2.411,14.36-11.108,43.821l-1.277,4.775H761.9c2.2-8.037,3.286-13.638,3.286-16.9,0-8.036-4.3-12.03-12.977-12.03-13.425,0-26.4,5.01-39.069,15.1a56.711,56.711,0,0,0-15.6,19.665q-5.672,11.557-15.222,43.536l-7.208,24.344-1.277,4.515Z" transform="translate(0 0)"/><path class="e" d="M648.1,724.27l-86.033-.567a78.516,78.516,0,0,1,32.309,26.472c8.3,11.533,12.409,23.682,12.409,36.35q0,29.57-21.957,65.519-53.5-63.215-103.95-96.812-50.378-33.61-91.659-33.657c-23.824,0-43.631,7.7-59.23,23.068q-23.4,23.115-23.446,58.332,0,53.641,41.692,88.254,41.729,34.6,106.313,34.627,71.687,0,121.534-51.784Q625.784,822.24,648.1,724.27Zm97.615-19.641L732.167,749.7h-6.925c.639-1.984,1.016-3.451,1.276-4.49a40.613,40.613,0,0,0,2.056-11.251c0-4.229-1.8-6.853-5.46-8.012-3.593-1.088-12.338-1.678-26.141-1.678H668l-2.648,8.084q-15.99,51.195-35.453,85.4a276.655,276.655,0,0,1-48.807,62.421,222.212,222.212,0,0,1-67.976,45.475q-37.971,16.411-75.421,16.378-42.367,0-76.225-18.034a116.242,116.242,0,0,1-47.224-45.1q-16.947-29.211-16.97-64.879,0-47.225,29.946-75.612,29.887-28.433,79.581-28.385,55.7,0,118.91,51.336,21.1,17.019,58.4,55.237l5.768,5.839a66.729,66.729,0,0,0,9.194-33.658q0-27.476-23.825-45.475-23.824-18.117-62.7-20.185a73.124,73.124,0,0,0,7.4-17.916l133.4-.568c.969-3.286,1.748-5.72,2.268-7.327q8.26-28.61,13.543-41.1A97.938,97.938,0,0,1,682.7,633.131q15.424-19.96,42.332-37.841,27.476-18.222,46.657-18.246a79,79,0,0,1,9.62.756q-2.411,14.36-11.108,43.821l-1.277,4.775H761.9c2.2-8.037,3.286-13.638,3.286-16.9,0-8.036-4.3-12.03-12.977-12.03-13.425,0-26.4,5.01-39.069,15.1a56.711,56.711,0,0,0-15.6,19.665q-5.672,11.557-15.222,43.536l-7.208,24.344-1.277,4.515Z" transform="translate(0 0)"/></g></g></g></svg>