<svg xmlns="http://www.w3.org/2000/svg" width="455" height="459" viewBox="0 0 455 459"><defs><style>.a{fill:#ab1f0d;}.b{fill:#fff;}</style></defs><g transform="translate(0 -5033)"><rect class="a" width="455" height="459" transform="translate(0 5033)"/><g transform="translate(-307 5052)"><g transform="translate(104.072 -3.895)"><path class="b" d="M346.806,201.608v-.67h-14.12v.709H334.5a4.769,4.769,0,0,1,2.824.8,2.411,2.411,0,0,1,1.077,2.05,4.471,4.471,0,0,1-1.248,2.643l-6.121,7.889-6.791-9.23c-.644-.9-1.038-1.5-1.169-1.74a1.64,1.64,0,0,1-.211-.748,1.457,1.457,0,0,1,.7-1.263,3.643,3.643,0,0,1,1.892-.438H327.5v-.67H309.909v.709h.5a8.038,8.038,0,0,1,3.9.838A9.4,9.4,0,0,1,317.4,205.4l8.21,11.022v5.8A4.994,4.994,0,0,1,324.4,225.9a5.172,5.172,0,0,1-3.783,1.225H318.7v.748h19.545v-.748H336.39a5.031,5.031,0,0,1-3.743-1.225,4.845,4.845,0,0,1-1.248-3.674v-6.51l6.922-8.972a21.493,21.493,0,0,1,1.97-2.166,13.05,13.05,0,0,1,1.931-1.547,12.112,12.112,0,0,1,2.049-.9A13.9,13.9,0,0,1,346.806,201.608Z" transform="translate(72.582 0.511)"/><path class="b" d="M335.879,205.639a15.331,15.331,0,0,0-5.556-3.519A19.162,19.162,0,0,0,323.3,200.9a17.648,17.648,0,0,0-8.091,1.895,15.56,15.56,0,0,0-5.95,5.131,12.077,12.077,0,0,0-2.207,6.987,12.36,12.36,0,0,0,1.274,5.415,14.239,14.239,0,0,0,3.586,4.5,16.546,16.546,0,0,0,5.307,3,19.181,19.181,0,0,0,6.436,1.07,18.671,18.671,0,0,0,8.249-1.856,15.722,15.722,0,0,0,5.95-5.105,12.075,12.075,0,0,0,2.18-6.987,11.69,11.69,0,0,0-1.1-4.924A13.878,13.878,0,0,0,335.879,205.639Zm-3.941,16.269a10.846,10.846,0,0,1-3.3,4.654,8.3,8.3,0,0,1-5.07,1.612,8.033,8.033,0,0,1-3.9-.941,7.9,7.9,0,0,1-2.969-2.682,12.287,12.287,0,0,1-1.931-4.19,19.856,19.856,0,0,1-.683-5.414,22.57,22.57,0,0,1,.433-4.422,15.018,15.018,0,0,1,1.235-3.7,11.334,11.334,0,0,1,2.023-2.888,7.656,7.656,0,0,1,2.666-1.74,9.559,9.559,0,0,1,3.376-.593,7.869,7.869,0,0,1,2.049.322,9.071,9.071,0,0,1,1.931.864,9.957,9.957,0,0,1,2.85,2.772,13.951,13.951,0,0,1,1.773,4.1,18.394,18.394,0,0,1,.644,5.053A20.426,20.426,0,0,1,331.938,221.908Z" transform="translate(37.85 0)"/><path class="b" d="M336.964,226.283a9.059,9.059,0,0,1-1.642-1.689c-.657-.8-1.326-1.74-2.088-2.849-.249-.4-.5-.748-.736-1.07-.2-.309-.525-.748-.959-1.379l-.657-.941a24.074,24.074,0,0,1-2.929-.838,23.315,23.315,0,0,1-2.574-1.1c-.84-.438-1.813-.993-2.85-1.663v-.077c2.128,0,3.691-.038,4.742-.116a32.916,32.916,0,0,0,4.112-.67,16.007,16.007,0,0,0,3.245-1.147c2.141-1.225,3.218-2.849,3.218-4.9a5.844,5.844,0,0,0-.473-2.256,7.138,7.138,0,0,0-1.379-1.972,7.964,7.964,0,0,0-3.98-2.05,28.4,28.4,0,0,0-6.844-.632h-21.24v.709h.722a5.252,5.252,0,0,1,3.783,1.186,5.021,5.021,0,0,1,1.222,3.713v15.676a4.942,4.942,0,0,1-1.222,3.674,5.152,5.152,0,0,1-3.783,1.225h-.722v.748h17.3v-.748h-.788A5.011,5.011,0,0,1,316.7,225.9a4.8,4.8,0,0,1-1.261-3.674V214.68H321.6l9.5,13.188h10.3v-.748h-.762A6.76,6.76,0,0,1,336.964,226.283Zm-21.529-12.311V201.647h7.934c5.307,0,7.974,2.05,7.974,6.124a6.3,6.3,0,0,1-.906,3.519,4.967,4.967,0,0,1-2.64,2.011,13.484,13.484,0,0,1-4.545.67Z" transform="translate(0 0.511)"/><path class="b" d="M343.889,219.218a13.513,13.513,0,0,1-1.2,2.449,16.136,16.136,0,0,1-1.458,2.011,10.159,10.159,0,0,1-3.258,2.565,8.88,8.88,0,0,1-3.94.915h-7.12V206.546a5.018,5.018,0,0,1,1.209-3.713,5.339,5.339,0,0,1,3.783-1.186h1.97v-.709h-18.7v.709h.959c3.336,0,4.991,1.624,4.991,4.9v15.676c0,3.274-1.655,4.938-4.991,4.938h-1.011l.053.709h30.566V215.944h-.722C344.65,217.168,344.243,218.277,343.889,219.218Z" transform="translate(135.843 0.511)"/><path class="b" d="M343.157,200.938v.709h1.813a4.7,4.7,0,0,1,2.811.8,2.424,2.424,0,0,1,1.091,2.05,4.471,4.471,0,0,1-1.248,2.643l-6.121,7.889-6.791-9.23a17.859,17.859,0,0,1-1.156-1.74,1.494,1.494,0,0,1-.21-.748,1.445,1.445,0,0,1,.683-1.263,3.643,3.643,0,0,1,1.891-.438h2.049v-.67H320.38v.709h.5a8.035,8.035,0,0,1,3.9.838,9.425,9.425,0,0,1,3.1,2.913l8.2,11.022v5.8a4.994,4.994,0,0,1-1.208,3.674,5.16,5.16,0,0,1-3.77,1.225h-1.931v.748h19.545v-.748h-1.852a5.032,5.032,0,0,1-3.744-1.225,4.846,4.846,0,0,1-1.248-3.674v-6.51l6.909-8.972a23.244,23.244,0,0,1,1.984-2.166,13.036,13.036,0,0,1,1.931-1.547,11.673,11.673,0,0,1,2.049-.9,14.134,14.134,0,0,1,2.535-.516v-.67Z" transform="translate(199.651 0.511)"/><path class="b" d="M343.14,227.31a4.473,4.473,0,0,1-1.445-1.018,8.2,8.2,0,0,1-1.208-1.818L329.466,200.9h-.722l-8.722,19.389c-1.34,2.926-2.667,4.9-4.072,5.956a8.352,8.352,0,0,1-1.616.954,7.492,7.492,0,0,1-1.918.438v.748h11.165v-.748a8.134,8.134,0,0,1-1.2-.168,4.615,4.615,0,0,1-.972-.387,3.707,3.707,0,0,1-1.274-1.3,3.312,3.312,0,0,1-.526-1.779,5.433,5.433,0,0,1,.434-2.063l.893-2.011h11.625l.433.992a1.974,1.974,0,0,1,.289.516,1.781,1.781,0,0,0,.157.387c.644,1.341,1.051,2.294,1.248,2.81a3.664,3.664,0,0,1,.276,1.3,1.322,1.322,0,0,1-.722,1.263,4.656,4.656,0,0,1-2.246.438h-2.089v.748h15.92v-.748h-.722A5.984,5.984,0,0,1,343.14,227.31Zm-21.884-8.1,5.386-12,5.517,12Z" transform="translate(103.005 0)"/><path class="b" d="M317.67,214.6h.7a25.293,25.293,0,0,1,.525-3.158,16.594,16.594,0,0,1,2.286-5.3,9.319,9.319,0,0,1,7.96-4.5h1.773v20.575c0,3.274-1.642,4.9-4.978,4.9h-4.112v.748h23.972v-.748h-4.138c-3.336,0-4.992-1.624-4.992-4.9V201.647h1.458a9.528,9.528,0,0,1,7.96,4.189,17.612,17.612,0,0,1,3.139,8.805l.644-.039V200.938H317.67Z" transform="translate(166.764 0.511)"/></g></g></g></svg>