<svg xmlns="http://www.w3.org/2000/svg" width="364" height="282" viewBox="0 0 364 282"><defs><style>.a{fill:#ebebeb;}.b{fill:#f0f0f0;}.c{fill:#f5f5f5;}.d{fill:#fafafa;}.e{fill:#e0e0e0;}.f,.k,.m,.q{fill:#fff;}.g{fill:#e6e6e6;}.h{fill:#263238;}.i{fill:#ffc3bd;}.j,.o,.r{fill:#e99a57;}.k,.o{opacity:0.5;}.l{opacity:0.2;}.m{opacity:0.1;}.n{fill:#ed847e;}.p{opacity:0.6;}.q{opacity:0.8;}.r{opacity:0.4;}</style></defs><g transform="translate(0 -40.09)"><g transform="translate(0 40.09)"><rect class="a" width="364" height="0.182" transform="translate(0 249.061)"/><rect class="a" width="24.157" height="0.182" transform="translate(303.301 260.797)"/><rect class="a" width="6.338" height="0.182" transform="translate(234.794 262.781)"/><rect class="a" width="13.997" height="0.182" transform="translate(288.696 254.028)"/><rect class="a" width="31.502" height="0.182" transform="translate(38.263 255.254)"/><rect class="a" width="4.617" height="0.182" transform="translate(76.118 255.254)"/><rect class="a" width="68.328" height="0.182" transform="translate(95.668 258.332)"/><path class="a" d="M183.2,261.268H42.367A4.165,4.165,0,0,1,38.21,257.1V59.128A4.165,4.165,0,0,1,42.367,55H183.2a4.165,4.165,0,0,1,4.165,4.165V257.1A4.165,4.165,0,0,1,183.2,261.268ZM42.367,55.146a3.982,3.982,0,0,0-3.975,3.982V257.1a3.982,3.982,0,0,0,3.975,3.982H183.2a3.99,3.99,0,0,0,3.982-3.982V59.128a3.99,3.99,0,0,0-3.982-3.982Z" transform="translate(-10.34 -44.125)"/><path class="a" d="M399.508,261.268H258.665A4.172,4.172,0,0,1,254.5,257.1V59.128A4.172,4.172,0,0,1,258.665,55H399.508a4.165,4.165,0,0,1,4.15,4.128V257.1A4.165,4.165,0,0,1,399.508,261.268ZM258.665,55.146a3.99,3.99,0,0,0-3.982,3.982V257.1a3.99,3.99,0,0,0,3.982,3.982H399.508a3.99,3.99,0,0,0,3.982-3.982V59.128a3.99,3.99,0,0,0-3.982-3.982Z" transform="translate(-69.563 -44.125)"/><rect class="b" width="92.675" height="208.325" transform="translate(197.343 40.736)"/><rect class="c" width="90.72" height="208.325" transform="translate(199.296 40.736)"/><rect class="b" width="198.872" height="79.663" transform="translate(284.486 45.462) rotate(90)"/><path class="d" d="M292.24,145.933h0a21.721,21.721,0,0,1,21.706-21.743h20.569a21.714,21.714,0,0,1,21.736,21.743Z" transform="translate(-79.575 -63.005)"/><rect class="c" width="47.512" height="64.003" transform="translate(276.675 184.46) rotate(90)"/><rect class="c" width="28.234" height="82.485" transform="translate(240.951 178.62) rotate(180)"/><rect class="c" width="28.234" height="82.485" transform="translate(276.647 178.62) rotate(180)"/><path class="e" d="M365.334,227.039h11.561a1.794,1.794,0,0,0,1.794-1.794h0a1.8,1.8,0,0,0-1.794-1.794H365.334a1.794,1.794,0,0,0-1.794,1.794h0A1.794,1.794,0,0,0,365.334,227.039Z" transform="translate(-98.905 -90.026)"/><rect class="b" width="198.872" height="1.437" transform="translate(284.445 45.462) rotate(90)"/><path class="e" d="M70.39,222.358h88.175V97.554c0-9.941-88.175-9.941-88.175,0Z" transform="translate(-19.049 -53.623)"/><path class="a" d="M73.17,222.358h88.167V97.554c0-9.941-88.175-9.941-88.167,0Z" transform="translate(-19.801 -53.623)"/><path class="d" d="M158.585,217.724V101.643a1.882,1.882,0,0,0-1.247-1.78c-4.894-1.758-18.234-3.764-38.46-3.764s-33.551,2.006-38.46,3.764a1.882,1.882,0,0,0-1.247,1.78V217.724a1.882,1.882,0,0,0,1.882,1.882H156.7a1.882,1.882,0,0,0,1.882-1.882Z" transform="translate(-21.565 -55.426)"/><path class="f" d="M155.009,96.939l13.749,122.667h-20.08L134.82,96.1C142.639,96.122,149.393,96.45,155.009,96.939Z" transform="translate(-36.69 -55.426)"/><path class="f" d="M122.8,96.16l13.858,123.462H125.55L111.75,96.576C115.112,96.372,118.8,96.226,122.8,96.16Z" transform="translate(-30.407 -55.442)"/><rect class="a" width="127.014" height="3.851" transform="translate(84.17 38.971) rotate(90)"/><rect class="a" width="127.014" height="3.851" transform="translate(115.124 38.971) rotate(90)"/><rect class="e" width="127.014" height="0.693" transform="translate(111.276 38.963) rotate(90)"/><rect class="e" width="127.014" height="0.693" transform="translate(80.321 38.963) rotate(90)"/><rect class="a" width="83.149" height="3.851" transform="translate(139.341 70.636) rotate(180)"/><rect class="c" width="89.954" height="4.252" transform="translate(145.415 171.424) rotate(180)"/><rect class="e" width="4.26" height="4.252" transform="translate(51.341 167.164)"/><rect class="b" width="21.991" height="6.214" transform="translate(325.467 25.667) rotate(180)"/><rect class="g" width="21.991" height="6.214" transform="translate(314.475 31.881) rotate(180)"/><rect class="c" width="21.991" height="6.214" transform="translate(171.205 116.831) rotate(180)"/><rect class="c" width="21.991" height="6.214" transform="translate(138.646 194.87) rotate(180)"/><rect class="g" width="21.991" height="6.214" transform="translate(303.476 195.59)"/><rect class="b" width="21.991" height="6.214" transform="translate(160.228 6.214) rotate(180)"/><rect class="c" width="21.991" height="6.214" transform="translate(79.612 232.453) rotate(180)"/><rect class="c" width="21.991" height="6.214" transform="translate(62.34 187.514) rotate(180)"/><rect class="b" width="21.991" height="6.214" transform="translate(90.596 238.668) rotate(180)"/><rect class="b" width="21.991" height="6.214" transform="translate(53.369 20.35)"/></g><g transform="translate(40.925 305.577)"><ellipse class="c" cx="141.075" cy="8.257" rx="141.075" ry="8.257"/></g><g transform="translate(86.998 90.548)"><path class="h" d="M128.752,122.67c-4.318.955-9.336,7.009-4.376,13.187s-3.348,3.479-4.639,14.289,8.563,8.993,5.47,16.083,18.373,18.322,31.764,9.81,14.646-26.841,10.459-33.318-10.3-6.885-7.527-13.822-.5-14.15-9.139-14.216c-6.521-.051-2.611-4.61-11.583-4.573C131.7,110.146,125.083,115.4,128.752,122.67Z" transform="translate(-119.619 -110.11)"/><path class="f" d="M164.26,139.72a2.122,2.122,0,1,0,1.508.622,2.13,2.13,0,0,0-1.508-.622Zm0,3.756a1.627,1.627,0,1,1,1.155-.474,1.634,1.634,0,0,1-1.155.474Z" transform="translate(-131.123 -118.123)"/><path class="h" d="M177.917,152.469h0a.175.175,0,0,1-.146-.212c.656-3.4-1.991-6.688-4.792-10.211-3.275-4.063-6.98-8.672-5.675-14.165,1.116-4.683.62-8.592-1.4-11.014-1.648-1.977-4.223-2.918-7.644-2.713-3.136.16-4.063-.729-5.047-1.59s-2.29-2.079-6.791-2.05h0a.182.182,0,0,1-.182-.175.19.19,0,0,1,.182-.19h.153c4.537,0,5.784,1.138,6.885,2.144.963.883,1.8,1.648,4.785,1.5,3.538-.182,6.214.773,7.943,2.845,2.093,2.516,2.611,6.564,1.459,11.335-1.262,5.317,2.225,9.657,5.6,13.858,2.852,3.552,5.551,6.907,4.865,10.467a.182.182,0,0,1-.2.175Z" transform="translate(-126.823 -110.121)"/><path class="i" d="M212.714,148.567l-.977,1.911a2.487,2.487,0,0,0,0,2.29l1.729,3.355a4.661,4.661,0,0,0,3.486,2.48l.919.131c1.853-3.056,1.6-7.724,1.6-7.724l.073-1.335a2.079,2.079,0,0,0-1.918-2.254l-2.648-.182a2.414,2.414,0,0,0-2.261,1.327Z" transform="translate(-144.472 -120.157)"/><path class="j" d="M180.1,164.695s.044.08.08.131l.153.226.35.467c.248.321.518.635.8.948.554.627,1.145,1.24,1.758,1.831a28.249,28.249,0,0,0,4.019,3.158,23.61,23.61,0,0,0,9.307,3.647l.62.088.314.044a.4.4,0,0,0-.08,0,.875.875,0,0,0-.438.16c-.139.131.2-.058.518-.54a15.091,15.091,0,0,0,1.8-4.3,40.992,40.992,0,0,0,1.065-5.376c.139-.919.219-1.86.3-2.794s.139-1.911.139-2.75l8.4.4c-.109,1.145-.219,2.13-.336,3.187s-.284,2.079-.43,3.114c-.321,2.086-.693,4.172-1.24,6.316a30.452,30.452,0,0,1-.985,3.26,19.744,19.744,0,0,1-1.619,3.465,9.971,9.971,0,0,1-3.647,3.647,7.7,7.7,0,0,1-3.3.912H196.4l-.861-.058a35.652,35.652,0,0,1-6.776-1.306,40.073,40.073,0,0,1-6.36-2.553,43.647,43.647,0,0,1-5.8-3.559c-.926-.664-1.823-1.371-2.706-2.115-.438-.372-.868-.766-1.306-1.167l-.656-.62-.343-.343c-.124-.131-.2-.212-.4-.43Z" transform="translate(-133.575 -123.514)"/><path class="k" d="M180.1,164.695s.044.08.08.131l.153.226.35.467c.248.321.518.635.8.948.554.627,1.145,1.24,1.758,1.831a28.249,28.249,0,0,0,4.019,3.158,23.61,23.61,0,0,0,9.307,3.647l.62.088.314.044a.4.4,0,0,0-.08,0,.875.875,0,0,0-.438.16c-.139.131.2-.058.518-.54a15.091,15.091,0,0,0,1.8-4.3,40.992,40.992,0,0,0,1.065-5.376c.139-.919.219-1.86.3-2.794s.139-1.911.139-2.75l8.4.4c-.109,1.145-.219,2.13-.336,3.187s-.284,2.079-.43,3.114c-.321,2.086-.693,4.172-1.24,6.316a30.452,30.452,0,0,1-.985,3.26,19.744,19.744,0,0,1-1.619,3.465,9.971,9.971,0,0,1-3.647,3.647,7.7,7.7,0,0,1-3.3.912H196.4l-.861-.058a35.652,35.652,0,0,1-6.776-1.306,40.073,40.073,0,0,1-6.36-2.553,43.647,43.647,0,0,1-5.8-3.559c-.926-.664-1.823-1.371-2.706-2.115-.438-.372-.868-.766-1.306-1.167l-.656-.62-.343-.343c-.124-.131-.2-.212-.4-.43Z" transform="translate(-133.575 -123.514)"/><path class="i" d="M156.3,402.915c-1.065-2.378-.328-12.4-.182-14.026-1.845-.97-8.191.219-8.191.219s1.772,10.525.729,13.807C151.088,404.271,156.3,402.915,156.3,402.915Z" transform="translate(-127.281 -185.45)"/><path class="i" d="M261.721,390.518c-2-1.67-6.2-10.809-6.791-12.348-2.086-.051-6.79,3.647-6.79,3.647s6.214,8.672,6.7,12.093C257.637,394.026,261.721,390.518,261.721,390.518Z" transform="translate(-154.4 -182.652)"/><path class="j" d="M162.395,413.543c-5.332,0-6.243-.08-9.241-.182-2.567-.095-3.18.226-5.244.182-1.721-.036-1.656-1.685-1.131-3.589.19-.671.452-1.459.729-2.407a1.721,1.721,0,0,1,1.656-1.247H155a1.78,1.78,0,0,1,1.371.678c1.415,1.758,4.471,3.042,7.141,3.4C166.4,410.764,164.524,413.543,162.395,413.543Z" transform="translate(-126.881 -190.265)"/><path class="j" d="M274.215,398.381c-5.74,2.6-8.753,1.276-11.634,1.933-2.473.554-2.392,1.021-4.85,1.729-1.634.46-2.473-1.284-2.327-2.815a29.477,29.477,0,0,0,.168-3.355,1.094,1.094,0,0,1,.642-1.028l5.7-2.589a1.109,1.109,0,0,1,1.138.139c2.276,1.823,7.294,4.106,10.773,2.918C276.541,394.413,276.126,397.513,274.215,398.381Z" transform="translate(-156.361 -186.438)"/><path class="h" d="M185.1,222.34s13.472,30.933,20.86,53.726c9.052,20.627,27.184,63.9,27.184,63.9.357,1.1-5.376,3.122-6.615,2.918,0,0-23.938-28.708-33.683-61.319-25.346-31.8-32.822-57.329-32.822-57.329Z" transform="translate(-130.552 -140.482)"/><path class="l" d="M177.78,245.56c3.72,4.077,6.338,18.234,7.673,27.476a211.972,211.972,0,0,1-12.523-20.867C173.3,248.711,174.819,246.165,177.78,245.56Z" transform="translate(-134.046 -146.765)"/><path class="h" d="M174.181,223.13s.955,42.968-2.779,64.134c-3.924,22.224-16.046,49.036-15.208,63.624-1.255.729-5.645.773-8.1,0,0,0-4.2-43.318,8.424-64.463-2.735-21.152-10.014-48.584-3.552-61.684Z" transform="translate(-127.143 -140.695)"/><path class="h" d="M156.647,393.84a20.793,20.793,0,0,0,.277,2.99.613.613,0,0,1-.518.729,30.616,30.616,0,0,1-8.621-.452.627.627,0,0,1-.5-.518l-.445-2.8a.627.627,0,0,1,.627-.729l8.57.16A.627.627,0,0,1,156.647,393.84Z" transform="translate(-126.983 -186.682)"/><path class="m" d="M156.647,393.84a20.793,20.793,0,0,0,.277,2.99.613.613,0,0,1-.518.729,30.616,30.616,0,0,1-8.621-.452.627.627,0,0,1-.5-.518l-.445-2.8a.627.627,0,0,1,.627-.729l8.57.16A.627.627,0,0,1,156.647,393.84Z" transform="translate(-126.983 -186.682)"/><path class="h" d="M256.228,379.152c.365.729,1.028,1.918,1.554,2.815a.627.627,0,0,1-.219.846,43.418,43.418,0,0,1-7.345,3.129.62.62,0,0,1-.729-.212l-1.736-2.3a.627.627,0,0,1,.219-.941l7.4-3.6a.613.613,0,0,1,.861.263Z" transform="translate(-154.26 -182.824)"/><path class="m" d="M256.228,379.152c.365.729,1.028,1.918,1.554,2.815a.627.627,0,0,1-.219.846,43.418,43.418,0,0,1-7.345,3.129.62.62,0,0,1-.729-.212l-1.736-2.3a.627.627,0,0,1,.219-.941l7.4-3.6a.613.613,0,0,1,.861.263Z" transform="translate(-154.26 -182.824)"/><path class="j" d="M173.041,169.474c.729,2.742,1.867,5.755,3.253,12.4,1.276,5.58,2.188,15.39,2.48,24.026-3.749,3.341-16.214,2.772-28.723,2.188-.036-8.133-3.377-15.638-12.458-32.29a6.718,6.718,0,0,1,3.647-9.788c1.087-.365,2.246-.729,3.45-1.065a93.219,93.219,0,0,1,12.75-2.917c1.415-.19,2.917-.336,4.3-.46A10.846,10.846,0,0,1,173.041,169.474Z" transform="translate(-124.23 -124.026)"/><path class="k" d="M173.041,169.474c.729,2.742,1.867,5.755,3.253,12.4,1.276,5.58,2.188,15.39,2.48,24.026-3.749,3.341-16.214,2.772-28.723,2.188-.036-8.133-3.377-15.638-12.458-32.29a6.718,6.718,0,0,1,3.647-9.788c1.087-.365,2.246-.729,3.45-1.065a93.219,93.219,0,0,1,12.75-2.917c1.415-.19,2.917-.336,4.3-.46A10.846,10.846,0,0,1,173.041,169.474Z" transform="translate(-124.23 -124.026)"/><path class="f" d="M161.524,162.2l-12.874,2.772a91.12,91.12,0,0,1,18.767,11.043C169.693,164.549,161.524,162.2,161.524,162.2Z" transform="translate(-127.475 -124.206)"/><path class="i" d="M144.44,146.23c2.042,3.851,5.106,11.057,3.071,14.405,0,0,11.619,3.355,17.819,8.687.831-8.621-4.945-11.444-4.945-11.444-4.9,0-5.937-3.545-6.1-6.856Z" transform="translate(-126.336 -119.885)"/><path class="f" d="M156.429,165.961a41.435,41.435,0,0,1-7.892-.926.182.182,0,0,1-.139-.219.19.19,0,0,1,.219-.139c.073,0,6.951,1.539,10.941.627,1.276-.292,2.028-.729,2.188-1.393a2.122,2.122,0,0,0-.576-1.758.183.183,0,0,1,.255-.263,2.458,2.458,0,0,1,.664,2.115c-.233.729-1.072,1.32-2.487,1.641A14.908,14.908,0,0,1,156.429,165.961Z" transform="translate(-127.406 -124.109)"/><path class="j" d="M165.957,166.97h0a.729.729,0,0,1-.985-.139l-.4-.525a.729.729,0,0,1,.139-.985h0a.729.729,0,0,1,.985.139l.4.532A.729.729,0,0,1,165.957,166.97Z" transform="translate(-131.748 -125.015)"/><path class="l" d="M149.94,148.91l5.835,2.837a12.77,12.77,0,0,0,.292,2.312c-1.823.146-4.807-1.189-5.543-2.918A6.382,6.382,0,0,1,149.94,148.91Z" transform="translate(-127.825 -120.61)"/><path class="i" d="M136.013,133.426c3.005,6.229,4.136,8.92,8.753,11.057,6.907,3.217,13.968-1.371,12.9-8.257-.955-6.2-5.7-15.317-13.041-15.689a8.855,8.855,0,0,0-8.614,12.888Z" transform="translate(-123.788 -112.923)"/><path class="h" d="M137.094,125.621c3.26,4.632,3.093,12.232-.729,13.26-5.835-.9-7.1-2.414-7.1-2.414S131.127,122.179,137.094,125.621Z" transform="translate(-122.228 -114.163)"/><path class="h" d="M133.7,125.877c8.621,1.1,15.485-2.5,16.776-4.522C142.671,116.082,134.553,120.568,133.7,125.877Z" transform="translate(-123.43 -112.515)"/><path class="n" d="M158.38,133.29a17.191,17.191,0,0,0,3.362,2.742c-.423.9-1.75,1.021-1.75,1.021Z" transform="translate(-130.109 -116.383)"/><path class="h" d="M156.466,142a5.943,5.943,0,0,0,.926-.233.153.153,0,0,0,.088-.212.182.182,0,0,0-.226-.1A4.821,4.821,0,0,1,153.1,141a.168.168,0,0,0-.233,0,.175.175,0,0,0,.044.233,5.062,5.062,0,0,0,3.552.766Z" transform="translate(-128.61 -118.457)"/><path class="i" d="M136.251,145.283a4.726,4.726,0,0,0,3.807.46c1.546-.54,1.094-2.422-.365-3.647-1.306-1.079-3.691-2.093-4.741-.9S134.69,144.415,136.251,145.283Z" transform="translate(-123.639 -118.376)"/><path class="f" d="M139.89,147.52a2.122,2.122,0,1,0,1.508.622A2.13,2.13,0,0,0,139.89,147.52Zm0,3.756a1.627,1.627,0,1,1,1.155-.474A1.634,1.634,0,0,1,139.89,151.276Z" transform="translate(-124.528 -120.234)"/><path class="h" d="M146.987,131.594a.285.285,0,0,0,.139-.212,2.48,2.48,0,0,1,1.364-1.926.314.314,0,0,0,.16-.43.357.357,0,0,0-.46-.168,3.071,3.071,0,0,0-1.751,2.407.357.357,0,0,0,.547.328Z" transform="translate(-126.877 -115.176)"/><path class="h" d="M160.222,126.8a.284.284,0,0,0,.219-.117.336.336,0,0,0-.08-.467,3.538,3.538,0,0,0-3.071-.729.306.306,0,0,0-.19.416.365.365,0,0,0,.438.219,2.823,2.823,0,0,1,2.429.576.306.306,0,0,0,.255.1Z" transform="translate(-129.755 -114.246)"/><path class="h" d="M160.739,130.408c.182.54.051,1.072-.306,1.2s-.8-.226-.985-.766-.051-1.079.306-1.2S160.557,129.9,160.739,130.408Z" transform="translate(-130.375 -115.39)"/><path class="h" d="M152.069,133.99c.19.54.051,1.072-.306,1.2s-.8-.226-.985-.729-.051-1.079.306-1.2S151.88,133.443,152.069,133.99Z" transform="translate(-128.028 -116.368)"/><path class="h" d="M150.81,133.174l.6-1.284S151.751,133.115,150.81,133.174Z" transform="translate(-128.06 -116.004)"/><path class="h" d="M159.42,129.714l.6-1.284S160.361,129.648,159.42,129.714Z" transform="translate(-130.39 -115.068)"/><path class="o" d="M146.651,182.15l-6.331,2.378c2.6,4.828,4.668,8.826,6.251,12.3a87.183,87.183,0,0,1,.08-14.675Z" transform="translate(-125.221 -129.605)"/><rect class="j" width="8.322" height="119.917" transform="translate(69.379 223.278) rotate(180)"/><path class="l" d="M203.34,251.83h8.322V272l-8.322-2.144Z" transform="translate(-142.276 -148.462)"/><path class="j" d="M0,0H74.236V13.9A19.051,19.051,0,0,1,55.185,32.953H19.051A19.051,19.051,0,0,1,0,13.9Z" transform="translate(109.721 118.298) rotate(180)"/><path class="i" d="M171.55,240.013l-1.233-1.758a2.509,2.509,0,0,0-2.028-1.065h-3.778a4.661,4.661,0,0,0-3.815,1.926l-.547.729c1.845,3.063,6.09,5,6.09,5l1.152.693a2.071,2.071,0,0,0,2.881-.656l1.393-2.254A2.407,2.407,0,0,0,171.55,240.013Z" transform="translate(-130.588 -144.5)"/><path class="j" d="M146.662,178.027c-.19.4-.438.985-.649,1.459l-.649,1.619c-.423,1.087-.824,2.188-1.189,3.29a60.617,60.617,0,0,0-1.8,6.666c-.219,1.109-.4,2.188-.54,3.3a31.745,31.745,0,0,0-.19,3.173,12.954,12.954,0,0,0,.926,5.237l.277.584a1.161,1.161,0,0,1,.051.146,12.969,12.969,0,0,0,2.122,4.012,36.915,36.915,0,0,0,3.574,4.121c1.342,1.313,2.779,2.589,4.267,3.815.729.613,1.517,1.2,2.29,1.78s1.59,1.16,2.312,1.634l-4.136,6.564c-.992-.62-1.831-1.189-2.728-1.794s-1.743-1.225-2.6-1.86c-1.721-1.255-3.406-2.589-5.047-4.033a45.745,45.745,0,0,1-4.77-4.748,26.066,26.066,0,0,1-2.188-2.918,19.313,19.313,0,0,1-1.845-3.552l.328.729a21.786,21.786,0,0,1-2.64-9.249,46.315,46.315,0,0,1,.233-8.519,73.988,73.988,0,0,1,1.4-8.023q.438-1.962.977-3.909c.175-.649.357-1.291.554-1.94s.387-1.262.656-2.035Z" transform="translate(-122.898 -127.283)"/><path class="k" d="M146.662,178.027c-.19.4-.438.985-.649,1.459l-.649,1.619c-.423,1.087-.824,2.188-1.189,3.29a60.617,60.617,0,0,0-1.8,6.666c-.219,1.109-.4,2.188-.54,3.3a31.745,31.745,0,0,0-.19,3.173,12.954,12.954,0,0,0,.926,5.237l.277.584a1.161,1.161,0,0,1,.051.146,12.969,12.969,0,0,0,2.122,4.012,36.915,36.915,0,0,0,3.574,4.121c1.342,1.313,2.779,2.589,4.267,3.815.729.613,1.517,1.2,2.29,1.78s1.59,1.16,2.312,1.634l-4.136,6.564c-.992-.62-1.831-1.189-2.728-1.794s-1.743-1.225-2.6-1.86c-1.721-1.255-3.406-2.589-5.047-4.033a45.745,45.745,0,0,1-4.77-4.748,26.066,26.066,0,0,1-2.188-2.918,19.313,19.313,0,0,1-1.845-3.552l.328.729a21.786,21.786,0,0,1-2.64-9.249,46.315,46.315,0,0,1,.233-8.519,73.988,73.988,0,0,1,1.4-8.023q.438-1.962.977-3.909c.175-.649.357-1.291.554-1.94s.387-1.262.656-2.035Z" transform="translate(-122.898 -127.283)"/><rect class="m" width="36.133" height="9.183" transform="translate(71.618 114.177) rotate(180)"/><path class="l" d="M217.81,260.073v-13.9a19.051,19.051,0,1,1,38.1,0v13.9" transform="translate(-146.192 -141.775)"/><rect class="j" width="52.136" height="2.443" transform="translate(123.754 120.742) rotate(180)"/><rect class="l" width="38.103" height="2.443" transform="translate(123.754 120.742) rotate(180)"/><rect class="e" width="1.349" height="32.187" transform="translate(66.578 108.32) rotate(180)"/><path class="j" d="M198.51,221.117h9.438v-4.624a.613.613,0,0,0-.613-.613H198.51l1.546,2.618Z" transform="translate(-140.969 -138.733)"/></g><g transform="translate(178.115 72.401)"><path class="j" d="M328.446,87.782a.365.365,0,0,1-.35-.284.357.357,0,0,1,.27-.438,17.025,17.025,0,0,0,2.378-.729.365.365,0,0,1,.27.678,17.223,17.223,0,0,1-2.48.78Z" transform="translate(-267.397 -84.908)"/><path class="j" d="M278.519,213.264a.372.372,0,0,1-.365-.35.365.365,0,0,1,.35-.379c1.685-.088,3.406-.241,5.106-.467a.372.372,0,0,1,.408.314.357.357,0,0,1-.314.408c-1.721.233-3.465.387-5.171.467Zm10.211-1.349a.367.367,0,0,1-.08-.729c1.714-.372,3.384-.81,4.96-1.306a.365.365,0,1,1,.219.693c-1.6.5-3.282.948-5.025,1.327Zm9.81-3.151a.357.357,0,0,1-.328-.212.365.365,0,0,1,.175-.489,26.541,26.541,0,0,0,3.567-1.933l.868-.584a.365.365,0,0,1,.5.1.357.357,0,0,1-.095.5l-.875.583a27.136,27.136,0,0,1-3.647,1.991.394.394,0,0,1-.146.036Zm8.585-5.682a.379.379,0,0,1-.277-.124.372.372,0,0,1,.036-.518,30.975,30.975,0,0,0,3.581-3.647.372.372,0,0,1,.518-.044.357.357,0,0,1,.044.511,32.5,32.5,0,0,1-3.647,3.713.357.357,0,0,1-.233.109Zm6.484-7.95a.335.335,0,0,1-.168-.044.365.365,0,0,1-.16-.489q.357-.686.656-1.4a22.868,22.868,0,0,0,1.094-3.355.375.375,0,1,1,.729.175,22.922,22.922,0,0,1-1.131,3.465c-.2.489-.43.97-.678,1.459a.357.357,0,0,1-.321.19Zm2.531-9.934h0a.365.365,0,0,1-.343-.394c.066-.992.1-2.042.1-3.2v-1.918a.365.365,0,0,1,.357-.379.357.357,0,0,1,.372.357v1.94c0,1.182-.036,2.246-.1,3.253a.365.365,0,0,1-.365.343ZM316,174.877a.365.365,0,0,1-.365-.343c-.066-1.459-.131-3.078-.131-4.668v-.518a.336.336,0,0,1,.365-.357.365.365,0,0,1,.365.365v.511c0,1.575.066,3.158.131,4.632a.365.365,0,0,1-.35.379Zm31.181-4.493c-.664,0-1.313,0-1.933-.044a.365.365,0,1,1,.029-.729c.613,0,1.255.044,1.9.044a29.093,29.093,0,0,0,3.2-.16.367.367,0,1,1,.08.729,30.633,30.633,0,0,1-3.26.16Zm-7.068-.372h0c-1.707-.131-3.443-.284-5.149-.46a.367.367,0,1,1,.073-.729c1.7.175,3.428.336,5.106.467a.365.365,0,0,1,0,.729Zm15.317-1.043a.379.379,0,0,1-.336-.212.365.365,0,0,1,.182-.481,8.162,8.162,0,0,0,3.713-3.151.365.365,0,1,1,.62.379,8.848,8.848,0,0,1-4.026,3.435A.379.379,0,0,1,355.432,168.969Zm-25.565,0h-.044c-1.7-.219-3.428-.467-5.106-.729a.365.365,0,0,1-.306-.416.372.372,0,0,1,.416-.306c1.692.263,3.406.511,5.106.729a.365.365,0,0,1-.044.729Zm-10.211-1.583h-.066c-1.685-.306-3.392-.642-5.069-.992a.372.372,0,1,1,.146-.729c1.678.35,3.377.686,5.055.992a.365.365,0,0,1,.3.423.372.372,0,0,1-.357.292Zm-10.1-2.115h-.087c-1.663-.394-3.355-.817-5.011-1.255a.376.376,0,1,1,.182-.729c1.656.438,3.333.861,5,1.247a.379.379,0,0,1,.277.445.365.365,0,0,1-.35.277Zm6.7-.686h-.058a.372.372,0,0,1-.306-.416,25.652,25.652,0,0,1,1.291-5.084.365.365,0,1,1,.686.248,24.8,24.8,0,0,0-1.24,4.931.365.365,0,0,1-.365.306Zm-16.681-1.947a.263.263,0,0,1-.1,0c-1.641-.474-3.311-.985-4.945-1.51a.357.357,0,0,1-.233-.46.365.365,0,0,1,.46-.233c1.627.518,3.282,1.028,4.923,1.5a.365.365,0,0,1,.248.452.357.357,0,0,1-.343.233Zm60.765-1.875a.372.372,0,0,1-.357-.3,7.629,7.629,0,0,0-2.582-4.092.357.357,0,0,1,0-.511.365.365,0,0,1,.518,0,8.293,8.293,0,0,1,2.808,4.493.365.365,0,0,1-.284.43Zm-70.589-1.276a.343.343,0,0,1-.124,0c-1.663-.591-3.289-1.2-4.85-1.816a.372.372,0,0,1-.2-.474.365.365,0,0,1,.474-.2c1.546.613,3.173,1.218,4.821,1.809a.342.342,0,0,1-.109.671Zm-9.6-3.815a.335.335,0,0,1-.146,0c-1.6-.729-3.18-1.459-4.675-2.225a.365.365,0,1,1,.328-.649c1.459.729,3.049,1.459,4.646,2.188a.373.373,0,0,1-.153.729Zm39.766-.635a.4.4,0,0,1-.219-.066.365.365,0,0,1-.073-.511,14.106,14.106,0,0,1,3.465-3.355l.379-.241a.365.365,0,1,1,.387.62l-.357.226a13.443,13.443,0,0,0-3.289,3.18.372.372,0,0,1-.284.131Zm33.457-1.459a.386.386,0,0,1-.175-.044c-.613-.328-1.211-.635-1.78-.919-.926-.452-1.882-.875-2.845-1.255a.365.365,0,1,1,.263-.678c.985.379,1.962.817,2.918,1.284.569.284,1.182.591,1.8.926a.372.372,0,0,1,.146.5.357.357,0,0,1-.321.175Zm-82.42-2.589a.328.328,0,0,1-.182-.051c-1.524-.883-3.005-1.8-4.376-2.742a.365.365,0,0,1,.4-.605c1.386.926,2.852,1.845,4.376,2.721a.365.365,0,0,1-.182.678Zm72.828-1.145h-.088a36.865,36.865,0,0,0-5.04-.831.365.365,0,0,1-.328-.394.372.372,0,0,1,.4-.328,37.134,37.134,0,0,1,5.106.846.367.367,0,1,1-.08.729Zm-15.353-.233a.372.372,0,0,1-.357-.284.365.365,0,0,1,.27-.438,26.561,26.561,0,0,1,3.895-.62c.423,0,.853-.066,1.276-.088a.35.35,0,0,1,.387.343.365.365,0,0,1-.343.379c-.423,0-.839.058-1.255.095a25.914,25.914,0,0,0-3.785.6Zm-66.031-4.376a.365.365,0,0,1-.226-.073c-1.386-1.087-2.713-2.225-3.946-3.37a.365.365,0,0,1,0-.518.372.372,0,0,1,.518,0c1.218,1.138,2.531,2.261,3.9,3.333a.365.365,0,0,1,.058.511.35.35,0,0,1-.3.095Zm-7.527-7.038a.379.379,0,0,1-.277-.124,44.666,44.666,0,0,1-3.2-4.1.372.372,0,0,1,.088-.511.379.379,0,0,1,.511.095,43.253,43.253,0,0,0,3.195,4.012.355.355,0,0,1-.306.605Zm-5.835-8.483a.357.357,0,0,1-.321-.2,36.889,36.889,0,0,1-2.064-4.777.372.372,0,0,1,.226-.467.365.365,0,0,1,.46.226,35.988,35.988,0,0,0,2.028,4.69.365.365,0,0,1-.16.489.336.336,0,0,1-.168.022Zm-3.333-9.744a.357.357,0,0,1-.357-.306c-.073-.387-.131-.773-.19-1.167a28.5,28.5,0,0,1-.27-3.88v-.153a.365.365,0,1,1,.729,0v.146a26.994,26.994,0,0,0,.263,3.778c.058.387.117.766.182,1.145a.365.365,0,0,1-.292.423Zm.036-10.27h-.066a.365.365,0,0,1-.292-.423,30.971,30.971,0,0,1,1.379-5.033.379.379,0,0,1,.474-.219.365.365,0,0,1,.211.467,29.75,29.75,0,0,0-1.349,4.916.357.357,0,0,1-.394.292Zm3.559-9.635a.43.43,0,0,1-.182-.051.372.372,0,0,1-.131-.5,28.546,28.546,0,0,1,3.027-4.252.365.365,0,0,1,.547.474,28.759,28.759,0,0,0-2.918,4.15.365.365,0,0,1-.365.182ZM256.01,92.3a.365.365,0,0,1-.226-.649,27.3,27.3,0,0,1,4.413-2.794.367.367,0,1,1,.328.656,26.986,26.986,0,0,0-4.3,2.713.357.357,0,0,1-.241.073Zm44.8-4.544h0a39.222,39.222,0,0,1-5.186-.46.368.368,0,0,1,.1-.729,37.928,37.928,0,0,0,5.106.452.365.365,0,0,1,0,.729Zm-35.7-.19a.369.369,0,0,1-.117-.729,44.329,44.329,0,0,1,5.033-1.313.365.365,0,0,1,.43.292.35.35,0,0,1-.284.423,44.493,44.493,0,0,0-4.953,1.291Zm25.47-1.145h-.066c-1.568-.292-3.341-.62-5.106-.868a.365.365,0,0,1-.306-.408.357.357,0,0,1,.408-.314c1.75.248,3.53.583,5.106.875a.365.365,0,0,1,.292.423.372.372,0,0,1-.328.314Zm-15.375-.941a.365.365,0,0,1-.044-.729c.926-.1,1.918-.2,2.918-.277.642-.051,1.32-.08,2.013-.08h.241a.365.365,0,0,1,.357.372.379.379,0,0,1-.365.357h-.233a17.319,17.319,0,0,0-1.962.073c-1.007.08-1.984.175-2.918.284Z" transform="translate(-244.88 -84.39)"/><path class="j" d="M282.748,260.763h0c-.868-.036-1.729-.1-2.56-.182a.357.357,0,0,1-.328-.394.35.35,0,0,1,.394-.328c.824.08,1.67.139,2.531.175a.365.365,0,0,1,0,.729Z" transform="translate(-254.346 -131.875)"/><g class="p"><path class="f" d="M328.446,87.782a.365.365,0,0,1-.35-.284.357.357,0,0,1,.27-.438,17.025,17.025,0,0,0,2.378-.729.365.365,0,0,1,.27.678,17.223,17.223,0,0,1-2.48.78Z" transform="translate(-267.397 -84.908)"/><path class="f" d="M278.519,213.264a.372.372,0,0,1-.365-.35.365.365,0,0,1,.35-.379c1.685-.088,3.406-.241,5.106-.467a.372.372,0,0,1,.408.314.357.357,0,0,1-.314.408c-1.721.233-3.465.387-5.171.467Zm10.211-1.349a.367.367,0,0,1-.08-.729c1.714-.372,3.384-.81,4.96-1.306a.365.365,0,1,1,.219.693c-1.6.5-3.282.948-5.025,1.327Zm9.81-3.151a.357.357,0,0,1-.328-.212.365.365,0,0,1,.175-.489,26.541,26.541,0,0,0,3.567-1.933l.868-.584a.365.365,0,0,1,.5.1.357.357,0,0,1-.095.5l-.875.583a27.136,27.136,0,0,1-3.647,1.991.394.394,0,0,1-.146.036Zm8.585-5.682a.379.379,0,0,1-.277-.124.372.372,0,0,1,.036-.518,30.975,30.975,0,0,0,3.581-3.647.372.372,0,0,1,.518-.044.357.357,0,0,1,.044.511,32.5,32.5,0,0,1-3.647,3.713.357.357,0,0,1-.233.109Zm6.484-7.95a.335.335,0,0,1-.168-.044.365.365,0,0,1-.16-.489q.357-.686.656-1.4a22.868,22.868,0,0,0,1.094-3.355.375.375,0,1,1,.729.175,22.922,22.922,0,0,1-1.131,3.465c-.2.489-.43.97-.678,1.459a.357.357,0,0,1-.321.19Zm2.531-9.934h0a.365.365,0,0,1-.343-.394c.066-.992.1-2.042.1-3.2v-1.918a.365.365,0,0,1,.357-.379.357.357,0,0,1,.372.357v1.94c0,1.182-.036,2.246-.1,3.253a.365.365,0,0,1-.365.343ZM316,174.877a.365.365,0,0,1-.365-.343c-.066-1.459-.131-3.078-.131-4.668v-.518a.336.336,0,0,1,.365-.357.365.365,0,0,1,.365.365v.511c0,1.575.066,3.158.131,4.632a.365.365,0,0,1-.35.379Zm31.181-4.493c-.664,0-1.313,0-1.933-.044a.365.365,0,1,1,.029-.729c.613,0,1.255.044,1.9.044a29.093,29.093,0,0,0,3.2-.16.367.367,0,1,1,.08.729,30.633,30.633,0,0,1-3.26.16Zm-7.068-.372h0c-1.707-.131-3.443-.284-5.149-.46a.367.367,0,1,1,.073-.729c1.7.175,3.428.336,5.106.467a.365.365,0,0,1,0,.729Zm15.317-1.043a.379.379,0,0,1-.336-.212.365.365,0,0,1,.182-.481,8.162,8.162,0,0,0,3.713-3.151.365.365,0,1,1,.62.379,8.848,8.848,0,0,1-4.026,3.435A.379.379,0,0,1,355.432,168.969Zm-25.565,0h-.044c-1.7-.219-3.428-.467-5.106-.729a.365.365,0,0,1-.306-.416.372.372,0,0,1,.416-.306c1.692.263,3.406.511,5.106.729a.365.365,0,0,1-.044.729Zm-10.211-1.583h-.066c-1.685-.306-3.392-.642-5.069-.992a.372.372,0,1,1,.146-.729c1.678.35,3.377.686,5.055.992a.365.365,0,0,1,.3.423.372.372,0,0,1-.357.292Zm-10.1-2.115h-.087c-1.663-.394-3.355-.817-5.011-1.255a.376.376,0,1,1,.182-.729c1.656.438,3.333.861,5,1.247a.379.379,0,0,1,.277.445.365.365,0,0,1-.35.277Zm6.7-.686h-.058a.372.372,0,0,1-.306-.416,25.652,25.652,0,0,1,1.291-5.084.365.365,0,1,1,.686.248,24.8,24.8,0,0,0-1.24,4.931.365.365,0,0,1-.365.306Zm-16.681-1.947a.263.263,0,0,1-.1,0c-1.641-.474-3.311-.985-4.945-1.51a.357.357,0,0,1-.233-.46.365.365,0,0,1,.46-.233c1.627.518,3.282,1.028,4.923,1.5a.365.365,0,0,1,.248.452.357.357,0,0,1-.343.233Zm60.765-1.875a.372.372,0,0,1-.357-.3,7.629,7.629,0,0,0-2.582-4.092.357.357,0,0,1,0-.511.365.365,0,0,1,.518,0,8.293,8.293,0,0,1,2.808,4.493.365.365,0,0,1-.284.43Zm-70.589-1.276a.343.343,0,0,1-.124,0c-1.663-.591-3.289-1.2-4.85-1.816a.372.372,0,0,1-.2-.474.365.365,0,0,1,.474-.2c1.546.613,3.173,1.218,4.821,1.809a.342.342,0,0,1-.109.671Zm-9.6-3.815a.335.335,0,0,1-.146,0c-1.6-.729-3.18-1.459-4.675-2.225a.365.365,0,1,1,.328-.649c1.459.729,3.049,1.459,4.646,2.188a.373.373,0,0,1-.153.729Zm39.766-.635a.4.4,0,0,1-.219-.066.365.365,0,0,1-.073-.511,14.106,14.106,0,0,1,3.465-3.355l.379-.241a.365.365,0,1,1,.387.62l-.357.226a13.443,13.443,0,0,0-3.289,3.18.372.372,0,0,1-.284.131Zm33.457-1.459a.386.386,0,0,1-.175-.044c-.613-.328-1.211-.635-1.78-.919-.926-.452-1.882-.875-2.845-1.255a.365.365,0,1,1,.263-.678c.985.379,1.962.817,2.918,1.284.569.284,1.182.591,1.8.926a.372.372,0,0,1,.146.5.357.357,0,0,1-.321.175Zm-82.42-2.589a.328.328,0,0,1-.182-.051c-1.524-.883-3.005-1.8-4.376-2.742a.365.365,0,0,1,.4-.605c1.386.926,2.852,1.845,4.376,2.721a.365.365,0,0,1-.182.678Zm72.828-1.145h-.088a36.865,36.865,0,0,0-5.04-.831.365.365,0,0,1-.328-.394.372.372,0,0,1,.4-.328,37.134,37.134,0,0,1,5.106.846.367.367,0,1,1-.08.729Zm-15.353-.233a.372.372,0,0,1-.357-.284.365.365,0,0,1,.27-.438,26.561,26.561,0,0,1,3.895-.62c.423,0,.853-.066,1.276-.088a.35.35,0,0,1,.387.343.365.365,0,0,1-.343.379c-.423,0-.839.058-1.255.095a25.914,25.914,0,0,0-3.785.6Zm-66.031-4.376a.365.365,0,0,1-.226-.073c-1.386-1.087-2.713-2.225-3.946-3.37a.365.365,0,0,1,0-.518.372.372,0,0,1,.518,0c1.218,1.138,2.531,2.261,3.9,3.333a.365.365,0,0,1,.058.511.35.35,0,0,1-.3.095Zm-7.527-7.038a.379.379,0,0,1-.277-.124,44.666,44.666,0,0,1-3.2-4.1.372.372,0,0,1,.088-.511.379.379,0,0,1,.511.095,43.253,43.253,0,0,0,3.195,4.012.355.355,0,0,1-.306.605Zm-5.835-8.483a.357.357,0,0,1-.321-.2,36.889,36.889,0,0,1-2.064-4.777.372.372,0,0,1,.226-.467.365.365,0,0,1,.46.226,35.988,35.988,0,0,0,2.028,4.69.365.365,0,0,1-.16.489.336.336,0,0,1-.168.022Zm-3.333-9.744a.357.357,0,0,1-.357-.306c-.073-.387-.131-.773-.19-1.167a28.5,28.5,0,0,1-.27-3.88v-.153a.365.365,0,1,1,.729,0v.146a26.994,26.994,0,0,0,.263,3.778c.058.387.117.766.182,1.145a.365.365,0,0,1-.292.423Zm.036-10.27h-.066a.365.365,0,0,1-.292-.423,30.971,30.971,0,0,1,1.379-5.033.379.379,0,0,1,.474-.219.365.365,0,0,1,.211.467,29.75,29.75,0,0,0-1.349,4.916.357.357,0,0,1-.394.292Zm3.559-9.635a.43.43,0,0,1-.182-.051.372.372,0,0,1-.131-.5,28.546,28.546,0,0,1,3.027-4.252.365.365,0,0,1,.547.474,28.759,28.759,0,0,0-2.918,4.15.365.365,0,0,1-.365.182ZM256.01,92.3a.365.365,0,0,1-.226-.649,27.3,27.3,0,0,1,4.413-2.794.367.367,0,1,1,.328.656,26.986,26.986,0,0,0-4.3,2.713.357.357,0,0,1-.241.073Zm44.8-4.544h0a39.222,39.222,0,0,1-5.186-.46.368.368,0,0,1,.1-.729,37.928,37.928,0,0,0,5.106.452.365.365,0,0,1,0,.729Zm-35.7-.19a.369.369,0,0,1-.117-.729,44.329,44.329,0,0,1,5.033-1.313.365.365,0,0,1,.43.292.35.35,0,0,1-.284.423,44.493,44.493,0,0,0-4.953,1.291Zm25.47-1.145h-.066c-1.568-.292-3.341-.62-5.106-.868a.365.365,0,0,1-.306-.408.357.357,0,0,1,.408-.314c1.75.248,3.53.583,5.106.875a.365.365,0,0,1,.292.423.372.372,0,0,1-.328.314Zm-15.375-.941a.365.365,0,0,1-.044-.729c.926-.1,1.918-.2,2.918-.277.642-.051,1.32-.08,2.013-.08h.241a.365.365,0,0,1,.357.372.379.379,0,0,1-.365.357h-.233a17.319,17.319,0,0,0-1.962.073c-1.007.08-1.984.175-2.918.284Z" transform="translate(-244.88 -84.39)"/><path class="f" d="M282.748,260.763h0c-.868-.036-1.729-.1-2.56-.182a.357.357,0,0,1-.328-.394.35.35,0,0,1,.394-.328c.824.08,1.67.139,2.531.175a.365.365,0,0,1,0,.729Z" transform="translate(-254.346 -131.875)"/></g></g><g transform="translate(245.58 47.062)"><rect class="j" width="30.473" height="16.367" rx="3.22" transform="translate(0.671 0) rotate(2.35)"/><rect class="q" width="30.473" height="16.367" rx="3.22" transform="translate(0.671 0) rotate(2.35)"/><path class="r" d="M353.485,62.325a.379.379,0,0,1-.212-.066L339.94,53.083a.365.365,0,0,1-.095-.511.372.372,0,0,1,.5-.095l13.129,9.059,13.858-7.95a.366.366,0,0,1,.365.635l-14.019,8.023a.343.343,0,0,1-.2.08Z" transform="translate(-338.041 -50.398)"/><path class="r" d="M374.164,68.652a.343.343,0,0,1-.2-.066l-7.629-5.3a.365.365,0,0,1-.095-.511.372.372,0,0,1,.511-.088L374.376,68a.357.357,0,0,1,.088.5A.365.365,0,0,1,374.164,68.652Z" transform="translate(-345.182 -53.159)"/><path class="r" d="M339.528,67.357a.365.365,0,0,1-.19-.686l8.023-4.653a.365.365,0,0,1,.365.627L339.7,67.306A.343.343,0,0,1,339.528,67.357Z" transform="translate(-337.869 -52.987)"/></g><g transform="translate(242.214 54.466)"><path class="j" d="M390.735,59.8,339.409,71.507l-6.579,4.063Z" transform="translate(-332.83 -59.8)"/><path class="l" d="M339.409,71.507l-6.579,4.063L390.735,59.8" transform="translate(-332.83 -59.8)"/><path class="j" d="M393.176,59.8,341.85,71.507l4.828,3.552Z" transform="translate(-335.271 -59.8)"/><path class="j" d="M394.968,59.8l-44,9-2.495,6.258Z" transform="translate(-337.062 -59.8)"/><path class="l" d="M394.968,59.8l-44,9-2.495,6.258Z" transform="translate(-337.062 -59.8)"/><path class="j" d="M395.893,59.8l-44,9,13.858,5.025Z" transform="translate(-337.988 -59.8)"/></g></g></svg>