<svg xmlns="http://www.w3.org/2000/svg" width="24" height="24" viewBox="0 0 24 24"><defs><style>.a{fill:none;}.b{fill:#3b3b3b;}</style></defs><g transform="translate(-2724 133)"><rect class="a" width="24" height="24" transform="translate(2724 -133)"/><g transform="translate(2033.008 -458.134)"><path class="b" d="M702.492,326.138a3.03,3.03,0,0,0-3.189,2.857v2.143H696.12a.711.711,0,0,0-.708.639L694,345.349a.719.719,0,0,0,.179.554.7.7,0,0,0,.528.235H710.28a.7.7,0,0,0,.529-.235.719.719,0,0,0,.179-.554l-1.416-13.572a.712.712,0,0,0-.708-.639h-3.186v-2.143A3.031,3.031,0,0,0,702.492,326.138Zm-1.77,2.857a1.811,1.811,0,0,1,3.54,0v2.143h-3.54Zm7.5,3.571,1.267,12.143h-14l1.267-12.143H699.3v1.429a.708.708,0,0,0,1.416,0h0v-1.428h3.54V334a.708.708,0,0,0,1.416,0v-1.429Z"/></g></g></svg>