<svg xmlns="http://www.w3.org/2000/svg" width="24" height="24" viewBox="0 0 24 24"><defs><style>.a{fill:none;}.b{fill:#fff;}</style></defs><g transform="translate(-2783 133)"><rect class="a" width="24" height="24" transform="translate(2783 -133)"/><path class="b" d="M738.749,341.325a8.785,8.785,0,0,0,11.712.653l.122-.1,3.806,3.8a.789.789,0,0,0,.572.249h.024a.734.734,0,0,0,.55-.243.862.862,0,0,0,.033-1.191l-3.835-3.8.1-.123a8.762,8.762,0,1,0-13.082.751Zm6.23-13.392h.033a7.137,7.137,0,0,1,5.014,12.21,7.164,7.164,0,0,1-5.046,2.113h-.028a7.052,7.052,0,0,1-5.022-2.116,7.164,7.164,0,0,1-2.11-5.046,7.208,7.208,0,0,1,7.159-7.16Z" transform="translate(2048.774 -457.345)"/></g></svg>